<?xml version="1.0" encoding="UTF-8"?>
<svg width="38px" height="38px" viewBox="0 0 38 38" version="1.1" xmlns="http://www.w3.org/2000/svg" xmlns:xlink="http://www.w3.org/1999/xlink">
    <!-- Generator: Sketch 63.1 (92452) - https://sketch.com -->
    <title>路径</title>
    <desc>Created with Sketch.</desc>
    <g id="定稿✅" stroke="none" stroke-width="1" fill="none" fill-rule="evenodd">
        <g id="Dark-Mode首页-默认-定稿" transform="translate(-33.000000, -638.000000)" fill="#FFFFFF" fill-rule="nonzero" stroke="#FFFFFF" stroke-width="0.3">
            <g id="主题" transform="translate(0.000000, 166.000000)">
                <g id="编组-10" transform="translate(0.000000, 432.000000)">
                    <g id="编组-7" transform="translate(33.000000, 40.000000)">
                        <g id="路径-2">
                            <path d="M35.5054562,17.4830231 L20.6237694,17.4877148 L20.6237694,2.50480286 C20.6237694,1.67414005 19.9514834,1 19.1231053,1 C18.2947271,1 17.6225218,1.67414005 17.6225218,2.50480286 L17.6225218,17.477199 L2.5052042,17.4688673 C2.5036715,17.4688673 2.50221951,17.4688673 2.50068681,17.4688673 C1.67384127,17.4688673 1.00308803,18.1384775 1,18.9691404 C0.995505288,19.7998032 1.66633918,20.4753993 2.49463671,20.4783922 L17.6224411,20.4867239 L17.6224411,35.4951971 C17.6224411,36.327316 18.2947271,37 19.1230246,37 C19.9513221,37 20.6236887,36.3273969 20.6236887,35.4951971 L20.6236887,20.4972396 L35.493356,20.492548 C35.4963407,20.492548 35.4978734,20.492548 35.4993254,20.492548 C36.326171,20.492548 36.9969242,19.8229378 37,18.9922749 C37.0030549,18.1616121 36.3323017,17.486016 35.5054562,17.4830231 Z" id="路径"></path>
                        </g>
                    </g>
                </g>
            </g>
        </g>
    </g>
</svg>