<?xml version="1.0" encoding="UTF-8"?>
<svg width="20px" height="6px" viewBox="0 0 20 6" version="1.1" xmlns="http://www.w3.org/2000/svg" xmlns:xlink="http://www.w3.org/1999/xlink">
    <!-- Generator: Sketch 63.1 (92452) - https://sketch.com -->
    <title>引用@1x</title>
    <desc>Created with Sketch.</desc>
    <g id="定稿✅" stroke="none" stroke-width="1" fill="none" fill-rule="evenodd">
        <g id="编辑器" transform="translate(-922.000000, -568.000000)" fill="#555555" fill-rule="nonzero">
            <g id="引用" transform="translate(922.000000, 568.000000)">
                <path d="M6.55175781,5.60253906 L6.55175781,3.21777344 L5.53125,3.21777344 L5.53125,2.97070312 C5.53125,2.390625 5.59391276,1.92333984 5.71923828,1.56884766 C5.8445638,1.21435547 6.03255208,0.969075521 6.28320312,0.833007812 L6.28320312,0.833007812 L6.28320312,0.0380859375 C5.57421875,0.217122396 5.04427083,0.621744792 4.69335938,1.25195312 C4.34244792,1.88216146 4.16699219,2.73795573 4.16699219,3.81933594 L4.16699219,3.81933594 L4.16699219,5.60253906 L6.55175781,5.60253906 Z M2.57714844,5.60253906 L2.57714844,3.21777344 L1.55664062,3.21777344 L1.55664062,2.97070312 C1.55664062,2.390625 1.61930339,1.92333984 1.74462891,1.56884766 C1.86995443,1.21435547 2.05794271,0.969075521 2.30859375,0.833007812 L2.30859375,0.833007812 L2.30859375,0.0380859375 C1.59960938,0.217122396 1.06966146,0.621744792 0.71875,1.25195312 C0.367838542,1.88216146 0.192382812,2.73795573 0.192382812,3.81933594 L0.192382812,3.81933594 L0.192382812,5.60253906 L2.57714844,5.60253906 Z M13.0878906,5.60253906 C13.7897135,5.43066406 14.3178711,5.0296224 14.6723633,4.39941406 C15.0268555,3.76920573 15.2041016,2.90983073 15.2041016,1.82128906 L15.2041016,1.82128906 L15.2041016,0.0380859375 L12.8193359,0.0380859375 L12.8193359,2.42285156 L13.8398438,2.42285156 L13.8398438,2.65917969 C13.8398438,3.24641927 13.777181,3.71907552 13.6518555,4.07714844 C13.5265299,4.43522135 13.3385417,4.67871094 13.0878906,4.80761719 L13.0878906,4.80761719 L13.0878906,5.60253906 Z M17.0625,5.60253906 C17.7643229,5.43066406 18.2924805,5.0296224 18.6469727,4.39941406 C19.0014648,3.76920573 19.1787109,2.90983073 19.1787109,1.82128906 L19.1787109,1.82128906 L19.1787109,0.0380859375 L16.7939453,0.0380859375 L16.7939453,2.42285156 L17.8144531,2.42285156 L17.8144531,2.65917969 C17.8144531,3.24641927 17.7517904,3.71907552 17.6264648,4.07714844 C17.5011393,4.43522135 17.313151,4.67871094 17.0625,4.80761719 L17.0625,4.80761719 L17.0625,5.60253906 Z" id="“”"></path>
            </g>
        </g>
    </g>
</svg>