<?xml version="1.0" encoding="UTF-8"?>
<svg width="45px" height="12px" viewBox="0 0 45 12" version="1.1" xmlns="http://www.w3.org/2000/svg" xmlns:xlink="http://www.w3.org/1999/xlink">
    <!-- Generator: Sketch 63.1 (92452) - https://sketch.com -->
    <title>引用@1x</title>
    <desc>Created with Sketch.</desc>
    <g id="定稿✅" stroke="none" stroke-width="1" fill="none" fill-rule="evenodd">
        <g id="编辑器" transform="translate(-876.000000, -1152.000000)" fill="#F9F9F9" fill-rule="nonzero">
            <g id="编辑器备份" transform="translate(72.000000, 1146.000000)">
                <g id="引用" transform="translate(804.000000, 6.000000)">
                    <path d="M6.55175781,5.60253906 L6.55175781,3.21777344 L5.53125,3.21777344 L5.53125,2.97070312 C5.53125,2.390625 5.59391276,1.92333984 5.71923828,1.56884766 C5.8445638,1.21435547 6.03255208,0.969075521 6.28320312,0.833007812 L6.28320312,0.833007812 L6.28320312,0.0380859375 C5.57421875,0.217122396 5.04427083,0.621744792 4.69335938,1.25195312 C4.34244792,1.88216146 4.16699219,2.73795573 4.16699219,3.81933594 L4.16699219,3.81933594 L4.16699219,5.60253906 L6.55175781,5.60253906 Z M2.57714844,5.60253906 L2.57714844,3.21777344 L1.55664062,3.21777344 L1.55664062,2.97070312 C1.55664062,2.390625 1.61930339,1.92333984 1.74462891,1.56884766 C1.86995443,1.21435547 2.05794271,0.969075521 2.30859375,0.833007812 L2.30859375,0.833007812 L2.30859375,0.0380859375 C1.59960938,0.217122396 1.06966146,0.621744792 0.71875,1.25195312 C0.367838542,1.88216146 0.192382812,2.73795573 0.192382812,3.81933594 L0.192382812,3.81933594 L0.192382812,5.60253906 L2.57714844,5.60253906 Z M38.0878906,5.60253906 C38.7897135,5.43066406 39.3178711,5.0296224 39.6723633,4.39941406 C40.0268555,3.76920573 40.2041016,2.90983073 40.2041016,1.82128906 L40.2041016,1.82128906 L40.2041016,0.0380859375 L37.8193359,0.0380859375 L37.8193359,2.42285156 L38.8398438,2.42285156 L38.8398438,2.65917969 C38.8398438,3.24641927 38.777181,3.71907552 38.6518555,4.07714844 C38.5265299,4.43522135 38.3385417,4.67871094 38.0878906,4.80761719 L38.0878906,4.80761719 L38.0878906,5.60253906 Z M42.0625,5.60253906 C42.7643229,5.43066406 43.2924805,5.0296224 43.6469727,4.39941406 C44.0014648,3.76920573 44.1787109,2.90983073 44.1787109,1.82128906 L44.1787109,1.82128906 L44.1787109,0.0380859375 L41.7939453,0.0380859375 L41.7939453,2.42285156 L42.8144531,2.42285156 L42.8144531,2.65917969 C42.8144531,3.24641927 42.7517904,3.71907552 42.6264648,4.07714844 C42.5011393,4.43522135 42.313151,4.67871094 42.0625,4.80761719 L42.0625,4.80761719 L42.0625,5.60253906 Z" id="“”"></path>
                    <path d="M20.14,11.212 L20.14,0.196 L19.276,0.196 L19.276,11.212 L20.14,11.212 Z M13.996,11.128 C15.304,11.08 16.048,10.72 16.216,10.048 C16.384,9.424 16.468,8.116 16.468,6.136 L11.8,6.136 L12.22,4.144 L16.348,4.144 L16.348,0.676 L11.128,0.676 L11.128,1.468 L15.496,1.468 L15.496,3.34 L11.5,3.34 L10.876,6.916 L15.604,6.916 C15.604,8.32 15.532,9.244 15.4,9.688 C15.256,10.108 14.716,10.324 13.804,10.324 C13.42,10.324 13.036,10.3 12.652,10.276 L12.868,11.08 C13.252,11.104 13.624,11.128 13.996,11.128 Z M23.164,11.092 C23.932,10.084 24.376,8.812 24.508,7.276 L27.604,7.276 L27.604,10.792 L28.492,10.792 L28.492,7.276 L31.756,7.276 L31.756,9.364 C31.756,9.868 31.528,10.12 31.096,10.12 C30.688,10.12 30.244,10.096 29.764,10.072 L29.992,10.924 L31.372,10.924 C32.212,10.924 32.632,10.504 32.632,9.664 L32.632,0.676 L23.692,0.676 L23.692,6.436 C23.668,8.08 23.272,9.436 22.504,10.504 L23.164,11.092 Z M31.756,3.58 L28.492,3.58 L28.492,1.516 L31.756,1.516 L31.756,3.58 Z M27.604,3.58 L24.556,3.58 L24.556,1.516 L27.604,1.516 L27.604,3.58 Z M27.604,6.484 L24.556,6.484 L24.556,4.384 L27.604,4.384 L27.604,6.484 Z M31.756,6.484 L28.492,6.484 L28.492,4.384 L31.756,4.384 L31.756,6.484 Z"></path>
                </g>
            </g>
        </g>
    </g>
</svg>