<?xml version="1.0" encoding="UTF-8"?>
<svg width="10px" height="10px" viewBox="0 0 10 10" version="1.1" xmlns="http://www.w3.org/2000/svg" xmlns:xlink="http://www.w3.org/1999/xlink">
    <!-- Generator: Sketch 63.1 (92452) - https://sketch.com -->
    <title>B@1x</title>
    <desc>Created with Sketch.</desc>
    <g id="定稿✅" stroke="none" stroke-width="1" fill="none" fill-rule="evenodd">
        <g id="编辑器" transform="translate(-396.000000, -1151.000000)" fill="#F9F9F9" fill-rule="nonzero">
            <g id="编辑器备份" transform="translate(72.000000, 1146.000000)">
                <path d="M329.544,15 C330.608,15 331.434,14.804 332.022,14.412 C332.708,13.936 333.058,13.208 333.058,12.2 C333.058,11.528 332.89,10.982 332.554,10.576 C332.218,10.17 331.714,9.904 331.056,9.778 C331.56,9.596 331.938,9.316 332.218,8.952 C332.498,8.56 332.638,8.084 332.638,7.524 C332.638,6.754 332.372,6.152 331.84,5.704 C331.28,5.228 330.524,5.004 329.544,5.004 L324.98,5.004 L324.98,15 L329.544,15 Z M329.138,9.246 L326.506,9.246 L326.506,6.264 L329.166,6.264 C329.838,6.264 330.342,6.376 330.65,6.614 C330.958,6.838 331.112,7.202 331.112,7.706 C331.112,8.238 330.958,8.63 330.65,8.882 C330.342,9.12 329.838,9.246 329.138,9.246 Z M329.334,13.74 L326.506,13.74 L326.506,10.492 L329.376,10.492 C330.104,10.492 330.65,10.618 331,10.884 C331.35,11.15 331.532,11.584 331.532,12.172 C331.532,12.746 331.294,13.166 330.846,13.432 C330.482,13.628 329.978,13.74 329.334,13.74 Z" id="B"></path>
            </g>
        </g>
    </g>
</svg>