<?xml version="1.0" encoding="UTF-8"?>
<svg width="38px" height="38px" viewBox="0 0 38 38" version="1.1" xmlns="http://www.w3.org/2000/svg" xmlns:xlink="http://www.w3.org/1999/xlink">
    <!-- Generator: Sketch 63.1 (92452) - https://sketch.com -->
    <title>加粗</title>
    <desc>Created with Sketch.</desc>
    <g id="定稿✅" stroke="none" stroke-width="1" fill="none" fill-rule="evenodd">
        <g id="手机-编辑器" transform="translate(-33.000000, -714.000000)" fill="#666666" fill-rule="nonzero">
            <g id="编组-11" transform="translate(0.000000, 166.000000)">
                <g id="编组-10" transform="translate(0.000000, 436.000000)">
                    <g id="编组-7" transform="translate(33.000000, 36.000000)">
                        <g id="加粗" transform="translate(0.000000, 76.000000)">
                            <g transform="translate(8.000000, 5.000000)" id="B">
                                <path d="M12.9270017,28.16 C15.9406586,28.16 18.280208,27.6078431 19.9456499,26.5035294 C21.8886655,25.162577 22.88,23.1117087 22.88,20.2720448 C22.88,18.3789356 22.4041594,16.8407843 21.4524783,15.6970308 C20.5007972,14.5532773 19.0732756,13.8039216 17.2095667,13.4489636 C18.6370884,12.9362465 19.7077296,12.147451 20.5007972,11.1220168 C21.2938648,10.0177031 21.6903986,8.6767507 21.6903986,7.09915966 C21.6903986,4.92997199 20.9369844,3.23406162 19.430156,1.9719888 C17.8440208,0.631036415 15.7027383,0 12.9270017,0 L0,0 L0,28.16 L12.9270017,28.16 Z M11.7770537,11.9502521 L4.32221837,11.9502521 L4.32221837,3.54957983 L11.8563605,3.54957983 C13.7597227,3.54957983 15.1872444,3.86509804 16.0596187,4.53557423 C16.9319931,5.16661064 17.3681802,6.19204482 17.3681802,7.61187675 C17.3681802,9.11058824 16.9319931,10.214902 16.0596187,10.9248179 C15.1872444,11.5952941 13.7597227,11.9502521 11.7770537,11.9502521 Z M12.332201,24.6104202 L4.32221837,24.6104202 L4.32221837,15.4603922 L12.4511612,15.4603922 C14.5131369,15.4603922 16.0596187,15.8153501 17.0509532,16.5647059 C18.0422877,17.3140616 18.5577816,18.5366947 18.5577816,20.1931653 C18.5577816,21.8101961 17.8836742,22.9933894 16.614766,23.7427451 C15.5837782,24.294902 14.1562565,24.6104202 12.332201,24.6104202 Z"></path>
                            </g>
                        </g>
                    </g>
                </g>
            </g>
        </g>
    </g>
</svg>