<?xml version="1.0" encoding="UTF-8"?>
<svg width="19px" height="18px" viewBox="0 0 19 18" version="1.1" xmlns="http://www.w3.org/2000/svg" xmlns:xlink="http://www.w3.org/1999/xlink">
    <!-- Generator: Sketch 63.1 (92452) - https://sketch.com -->
    <title>无序列表@1x</title>
    <desc>Created with Sketch.</desc>
    <g id="定稿✅" stroke="none" stroke-width="1" fill="none" fill-rule="evenodd">
        <g id="编辑器" transform="translate(-1030.000000, -1148.000000)" fill="#F9F9F9" fill-rule="nonzero">
            <g id="编组-2备份" transform="translate(963.000000, 1148.000000)">
                <g id="无序列表" transform="translate(67.000000, 0.000000)">
                    <path d="M2.20720433,12.5245698 C2.96504591,12.3787449 3.7539716,12.6576697 4.12109986,13.2078305 C4.44603086,13.6947565 4.36587578,14.2798394 3.94801427,14.6964942 L3.84,14.793 C4.22498163,15.1102203 4.39181767,15.5545759 4.29339995,15.9840203 L4.25586992,16.1122643 L4.20724365,16.2283064 C3.95270718,16.7560617 3.31659144,17.1002087 2.61040483,17.1 C1.67082591,17.0991965 0.901056869,16.49655 0.899999998,15.7391591 C0.899999998,15.5037431 1.12965409,15.323949 1.40262299,15.323949 C1.64526198,15.323949 1.85367655,15.4660085 1.89699535,15.6629175 L1.90524543,15.7391591 C1.90524543,15.9473274 2.0708904,16.1414105 2.33318351,16.2264682 C2.60315824,16.3140169 2.91476754,16.2654909 3.11823975,16.106194 C3.31163914,15.954783 3.36724226,15.7359365 3.26604872,15.5446737 C3.17318828,15.3691609 2.96348464,15.2435953 2.71776712,15.2149463 L2.61049033,15.2087388 C2.33752147,15.2087388 2.10786789,15.0289447 2.10786789,14.7935286 C2.10786789,14.5842699 2.28932257,14.4189594 2.52136058,14.3848072 L2.61049033,14.3783185 C3.00460817,14.3783185 3.31573522,14.1347394 3.31573522,13.8478981 C3.31573522,13.5610569 3.00460817,13.3174778 2.61049033,13.3174778 C2.25220137,13.3174778 1.96249986,13.5187828 1.91278793,13.7708918 L1.90524543,13.8478981 C1.90524543,14.0833142 1.67559185,14.2631083 1.40262299,14.2631083 C1.12965409,14.2631083 0.899999998,14.0833142 0.899999998,13.847972 C0.899532844,13.2148255 1.44320962,12.6715787 2.20720433,12.5245698 Z M17.5526316,14.6931034 C17.855556,14.6931034 18.1,14.9443237 18.1,15.2528735 C18.1,15.5305683 17.9020004,15.7618262 17.6415685,15.8053009 L17.5526316,15.8126436 L5.92105264,15.8126436 C5.61812819,15.8126436 5.37368421,15.5614233 5.37368421,15.2528735 C5.37368421,14.9751787 5.57168384,14.7439207 5.83211568,14.7004461 L5.92105264,14.6931034 L17.5526316,14.6931034 Z M2.61052659,6.96896548 C3.55092324,6.96896548 4.32105291,7.58456127 4.32105291,8.3563218 C4.32105291,8.68970844 4.15628662,8.97837073 3.83950532,9.20879476 C3.69325199,9.31519824 3.55543732,9.39058509 3.3228512,9.49318685 L2.84351666,9.69601427 C2.63806805,9.78562218 2.44197389,9.90545161 2.28280697,10.0363697 L2.17078646,10.1363384 L2.123,10.187 L3.81842134,10.1873563 C4.03098162,10.1873563 4.21695365,10.2982537 4.28911108,10.4597663 L4.31281314,10.5319092 L4.32105291,10.6091953 C4.32105291,10.8212121 4.13984616,10.9896151 3.90763644,11.0244205 L3.81842133,11.0310344 L1.40263186,11.0310344 C1.27373654,11.0310344 1.14922767,10.9898099 1.05549033,10.914882 C0.957043345,10.8361895 0.900000272,10.7261092 0.900000272,10.6091954 C0.900000272,10.2605337 1.07663991,9.90696334 1.40566202,9.58576696 C1.61094372,9.3855559 1.8727444,9.2007065 2.15886931,9.05210715 L2.44003223,8.92074071 L2.85708987,8.74361627 C3.21818446,8.58084199 3.31578974,8.48970185 3.31578974,8.35634095 C3.3157333,8.06164891 3.00429488,7.81274218 2.61052659,7.81274218 C2.25255541,7.81274218 1.96262545,8.01845022 1.91282695,8.27724379 L1.90526344,8.3563218 C1.90526344,8.59484067 1.67592365,8.77816088 1.40263185,8.77816088 C1.12934005,8.77816088 0.900000272,8.59484067 0.900000272,8.3563218 C0.900000272,7.58456248 1.67013295,6.96896548 2.61052659,6.96896548 Z M17.5526316,8.2563218 C17.855556,8.2563218 18.1,8.50754212 18.1,8.81609191 C18.1,9.09378672 17.9020004,9.32504467 17.6415685,9.36851931 L17.5526316,9.37586203 L5.92105264,9.37586203 C5.61812819,9.37586203 5.37368421,9.12464171 5.37368421,8.81609191 C5.37368421,8.5383971 5.57168384,8.30713916 5.83211568,8.26366452 L5.92105264,8.2563218 L17.5526316,8.2563218 Z M2.74473685,0.9 C2.88003036,0.9 3.0091166,0.958614951 3.1033195,1.06188358 C3.17733668,1.14302389 3.22511768,1.24652869 3.2412694,1.35723563 L3.24736842,1.44137932 L3.24736842,4.97241376 C3.24736842,5.1141142 3.19584097,5.25048411 3.1033195,5.3519095 C3.0091166,5.45517813 2.88003036,5.51379308 2.74473685,5.51379308 C2.60944334,5.51379308 2.4803571,5.45517813 2.3861542,5.3519095 C2.31213702,5.27076918 2.26435601,5.16726438 2.2482043,5.05655745 L2.24210528,4.97241376 L2.242,1.982 L1.93947369,1.98275862 C1.7218897,1.98275862 1.53870861,1.83495409 1.46803968,1.62949922 L1.44486922,1.53818036 L1.43684211,1.44137931 C1.43684211,1.17733542 1.61294541,0.954946398 1.84855743,0.908786417 L1.93947369,0.9 L2.74473685,0.9 Z M17.5526316,1.81954022 C17.855556,1.81954022 18.1,2.07076054 18.1,2.37931033 C18.1,2.65700514 17.9020004,2.88826308 17.6415685,2.93173772 L17.5526316,2.93908043 L5.92105263,2.93908043 C5.61812819,2.93908043 5.37368421,2.68786012 5.37368421,2.37931033 C5.37368421,2.10161552 5.57168383,1.87035758 5.83211567,1.82688294 L5.92105263,1.81954022 L17.5526316,1.81954022 Z" id="形状"></path>
                </g>
            </g>
        </g>
    </g>
</svg>