<?xml version="1.0" encoding="UTF-8"?>
<svg width="19px" height="18px" viewBox="0 0 19 18" version="1.1" xmlns="http://www.w3.org/2000/svg" xmlns:xlink="http://www.w3.org/1999/xlink">
    <!-- Generator: Sketch 63.1 (92452) - https://sketch.com -->
    <title>无序列表@1x</title>
    <desc>Created with Sketch.</desc>
    <g id="定稿✅" stroke="none" stroke-width="1" fill="none" fill-rule="evenodd">
        <g id="编辑器" transform="translate(-920.000000, -464.000000)" fill="#555555" fill-rule="nonzero" stroke="#555555" stroke-width="0.2">
            <g id="无序列表" transform="translate(921.000000, 465.000000)">
                <path d="M1.61049033,15.9999999 C0.721443816,15.9992398 0.000971354283,15.4351872 2.72116746e-07,14.7391591 C2.72116746e-07,14.5650734 0.180260753,14.423949 0.40262299,14.423949 C0.624985226,14.423949 0.805245435,14.5650734 0.805245435,14.7391591 C0.805245435,14.9941404 1.00143705,15.2240145 1.30233645,15.3215916 C1.60323584,15.4191687 1.94958602,15.3652326 2.17988445,15.1849336 C2.41018287,15.0046347 2.47907621,14.7334797 2.3544396,14.4979077 C2.22980299,14.2623358 1.93618148,14.1087388 1.61049033,14.1087388 C1.38812809,14.1087388 1.20786789,13.9676144 1.20786789,13.7935286 C1.20786789,13.6194429 1.38812809,13.4783185 1.61049033,13.4783185 C2.0552148,13.4783185 2.41573522,13.1960697 2.41573522,12.8478981 C2.41573522,12.4997266 2.0552148,12.2174778 1.61049033,12.2174778 C1.16576585,12.2174778 0.805245435,12.4997266 0.805245435,12.8478981 C0.805245435,13.0219839 0.624985226,13.1631083 0.40262299,13.1631083 C0.180260753,13.1631083 2.72116746e-07,13.0219839 2.72116746e-07,12.8478981 C-0.000428460994,12.2671989 0.505801523,11.7613692 1.22609984,11.6227684 C1.94639815,11.4841676 2.69445949,11.7486448 3.03791957,12.2633376 C3.38137965,12.7780304 3.23140245,13.4098133 2.67467175,13.7935286 C3.17759124,14.1400441 3.35382908,14.6941815 3.11717233,15.184865 C2.88051558,15.6755485 2.28043866,16.000198 1.61049033,15.9999999 L1.61049033,15.9999999 Z M16.5526316,14.7126436 L4.92105264,14.7126436 C4.67397788,14.7126436 4.47368421,14.5067975 4.47368421,14.2528735 C4.47368421,13.9989495 4.67397788,13.7931034 4.92105264,13.7931034 L16.5526316,13.7931034 C16.7997063,13.7931034 17,13.9989495 17,14.2528735 C17,14.5067975 16.7997063,14.7126436 16.5526316,14.7126436 L16.5526316,14.7126436 Z M2.81842133,9.93103443 L0.402631863,9.93103443 C0.295847328,9.93103443 0.193436407,9.89712648 0.117928336,9.83676995 C0.042420265,9.77641342 2.72116746e-07,9.69455239 2.72116746e-07,9.60919535 C2.72116746e-07,9.2900718 0.164450101,8.96099133 0.475483014,8.65735627 C0.722975606,8.41597696 1.05766312,8.19632179 1.41776672,8.03932468 C1.49326014,8.00613502 1.57101836,7.97415226 1.64575685,7.94317524 C2.18113103,7.721408 2.41578974,7.598908 2.41578974,7.3563218 C2.41572166,7.00086665 2.05521301,6.71274218 1.61052659,6.71274218 C1.16584017,6.71274218 0.805331513,7.00086665 0.805263435,7.3563218 C0.805263435,7.53406861 0.624999136,7.67816088 0.402631854,7.67816088 C0.180264571,7.67816088 2.72116746e-07,7.53406861 2.72116746e-07,7.3563218 C2.72116746e-07,6.64533454 0.721057465,6.06896548 1.61052659,6.06896548 C2.50000027,6.06896548 3.22105291,6.64533454 3.22105291,7.3563218 C3.22105291,7.65583328 3.07283416,7.91541662 2.78067462,8.12793099 C2.55658499,8.2909626 2.28204058,8.4047126 2.01655537,8.51464075 C1.94232018,8.54541662 1.8721113,8.57498558 1.8035381,8.6043534 C1.44796409,8.75943961 1.08924451,9.01670972 0.914603067,9.28735627 L2.81842133,9.28735627 C3.04078861,9.28735628 3.22105291,9.43144854 3.22105291,9.60919535 C3.22105291,9.78694215 3.04078861,9.93103443 2.81842133,9.93103443 L2.81842133,9.93103443 Z M16.5526316,8.27586203 L4.92105264,8.27586203 C4.67397788,8.27586203 4.47368421,8.07001594 4.47368421,7.81609191 C4.47368421,7.56216789 4.67397788,7.3563218 4.92105264,7.3563218 L16.5526316,7.3563218 C16.7997063,7.3563218 17,7.5621679 17,7.81609191 C17,8.07001593 16.7997063,8.27586203 16.5526316,8.27586203 L16.5526316,8.27586203 Z M1.74473685,4.41379308 C1.63795231,4.41379308 1.5355414,4.36729075 1.46003333,4.28451607 C1.38452526,4.20174139 1.34210527,4.08947483 1.34210528,3.97241376 L1.34210528,0.88275862 L0.939473687,0.88275862 C0.717106405,0.88275862 0.536842105,0.685146372 0.536842105,0.44137931 C0.536842105,0.197612248 0.717106405,0 0.939473687,0 L1.74473685,0 C1.85152139,0 1.9539323,0.0465023312 2.02944037,0.129277011 C2.10494844,0.212051691 2.14736842,0.324318248 2.14736842,0.44137932 L2.14736842,3.97241376 C2.14736842,4.08947483 2.10494844,4.20174139 2.02944037,4.28451607 C1.9539323,4.36729075 1.85152139,4.41379308 1.74473685,4.41379308 L1.74473685,4.41379308 Z M16.5526316,1.83908043 L4.92105263,1.83908043 C4.67397787,1.83908043 4.47368421,1.63323435 4.47368421,1.37931033 C4.47368421,1.12538631 4.67397787,0.919540225 4.92105263,0.919540225 L16.5526316,0.919540225 C16.7997063,0.919540225 17,1.12538631 17,1.37931033 C17,1.63323435 16.7997063,1.83908043 16.5526316,1.83908043 L16.5526316,1.83908043 Z" id="形状"></path>
            </g>
        </g>
    </g>
</svg>