<?xml version="1.0" encoding="UTF-8"?>
<svg width="19px" height="14px" viewBox="0 0 19 14" version="1.1" xmlns="http://www.w3.org/2000/svg" xmlns:xlink="http://www.w3.org/1999/xlink">
    <!-- Generator: Sketch 63.1 (92452) - https://sketch.com -->
    <title>代码@1x</title>
    <desc>Created with Sketch.</desc>
    <g id="定稿✅" stroke="none" stroke-width="1" fill="none" fill-rule="evenodd">
        <g id="编辑器" transform="translate(-963.000000, -1150.000000)" fill="#F9F9F9" fill-rule="nonzero">
            <g id="编组-2备份" transform="translate(963.000000, 1148.000000)">
                <g id="代码" transform="translate(0.000000, 2.000000)">
                    <path d="M13.5177695,2.92755114 C13.3868341,2.80697475 13.2108428,2.74769396 13.0336394,2.76447706 C12.856436,2.78126017 12.6947032,2.87252712 12.5887328,3.01554108 C12.3552254,3.32069646 12.3902639,3.75300183 12.6698664,4.01656953 L16.5837048,7.55902183 L12.6550109,11.1140441 C12.3780821,11.3753107 12.3435376,11.8036632 12.57502,12.1059307 C12.6800353,12.2475181 12.8403165,12.3377553 13.0158378,12.3541083 C13.1913591,12.3704612 13.3655514,12.311386 13.4949149,12.1916352 L18.0509657,8.06982059 C18.3278944,7.80855398 18.362439,7.38020147 18.1309565,7.07793395 C18.0673413,6.99447957 17.9846634,6.92747521 17.8898412,6.88252772 L13.5177695,2.92755114 Z M5.61581539,4.01656953 C5.89541789,3.75300182 5.93045634,3.32069645 5.69694897,3.01554108 C5.59097851,2.87252713 5.42924577,2.78126018 5.25204234,2.76447707 C5.07483891,2.74769397 4.89884764,2.80697476 4.7679123,2.92755114 L0.395840531,6.88252772 C0.182314512,6.98603773 0.0359767024,7.19091066 0.0073135,7.42646555 C-0.0266216318,7.66508158 0.0588101947,7.90514501 0.235858813,8.06867786 L4.79190955,12.192778 C4.92142544,12.3124049 5.09571628,12.3712868 5.27124508,12.3547151 C5.44677388,12.3381435 5.60696534,12.2476832 5.71180442,12.1059307 C5.94299512,11.80338 5.90795507,11.375003 5.63067083,11.1140441 L1.70083425,7.55673637 L5.61581539,4.01656953 Z M10.423266,0.0125699844 C10.7905216,0.0978985796 11.0246803,0.458220391 10.9534911,0.82847675 L9.57204895,13.3902411 C9.5452532,13.639617 9.38634188,13.8552824 9.1560965,13.954748 C8.9310717,14.0460042 8.67344652,13.996805 8.49788602,13.8290481 C8.31342796,13.6525403 8.2334482,13.3931465 8.28648159,13.1434122 L9.67020917,0.582790531 C9.69190684,0.405396528 9.78468481,0.244408929 9.92729491,0.136697371 C10.069905,0.0289858129 10.2501299,-0.0162220838 10.4266941,0.0114272656 L10.423266,0.0125699844 Z" id="形状"></path>
                </g>
            </g>
        </g>
    </g>
</svg>