<?xml version="1.0" encoding="UTF-8"?>
<svg width="16px" height="16px" viewBox="0 0 16 16" version="1.1" xmlns="http://www.w3.org/2000/svg" xmlns:xlink="http://www.w3.org/1999/xlink">
    <!-- Generator: Sketch 63.1 (92452) - https://sketch.com -->
    <title>代码块@1x</title>
    <desc>Created with Sketch.</desc>
    <g id="定稿✅" stroke="none" stroke-width="1" fill="none" fill-rule="evenodd">
        <g id="编辑器" transform="translate(-999.000000, -1149.000000)" fill="#F9F9F9" fill-rule="nonzero">
            <g id="编组-2备份" transform="translate(963.000000, 1148.000000)">
                <g id="代码块" transform="translate(36.000000, 1.000000)">
                    <path d="M1.7618874,0.623796793 C2.0945226,0.203136 2.56596739,-8.34887715e-13 3.17706821,-8.34887715e-13 L4.245225,-8.34887715e-13 L4.245225,1.17480319 L3.42675619,1.17480319 C2.899449,1.17480319 2.64976099,1.47950719 2.64976099,2.11684639 L2.64976099,5.80630399 C2.64976099,6.70518079 2.2468746,7.31374239 1.45633699,7.61844641 C2.2468746,7.96631681 2.64976099,8.56133601 2.64976099,9.4305888 L2.64976099,13.1335888 C2.64976099,13.7429968 2.899449,14.0612432 3.42675619,14.0612432 L4.245225,14.0612432 L4.245225,15.2352 L3.17706821,15.2352 C2.56596741,15.2352 2.0945226,15.0176752 1.7618874,14.6114032 C1.45633699,14.2347552 1.30398499,13.7125264 1.30398499,13.0743408 L1.30398499,9.50253281 C1.30398499,9.08187201 1.22019139,8.77716801 1.05429701,8.58842081 C0.859625013,8.35735361 0.512601,8.24139681 0.0132250066,8.2117728 L0.0132250066,7.0234272 C0.512601,6.99380321 0.859625013,6.8634576 1.05429701,6.64593281 C1.22019141,6.44279681 1.30398501,6.13809281 1.30398499,5.73266719 L1.30398499,2.17524799 C1.30398499,1.52267359 1.45633699,1.0004448 1.76104099,0.623796793 L1.7618874,0.623796793 Z M13.8069626,14.6114032 C13.4743274,15.032064 13.0028826,15.2352 12.3917818,15.2352 L11.323625,15.2352 L11.323625,14.0603968 L12.1420938,14.0603968 C12.669401,14.0603968 12.919089,13.7556928 12.919089,13.1183536 L12.919089,9.42889601 C12.919089,8.53001921 13.3219754,7.92145761 14.112513,7.61675359 C13.3219754,7.26888319 12.919089,6.67386399 12.919089,5.8046112 L12.919089,2.1024576 C12.919089,1.4930496 12.669401,1.17480319 12.1420938,1.17480319 L11.323625,1.17480319 L11.323625,-1.25233157e-12 L12.3917818,-1.25233157e-12 C13.0028826,-1.25233157e-12 13.4743274,0.217524793 13.8069626,0.623796793 C14.112513,1.0004448 14.264865,1.52267359 14.264865,2.16001279 L14.264865,5.73266719 C14.264865,6.15332799 14.3486586,6.45803199 14.514553,6.64677919 C14.709225,6.87784639 15.056249,6.99380319 15.555625,7.0234272 L15.555625,8.2117728 C15.056249,8.24139679 14.709225,8.3717424 14.514553,8.58926719 C14.3486586,8.79240319 14.264865,9.09710719 14.264865,9.50253281 L14.264865,13.059952 C14.264865,13.7125264 14.112513,14.2347552 13.807809,14.6114032 L13.8069626,14.6114032 Z" id="形状"></path>
                </g>
            </g>
        </g>
    </g>
</svg>