<?xml version="1.0" encoding="UTF-8"?>
<svg width="38px" height="38px" viewBox="0 0 38 38" version="1.1" xmlns="http://www.w3.org/2000/svg" xmlns:xlink="http://www.w3.org/1999/xlink">
    <!-- Generator: Sketch 63.1 (92452) - https://sketch.com -->
    <title>删除</title>
    <desc>Created with Sketch.</desc>
    <g id="定稿✅" stroke="none" stroke-width="1" fill="none" fill-rule="evenodd">
        <g id="手机-编辑器" transform="translate(-375.000000, -640.000000)" fill="#666666" fill-rule="nonzero" stroke="#666666" stroke-width="0.1">
            <g id="编组-11" transform="translate(0.000000, 166.000000)">
                <g id="编组-10" transform="translate(0.000000, 436.000000)">
                    <g id="编组-7" transform="translate(53.000000, 36.000000)">
                        <g id="删除-2" transform="translate(322.000000, 2.000000)">
                            <g id="删除" transform="translate(2.000000, 2.000000)">
                                <path d="M19.4841667,25.4083334 L19.4841667,11.9683334 C19.4841667,10.475 21.8308333,10.475 21.8308333,11.9683334 L21.8308333,25.4083334 C22.0441667,26.9016667 19.4841667,26.9016667 19.4841667,25.4083334 Z M12.2308333,25.4083334 L12.2308333,11.9683334 C12.2308333,10.475 14.5775,10.475 14.5775,11.9683334 L14.5775,25.4083334 C14.7908333,26.9016667 12.2308333,26.9016667 12.2308333,25.4083334 Z M32.9241667,5.99500001 L26.7375,5.99500001 L26.7375,3.64833334 C26.7375,1.72833334 25.0308333,0.021666675 23.1108333,0.021666675 L10.9508333,0.021666675 C9.88416667,0.021666675 9.03083332,0.44833335 8.39083335,1.08833333 C7.75083334,1.72833334 7.3241667,2.79499999 7.32416666,3.64833334 L7.32416666,5.99500001 L1.13749999,5.99500001 C-0.355833338,5.99500001 -0.355833338,8.34166665 1.13749999,8.34166665 L32.9241667,8.34166665 C34.6308333,8.34166665 34.6308333,5.99499998 32.9241667,5.99500001 Z M9.88416667,3.435 C9.88416667,2.79499999 10.5241667,2.15500001 11.1641667,2.15500001 L23.3241667,2.15500001 C23.9641667,2.15500001 24.6041667,2.58166669 24.6041667,3.435 L24.6041667,5.78166668 L9.88416667,5.78166668 L9.88416667,3.435 Z M25.6708333,33.9416667 L8.60416665,33.9416667 C7.5375,33.9416667 6.68416665,33.515 6.04416667,32.875 C5.40416666,32.235 4.97749999,31.1683334 4.97749999,30.315 L4.97749999,11.9683334 C4.97749999,11.3283333 5.6175,10.6883333 6.25750001,10.6883333 C6.89750002,10.6883333 7.5375,11.115 7.5375,11.9683334 L7.5375,30.315 C7.5375,30.955 8.17750001,31.595 8.81749999,31.595 L25.8841666,31.595 C26.5241667,31.595 27.1641666,30.955 27.1641667,30.315 L27.1641667,12.1816667 C27.1641667,10.6883333 29.5108333,10.6883333 29.5108333,12.1816667 L29.5108333,30.5283333 C29.2975,32.235 27.8041667,33.9416667 25.6708333,33.9416667 L25.6708333,33.9416667 Z" id="形状"></path>
                            </g>
                        </g>
                    </g>
                </g>
            </g>
        </g>
    </g>
</svg>