<?xml version="1.0" encoding="UTF-8"?>
<svg width="20px" height="15px" viewBox="0 0 20 15" version="1.1" xmlns="http://www.w3.org/2000/svg" xmlns:xlink="http://www.w3.org/1999/xlink">
    <!-- Generator: Sketch 63.1 (92452) - https://sketch.com -->
    <title>H1@1x</title>
    <desc>Created with Sketch.</desc>
    <g id="定稿✅" stroke="none" stroke-width="1" fill="none" fill-rule="evenodd">
        <g id="编辑器" transform="translate(-941.000000, -209.000000)" fill="#555555" fill-rule="nonzero">
            <path d="M942.740977,224 L942.740977,217.004202 L951.509554,217.004202 L951.509554,224 L953.250531,224 L953.250531,209 L951.509554,209 L951.509554,215.512605 L942.740977,215.512605 L942.740977,209 L941,209 L941,224 L942.740977,224 Z M961,224 L961,209 L959.641189,209 C959.131635,209.567227 958.537155,210.071429 957.815287,210.533613 C957.093418,210.953782 956.37155,211.247899 955.692144,211.436975 L955.692144,213.159664 C957.11465,212.739496 958.303609,212.067227 959.259023,211.10084 L959.259023,224 L961,224 Z" id="H1"></path>
        </g>
    </g>
</svg>