<?xml version="1.0" encoding="UTF-8"?>
<svg width="20px" height="15px" viewBox="0 0 20 15" version="1.1" xmlns="http://www.w3.org/2000/svg" xmlns:xlink="http://www.w3.org/1999/xlink">
    <!-- Generator: Sketch 63.1 (92452) - https://sketch.com -->
    <title>H1@1x</title>
    <desc>Created with Sketch.</desc>
    <g id="定稿✅" stroke="none" stroke-width="1" fill="none" fill-rule="evenodd">
        <g id="编辑器" transform="translate(-965.000000, -1232.000000)" fill="#F9F9F9" fill-rule="nonzero">
            <g id="编组-5" transform="translate(927.000000, 1228.000000)">
                <path d="M39.7409766,19 L39.7409766,12.0042017 L48.5095541,12.0042017 L48.5095541,19 L50.2505308,19 L50.2505308,4 L48.5095541,4 L48.5095541,10.512605 L39.7409766,10.512605 L39.7409766,4 L38,4 L38,19 L39.7409766,19 Z M58,19 L58,4 L56.641189,4 C56.1316348,4.56722689 55.537155,5.07142857 54.8152866,5.53361345 C54.0934183,5.95378151 53.3715499,6.24789916 52.6921444,6.43697479 L52.6921444,8.15966387 C54.1146497,7.7394958 55.3036093,7.06722689 56.2590234,6.10084034 L56.2590234,19 L58,19 Z" id="H1"></path>
            </g>
        </g>
    </g>
</svg>