<?xml version="1.0" encoding="UTF-8"?>
<svg width="25px" height="15px" viewBox="0 0 25 15" version="1.1" xmlns="http://www.w3.org/2000/svg" xmlns:xlink="http://www.w3.org/1999/xlink">
    <!-- Generator: Sketch 63.1 (92452) - https://sketch.com -->
    <title>H2@1x</title>
    <desc>Created with Sketch.</desc>
    <g id="定稿✅" stroke="none" stroke-width="1" fill="none" fill-rule="evenodd">
        <g id="编辑器" transform="translate(-981.000000, -209.000000)" fill="#555555" fill-rule="nonzero">
            <path d="M982.728499,224 L982.728499,217.138736 L991.434233,217.138736 L991.434233,224 L993.162732,224 L993.162732,209.288462 L991.434233,209.288462 L991.434233,215.675824 L982.728499,215.675824 L982.728499,209.288462 L981,209.288462 L981,224 L982.728499,224 Z M1006,224 L1006,222.495879 L998.095278,222.495879 C998.369309,221.506868 999.46543,220.373626 1001.38364,219.116758 C1002.94351,218.086538 1003.97639,217.282967 1004.50337,216.747253 C1005.47302,215.717033 1005.97892,214.563187 1005.97892,213.285714 C1005.97892,212.008242 1005.51518,210.957418 1004.62985,210.174451 C1003.72344,209.391484 1002.58516,209 1001.19393,209 C999.676223,209 998.432546,209.494505 997.505059,210.483516 C996.577572,211.451923 996.092749,212.770604 996.092749,214.418956 L997.821248,214.418956 C997.842327,213.120879 998.158516,212.131868 998.748735,211.472527 C999.296796,210.771978 1000.09781,210.442308 1001.13069,210.442308 C1002.10034,210.442308 1002.88027,210.68956 1003.42833,211.184066 C1003.97639,211.678571 1004.25042,212.358516 1004.25042,213.26511 C1004.25042,214.212912 1003.84992,215.098901 1003.09106,215.902473 C1002.69056,216.31456 1001.91062,216.912088 1000.73019,217.736264 C999.128162,218.807692 998.05312,219.693681 997.462901,220.353022 C996.451096,221.445055 995.966273,222.660714 995.966273,224 L1006,224 Z" id="H2"></path>
        </g>
    </g>
</svg>