<?xml version="1.0" encoding="UTF-8"?>
<svg width="25px" height="15px" viewBox="0 0 25 15" version="1.1" xmlns="http://www.w3.org/2000/svg" xmlns:xlink="http://www.w3.org/1999/xlink">
    <!-- Generator: Sketch 63.1 (92452) - https://sketch.com -->
    <title>H2@1x</title>
    <desc>Created with Sketch.</desc>
    <g id="定稿✅" stroke="none" stroke-width="1" fill="none" fill-rule="evenodd">
        <g id="编辑器" transform="translate(-1005.000000, -1232.000000)" fill="#F9F9F9" fill-rule="nonzero">
            <g id="编组-5" transform="translate(927.000000, 1228.000000)">
                <path d="M79.7284992,19 L79.7284992,12.1387363 L88.4342327,12.1387363 L88.4342327,19 L90.1627319,19 L90.1627319,4.28846154 L88.4342327,4.28846154 L88.4342327,10.6758242 L79.7284992,10.6758242 L79.7284992,4.28846154 L78,4.28846154 L78,19 L79.7284992,19 Z M103,19 L103,17.4958791 L95.0952782,17.4958791 C95.3693086,16.5068681 96.46543,15.3736264 98.3836425,14.1167582 C99.9435076,13.0865385 100.976391,12.282967 101.503373,11.7472527 C102.473019,10.717033 102.978921,9.56318681 102.978921,8.28571429 C102.978921,7.00824176 102.515177,5.95741758 101.629848,5.17445055 C100.72344,4.39148352 99.5851602,4 98.1939292,4 C96.6762226,4 95.4325464,4.49450549 94.505059,5.48351648 C93.5775717,6.45192308 93.0927487,7.7706044 93.0927487,9.41895604 L94.8212479,9.41895604 C94.8423272,8.12087912 95.158516,7.13186813 95.7487352,6.47252747 C96.296796,5.77197802 97.0978078,5.44230769 98.1306914,5.44230769 C99.1003373,5.44230769 99.8802698,5.68956044 100.428331,6.18406593 C100.976391,6.67857143 101.250422,7.35851648 101.250422,8.26510989 C101.250422,9.21291209 100.849916,10.0989011 100.091062,10.9024725 C99.6905565,11.3145604 98.9106239,11.9120879 97.7301855,12.7362637 C96.1281619,13.8076923 95.0531197,14.6936813 94.4629005,15.353022 C93.4510961,16.4450549 92.9662732,17.6607143 92.9662732,19 L103,19 Z" id="H2"></path>
            </g>
        </g>
    </g>
</svg>