<?xml version="1.0" encoding="UTF-8"?>
<svg width="25px" height="15px" viewBox="0 0 25 15" version="1.1" xmlns="http://www.w3.org/2000/svg" xmlns:xlink="http://www.w3.org/1999/xlink">
    <!-- Generator: Sketch 63.1 (92452) - https://sketch.com -->
    <title>H3@1x</title>
    <desc>Created with Sketch.</desc>
    <g id="定稿✅" stroke="none" stroke-width="1" fill="none" fill-rule="evenodd">
        <g id="编辑器" transform="translate(-1026.000000, -209.000000)" fill="#555555" fill-rule="nonzero">
            <path d="M1027.71119,223.716981 L1027.71119,216.985175 L1036.32972,216.985175 L1036.32972,223.716981 L1038.0409,223.716981 L1038.0409,209.283019 L1036.32972,209.283019 L1036.32972,215.549865 L1027.71119,215.549865 L1027.71119,209.283019 L1026,209.283019 L1026,223.716981 L1027.71119,223.716981 Z M1045.82471,224 C1047.36895,224 1048.62104,223.575472 1049.58097,222.726415 C1050.52003,221.897574 1051,220.826146 1051,219.512129 C1051,218.663073 1050.74958,217.955526 1050.24875,217.389488 C1049.78965,216.82345 1049.12187,216.419137 1048.24541,216.156334 C1049.87312,215.630728 1050.68698,214.539084 1050.68698,212.921833 C1050.68698,211.708895 1050.24875,210.75876 1049.39316,210.051213 C1048.51669,209.343666 1047.34808,209 1045.92905,209 C1044.51002,209 1043.36227,209.384097 1042.48581,210.172507 C1041.56761,210.960916 1041.02504,212.052561 1040.89983,213.447439 L1042.59015,213.447439 C1042.69449,212.477089 1043.02838,211.729111 1043.61269,211.203504 C1044.17613,210.677898 1044.94825,210.43531 1045.94992,210.43531 C1046.90985,210.43531 1047.68197,210.657682 1048.22454,211.142857 C1048.72538,211.587601 1048.99666,212.214286 1048.99666,213.022911 C1048.99666,213.831536 1048.72538,214.458221 1048.20367,214.902965 C1047.68197,215.327493 1046.93072,215.549865 1045.92905,215.549865 L1044.7813,215.549865 L1044.7813,216.843666 L1045.99165,216.843666 C1047.03506,216.843666 1047.82805,217.066038 1048.41235,217.551213 C1048.99666,218.036388 1049.28881,218.703504 1049.28881,219.572776 C1049.28881,220.421833 1048.97579,221.12938 1048.39149,221.695418 C1047.74457,222.281671 1046.88898,222.584906 1045.82471,222.584906 C1044.88564,222.584906 1044.11352,222.322102 1043.48748,221.836927 C1042.7571,221.250674 1042.3606,220.381402 1042.31886,219.249326 L1040.58681,219.249326 C1040.71202,220.866577 1041.29633,222.09973 1042.3606,222.948787 C1043.25793,223.636119 1044.40568,224 1045.82471,224 Z" id="H3"></path>
        </g>
    </g>
</svg>