<?xml version="1.0" encoding="UTF-8"?>
<svg width="25px" height="15px" viewBox="0 0 25 15" version="1.1" xmlns="http://www.w3.org/2000/svg" xmlns:xlink="http://www.w3.org/1999/xlink">
    <!-- Generator: Sketch 63.1 (92452) - https://sketch.com -->
    <title>H3@1x</title>
    <desc>Created with Sketch.</desc>
    <g id="定稿✅" stroke="none" stroke-width="1" fill="none" fill-rule="evenodd">
        <g id="编辑器" transform="translate(-1045.000000, -1232.000000)" fill="#F9F9F9" fill-rule="nonzero">
            <g id="编组-5" transform="translate(927.000000, 1228.000000)">
                <path d="M119.711185,18.7169811 L119.711185,11.9851752 L128.329716,11.9851752 L128.329716,18.7169811 L130.040902,18.7169811 L130.040902,4.28301887 L128.329716,4.28301887 L128.329716,10.5498652 L119.711185,10.5498652 L119.711185,4.28301887 L118,4.28301887 L118,18.7169811 L119.711185,18.7169811 Z M137.824708,19 C139.368948,19 140.621035,18.5754717 141.580968,17.7264151 C142.520033,16.8975741 143,15.8261456 143,14.5121294 C143,13.6630728 142.749583,12.9555256 142.248748,12.3894879 C141.789649,11.8234501 141.12187,11.4191375 140.245409,11.1563342 C141.873122,10.6307278 142.686978,9.53908356 142.686978,7.92183288 C142.686978,6.70889488 142.248748,5.75876011 141.393155,5.05121294 C140.516694,4.34366577 139.34808,4 137.929048,4 C136.510017,4 135.36227,4.38409704 134.48581,5.17250674 C133.567613,5.96091644 133.025042,7.05256065 132.899833,8.44743935 L134.59015,8.44743935 C134.694491,7.47708895 135.028381,6.72911051 135.612688,6.20350404 C136.176127,5.67789757 136.948247,5.43530997 137.949917,5.43530997 C138.90985,5.43530997 139.68197,5.65768194 140.224541,6.14285714 C140.725376,6.58760108 140.996661,7.21428571 140.996661,8.02291105 C140.996661,8.83153639 140.725376,9.45822102 140.203673,9.90296496 C139.68197,10.3274933 138.930718,10.5498652 137.929048,10.5498652 L136.781302,10.5498652 L136.781302,11.8436658 L137.991653,11.8436658 C139.035058,11.8436658 139.828047,12.0660377 140.412354,12.5512129 C140.996661,13.0363881 141.288815,13.703504 141.288815,14.5727763 C141.288815,15.4218329 140.975793,16.1293801 140.391486,16.6954178 C139.744574,17.2816712 138.888982,17.5849057 137.824708,17.5849057 C136.885643,17.5849057 136.113523,17.3221024 135.487479,16.8369272 C134.757095,16.2506739 134.360601,15.3814016 134.318865,14.2493261 L132.586811,14.2493261 C132.71202,15.8665768 133.296327,17.0997305 134.360601,17.9487871 C135.25793,18.6361186 136.405676,19 137.824708,19 Z" id="H3"></path>
            </g>
        </g>
    </g>
</svg>