<?xml version="1.0" encoding="UTF-8"?>
<svg width="40px" height="40px" viewBox="0 0 40 40" version="1.1" xmlns="http://www.w3.org/2000/svg" xmlns:xlink="http://www.w3.org/1999/xlink">
    <!-- Generator: Sketch 63.1 (92452) - https://sketch.com -->
    <title>图片</title>
    <desc>Created with Sketch.</desc>
    <g id="定稿" stroke="none" stroke-width="1" fill="none" fill-rule="evenodd">
        <g id="首页-默认-定稿" transform="translate(-251.000000, -639.000000)" fill="#666666" fill-rule="nonzero" stroke="#666666" stroke-width="0.96">
            <g id="编组-11" transform="translate(0.000000, 166.000000)">
                <g id="编组-10" transform="translate(0.000000, 436.000000)">
                    <g id="编组-7" transform="translate(54.000000, 37.000000)">
                        <g id="图片-2" transform="translate(198.000000, 1.000000)">
                            <g id="图片">
                                <path d="M33.123194,0.0178589118 L4.87714385,0.0178589118 C2.20021999,0.0178589118 0.0223384853,2.19569528 0.0223384853,4.87266428 L0.0223384853,33.1188047 C0.0223384853,35.7957737 2.20017485,37.97361 4.87714385,37.97361 L33.1232391,37.97361 C35.8002081,37.97361 37.9780445,35.7957737 37.9780445,33.1188047 L37.9780445,4.87266428 C37.9780445,2.19569528 35.800163,0.0178589118 33.123194,0.0178589118 Z M4.87714385,1.78324266 L33.1232391,1.78324266 C34.8267279,1.78324266 36.2126607,3.16917547 36.2126607,4.87266428 L36.2126607,10.7998645 C29.8261917,11.0184156 23.8570059,13.6054089 19.3215623,18.1408976 C17.1915354,20.2709245 15.4915228,22.7173336 14.2644131,25.3745287 C10.7090411,22.3416749 5.54507687,22.151656 1.78776737,24.8037045 L1.78776737,4.87266428 C1.78776737,3.16917547 3.17360991,1.78324266 4.87714385,1.78324266 Z M1.78772224,33.1187595 L1.78772224,27.0922385 C5.05420593,23.914647 10.2816904,23.9190713 13.5429371,27.1055565 C12.506343,29.8849163 11.9651796,32.8577713 11.9651796,35.9146428 C11.9651796,36.0177108 11.9837345,36.116219 12.0162395,36.208136 L4.87714385,36.208136 C3.17360991,36.208136 1.78772224,34.8222484 1.78772224,33.1187595 Z M33.123194,36.2081812 L13.6795034,36.2081812 C13.7119632,36.116219 13.7305633,36.0177108 13.7305633,35.9146879 C13.7305633,29.6684419 16.1594558,23.7996153 20.5698454,19.3891807 C24.7718416,15.1871844 30.2977853,12.7838445 36.2126607,12.5661511 L36.2126607,33.1188047 C36.2126607,34.8222484 34.8266828,36.2081812 33.123194,36.2081812 Z" id="形状"></path>
                                <path d="M11.8443241,17.4499853 C15.1552313,17.4499853 17.8488591,14.7564026 17.8488591,11.4454954 C17.8488591,8.13458824 15.1552313,5.44096041 11.8443241,5.44096041 C8.53341688,5.44096041 5.83978906,8.13458824 5.83978906,11.4454954 C5.83978906,14.7564026 8.53341688,17.4499853 11.8443241,17.4499853 Z M11.8443241,7.20634416 C14.1817962,7.20634416 16.0834754,9.10802329 16.0834754,11.4454954 C16.0834754,13.7829676 14.1817962,15.6846467 11.8443241,15.6846467 C9.50685194,15.6846467 7.60517281,13.7829676 7.60517281,11.4454954 C7.60517281,9.10802329 9.50685199,7.20634416 11.8443241,7.20634416 Z" id="形状"></path>
                            </g>
                        </g>
                    </g>
                </g>
            </g>
        </g>
    </g>
</svg>