<?xml version="1.0" encoding="UTF-8"?>
<svg width="14px" height="12px" viewBox="0 0 14 12" version="1.1" xmlns="http://www.w3.org/2000/svg" xmlns:xlink="http://www.w3.org/1999/xlink">
    <!-- Generator: Sketch 63.1 (92452) - https://sketch.com -->
    <title>图片@1x</title>
    <desc>Created with Sketch.</desc>
    <g id="定稿✅" stroke="none" stroke-width="1" fill="none" fill-rule="evenodd">
        <g id="编辑器" transform="translate(-788.000000, -1150.000000)" fill="#F9F9F9" fill-rule="nonzero">
            <g id="编辑器备份" transform="translate(72.000000, 1146.000000)">
                <g id="图片" transform="translate(716.000000, 4.000000)">
                    <path d="M10.5,5 C11.328125,5 12,4.328125 12,3.5 C12,2.671875 11.328125,2 10.5,2 C9.671875,2 9,2.671875 9,3.5 C9,4.328125 9.671875,5 10.5,5 Z M13.125,0 L0.875,0 C0.3875,0 0,0.396875 0,0.884375 L0,11.115625 C0,11.603125 0.3875,12 0.875,12 L13.125,12 C13.6125,12 14,11.603125 14,11.115625 L14,0.884375 C14,0.396875 13.6125,0 13.125,0 Z M9.903125,6.4746696 C9.809375,6.35903084 9.665625,6.26982379 9.503125,6.26982379 C9.34375,6.26982379 9.23125,6.34911894 9.103125,6.45814978 L8.51875,6.98017621 C8.396875,7.07268722 8.3,7.13546256 8.159375,7.13546256 C8.025,7.13546256 7.903125,7.08259912 7.815625,7 C7.784375,6.97026432 7.728125,6.91409692 7.68125,6.86453744 L6,4.94162996 C5.875,4.78964758 5.6875,4.6938326 5.478125,4.6938326 C5.26875,4.6938326 5.075,4.80286344 4.953125,4.95154185 L1,9.99339207 L1,1.38656388 C1.03125,1.16189427 1.196875,1 1.409375,1 L12.5875,1 C12.803125,1 12.978125,1.1685022 12.990625,1.39647577 L13,10 L9.903125,6.4746696 Z" id="Shape"></path>
                </g>
            </g>
        </g>
    </g>
</svg>