<?xml version="1.0" encoding="UTF-8"?>
<svg width="38px" height="38px" viewBox="0 0 38 38" version="1.1" xmlns="http://www.w3.org/2000/svg" xmlns:xlink="http://www.w3.org/1999/xlink">
    <!-- Generator: Sketch 63.1 (92452) - https://sketch.com -->
    <title>取消缩进</title>
    <desc>Created with Sketch.</desc>
    <g id="定稿✅" stroke="none" stroke-width="1" fill="none" fill-rule="evenodd">
        <g id="手机-编辑器" transform="translate(-115.000000, -639.000000)" stroke="#666666">
            <g id="编组-11" transform="translate(0.000000, 166.000000)">
                <g id="编组-10" transform="translate(0.000000, 436.000000)">
                    <g id="编组-7" transform="translate(53.000000, 36.000000)">
                        <g id="取消缩进" transform="translate(62.000000, 1.000000)">
                            <g transform="translate(2.000000, 2.000000)">
                                <path d="M2.444,15.4498766 L31.208,15.4498766 C31.8309772,15.4498766 32.336,15.9548994 32.336,16.5778766 C32.336,17.2008538 31.8309772,17.7058766 31.208,17.7058766 L2.444,17.7058766 C1.8210228,17.7058766 1.316,17.2008538 1.316,16.5778766 C1.316,15.9548994 1.8210228,15.4498766 2.444,15.4498766 Z" id="矩形" stroke-width="0.94" fill="#666666"></path>
                                <path d="M27.3450273,27.0485204 L7.06450692,27.8461368 C5.81855252,27.8461368 4.80850692,26.8360912 4.80850692,25.5901368 L5.60612337,5.30961645" id="路径" stroke-width="2.82" stroke-linecap="round" stroke-linejoin="round" transform="translate(16.076767, 16.577877) rotate(-315.000000) translate(-16.076767, -16.577877) "></path>
                            </g>
                        </g>
                    </g>
                </g>
            </g>
        </g>
    </g>
</svg>