<?xml version="1.0" encoding="UTF-8"?>
<svg width="17px" height="16px" viewBox="0 0 17 16" version="1.1" xmlns="http://www.w3.org/2000/svg" xmlns:xlink="http://www.w3.org/1999/xlink">
    <!-- Generator: Sketch 63.1 (92452) - https://sketch.com -->
    <title>有序列表@1x</title>
    <desc>Created with Sketch.</desc>
    <g id="定稿✅" stroke="none" stroke-width="1" fill="none" fill-rule="evenodd">
        <g id="编辑器" transform="translate(-1065.000000, -1149.000000)" fill="#F9F9F9">
            <g id="编组-2备份" transform="translate(963.000000, 1148.000000)">
                <g id="有序列表" transform="translate(102.000000, 1.000000)">
                    <path d="M15.5526316,13.6931034 C15.855556,13.6931034 16.1,13.9443237 16.1,14.2528735 C16.1,14.5305683 15.9020004,14.7618262 15.6415685,14.8053009 L15.5526316,14.8126436 L3.92105264,14.8126436 C3.61812819,14.8126436 3.37368421,14.5614233 3.37368421,14.2528735 C3.37368421,13.9751787 3.57168384,13.7439207 3.83211568,13.7004461 L3.92105264,13.6931034 L15.5526316,13.6931034 Z M15.5526316,7.2563218 C15.855556,7.2563218 16.1,7.50754212 16.1,7.81609191 C16.1,8.09378672 15.9020004,8.32504467 15.6415685,8.36851931 L15.5526316,8.37586203 L3.92105264,8.37586203 C3.61812819,8.37586203 3.37368421,8.12464171 3.37368421,7.81609191 C3.37368421,7.5383971 3.57168384,7.30713916 3.83211568,7.26366452 L3.92105264,7.2563218 L15.5526316,7.2563218 Z M15.5526316,0.819540225 C15.855556,0.819540225 16.1,1.07076054 16.1,1.37931033 C16.1,1.65700514 15.9020004,1.88826308 15.6415685,1.93173772 L15.5526316,1.93908043 L3.92105263,1.93908043 C3.61812819,1.93908043 3.37368421,1.68786012 3.37368421,1.37931033 C3.37368421,1.10161552 3.57168383,0.870357582 3.83211567,0.826882943 L3.92105263,0.819540225 L15.5526316,0.819540225 Z" id="形状" fill-rule="nonzero"></path>
                    <circle id="椭圆形" cx="1" cy="1.3" r="1"></circle>
                    <circle id="椭圆形" cx="1" cy="7.8" r="1"></circle>
                    <circle id="椭圆形" cx="1" cy="14.4" r="1"></circle>
                </g>
            </g>
        </g>
    </g>
</svg>