<?xml version="1.0" encoding="UTF-8"?>
<svg width="17px" height="16px" viewBox="0 0 17 16" version="1.1" xmlns="http://www.w3.org/2000/svg" xmlns:xlink="http://www.w3.org/1999/xlink">
    <!-- Generator: Sketch 63.1 (92452) - https://sketch.com -->
    <title>有序列表@1x</title>
    <desc>Created with Sketch.</desc>
    <g id="定稿✅" stroke="none" stroke-width="1" fill="none" fill-rule="evenodd">
        <g id="编辑器" transform="translate(-921.000000, -498.000000)" fill="#555555">
            <g id="有序列表" transform="translate(921.000000, 498.000000)">
                <path d="M15.5526316,14.7126436 L3.92105264,14.7126436 C3.67397788,14.7126436 3.47368421,14.5067975 3.47368421,14.2528735 C3.47368421,13.9989495 3.67397788,13.7931034 3.92105264,13.7931034 L15.5526316,13.7931034 C15.7997063,13.7931034 16,13.9989495 16,14.2528735 C16,14.5067975 15.7997063,14.7126436 15.5526316,14.7126436 L15.5526316,14.7126436 Z M15.5526316,8.27586203 L3.92105264,8.27586203 C3.67397788,8.27586203 3.47368421,8.07001594 3.47368421,7.81609191 C3.47368421,7.56216789 3.67397788,7.3563218 3.92105264,7.3563218 L15.5526316,7.3563218 C15.7997063,7.3563218 16,7.5621679 16,7.81609191 C16,8.07001593 15.7997063,8.27586203 15.5526316,8.27586203 L15.5526316,8.27586203 Z M15.5526316,1.83908043 L3.92105263,1.83908043 C3.67397787,1.83908043 3.47368421,1.63323435 3.47368421,1.37931033 C3.47368421,1.12538631 3.67397787,0.919540225 3.92105263,0.919540225 L15.5526316,0.919540225 C15.7997063,0.919540225 16,1.12538631 16,1.37931033 C16,1.63323435 15.7997063,1.83908043 15.5526316,1.83908043 L15.5526316,1.83908043 Z" id="形状" stroke="#555555" stroke-width="0.2" fill-rule="nonzero"></path>
                <circle id="椭圆形" cx="1" cy="1.3" r="1"></circle>
                <circle id="椭圆形" cx="1" cy="7.8" r="1"></circle>
                <circle id="椭圆形" cx="1" cy="14.4" r="1"></circle>
            </g>
        </g>
    </g>
</svg>