<?xml version="1.0" encoding="UTF-8"?>
<svg width="38px" height="38px" viewBox="0 0 38 38" version="1.1" xmlns="http://www.w3.org/2000/svg" xmlns:xlink="http://www.w3.org/1999/xlink">
    <!-- Generator: Sketch 63.1 (92452) - https://sketch.com -->
    <title>缩进</title>
    <desc>Created with Sketch.</desc>
    <g id="定稿✅" stroke="none" stroke-width="1" fill="none" fill-rule="evenodd">
        <g id="手机-编辑器" transform="translate(-176.000000, -639.000000)" fill="#666666" fill-rule="nonzero">
            <g id="编组-11" transform="translate(0.000000, 166.000000)">
                <g id="编组-10" transform="translate(0.000000, 436.000000)">
                    <g id="编组-7" transform="translate(53.000000, 36.000000)">
                        <g id="缩进" transform="translate(123.000000, 1.000000)">
                            <g transform="translate(3.000000, 2.000000)">
                                <path d="M18.0853939,0.58471561 C18.5804948,1.12107942 18.5716482,1.94663016 18.086244,2.48861366 L17.9896527,2.58677268 L4.164,15.381 L31.4085296,15.3816167 C32.2386442,15.3816167 32.9203169,16.0280796 32.9934962,16.8530583 L33,17.0004006 C33,17.8944303 32.2874745,18.6191845 31.4085296,18.6191845 L31.4085296,18.6191845 L3.913,18.619 L17.7446117,31.3872421 C18.3144982,31.9132868 18.3421154,32.8090386 17.8062964,33.3879597 C17.3019961,33.9328267 16.4783315,34.0028479 15.9080566,33.5706334 L15.8042393,33.483701 L0.911205734,19.7348988 C-0.470049723,18.3536434 -0.494597174,16.1223878 0.860523373,14.6303721 L0.995971818,14.4883445 L16.0846762,0.523030928 C16.6635974,-0.0127881116 17.5593492,0.0148290614 18.0853939,0.58471561 Z" transform="translate(16.500000, 17.000000) scale(-1, 1) translate(-16.500000, -17.000000) "></path>
                            </g>
                        </g>
                    </g>
                </g>
            </g>
        </g>
    </g>
</svg>