<?xml version="1.0" encoding="UTF-8"?>
<svg width="11px" height="12px" viewBox="0 0 11 12" version="1.1" xmlns="http://www.w3.org/2000/svg" xmlns:xlink="http://www.w3.org/1999/xlink">
    <!-- Generator: Sketch 63.1 (92452) - https://sketch.com -->
    <title>s@1x</title>
    <desc>Created with Sketch.</desc>
    <g id="定稿✅" stroke="none" stroke-width="1" fill="none" fill-rule="evenodd">
        <g id="编辑器" transform="translate(-487.000000, -1149.000000)" fill="#F9F9F9">
            <g id="编辑器备份" transform="translate(72.000000, 1146.000000)">
                <g id="s" transform="translate(415.000000, 3.000000)">
                    <rect id="Rectangle-12" x="0" y="6" width="11" height="1"></rect>
                    <path d="M5.522,11.196 C6.712,11.196 7.65,10.944 8.35,10.454 C9.05,9.95 9.4,9.25 9.4,8.382 C9.4,7.472 8.98,6.772 8.154,6.268 C7.734,6.016 6.866,5.694 5.55,5.302 C4.584,5.022 3.968,4.812 3.716,4.672 C3.142,4.364 2.862,3.958 2.862,3.454 C2.862,2.88 3.1,2.46 3.576,2.18 C3.996,1.928 4.57,1.816 5.312,1.816 C6.124,1.816 6.754,1.984 7.202,2.348 C7.636,2.698 7.916,3.23 8.042,3.958 L9.176,3.958 C9.078,2.908 8.7,2.11 8.028,1.578 C7.384,1.06 6.488,0.808 5.368,0.808 C4.332,0.808 3.478,1.032 2.82,1.48 C2.078,1.956 1.714,2.642 1.714,3.51 C1.714,4.35 2.092,4.994 2.862,5.442 C3.184,5.61 3.954,5.89 5.158,6.254 C6.278,6.576 6.992,6.814 7.272,6.982 C7.93,7.332 8.266,7.822 8.266,8.452 C8.266,8.984 8.014,9.404 7.51,9.712 C7.006,10.02 6.334,10.174 5.522,10.174 C4.626,10.174 3.954,9.978 3.492,9.614 C2.988,9.208 2.68,8.564 2.582,7.696 L1.448,7.696 C1.532,8.928 1.966,9.838 2.75,10.44 C3.422,10.944 4.346,11.196 5.522,11.196 Z" id="S" fill-rule="nonzero"></path>
                </g>
            </g>
        </g>
    </g>
</svg>