<?xml version="1.0" encoding="UTF-8"?>
<svg width="38px" height="38px" viewBox="0 0 38 38" version="1.1" xmlns="http://www.w3.org/2000/svg" xmlns:xlink="http://www.w3.org/1999/xlink">
    <!-- Generator: Sketch 63.1 (92452) - https://sketch.com -->
    <title>s</title>
    <desc>Created with Sketch.</desc>
    <g id="定稿✅" stroke="none" stroke-width="1" fill="none" fill-rule="evenodd">
        <g id="手机-编辑器" transform="translate(-216.000000, -714.000000)">
            <g id="编组-11" transform="translate(0.000000, 166.000000)">
                <g id="编组-10" transform="translate(0.000000, 436.000000)">
                    <g id="编组-7" transform="translate(33.000000, 36.000000)">
                        <g id="s" transform="translate(183.000000, 76.000000)">
                            <g transform="translate(3.000000, 3.000000)">
                                <rect id="Rectangle-12" fill="#545454" x="0" y="15.6" width="31.68" height="2.88"></rect>
                                <path d="M15.90336,30.56448 C19.33056,30.56448 22.032,29.83872 24.048,28.42752 C26.064,26.976 27.072,24.96 27.072,22.46016 C27.072,19.83936 25.8624,17.82336 23.48352,16.37184 C22.27392,15.64608 19.77408,14.71872 15.984,13.58976 C13.20192,12.78336 11.42784,12.17856 10.70208,11.77536 C9.04896,10.88832 8.24256,9.71904 8.24256,8.26752 C8.24256,6.6144 8.928,5.4048 10.29888,4.5984 C11.50848,3.87264 13.1616,3.55008 15.29856,3.55008 C17.63712,3.55008 19.45152,4.03392 20.74176,5.08224 C21.99168,6.09024 22.79808,7.6224 23.16096,9.71904 L26.42688,9.71904 C26.14464,6.69504 25.056,4.3968 23.12064,2.86464 C21.26592,1.3728 18.68544,0.64704 15.45984,0.64704 C12.47616,0.64704 10.01664,1.29216 8.1216,2.5824 C5.98464,3.95328 4.93632,5.92896 4.93632,8.4288 C4.93632,10.848 6.02496,12.70272 8.24256,13.99296 C9.16992,14.4768 11.38752,15.2832 14.85504,16.33152 C18.08064,17.25888 20.13696,17.94432 20.94336,18.42816 C22.8384,19.43616 23.80608,20.84736 23.80608,22.66176 C23.80608,24.19392 23.08032,25.40352 21.6288,26.29056 C20.17728,27.1776 18.24192,27.62112 15.90336,27.62112 C13.32288,27.62112 11.38752,27.05664 10.05696,26.00832 C8.60544,24.83904 7.7184,22.98432 7.43616,20.48448 L4.17024,20.48448 C4.41216,24.03264 5.66208,26.65344 7.92,28.3872 C9.85536,29.83872 12.51648,30.56448 15.90336,30.56448 Z" id="S" fill="#555555" fill-rule="nonzero"></path>
                            </g>
                        </g>
                    </g>
                </g>
            </g>
        </g>
    </g>
</svg>