<?xml version="1.0" encoding="UTF-8"?>
<svg width="18px" height="16px" viewBox="0 0 18 16" version="1.1" xmlns="http://www.w3.org/2000/svg" xmlns:xlink="http://www.w3.org/1999/xlink">
    <!-- Generator: Sketch 63.1 (92452) - https://sketch.com -->
    <title>任务列表@1x</title>
    <desc>Created with Sketch.</desc>
    <g id="定稿✅" stroke="none" stroke-width="1" fill="none" fill-rule="evenodd">
        <g id="编辑器" transform="translate(-921.000000, -531.000000)" fill="#555555">
            <g id="任务列表" transform="translate(921.000000, 531.000000)">
                <path d="M16.5526316,14.7126436 L4.92105264,14.7126436 C4.67397788,14.7126436 4.47368421,14.5067975 4.47368421,14.2528735 C4.47368421,13.9989495 4.67397788,13.7931034 4.92105264,13.7931034 L16.5526316,13.7931034 C16.7997063,13.7931034 17,13.9989495 17,14.2528735 C17,14.5067975 16.7997063,14.7126436 16.5526316,14.7126436 L16.5526316,14.7126436 Z M16.5526316,8.27586203 L4.92105264,8.27586203 C4.67397788,8.27586203 4.47368421,8.07001594 4.47368421,7.81609191 C4.47368421,7.56216789 4.67397788,7.3563218 4.92105264,7.3563218 L16.5526316,7.3563218 C16.7997063,7.3563218 17,7.5621679 17,7.81609191 C17,8.07001593 16.7997063,8.27586203 16.5526316,8.27586203 L16.5526316,8.27586203 Z M16.5526316,1.83908043 L4.92105263,1.83908043 C4.67397787,1.83908043 4.47368421,1.63323435 4.47368421,1.37931033 C4.47368421,1.12538631 4.67397787,0.919540225 4.92105263,0.919540225 L16.5526316,0.919540225 C16.7997063,0.919540225 17,1.12538631 17,1.37931033 C17,1.63323435 16.7997063,1.83908043 16.5526316,1.83908043 L16.5526316,1.83908043 Z" id="形状" stroke="#555555" stroke-width="0.2" fill-rule="nonzero"></path>
                <path d="M2.3617202,0.896039839 L1.12557214,1.99510409 L0.640112026,1.56342707 C0.493677547,1.43322711 0.256260345,1.43322711 0.109825863,1.56342706 C-0.0366086188,1.69362702 -0.0366086214,1.90472285 0.109825857,2.03492281 L0.860429059,2.70234771 C0.930748558,2.76487331 1.02612368,2.8 1.12557214,2.8 C1.2250206,2.8 1.32039573,2.76487331 1.39071523,2.70234771 L2.89196399,1.36753558 C3.03670231,1.23709021 3.03590848,1.0272345 2.89018656,0.897657755 C2.74446464,0.768081014 2.50844225,0.767358424 2.3617202,0.896039839 L2.3617202,0.896039839 Z" id="路径"></path>
                <circle id="椭圆形" cx="2" cy="7.8" r="1"></circle>
                <circle id="椭圆形" cx="2" cy="14.4" r="1"></circle>
            </g>
        </g>
    </g>
</svg>