<?xml version="1.0" encoding="UTF-8"?>
<svg width="18px" height="16px" viewBox="0 0 18 16" version="1.1" xmlns="http://www.w3.org/2000/svg" xmlns:xlink="http://www.w3.org/1999/xlink">
    <!-- Generator: Sketch 63.1 (92452) - https://sketch.com -->
    <title>任务列表@1x</title>
    <desc>Created with Sketch.</desc>
    <g id="定稿✅" stroke="none" stroke-width="1" fill="none" fill-rule="evenodd">
        <g id="编辑器" transform="translate(-1097.000000, -1149.000000)" fill="#F9F9F9">
            <g id="编组-2备份" transform="translate(963.000000, 1148.000000)">
                <g id="任务列表" transform="translate(134.000000, 1.000000)">
                    <path d="M16.5526316,13.6931034 C16.855556,13.6931034 17.1,13.9443237 17.1,14.2528735 C17.1,14.5305683 16.9020004,14.7618262 16.6415685,14.8053009 L16.5526316,14.8126436 L4.92105264,14.8126436 C4.61812819,14.8126436 4.37368421,14.5614233 4.37368421,14.2528735 C4.37368421,13.9751787 4.57168384,13.7439207 4.83211568,13.7004461 L4.92105264,13.6931034 L16.5526316,13.6931034 Z M16.5526316,7.2563218 C16.855556,7.2563218 17.1,7.50754212 17.1,7.81609191 C17.1,8.09378672 16.9020004,8.32504467 16.6415685,8.36851931 L16.5526316,8.37586203 L4.92105264,8.37586203 C4.61812819,8.37586203 4.37368421,8.12464171 4.37368421,7.81609191 C4.37368421,7.5383971 4.57168384,7.30713916 4.83211568,7.26366452 L4.92105264,7.2563218 L16.5526316,7.2563218 Z M16.5526316,0.819540225 C16.855556,0.819540225 17.1,1.07076054 17.1,1.37931033 C17.1,1.65700514 16.9020004,1.88826308 16.6415685,1.93173772 L16.5526316,1.93908043 L4.92105263,1.93908043 C4.61812819,1.93908043 4.37368421,1.68786012 4.37368421,1.37931033 C4.37368421,1.10161552 4.57168383,0.870357582 4.83211567,0.826882943 L4.92105263,0.819540225 L16.5526316,0.819540225 Z" id="形状" fill-rule="nonzero"></path>
                    <path d="M2.3617202,0.896039839 L1.12557214,1.99510409 L0.640112026,1.56342707 C0.493677547,1.43322711 0.256260345,1.43322711 0.109825863,1.56342706 C-0.0366086188,1.69362702 -0.0366086214,1.90472285 0.109825857,2.03492281 L0.860429059,2.70234771 C0.930748558,2.76487331 1.02612368,2.8 1.12557214,2.8 C1.2250206,2.8 1.32039573,2.76487331 1.39071523,2.70234771 L2.89196399,1.36753558 C3.03670231,1.23709021 3.03590848,1.0272345 2.89018656,0.897657755 C2.74446464,0.768081014 2.50844225,0.767358424 2.3617202,0.896039839 L2.3617202,0.896039839 Z" id="路径"></path>
                    <circle id="椭圆形" cx="2" cy="7.8" r="1"></circle>
                    <circle id="椭圆形" cx="2" cy="14.4" r="1"></circle>
                </g>
            </g>
        </g>
    </g>
</svg>