<?xml version="1.0" encoding="UTF-8"?>
<svg width="17px" height="16px" viewBox="0 0 17 16" version="1.1" xmlns="http://www.w3.org/2000/svg" xmlns:xlink="http://www.w3.org/1999/xlink">
    <!-- Generator: Sketch 63.1 (92452) - https://sketch.com -->
    <title>段落@1x</title>
    <desc>Created with Sketch.</desc>
    <g id="定稿✅" stroke="none" stroke-width="1" fill="none" fill-rule="evenodd">
        <g id="编辑器" transform="translate(-923.000000, -597.000000)" fill="#555555" fill-rule="nonzero">
            <g id="段落" transform="translate(923.000000, 597.000000)">
                <path d="M10.2656693,3.07548266 L16.4599307,3.07548266 C16.7653102,3.07548266 16.918,3.22817244 16.918,3.533552 L16.918,3.55608 C16.918,3.86145956 16.7653102,4.01414934 16.4599307,4.01414934 L10.2656693,4.01414934 C9.96028978,4.01414934 9.8076,3.86145956 9.8076,3.55608 L9.8076,3.533552 C9.8076,3.22817244 9.96028978,3.07548266 10.2656693,3.07548266 Z" id="路径"></path>
                <path d="M10.2656693,6.83014934 L16.4599307,6.83014934 C16.7653102,6.83014934 16.918,6.98283911 16.918,7.28821866 L16.918,7.31074666 C16.918,7.61612622 16.7653102,7.768816 16.4599307,7.768816 L10.2656693,7.768816 C9.96028978,7.768816 9.8076,7.61612622 9.8076,7.31074666 L9.8076,7.28821866 C9.8076,6.9828391 9.96028978,6.83014934 10.2656693,6.83014934 Z" id="路径"></path>
                <path d="M0.480069343,10.584816 L16.4599307,10.584816 C16.7653102,10.584816 16.918,10.7375058 16.918,11.0428853 L16.918,11.0654133 C16.918,11.3707929 16.7653102,11.5234827 16.4599307,11.5234827 L0.480069343,11.5234827 C0.174689781,11.5234827 0.022,11.3707929 0.022,11.0654133 L0.022,11.0428853 C0.022,10.7375058 0.174689781,10.584816 0.480069343,10.584816 Z" id="路径"></path>
                <path d="M0.480069343,14.3394827 L16.4599307,14.3394827 C16.7653102,14.3394827 16.918,14.4921724 16.918,14.797552 L16.918,14.82008 C16.918,15.1254596 16.7653102,15.2781493 16.4599307,15.2781493 L0.480069343,15.2781493 C0.174689781,15.2781493 0.022,15.1254596 0.022,14.82008 L0.022,14.797552 C0.022,14.4921724 0.174689781,14.3394827 0.480069343,14.3394827 Z" id="路径"></path>
                <path d="M7.69090666,8.00066666 L8.69997334,8.00066666 L5.73378666,0.726 C5.48250898,0.289480919 5.01719587,0.0204338293 4.51352,0.0204338293 C4.00984413,0.0204338293 3.54453102,0.289480919 3.29325334,0.726 L0.329882657,8.00066666 L1.33613334,8.00066666 L2.29263466,5.654 L6.73065066,5.654 L7.69090666,8.00066666 Z M2.67842666,4.71533334 L4.122096,1.17186666 C4.20764917,1.03844787 4.35597943,0.958605029 4.51445866,0.960666658 C4.66086236,0.954942711 4.8009069,1.02076364 4.88992534,1.137136 L6.34861334,4.71533334 L2.67842666,4.71533334 Z" id="形状"></path>
            </g>
        </g>
    </g>
</svg>