<?xml version="1.0" encoding="UTF-8"?>
<svg width="10px" height="13px" viewBox="0 0 10 13" version="1.1" xmlns="http://www.w3.org/2000/svg" xmlns:xlink="http://www.w3.org/1999/xlink">
    <!-- Generator: Sketch 63.1 (92452) - https://sketch.com -->
    <title>u@1x</title>
    <desc>Created with Sketch.</desc>
    <g id="定稿✅" stroke="none" stroke-width="1" fill="none" fill-rule="evenodd">
        <g id="编辑器" transform="translate(-457.000000, -1150.000000)" fill="#F9F9F9">
            <g id="编辑器备份" transform="translate(72.000000, 1146.000000)">
                <g id="u" transform="translate(385.000000, 4.000000)">
                    <rect id="Rectangle-12" x="0" y="12" width="10" height="1"></rect>
                    <path d="M4.998,10.196 C6.314,10.196 7.308,9.846 7.994,9.146 C8.652,8.46 8.988,7.466 8.988,6.164 L8.988,0.004 L7.84,0.004 L7.84,6.178 C7.84,7.158 7.616,7.9 7.182,8.404 C6.706,8.922 5.978,9.188 4.998,9.188 C4.004,9.188 3.276,8.922 2.814,8.404 C2.366,7.9 2.156,7.158 2.156,6.178 L2.156,0.004 L1.008,0.004 L1.008,6.164 C1.008,7.466 1.344,8.46 2.016,9.16 C2.688,9.846 3.682,10.196 4.998,10.196 Z" id="U" fill-rule="nonzero"></path>
                </g>
            </g>
        </g>
    </g>
</svg>