<?xml version="1.0" encoding="UTF-8"?>
<svg width="38px" height="38px" viewBox="0 0 38 38" version="1.1" xmlns="http://www.w3.org/2000/svg" xmlns:xlink="http://www.w3.org/1999/xlink">
    <!-- Generator: Sketch 63.1 (92452) - https://sketch.com -->
    <title>u</title>
    <desc>Created with Sketch.</desc>
    <g id="定稿✅" stroke="none" stroke-width="1" fill="none" fill-rule="evenodd">
        <g id="手机-编辑器" transform="translate(-154.000000, -714.000000)" fill="#555555">
            <g id="编组-11" transform="translate(0.000000, 166.000000)">
                <g id="编组-10" transform="translate(0.000000, 436.000000)">
                    <g id="编组-7" transform="translate(33.000000, 36.000000)">
                        <g id="u" transform="translate(121.000000, 76.000000)">
                            <g transform="translate(8.000000, 4.000000)">
                                <rect id="Rectangle-12" x="0" y="28.8" width="24" height="2.4"></rect>
                                <path d="M11.9952,24.4704 C15.1536,24.4704 17.5392,23.6304 19.1856,21.9504 C20.7648,20.304 21.5712,17.9184 21.5712,14.7936 L21.5712,0.0096 L18.816,0.0096 L18.816,14.8272 C18.816,17.1792 18.2784,18.96 17.2368,20.1696 C16.0944,21.4128 14.3472,22.0512 11.9952,22.0512 C9.6096,22.0512 7.8624,21.4128 6.7536,20.1696 C5.6784,18.96 5.1744,17.1792 5.1744,14.8272 L5.1744,0.0096 L2.4192,0.0096 L2.4192,14.7936 C2.4192,17.9184 3.2256,20.304 4.8384,21.984 C6.4512,23.6304 8.8368,24.4704 11.9952,24.4704 Z" id="U" fill-rule="nonzero"></path>
                            </g>
                        </g>
                    </g>
                </g>
            </g>
        </g>
    </g>
</svg>