<?xml version="1.0" encoding="UTF-8"?>
<svg width="50px" height="50px" viewBox="0 0 50 50" version="1.1" xmlns="http://www.w3.org/2000/svg" xmlns:xlink="http://www.w3.org/1999/xlink">
    <!-- Generator: Sketch 59 (86127) - https://sketch.com -->
    <title>审核中-反白@1</title>
    <desc>Created with Sketch.</desc>
    <g id="页面-3" stroke="none" stroke-width="1" fill="none" fill-rule="evenodd">
        <g id="编组-18备份" fill="#FFFFFF" fill-rule="nonzero">
            <path d="M48.627331,18.6766342 L41.4934645,7.42663267 C40.8674778,6.44631866 39.5682669,6.15694639 38.5820471,6.77112139 L2.97771051,29.2947386 C1.9973965,29.9207252 1.70802422,31.2199361 2.32219922,32.2002501 L9.4619579,43.4502516 C10.0879446,44.4305656 11.3871555,44.7199379 12.3674695,44.0998571 L47.971806,21.5762399 C48.951934,20.9561591 49.2473982,19.6569482 48.6273173,18.6766342 L48.627331,18.6766342 Z M47.2041021,20.3715178 L11.5997656,42.895135 C11.2867736,43.0959225 10.8733888,43.0014341 10.6725995,42.6884421 L3.53873298,31.4384407 C3.33794551,31.1254482 3.43243387,30.7120639 3.74542583,30.5112746 L39.3497624,7.98765743 C39.6627548,7.79277534 40.0761391,7.88135832 40.2710226,8.20025612 L47.4048891,19.4502576 C47.6056766,19.7514388 47.5170941,20.1648227 47.2041017,20.3715178 L47.2041021,20.3715178 Z M16.5131656,13.2317591 L17.1037172,14.6490822 L17.8714348,13.3203421 L19.4009642,13.1963264 L18.3674977,12.0565639 L18.7159228,10.5624696 L17.3222231,11.1943575 L16.0052947,10.3971153 L16.170649,11.9266447 L15.0072632,12.9187704 L16.5131692,13.2317623 L16.5131656,13.2317591 Z M25.5781447,9.00931915 L24.8399562,7.65695572 L24.2198754,9.06837294 L22.7080635,9.35774293 L23.847826,10.3793978 L23.6529439,11.9030213 L24.9875898,11.1353037 L26.3753837,11.7967209 L26.0564859,10.2908148 L27.1076654,9.17467114 L25.578136,9.00931686 L25.5781447,9.00931915 Z M39.3970251,31.6274388 L38.1804913,30.6943669 L38.1745858,32.2298022 L36.9048995,33.0920086 L38.3694647,33.5762598 L38.800567,35.0467308 L39.7100156,33.8065737 L41.2454508,33.8479122 L40.3419081,32.6018493 L40.8615943,31.1609029 L39.3970291,31.6274366 L39.3970251,31.6274388 Z M34.4305045,37.7396368 L33.8517645,36.3164079 L33.0722352,37.6392422 L31.5427059,37.7514467 L32.5643607,38.8971149 L32.198219,40.3853035 L33.6037304,39.7711285 L34.9147529,40.5860882 L34.7612094,39.0565588 L35.9245952,38.0644331 L34.4305009,37.73963 L34.4305045,37.7396368 Z M25.3301269,41.8971172 L26.0565037,43.2553864 L26.6942975,41.8557809 L28.2061093,41.584127 L27.0722527,40.5447547 L27.2789456,39.0211311 L25.9383938,39.777037 L24.5565058,39.1097141 L24.8635924,40.6097143 L23.8006012,41.725858 L25.3301306,41.8971181 L25.3301269,41.8971172 Z M11.7002059,19.1727107 L12.9108384,20.1235001 L12.9285549,18.5880649 L14.2041471,17.7317643 L12.7454832,17.2416073 L12.3261916,15.7652304 L11.4049314,16.9935759 L9.86949619,16.9404261 L10.7612272,18.1923949 L10.2297294,19.6333413 L11.7002004,19.1727134 L11.7002059,19.1727107 Z M6.2966626,25.7987119 C6.1372137,19.3026574 9.296663,12.8774455 15.1844666,9.15699703 C21.0722611,5.43652571 28.2297418,5.33022523 34.0466937,8.24754848 L35.452205,7.36172329 C33.7337026,6.39912678 31.8793705,5.69636881 29.930545,5.25935976 C27.3262128,4.67471394 24.6746248,4.59794264 22.0525796,5.02904494 C19.3360457,5.47786383 16.7671531,6.45817967 14.4226777,7.94636819 C12.0781886,9.43455672 10.0939372,11.3302251 8.52305326,13.5920371 C7.00533555,15.7711719 5.93643856,18.2042531 5.35179275,20.8026841 C4.91478461,22.751505 4.76124109,24.7239447 4.89706802,26.6904785 L6.29667357,25.7987475 L6.2966626,25.7987119 Z M44.5289364,24.8065862 C44.6942907,31.3026407 41.5348419,37.7278525 35.6529624,41.448301 C29.7651679,45.1746782 22.6076872,45.2809787 16.7966731,42.3636554 L15.3911617,43.2553864 C17.1096642,44.2120817 18.9639963,44.9207409 20.9128218,45.35775 C23.517154,45.9423958 26.168742,46.0191671 28.7907871,45.5880648 C31.5073211,45.1392459 34.0762137,44.1589301 36.414797,42.6766474 C38.7592861,41.1884588 40.7435375,39.2927904 42.3144214,37.0309785 C43.8262333,34.8459378 44.8951302,32.4187624 45.4797761,29.8203315 C45.9167842,27.8715106 46.0703277,25.8990709 45.9345008,23.932537 L44.5289894,24.8065551 L44.5289364,24.8065862 Z M19.4246104,15.8597238 C21.0722474,14.8203514 22.8852432,14.2652348 24.710037,14.1530285 L26.883266,12.7770417 C24.0131848,12.4404273 21.1372024,13.0841283 18.6568882,14.6490913 C16.1824799,16.2140512 14.369484,18.5408228 13.4482421,21.2750925 L15.6214711,19.8991057 C16.5013904,18.2987109 17.7769826,16.8991053 19.4246195,15.859733 L19.4246104,15.8597238 Z M31.4009886,34.7514572 C29.7533517,35.7967309 27.9403558,36.3518521 26.1214542,36.4581526 L23.9482252,37.8341393 C26.8183063,38.1707537 29.6942887,37.5270527 32.1746029,35.9561839 C34.6490113,34.391224 36.4620071,32.0644524 37.3832491,29.3301827 L35.2100201,30.7061695 C34.3301007,32.3065643 33.0486028,33.7061699 31.4009658,34.7514481 L31.4009886,34.7514572 Z M16.4068788,28.4679763 L16.4245953,27.233725 L9.16671994,31.7986852 C9.27301905,31.9049844 9.37341279,32.0290001 9.46199577,32.1707324 C9.56829488,32.3419925 9.59782269,32.5191575 9.55057829,32.7022302 C9.50333434,32.8853011 9.37931863,33.0329388 9.18443653,33.1392384 C8.98955444,33.2455375 8.86553873,33.2632541 8.81829478,33.1923882 C8.75923962,33.0978998 8.74742886,32.9502621 8.7887672,32.75538 C8.85372774,32.3419939 8.77105065,31.8518373 8.53482994,31.284909 L8.71199544,31.1727041 L9.03089324,31.5801844 L16.2415402,27.0447488 L16.4068945,26.4305738 L17.5643745,26.61955 C17.1273663,26.8971093 16.8025627,27.5053752 16.5840605,28.4561646 L16.406895,28.4679756 L16.4068788,28.4679763 Z M13.4305017,31.3085282 C13.0938873,30.7711245 12.7868021,30.3223084 12.5151474,29.950259 L13.773022,29.7199442 L13.5427067,30.2219128 L14.0033345,30.9541954 L16.4068774,29.4423836 L16.4836492,28.8872669 L17.4167211,28.910889 L17.245461,29.3242751 C18.2671158,30.9541946 18.9049096,31.9286073 19.1470352,32.2534101 L18.6982163,32.8912038 L18.4029405,32.4187643 L15.9108146,33.9837242 C16.5368013,34.9817557 16.9738057,35.6431728 17.2159313,35.9620697 L16.7198685,36.6293927 C16.4600258,36.1510473 15.9993976,35.3833297 15.3438817,34.3380515 L12.8930921,35.8734867 L13.076163,36.1628567 L12.5801001,36.729785 C12.2730136,36.1746684 11.8891538,35.5368701 11.4344319,34.8045875 C10.973804,34.0723049 10.5722254,33.4640357 10.2237994,32.9738787 L10.9974228,32.8439576 L13.4304949,31.3085224 L13.4305017,31.3085282 Z M10.956092,28.4325413 L11.0387705,28.2789978 C11.5820755,28.1726986 11.9718424,28.1490767 12.213968,28.202226 C12.4501886,28.2553758 12.6096375,28.3439583 12.6864075,28.467974 C12.7631792,28.5919897 12.7868012,28.7455332 12.7631792,28.9286018 C12.7395572,29.1175781 12.6982187,29.2238777 12.6391635,29.2593104 C12.550581,29.3124602 12.4088487,29.2534049 12.2139666,29.0703341 C11.9245966,28.8104915 11.5053028,28.5978946 10.956092,28.4325404 L10.956092,28.4325413 Z M11.1214477,33.0624794 L11.8537302,34.231771 L14.3045198,32.6963358 L13.5722372,31.5270442 L11.1214477,33.0624794 L11.1214477,33.0624794 Z M11.9895599,34.4502733 L12.7454658,35.6549999 L15.1962554,34.1195647 L14.4403495,32.9148381 L11.9895599,34.4502733 L11.9895599,34.4502733 Z M14.1391656,31.1668064 L14.8714481,32.3360981 L17.363574,30.7711383 L16.6312914,29.6018466 L14.1391656,31.1668064 Z M15.0072778,32.5546003 L15.7631837,33.759327 L18.2553096,32.1943671 L17.4994037,30.9896405 L15.0072778,32.5546003 Z M12.5210578,37.1904389 L12.3379869,36.859722 C12.0309003,36.3046054 11.6470406,35.6609012 11.1982244,34.9463361 C10.7494055,34.231771 10.3419239,33.617596 9.99349778,33.127439 L9.78680493,32.838069 C9.71003317,33.0624785 9.55058427,33.239644 9.3084596,33.3695669 C9.1490107,33.4581494 9.02499499,33.499488 8.91279004,33.499488 C8.77696311,33.499488 8.66475861,33.4404328 8.59389223,33.3282279 C8.4934985,33.168779 8.46987652,32.9679915 8.52302631,32.7022412 C8.57617609,32.3420048 8.49940424,31.8931873 8.28680565,31.379407 L8.20412851,31.1727141 L8.77105682,30.8183831 L9.08995462,31.2258634 L12.1017667,29.330195 C12.0781446,29.306573 12.0545227,29.2888564 12.0249949,29.2652345 C11.7710577,29.0349197 11.3872011,28.8400376 10.8793266,28.6864945 L10.5663342,28.5920062 L10.8734208,28.0368895 L10.9974365,28.0132675 C11.5879882,27.9010625 11.995468,27.8774405 12.2789345,27.9424015 C12.5919264,28.0132675 12.7986207,28.1372836 12.9167282,28.3262599 C12.9935,28.4502756 13.0348386,28.5920079 13.040744,28.7455514 L16.017121,26.8735018 L16.2179085,26.1294075 L18.3025545,26.4719273 L17.706097,26.8439745 C17.3340494,27.0801951 17.0446799,27.6412167 16.8438906,28.5152348 L16.8202685,28.6215339 L17.8064884,28.6510614 L17.5466457,29.2888552 C18.5210539,30.8360975 19.1293231,31.7750752 19.359637,32.082165 L19.4777473,32.2357085 L18.6864064,33.3577581 L18.3202646,32.7731122 L16.2769549,34.0546102 C16.8202598,34.9168166 17.2100268,35.5014624 17.428529,35.7908301 L17.5466393,35.950279 L16.6785271,37.1195707 L16.4777396,36.7534289 C16.2356136,36.3105154 15.8222283,35.6195723 15.2493942,34.7042179 L13.2533311,35.9620925 L13.4009688,36.1983132 L12.5210495,37.1904389 L12.5210578,37.1904389 Z M10.6667247,33.1687753 C10.9620015,33.5998776 11.2927123,34.1018472 11.6470397,34.6687755 C12.0131814,35.2534213 12.337986,35.7967263 12.615542,36.2750762 L12.7336523,36.1392489 L10.8497956,33.1392489 L10.6667247,33.1687764 L10.6667247,33.1687753 Z M15.5624036,34.2022419 C16.0702781,35.0112957 16.4659463,35.6609058 16.7435069,36.1392511 L16.8793338,35.9561802 C16.6194912,35.5959439 16.2297284,34.9935837 15.6864188,34.1254715 L14.7946878,32.7022426 L13.9265755,31.3144487 L13.2474409,30.2396459 L13.3242127,30.0742916 L12.9816929,30.1392521 C13.1942916,30.4404333 13.418701,30.7888576 13.6549217,31.1668128 L15.5624018,34.2022483 L15.5624036,34.2022419 Z M12.3557081,34.5329504 L12.8281476,35.2888564 L14.8242106,34.0309817 L14.3517711,33.2750758 L12.3557081,34.5329504 L12.3557081,34.5329504 Z M11.4875958,33.1451565 L11.9364147,33.8597216 L13.9324777,32.601847 L13.4836588,31.8872819 L11.4875958,33.1451565 L11.4875958,33.1451565 Z M15.3734214,32.637282 L15.8458609,33.393188 L17.8891706,32.11169 L17.4167311,31.3557841 L15.3734214,32.637282 L15.3734214,32.637282 Z M9.03681991,32.0467295 C9.07815852,32.3124784 9.08406386,32.5605107 9.04863094,32.7849188 L9.04863094,32.7967298 C9.03681991,32.8439738 9.03681991,32.879407 9.03091443,32.9089343 C9.03681995,32.9030288 9.04863098,32.9030288 9.05453645,32.8971233 C9.23170195,32.8026349 9.27304052,32.6963358 9.29075712,32.6313753 C9.3202847,32.5191703 9.30256815,32.418777 9.23170195,32.3124775 C9.17264679,32.2120837 9.10768624,32.1235012 9.03681986,32.0467295 L9.03681991,32.0467295 Z M9.56831776,31.8577541 C9.60965638,31.9109039 9.6509949,31.9699591 9.6864281,32.0290142 C9.8281604,32.2593291 9.87540435,32.5132654 9.80453843,32.7672027 L9.80453843,32.7731082 L10.8852471,32.5900373 L13.0643819,31.2199564 C12.7986339,30.8065702 12.5506016,30.4345212 12.3202877,30.127436 L9.56831776,31.8577501 L9.56831776,31.8577541 Z M18.6214669,32.2770457 L18.704144,32.4069667 L18.816349,32.2475178 C18.5151678,31.8164155 17.924618,30.9010603 17.0151694,29.4601139 L16.9443035,29.3420035 L17.0210753,29.1589326 L16.7139887,29.1530271 L16.7021776,29.2416096 L16.7139887,29.2357041 L18.4797378,32.0467269 L18.6214701,32.2770417 L18.6214669,32.2770457 Z M14.5053228,31.249485 L14.9541417,31.96405 L16.9974515,30.6825521 L16.5486326,29.967987 L14.5053228,31.249485 Z M13.8439057,30.1983055 L14.0860318,30.5821638 L16.1588661,29.2770471 L16.229732,28.7455492 L16.1352437,28.7514547 L16.1529602,27.723894 L13.2592603,29.5427911 L14.2336685,29.3656256 L13.8439048,30.1983029 L13.8439057,30.1983055 Z M11.7415412,28.4502739 C12.0013848,28.5742896 12.2198875,28.7160219 12.3911476,28.8754708 C12.4324863,28.9109039 12.4620136,28.9404313 12.4915414,28.9581479 C12.4974469,28.9404314 12.4974469,28.9168093 12.5033524,28.8931874 C12.521069,28.7691717 12.5092579,28.6746833 12.4679193,28.6097228 C12.4561083,28.5861007 12.3911475,28.5152344 12.1608327,28.4620851 C12.060439,28.4443685 11.9187067,28.438463 11.7415412,28.450274 L11.7415412,28.4502739 Z M16.6962785,26.7553902 L16.690373,27.2986952 C16.7789555,27.1097189 16.8793492,26.9443642 16.9915542,26.8026323 L16.6017904,26.7376718 L16.5781684,26.8321601 L16.6962787,26.7553884 L16.6962785,26.7553902 Z M24.4797413,28.8931842 C24.6805288,29.212082 25.0584813,29.7849152 25.6254096,30.6175924 L25.1116293,31.349875 C24.2376112,29.897117 23.3222568,28.4030226 22.3596603,26.8734978 C22.4718652,28.0900315 22.4009989,29.2357044 22.1470616,30.3164131 L21.9935181,30.2632633 C22.0761952,28.6510568 21.8340692,26.9679848 21.2671413,25.2258544 L20.3045448,25.8282178 L19.9561197,26.1471156 L19.4246218,26.0762496 L21.1726534,24.9778235 C20.6706848,24.1746754 20.1805278,23.4305811 19.7080883,22.7455407 L20.9659629,22.5152258 L20.7769866,22.9876653 L21.7868298,24.593966 L22.3537581,24.239635 L22.5840729,23.5368771 L23.7179296,23.6904206 L21.9108441,24.8065643 L22.4836783,25.7160128 C23.2159609,25.5270365 23.7061179,25.4502648 23.9541493,25.4797921 C24.1962753,25.5152258 24.367535,25.6038078 24.456118,25.7455402 C24.5328897,25.8695559 24.5801337,26.0053828 24.5978503,26.1648317 C24.6155668,26.3242806 24.6096613,26.4128631 24.5801337,26.4305797 C24.4620234,26.5014456 24.2494252,26.4542018 23.9364341,26.2770362 C23.4758063,26.0585321 23.0269856,25.9345164 22.6017882,25.8931778 L24.4797437,28.8931782 L24.4797413,28.8931842 Z M25.2769836,24.729798 L27.3734412,23.4128696 C27.426591,23.040822 27.4561184,22.7160174 27.4620238,22.4384614 C27.4738348,22.1609022 27.4561182,21.8301922 27.4206851,21.4463357 L28.619506,21.5053909 L28.2710808,21.9246824 C27.952183,24.464055 27.1313184,26.6786294 25.7966724,28.5684057 L25.6608455,28.4502953 C26.4876169,27.0506898 27.0545452,25.4562008 27.3557292,23.6727341 C26.1628142,24.5585593 25.5191146,25.184546 25.4246258,25.5506896 L24.5978544,25.1018707 C24.8754136,24.8951778 25.0466732,24.4640769 25.1234464,23.8026598 C25.2002181,23.1412427 25.1825015,22.5093502 25.0821078,21.8951797 L23.6825022,22.7810049 L23.3340771,23.0999027 L22.8025792,23.0290368 L27.6096467,20.0054131 L27.8576782,19.2376955 L29.056499,19.3971444 L25.2533505,21.7888756 L26.2690996,21.759348 L25.9442964,22.113679 C25.826186,23.0113159 25.5958712,23.885334 25.2769734,24.7298229 L25.2769836,24.729798 Z M23.7887918,20.3242862 L23.8714722,20.1707427 C24.6687144,20.0762543 25.1352526,20.0644436 25.2769836,20.1294041 C25.4187159,20.1943646 25.5191096,20.2711364 25.5781648,20.3715301 C25.6726531,20.5191678 25.6962751,20.6786167 25.6667473,20.8498754 C25.6313142,21.0211356 25.5899755,21.1274347 25.5309204,21.1628679 C25.4423378,21.2160176 25.2946997,21.1451513 25.0821015,20.932553 C24.7572983,20.666805 24.3202897,20.4601135 23.7887918,20.3242839 L23.7887918,20.3242862 Z M29.2218447,22.6569636 L30.3970421,22.6805857 L30.072239,23.0349167 C29.9009788,23.9266477 29.6647586,24.7829483 29.3753868,25.6097197 C30.7041269,25.4561762 31.5249925,25.4089322 31.855701,25.4797986 C32.1805042,25.5447592 32.399006,25.6628695 32.5053065,25.8341296 C32.5525504,25.9049955 32.5761724,26.0290117 32.5820782,26.194366 C32.5879838,26.3597203 32.5584562,26.4660198 32.4994011,26.5014526 C32.3812908,26.5723185 32.1391647,26.5073581 31.7671185,26.3006651 C31.1824727,26.0231059 30.3616071,25.8754682 29.298616,25.8695628 C28.6549164,27.5644465 27.6982211,29.0821642 26.4285348,30.4227114 L26.2927079,30.304601 C28.1765646,27.8951523 29.1568832,25.3439726 29.2218428,22.6569636 L29.2218447,22.6569636 Z M25.0879831,31.8341485 L24.8753849,31.4856965 C24.1608198,30.2986873 23.4226268,29.0880594 22.6667208,27.8774269 C22.6726264,28.7455392 22.5840437,29.5841223 22.3950675,30.3754586 L22.3242015,30.6589233 L21.7041207,30.4404192 L21.7159317,30.2396317 C21.7927035,28.7691607 21.5860106,27.216008 21.1017567,25.6215235 L20.4521513,26.0290039 L20.0328597,26.4187676 L18.6509717,26.2297913 L20.7946715,24.8833337 C20.351758,24.1805758 19.9088463,23.507347 19.4777431,22.8813649 L19.2474283,22.5447505 L21.3793164,22.1549867 L21.0604186,22.952229 L21.8576608,24.2160094 L22.1175035,24.0506551 L22.3832515,23.2297896 L22.0407317,23.1825456 L25.082073,21.2750655 C25.0289232,21.2337269 24.969868,21.1805772 24.9108128,21.121522 C24.6096316,20.8853014 24.2139607,20.6963251 23.7238037,20.5723112 L23.3930951,20.4837287 L23.7060876,19.9108946 L23.8419145,19.893178 C24.3261657,19.8341228 24.6864034,19.8105009 24.9403407,19.8105009 C25.1529389,19.8105009 25.2887658,19.8282174 25.3832542,19.869556 C25.5722304,19.9581386 25.7139627,20.0703435 25.8025457,20.2120758 C25.9029394,20.3715247 25.9501834,20.5427844 25.944278,20.7258562 L27.3852244,19.8223135 L27.6745944,18.9364883 L29.8182942,19.2258582 L26.2159305,21.4876702 L26.8832534,21.4699537 L26.2041188,22.2376713 C26.1096305,22.8695592 25.9619928,23.4955459 25.7730165,24.1038151 L27.1253799,23.2534203 C27.1667186,22.9404279 27.1903405,22.6628686 27.1962459,22.4325547 C27.2021514,22.1727121 27.1903404,21.8479089 27.1549073,21.4758595 L27.1253797,21.1687729 L29.1568778,21.275072 L28.5249898,22.0427896 C28.2001867,24.5821622 27.3556982,26.8321808 26.0151464,28.7278492 L25.8438863,28.9699752 L25.3182943,28.5093474 L25.4304993,28.3203711 C26.1332572,27.133362 26.647033,25.7869044 26.9600286,24.3105275 C25.9029433,25.1491106 25.7080599,25.4975367 25.6785307,25.6156443 L25.5958535,25.9404475 L24.1017592,25.1372994 L24.4324677,24.889268 C24.5801054,24.777063 24.7749875,24.4935984 24.8517593,23.7731243 C24.9049091,23.2829673 24.9108144,22.804622 24.8635703,22.3380837 L23.8360096,22.9817834 L23.4167181,23.3656417 L24.4560904,23.507374 L22.2769556,24.8951679 L22.6076642,25.4207599 C23.1627808,25.284933 23.5643594,25.2199724 23.8301038,25.2199724 C23.8891589,25.2199724 23.9423087,25.2258779 23.9895527,25.2317835 C24.3143559,25.2790274 24.5505751,25.408949 24.6864048,25.6215472 C24.7808932,25.7750907 24.8458537,25.9522558 24.8694757,26.153045 C24.8871922,26.312494 24.9167196,26.55462 24.7277434,26.6727312 C24.6509717,26.7199752 24.5623891,26.7435972 24.45609,26.7435972 C24.2848299,26.7435972 24.0840424,26.6727312 23.8182962,26.5250931 C23.5879814,26.418794 23.3635715,26.3361168 23.1450674,26.2770617 L24.7041214,28.7573759 C24.9049089,29.0762737 25.2887672,29.6550128 25.8438839,30.4758783 L25.9442776,30.6294218 L25.087977,31.8341485 L25.0879831,31.8341485 Z M21.9816822,25.7868742 L22.5781397,26.7317577 C23.446252,28.1136458 24.302548,29.50735 25.1234181,30.8656193 L25.3005836,30.6175879 C24.7986149,29.8734936 24.444283,29.3419958 24.25531,29.0408164 L20.4698744,23.0171831 L20.5289296,22.8636396 L20.1450713,22.9345055 C20.5525516,23.5368688 20.9659368,24.1687568 21.3793225,24.8360797 L21.397039,24.8242687 L21.4265666,24.9128512 L21.521055,25.0663947 L21.4856219,25.0900168 L21.5033384,25.149072 C21.8045196,26.0644264 22.0112129,26.9738749 22.1352264,27.8597047 C22.1293209,27.5467122 22.1175098,27.2278167 22.0820766,26.9030094 L21.9816828,25.7868658 L21.9816822,25.7868742 Z M23.3930984,25.7927796 C23.6056977,25.8577402 23.8301076,25.9404173 24.0486107,26.0467169 L24.0663272,26.0526224 C24.1844375,26.1175829 24.2671147,26.1589215 24.3320752,26.1766381 C24.3143587,26.070339 24.2848313,25.9758506 24.2316815,25.8931735 C24.1844375,25.8164017 24.078138,25.7691578 23.9186891,25.7455358 C23.895067,25.7396303 23.8655393,25.7396303 23.8301066,25.7396303 C23.7179016,25.7455358 23.5761693,25.7573468 23.3930984,25.7927801 L23.3930984,25.7927796 Z M25.1706602,25.113645 L25.3064872,25.1904168 C25.3655423,25.1018342 25.4423141,24.9955347 25.5545186,24.871519 L25.1706602,25.113645 L25.1706602,25.113645 Z M27.7336516,23.0703353 L27.6214466,23.7199407 C27.5742027,23.9856887 27.5269583,24.2514386 27.4679031,24.5112817 C27.7159345,23.6845103 27.8990054,22.8104922 28.0112081,21.9010436 L28.0230191,21.8242719 L28.0820743,21.7534059 L27.7159325,21.7356894 C27.7336491,22.0073428 27.7395546,22.2435639 27.7336491,22.4561603 C27.7277435,22.6510424 27.710027,22.869546 27.6864051,23.1175774 L27.7336491,23.0703335 L27.7336516,23.0703353 Z M22.7553011,23.8203353 L22.6962459,23.9975009 L22.938372,23.8439573 L22.7553011,23.8203353 L22.7553011,23.8203353 Z M25.3773508,22.0545862 C25.436406,22.4856885 25.4541226,22.9345056 25.4305006,23.3892322 C25.5427055,22.9581299 25.6312881,22.5211199 25.6962486,22.0841154 L25.7021541,22.0486823 L25.3773508,22.0545878 L25.3773508,22.0545862 Z M24.668687,20.3597026 C24.887191,20.4660017 25.0820727,20.5900174 25.2533328,20.7258443 L25.2710494,20.7435609 C25.3241991,20.7967107 25.3655377,20.8321434 25.3950651,20.8557658 C25.4009706,20.8380493 25.4009706,20.8203327 25.406876,20.7967107 C25.4245926,20.6904116 25.4127816,20.5959232 25.3537263,20.5073407 C25.3241987,20.4541909 25.2592379,20.4069469 25.16475,20.3656084 C25.16475,20.3656084 25.1175061,20.3478919 24.9403406,20.3478919 C24.8635688,20.3478919 24.7749863,20.3537974 24.668687,20.3597029 L24.668687,20.3597026 Z M28.0466426,19.5329312 L27.9698709,19.7750572 L28.3005794,19.5683644 L28.0466422,19.5329312 L28.0466426,19.5329312 Z M26.4344361,30.7947818 L25.9147499,30.3400379 L26.0682934,30.1392504 C27.9226255,27.7829496 28.8911279,25.2612946 28.9501817,22.6510794 L28.9560872,22.3853313 L30.9816794,22.42667 L30.3143565,23.1589525 C30.1667188,23.8912351 29.9836479,24.6058048 29.753334,25.3026524 C30.8871906,25.1786366 31.5663252,25.1550147 31.8970338,25.2199752 C32.3045141,25.3026524 32.5702626,25.4561959 32.7178994,25.6924147 C32.7887653,25.810525 32.8241985,25.9640686 32.8301043,26.1884776 C32.8360098,26.3597377 32.8182933,26.6077691 32.6234115,26.7258813 C32.5525455,26.7731252 32.4639626,26.7967472 32.3635688,26.7967472 C32.180498,26.7967472 31.9442773,26.71407 31.6253804,26.5369045 C31.1175059,26.2947785 30.3852233,26.1589516 29.4580572,26.1353296 C28.8084518,27.7829666 27.8458507,29.2829668 26.5997878,30.5998997 L26.4344335,30.7947818 L26.4344361,30.7947818 Z M29.4757774,22.9286261 C29.4226276,24.0979188 29.1982181,25.2435871 28.7966427,26.3715424 C28.8616033,26.2239048 28.9206584,26.0762666 28.9797136,25.9286261 L29.1214459,25.527054 C29.4108159,24.7120943 29.6411321,23.8616995 29.8123922,22.9876814 L29.8242032,22.9345316 L29.4757781,22.9286261 L29.4757774,22.9286261 Z M30.8340466,25.7455558 C31.2356216,25.8223275 31.5840467,25.9286267 31.873419,26.070359 L31.88523,26.0762645 C32.1037341,26.2002802 32.239561,26.2416188 32.3104269,26.2593353 L32.3104269,26.2061856 C32.3045214,26.0349254 32.2808994,25.9817761 32.2749938,25.9817761 C32.2100333,25.875477 32.044679,25.7987052 31.7966485,25.7455555 C31.7434987,25.7337444 31.6312942,25.7219334 31.4246014,25.7219334 C31.2592471,25.7219334 31.064365,25.7278389 30.8340466,25.7455555 L30.8340466,25.7455558 Z M35.1096391,16.1136529 C34.5131816,15.1628636 34.046648,14.4601101 33.7159394,13.9876661 L35.0151503,13.7278234 L34.849796,14.2416038 L35.7651504,15.7002677 L38.8242046,13.7750701 L38.9009764,13.1195588 L39.9403487,13.1254644 L39.7277505,13.6628681 L41.0564906,15.7770433 C41.2277507,16.0427913 41.416727,16.3144469 41.6293247,16.5860971 L41.1096386,17.2179851 L40.6962524,16.5624738 L37.5486152,18.5408193 C38.712001,20.3892456 39.4029473,21.4640484 39.6332612,21.759322 L39.0958576,22.5565642 C38.7710544,21.9778242 38.0387722,20.7790034 36.8930994,18.9542005 L33.8753815,20.8498689 L34.1529407,21.286877 L33.6805012,21.989635 C33.4324698,21.5349102 33.0545145,20.8912088 32.5348329,20.0644374 C32.0151467,19.237666 31.5781377,18.5762489 31.2297162,18.0860919 L32.0919226,18.0034147 L35.1096405,16.1136522 L35.1096391,16.1136529 Z M32.2277509,18.2278281 L33.7395628,20.6372769 L36.7572807,18.7416085 L35.2454688,16.3321598 L32.2277509,18.2278281 Z M35.9009801,15.9187741 L37.412792,18.3282228 L40.5604291,16.3498773 L39.0486173,13.9404285 L35.9009801,15.9187741 Z M39.0781464,23.0644338 L38.8655478,22.6864719 C38.5525553,22.1313553 37.8616104,20.9974941 36.8104309,19.3203279 L34.2474396,20.9384403 L34.471849,21.2986766 L33.6568893,22.5093091 L33.4501964,22.1195454 C33.202165,21.6648207 32.8183085,21.0211192 32.310434,20.2120654 C31.8025595,19.4030115 31.3655504,18.7415943 31.0171243,18.2455315 L30.7513763,17.8734839 L32.0092509,17.7494682 L34.7494082,16.0309658 C34.2297221,15.2101002 33.8104305,14.5782077 33.5033453,14.1412032 L33.2671246,13.8045888 L35.4167303,13.3793919 L35.1509823,14.2061633 L35.8596461,15.3341186 L38.5879917,13.6215175 L38.6765742,12.8537999 L40.3419287,12.8656109 L40.0407475,13.6392343 L41.2986221,15.6412032 C41.4639764,15.9010459 41.6470473,16.1667952 41.8537388,16.4325442 L41.9836598,16.5978985 L41.0978346,17.6786071 L40.631301,16.9345128 L37.93248,18.6293965 C39.001377,20.330186 39.6509824,21.3282175 39.8635834,21.6057736 L39.9816937,21.7593171 L39.078151,23.0644338 L39.0781464,23.0644338 Z M37.1234197,18.8242674 C38.0564916,20.3124559 38.7238145,21.3931645 39.1135769,22.0604875 L39.308459,21.7711175 C39.0013724,21.3341094 38.3517637,20.3183594 37.3242076,18.68844 L34.5545211,14.2770224 L34.6194817,14.0762349 L34.1588539,14.1648174 C34.4718463,14.6195421 34.8616118,15.2219027 35.3281455,15.9600912 L37.1234238,18.8242665 L37.1234197,18.8242674 Z M31.7080464,18.310487 C32.0092277,18.7534005 32.3635577,19.2967069 32.7592259,19.9285994 C33.1489896,20.5427744 33.4619839,21.0683618 33.7041095,21.4876534 L33.8399364,21.2868655 L31.9501739,18.2868655 L31.7080464,18.3104876 L31.7080464,18.310487 Z M32.5938716,18.310487 L33.8222171,20.2711196 L36.3911143,18.6589131 L35.1627688,16.6982805 L32.5938716,18.310487 L32.5938716,18.310487 Z M36.2671008,16.0014329 L37.4954463,17.9620655 L40.1942673,16.2671819 L38.9659218,14.3065493 L36.2671008,16.0014329 Z M40.7848189,16.2022204 L41.1450553,16.7691487 L41.2985988,16.5860778 C41.1332445,16.3616684 40.979701,16.1431643 40.8438741,15.9246607 L39.4442685,13.6923779 L39.5623789,13.3852913 L39.1430873,13.3852913 L39.1194653,13.5860788 L39.1371818,13.5742678 L40.7848188,16.2022233 L40.7848189,16.2022204 Z" id="形状"></path>
        </g>
    </g>
</svg>