<?xml version="1.0" encoding="UTF-8"?>
<svg width="50px" height="50px" viewBox="0 0 50 50" version="1.1" xmlns="http://www.w3.org/2000/svg" xmlns:xlink="http://www.w3.org/1999/xlink">
    <!-- Generator: Sketch 59 (86127) - https://sketch.com -->
    <title>加人-反白@1</title>
    <desc>Created with Sketch.</desc>
    <g id="页面-3" stroke="none" stroke-width="1" fill="none" fill-rule="evenodd">
        <g id="编组备份-4" fill="#FFFFFF" fill-rule="nonzero">
            <path d="M25.4729188,6.00015602 C31.7953481,6.03314172 36.8940575,11.1850579 36.8613982,17.5074871 L36.8613982,17.5074871 L36.8566186,17.8017201 C36.6785791,23.9624381 31.6271861,28.8963888 25.4284157,28.8928401 L25.4284157,28.8928401 L25.1167524,28.896244 C17.5526602,29.061612 11.4494622,35.2313129 11.4494622,42.7920008 C11.4494665,43.744546 10.6772742,44.516734 9.72473326,44.516734 C8.77218801,44.516734 8,43.744546 8,42.7920051 L8,42.7920051 L8.00466618,42.4290882 C8.16476929,35.5461943 12.3862277,29.3934555 18.7795829,26.7778768 L18.7795829,26.7778768 L18.5069042,26.5778791 C15.6351478,24.4057625 13.9469877,21.0024354 13.9657453,17.3886354 C13.9985734,11.0662062 19.1504896,5.96749669 25.4729188,6.00015602 Z M35.5591013,29.9061588 C36.5116466,29.9061588 37.2838346,30.6783511 37.2838346,31.630892 L37.2838346,31.630892 L37.2838346,35.4964469 L41.1644801,35.4964469 L41.1644759,35.4985999 L41.3121764,35.5048832 C42.1884258,35.579769 42.8762714,36.3147536 42.8762714,37.2103953 C42.8762714,38.1557948 42.1098756,38.9221907 41.164476,38.9221906 L41.164476,38.9221906 L37.2838305,38.9221906 L37.2838305,42.7877455 C37.2838348,43.7402908 36.5116425,44.5124788 35.5591015,44.5124788 C34.6065563,44.5124788 33.8343684,43.7402908 33.8343683,42.7877498 L33.8343683,42.7877498 L33.8343683,38.9200376 L29.9537227,38.9200376 L29.9537227,38.9200376 L29.8060222,38.9137543 C28.9297728,38.8388685 28.2419273,38.103884 28.2419273,37.2082423 C28.2419273,36.2628428 29.0083231,35.4964469 29.9537226,35.4964469 L29.9537226,35.4964469 L33.8343681,35.4964469 L33.8343681,31.630892 C33.8343681,30.6783468 34.6065604,29.9061588 35.5591013,29.9061588 Z M25.5038566,9.54578131 C21.1067519,9.52090499 17.5219256,13.0652294 17.49679,17.4623127 C17.4719137,21.8594174 21.0162381,25.4442436 25.4133213,25.4692478 L25.4133213,25.4692478 L25.6619024,25.4658573 C29.9547162,25.3416608 33.4029098,21.8316875 33.4203854,17.507408 L33.4203854,17.507408 L33.4166259,17.2604334 C33.2866083,12.9950141 29.8006069,9.57034386 25.5038566,9.54578131 Z" id="形状结合"></path>
        </g>
    </g>
</svg>