<?xml version="1.0" encoding="UTF-8"?>
<svg width="49px" height="49px" viewBox="0 0 49 49" version="1.1" xmlns="http://www.w3.org/2000/svg" xmlns:xlink="http://www.w3.org/1999/xlink">
    <!-- Generator: Sketch 63.1 (92452) - https://sketch.com -->
    <title>添加好友</title>
    <desc>Created with Sketch.</desc>
    <g id="定稿✅" stroke="none" stroke-width="1" fill="none" fill-rule="evenodd">
        <g id="Manage" transform="translate(-634.000000, -261.000000)" stroke="#979797">
            <g id="编组-2" transform="translate(35.000000, 234.000000)">
                <g id="添加好友-2" transform="translate(599.000000, 27.000000)">
                    <g id="添加好友">
                        <circle id="椭圆形" stroke-width="1.4" cx="24.5" cy="24.5" r="23.8"></circle>
                        <g transform="translate(12.000000, 10.000000)" fill="#979797" fill-rule="nonzero" stroke-width="0.2">
                            <path d="M25.344,22.6963968 L18.5856,22.6963968 C18.1190298,22.6963968 17.7408,22.318167 17.7408,21.8515968 C17.7408,21.3850266 18.1190298,21.0067968 18.5856,21.0067968 L25.344,21.0067968 C25.8105702,21.0067968 26.1888,21.3850266 26.1888,21.8515968 C26.1888,22.318167 25.8105702,22.6963968 25.344,22.6963968 Z" id="路径"></path>
                            <path d="M21.9648,26.0722176 C21.4982298,26.0722176 21.12,25.6939878 21.12,25.2274176 L21.12,18.4740864 C21.12,18.0075162 21.4982298,17.6292864 21.9648,17.6292864 C22.4313702,17.6292864 22.8096,18.0075162 22.8096,18.4740864 L22.8096,25.2274176 C22.8096,25.6939878 22.4313702,26.0722176 21.9648,26.0722176 Z M13.1552256,15.3550848 C8.9058816,15.3550848 5.4506496,11.9099904 5.4506496,7.6775424 C5.4506496,3.4450944 8.9058816,0 13.1552256,0 C17.40288,0 20.8598016,3.4450944 20.8598016,7.6775424 C20.8598016,11.9099904 17.40288,15.3550848 13.1552256,15.3550848 L13.1552256,15.3550848 Z M13.1552256,1.6896 C9.8385408,1.6896 7.1402496,4.376064 7.1402496,7.6775424 C7.1402496,10.9790208 9.8385408,13.6654848 13.1552256,13.6654848 C16.4719104,13.6654848 19.1702016,10.9790208 19.1702016,7.6775424 C19.1702016,4.376064 16.4719104,1.6896 13.1552256,1.6896 Z" id="形状"></path>
                            <path d="M19.6686336,16.2522842 C19.5060022,16.2534473 19.3466671,16.2064111 19.210752,16.1170944 C18.3747858,15.5759802 17.470135,15.1492259 16.5209088,14.8482048 C16.2263802,14.7626653 16.0013461,14.5242191 15.9329817,14.2252368 C15.8646172,13.9262545 15.9636622,13.6137052 16.191748,13.4086662 C16.4198338,13.2036272 16.7411288,13.1383094 17.031168,13.238016 C18.1192704,13.5826944 19.160064,14.074368 20.1265152,14.6978304 C20.4410519,14.9010009 20.5843168,15.2869811 20.4785122,15.6461705 C20.3727075,16.0053598 20.0430819,16.2520429 19.6686336,16.2522842 L19.6686336,16.2522842 Z M0.8448,27.0336 C0.378229843,27.0336 0,26.6553702 0,26.1888 C0,20.2008576 3.7289472,14.9952 9.2792832,13.2363264 C9.56721755,13.1451774 9.88190728,13.2145633 10.1048118,13.4183473 C10.3277164,13.6221312 10.4249712,13.9293535 10.3599414,14.2242865 C10.2949116,14.5192195 10.0774767,14.7570558 9.7895424,14.8482048 C4.9454592,16.3823616 1.6896,20.9409024 1.6896,26.1888 C1.6896,26.6553702 1.31137016,27.0336 0.8448,27.0336 Z" id="形状"></path>
                        </g>
                    </g>
                </g>
            </g>
        </g>
    </g>
</svg>