<?xml version="1.0" encoding="UTF-8"?>
<svg width="50px" height="50px" viewBox="0 0 50 50" version="1.1" xmlns="http://www.w3.org/2000/svg" xmlns:xlink="http://www.w3.org/1999/xlink">
    <!-- Generator: Sketch 59 (86127) - https://sketch.com -->
    <title>加群-反白@1</title>
    <desc>Created with Sketch.</desc>
    <g id="页面-3" stroke="none" stroke-width="1" fill="none" fill-rule="evenodd">
        <g id="编组备份-4" fill="#FFFFFF" fill-rule="nonzero">
            <path d="M28.7024479,6.00015602 C35.0248772,6.03314172 40.1235866,11.1850579 40.0909273,17.5074871 L40.0909273,17.5074871 L40.0861477,17.8017201 C39.9081081,23.9624381 34.8567152,28.8963888 28.6579448,28.8928401 L28.6579448,28.8928401 L28.3462815,28.896244 C20.7821893,29.061612 14.6789913,35.2313129 14.6789913,42.7920008 C14.6789956,43.744546 13.9068033,44.516734 12.9542623,44.516734 C12.0017171,44.516734 11.2295291,43.744546 11.2295291,42.7920051 L11.2295291,42.7920051 L11.2341953,42.4290882 C11.3942984,35.5461943 15.6157568,29.3934555 22.0091119,26.7778768 L22.0091119,26.7778768 L21.7364332,26.5778791 C18.8646769,24.4057625 17.1765168,21.0024354 17.1952744,17.3886354 C17.2281025,11.0662062 22.3800187,5.96749669 28.7024479,6.00015602 Z M38.7886304,29.9061588 C39.7411757,29.9061588 40.5133637,30.6783511 40.5133637,31.630892 L40.5133637,31.630892 L40.5133637,35.4964469 L44.3940092,35.4964469 L44.394005,35.4985999 L44.5417055,35.5048832 C45.4179549,35.579769 46.1058005,36.3147536 46.1058005,37.2103953 C46.1058005,38.1557948 45.3394046,38.9221907 44.3940051,38.9221906 L44.3940051,38.9221906 L40.5133596,38.9221906 L40.5133596,42.7877455 C40.5133639,43.7402908 39.7411716,44.5124788 38.7886306,44.5124788 C37.8360854,44.5124788 37.0638975,43.7402908 37.0638974,42.7877498 L37.0638974,42.7877498 L37.0638974,38.9200376 L33.1832518,38.9200376 L33.1832518,38.9200376 L33.0355513,38.9137543 C32.1593019,38.8388685 31.4714564,38.103884 31.4714564,37.2082423 C31.4714564,36.2628428 32.2378522,35.4964469 33.1832517,35.4964469 L33.1832517,35.4964469 L37.0638972,35.4964469 L37.0638972,31.630892 C37.0638972,30.6783468 37.8360895,29.9061588 38.7886304,29.9061588 Z M14.6398162,7.17463228 C15.5428227,6.89470344 16.5017785,7.39980598 16.7817078,8.3028125 C17.0616366,9.20581902 16.5565341,10.1647748 15.6535276,10.4447041 L15.6535276,10.4447041 L15.3949885,10.5323107 C12.9174119,11.4219658 11.075095,13.5437912 10.5502522,16.1368239 C9.72353249,20.2213521 12.3645067,24.2027423 16.449052,25.0294749 L16.449052,25.0294749 L16.596578,25.0663053 C17.2721511,25.2671441 17.7614418,25.8666951 17.8136771,26.5800127 C17.8826335,27.5216998 17.1751479,28.3409885 16.2334609,28.4099465 L16.2334609,28.4099465 L15.9473241,28.4366482 C10.2489018,29.0439447 6.03663037,34.0820655 6.48659824,39.8298539 L6.48659824,39.8298539 L6.49104828,39.9775614 C6.48023764,40.8567034 5.80261733,41.5982956 4.91062304,41.6731734 L4.91062304,41.6731734 L4.7683327,41.6731734 C3.87174142,41.676598 3.122045,40.9925003 3.04359944,40.0993422 L3.04359944,40.0993422 L3.02172801,39.7738642 C2.70237073,34.0304485 5.92646376,28.658181 11.1735542,26.2475761 L11.1735542,26.2475761 L10.8717623,26.003164 C9.28747626,24.6728826 8.11042707,22.9188059 7.48099582,20.9426051 C5.64639994,15.1826375 8.82854036,9.02601625 14.588508,7.19142896 L14.588508,7.19142896 L14.6140957,7.1828284 L14.6140957,7.1828284 Z M28.7333857,9.54578131 C24.336281,9.52090499 20.7514547,13.0652294 20.7263191,17.4623127 C20.7014427,21.8594174 24.2457672,25.4442436 28.6428504,25.4692478 L28.6428504,25.4692478 L28.8914315,25.4658573 C33.1842453,25.3416608 36.6324389,21.8316875 36.6499145,17.507408 L36.6499145,17.507408 L36.646155,17.2604334 C36.5161374,12.9950141 33.030136,9.57034386 28.7333857,9.54578131 Z" id="形状结合"></path>
        </g>
    </g>
</svg>