<?xml version="1.0" encoding="UTF-8"?>
<svg width="50px" height="50px" viewBox="0 0 50 50" version="1.1" xmlns="http://www.w3.org/2000/svg" xmlns:xlink="http://www.w3.org/1999/xlink">
    <!-- Generator: Sketch 59 (86127) - https://sketch.com -->
    <title>允许</title>
    <desc>Created with Sketch.</desc>
    <g id="页面-3" stroke="none" stroke-width="1" fill="none" fill-rule="evenodd">
        <g id="点击群" transform="translate(-546.000000, -219.000000)">
            <rect fill="#F6F6F6" x="0" y="0" width="750" height="1334"></rect>
            <g id="编组" transform="translate(546.000000, 219.000000)" fill="#16AB78" fill-rule="nonzero">
                <path d="M25.0000274,3 L25.0000265,3 C36.5980289,3 46.000052,12.4020231 46.000052,24.0000255 C46.000052,35.5980279 36.5980289,45.000051 25.0000265,45.000051 L25.0000255,45.000051 C13.4020231,45.000051 4,35.5980279 4,24.0000255 C4,12.4020231 13.4020231,3 25.0000255,3 L25.0000274,3 Z M25.0000274,6.49912925 L25.0000266,6.49912925 C15.3345598,6.49912925 7.49913036,14.3345587 7.49913036,24.0000255 C7.49913036,33.6654924 15.3345598,41.5009218 25.0000266,41.5009218 L25.0000272,41.5009218 C34.665494,41.5009218 42.5009234,33.6654924 42.5009234,24.0000255 C42.5009234,14.3345587 34.665494,6.49912925 25.0000272,6.49912925 L25.0000274,6.49912925 Z M36.1379159,16.7891418 C36.8204168,17.4716426 36.8204168,18.5793939 36.1379159,19.2618948 L23.7636509,31.6387848 L23.7636509,31.6387848 C23.1510284,32.2516821 22.1822218,32.3242306 21.4851481,31.80941 L21.2882729,31.6387848 L13.8621388,24.2152758 L13.8621388,24.2152757 C13.1952526,23.5150479 13.222286,22.4067839 13.9225138,21.7398977 C14.5987147,21.0958942 15.6613201,21.0958983 16.3375209,21.7399008 L22.5246534,27.9244083 L33.6625419,16.7865198 C34.3450428,16.104019 35.4527941,16.104019 36.13792,16.7865198 L36.1379159,16.7891418 Z" id="形状"></path>
            </g>
        </g>
    </g>
</svg>