<?xml version="1.0" encoding="UTF-8"?>
<svg width="50px" height="50px" viewBox="0 0 50 50" version="1.1" xmlns="http://www.w3.org/2000/svg" xmlns:xlink="http://www.w3.org/1999/xlink">
    <!-- Generator: Sketch 59 (86127) - https://sketch.com -->
    <title>all@1</title>
    <desc>Created with Sketch.</desc>
    <g id="页面-2" stroke="none" stroke-width="1" fill="none" fill-rule="evenodd">
        <g id="首页-右侧" transform="translate(-375.000000, -136.000000)" fill="#595851" fill-rule="nonzero">
            <g id="编组" transform="translate(375.000000, 136.000000)">
                <path d="M41.4319115,16.3010178 C40.4818028,14.2898618 39.1214458,12.4847595 37.3886549,10.9358866 C35.6561831,9.38734769 33.6374864,8.17196971 31.3886186,7.32352224 C29.0607596,6.44528333 26.5851013,5.99998145 24.0303405,5.99998145 C21.475153,5.99998145 18.9963366,6.44527962 16.6626737,7.32348513 C14.4074342,8.17219608 12.3817684,9.38746273 10.6419675,10.9356231 C8.9005895,12.4851751 7.53320764,14.2901921 6.57770691,16.3006059 C5.58770186,18.3837431 5.08574873,20.5968375 5.08574873,22.8785101 C5.08574873,28.2697663 7.68406484,33.1403404 12.2211477,36.2586077 C12.234522,36.8928002 12.225994,40.9312772 12.2163013,43.65496 L12.2150991,44.0000271 L19.5180471,39.3170783 C20.9030856,39.6015098 22.4590983,39.7578714 23.9091674,39.7578714 C34.3886073,39.7578714 42.9143106,32.185806 42.9143106,22.8785041 C42.9143106,20.5961042 42.4155526,18.3831063 41.4319304,16.3010082 L41.4319115,16.3010178 Z M30.4495277,36.1594921 C28.4182731,36.9131918 26.2585384,37.2953409 24.0303405,37.2953409 C22.3623724,37.2953409 20.4871407,37.0636932 19.0141491,36.675725 L18.9357811,36.6550622 L14.476231,39.432127 L14.476231,35.0513602 C14.476231,34.799726 14.2124624,34.6309698 13.907069,34.4355368 C13.8577038,34.4039417 13.8078506,34.3720834 13.7598377,34.3401129 C9.72519046,31.6428408 7.4112698,27.4652592 7.4112698,22.878498 C7.4112698,14.9289927 14.8365675,8.46160037 23.9635547,8.46160037 C33.0717645,8.46160037 40.4819216,14.9289927 40.4819216,22.878498 C40.4819216,24.8223673 40.0490959,26.7077447 39.1954605,28.4822057 C38.3696683,30.1988614 37.186557,31.740639 35.6791205,33.0647735 C34.169205,34.3909417 32.4097547,35.432154 30.4495128,36.1594801 L30.4495277,36.1594921 Z M32.5399902,17.421277 L15.8687697,17.421277 C15.1900941,17.421277 14.6379134,17.985971 14.6379134,18.6800841 C14.6379134,19.3608638 15.2015906,19.9360375 15.8687697,19.9360375 L32.5399902,19.9360375 C33.2071322,19.9360375 33.7707723,19.3608638 33.7707723,18.6800841 C33.7707723,17.9859673 33.2186287,17.421277 32.5399902,17.421277 Z M30.1328619,24.777514 L17.3628802,24.777514 C16.7651662,24.777514 16.278877,25.26459 16.278877,25.8632428 L16.278877,26.1467725 C16.278877,26.7551963 16.7651254,27.2501988 17.3628802,27.2501988 L30.1328619,27.2501988 C30.7330176,27.2501988 31.2212588,26.7551963 31.2212588,26.1467725 L31.2212588,25.8632428 C31.2212588,25.2645492 30.7330176,24.777514 30.1328619,24.777514 Z" id="形状"></path>
            </g>
        </g>
    </g>
</svg>