<?xml version="1.0" encoding="UTF-8"?>
<svg width="35px" height="35px" viewBox="0 0 35 35" version="1.1" xmlns="http://www.w3.org/2000/svg" xmlns:xlink="http://www.w3.org/1999/xlink">
    <!-- Generator: Sketch 59 (86127) - https://sketch.com -->
    <title>归档@1</title>
    <desc>Created with Sketch.</desc>
    <g id="页面-3" stroke="none" stroke-width="1" fill="none" fill-rule="evenodd">
        <g id="回复备份" transform="translate(-124.000000, -1012.000000)" fill="#595851" fill-rule="nonzero">
            <g id="编组-12" transform="translate(124.000000, 1012.000000)">
                <path d="M26.4411395,3 C26.7286668,3 27.0161941,3.13578271 27.2270474,3.36855307 L32,9.34299228 L31.67467,9.61132163 C31.879499,9.7903782 32,10.0512551 32,10.3514558 L32,31.0151144 C32,31.5454374 31.5356905,32 30.993996,32 L4.006004,32 C3.46430954,32 3,31.5643775 3,31.0151144 L3,10.3514558 C3,9.95371355 3.251501,9.59385148 3.63842562,9.44233061 C3.6944647,9.41923053 3.7523024,9.40185324 3.81111609,9.38993029 L3.70731707,9.30419722 L8.5761121,3.34915554 C8.76779695,3.11638518 9.03615573,3 9.34285148,3 L26.4411395,3 Z M29.5817211,12.1507661 L23.393,12.15 L23.3933505,21.815604 C23.3933505,22.145362 23.2400026,22.47512 22.9524754,22.6496978 C22.7224536,22.7466855 22.5307687,22.804878 22.3390839,22.804878 C22.2049045,22.804878 22.0898936,22.7854805 21.9748827,22.7272879 L17.8919955,21.0397028 L13.8091083,22.7272879 C13.5024126,22.8436731 13.1382114,22.8242756 12.8698526,22.6303003 C12.6014938,22.4557225 12.4289775,22.145362 12.4289775,21.7962065 L12.428,12.15 L5.41827885,12.1507661 L5.41827885,29.6324864 L29.5817211,29.6324864 L29.5817211,12.1507661 Z M21.399,12.15 L14.422,12.15 L14.4224998,20.3025967 L17.5277943,19.0223597 C17.7578161,18.9253721 18.0261749,18.9253721 18.2945337,19.0223597 L21.3998281,20.3025967 L21.399,12.15 Z M25.9810959,4.99794558 L9.8028951,4.99794558 L5.925,9.745 L29.78,9.745 L25.9810959,4.99794558 Z" id="形状结合"></path>
            </g>
        </g>
    </g>
</svg>