<?xml version="1.0" encoding="UTF-8"?>
<svg width="50px" height="50px" viewBox="0 0 50 50" version="1.1" xmlns="http://www.w3.org/2000/svg" xmlns:xlink="http://www.w3.org/1999/xlink">
    <!-- Generator: Sketch 59 (86127) - https://sketch.com -->
    <title>Help</title>
    <desc>Created with Sketch.</desc>
    <g id="页面-2" stroke="none" stroke-width="1" fill="none" fill-rule="evenodd">
        <g id="Partner" transform="translate(-45.000000, -721.000000)" fill="#595851" fill-rule="nonzero">
            <g id="Help-2" transform="translate(45.000000, 721.000000)">
                <path d="M24.5000255,42.000051 C14.8750115,42.000051 7,34.1250395 7,24.5000255 C7,14.8750115 14.8750115,7 24.5000255,7 C34.1250395,7 42.000051,14.8750115 42.000051,24.5000255 C42.000051,34.1250395 34.1250395,42.000051 24.5000255,42.000051 Z M24.5000255,9.91665952 C16.4791691,9.91665952 9.91665952,16.4791691 9.91665952,24.5000255 C9.91665952,32.5208819 16.4791691,39.0833915 24.5000255,39.0833915 C32.5208819,39.0833915 39.0833915,32.5208819 39.0833915,24.5000255 C39.0833915,16.4791691 32.5208819,9.91665952 24.5000255,9.91665952 Z M35.8750421,37.3333547 C35.4375414,37.3333547 35.1458755,37.1875211 34.8542061,36.8958541 L12.104173,14.145821 C11.5208376,13.5624856 11.5208376,12.6874844 12.104173,12.1041525 C12.6875083,11.5208171 13.5625096,11.5208171 14.1458415,12.1041525 L36.8958746,34.8541856 C37.4792099,35.4375209 37.4792099,36.3125222 36.8958746,36.8958541 C36.6042076,37.1875211 36.166708,37.3333547 35.8750387,37.3333547 L35.8750421,37.3333547 Z" id="形状"></path>
            </g>
        </g>
    </g>
</svg>