<?xml version="1.0" encoding="UTF-8"?>
<svg width="230px" height="61px" viewBox="0 0 230 61" version="1.1" xmlns="http://www.w3.org/2000/svg" xmlns:xlink="http://www.w3.org/1999/xlink">
    <!-- Generator: Sketch 59 (86127) - https://sketch.com -->
    <title>7</title>
    <desc>Created with Sketch.</desc>
    <defs>
        <linearGradient x1="50%" y1="9.0126257%" x2="50%" y2="84.6855767%" id="linearGradient-1">
            <stop stop-color="#D8D8D8" offset="0%"></stop>
            <stop stop-color="#EEEEEE" stop-opacity="0" offset="100%"></stop>
        </linearGradient>
    </defs>
    <g id="页面-1" stroke="none" stroke-width="1" fill="none" fill-rule="evenodd">
        <g id="信鸽-手机端" transform="translate(-520.000000, -5721.000000)" fill="url(#linearGradient-1)">
            <g id="编组-17" transform="translate(520.000000, 5711.000000)">
                <path d="M267.103843,0 C251.918405,0.0742343908 235.49589,12.0133655 219.429352,13.0232333 L219.429352,13.0232333 C214.792796,13.3159689 210.171718,12.6716704 205.547324,12.027372 L205.547324,12.027372 C201.550865,11.4713143 197.552195,10.9138561 193.540259,10.9614782 L193.540259,10.9614782 C184.88624,11.0637255 175.366598,14.9043048 171.261798,24.5575769 L171.261798,24.5575769 C169.89648,27.7692647 169.14362,31.5650232 166.967954,33.9517289 L166.967954,33.9517289 C164.934901,36.1801613 162.094817,36.6885968 159.423879,37.0737753 L159.423879,37.0737753 C133.375591,40.8373188 107.073033,41.770151 80.8976106,39.8596659 L80.8976106,39.8596659 C63.3065592,38.5766715 0.121607319,46.0015113 0,55.8732846 L0,55.8732846 L0,55.9307112 C0.00884416865,56.6478434 0.350450183,57.3761808 1.06793336,58.1171241 L1.06793336,58.1171241 C31.8467458,70.8770354 72.2856014,73.4542294 104.629832,75.4823689 L104.629832,75.4823689 C301.537508,87.8220856 429.194238,85.9340109 587.352295,75.0803827 L587.352295,75.0803827 C589.220626,74.9529237 591.125439,74.9543243 593.031357,74.9543243 L593.031357,74.9543243 C599.033231,74.9571256 605.045055,74.9627282 610,70.9120516 L610,70.9120516 C581.950719,63.1566588 553.665962,55.3662497 524.957791,54.9614622 L524.957791,54.9614622 C522.170772,54.9236446 519.373804,54.9530583 516.576836,54.9824719 L516.576836,54.9824719 C506.704532,55.0861199 496.81233,55.1883673 487.252889,52.2778189 L487.252889,52.2778189 C476.988126,49.1529712 467.509388,42.6581624 457.233569,39.5837381 L457.233569,39.5837381 C440.97246,34.7164832 423.719698,38.6831208 407.374569,34.286484 L407.374569,34.286484 C395.737854,31.1574344 384.929174,23.8782622 373.177485,21.5503837 L373.177485,21.5503837 C362.860762,19.506837 352.016706,21.2562474 341.30089,23.0056579 L341.30089,23.0056579 C324.888324,25.6836986 308.774249,28.3631399 295.321163,17.4156682 L295.321163,17.4156682 C290.253454,13.2921579 286.07569,7.48506763 280.730496,3.96943893 L280.730496,3.96943893 C276.425597,1.13732689 271.96703,0.0224103821 267.393489,0 L267.393489,0 L267.103843,0 Z" id="Fill-1备份-5"></path>
            </g>
        </g>
    </g>
</svg>