<?xml version="1.0" encoding="UTF-8"?>
<svg width="351px" height="377px" viewBox="0 0 351 377" version="1.1" xmlns="http://www.w3.org/2000/svg" xmlns:xlink="http://www.w3.org/1999/xlink">
    <!-- Generator: Sketch 59 (86127) - https://sketch.com -->
    <title>5</title>
    <desc>Created with Sketch.</desc>
    <g id="页面-1" stroke="none" stroke-width="1" fill="none" fill-rule="evenodd">
        <g id="信鸽-手机端" transform="translate(-343.000000, -4029.000000)" fill="#2B363C">
            <g id="编组-14" transform="translate(343.000000, 4029.000000)">
                <g id="编组">
                    <path d="M151.805684,76.110924 C151.805684,76.110924 151.696045,72.8032455 154.953063,70.4693341 C154.953063,70.4693341 154.578858,64.578585 158.610506,62.5588309 C162.639771,60.537873 165.300921,61.8137606 165.901556,61.9244981 C166.504576,62.0388465 169.811647,61.3575706 169.811647,61.3575706 C169.811647,61.3575706 162.7077,47.1928107 158.417444,44.016332 C154.122422,40.8434643 151.912941,36.488595 150.504307,31.4163399 C149.099248,26.3428811 151.002453,21.7003352 151.705578,22.0493988 C152.403937,22.4008698 153.061776,24.1654464 153.061776,24.1654464 C153.061776,24.1654464 154.734975,20.9287843 155.7122,22.3695744 C156.694192,23.8079572 157.08389,24.945423 157.08389,24.945423 C157.08389,24.945423 158.273244,22.1023602 159.577005,23.8681405 C160.874807,25.6351245 161.440883,26.9748065 161.440883,26.9748065 C161.440883,26.9748065 162.2894,24.8395003 163.166519,26.0443715 C164.047213,27.2456317 164.466704,28.4625396 164.466704,28.4625396 C164.466704,28.4625396 166.584422,26.7075923 167.1934,30.5472919 C167.1934,30.5472919 169.656721,28.7381795 173.166389,34.2052376 C176.682014,39.6722957 176.2947,44.4785403 179.467105,46.7402317 C182.633552,49.0031267 188.481408,58.1136865 188.481408,58.1136865 C188.481408,58.1136865 203.456782,57.2614899 216.247702,58.4458988 C222.429244,59.0200482 223.3588,59.2992991 225.865024,59.6050306 C227.538223,59.8084505 213.147992,62.6707719 210.763325,63.141406 C208.381042,63.6096327 198.497962,63.1257583 196.870049,62.9909475 C195.248094,62.8549331 188.187049,65.3441176 188.187049,65.3441176 C188.187049,65.3441176 201.271136,70.1250852 203.909642,70.4765561 C206.546958,70.8268234 212.761869,70.4717415 214.660307,71.700686 C216.565895,72.928427 216.583772,75.1540083 214.393358,76.9414546 C212.198177,78.7264936 208.114093,75.1780817 205.876009,75.1215093 C203.64031,75.0625296 196.144281,78.4857601 191.756303,78.793899 C187.368325,79.1056489 173.898115,79.5197106 169.649571,76.2300871 C165.398643,72.942871 161.496894,70.2502666 159.606798,70.7907134 C157.709552,71.3275491 153.546813,73.0307387 151.805684,76.110924" id="Fill-1"></path>
                    <path d="M109.060523,71.7673216 C110.570331,73.0823222 115.940109,72.1423579 115.940109,72.1423579 C115.940109,72.1423579 116.336124,70.0488011 115.091505,67.4686466 C113.846885,64.8920526 112.058924,63.631646 110.402967,64.5312583 C108.745832,65.434431 106.487602,65.5899049 106.487602,65.5899049 C106.487602,65.5899049 105.80754,62.958717 105.053226,62.30003 C104.296554,61.6437165 101.037678,57.9194641 99.2662172,55.4864758 C98.2891439,54.1382442 95.8423355,50.5148718 95.1528446,49.6128859 C94.4645324,48.7109 93.9058681,50.2608916 93.9058681,50.2608916 C93.9058681,50.2608916 93.1539106,48.7370101 92.4302399,47.957267 C91.7065692,47.1787107 91.6004937,48.9862431 91.6004937,48.9862431 C91.6004937,48.9862431 90.8591437,47.2321178 90.2085472,46.840466 C89.5638439,46.4488142 89.0381808,48.4521724 89.0381808,48.4521724 C88.7105253,47.9406515 88.4759806,46.1438006 87.4187613,46.0049422 C86.3627207,45.8672707 86.5571925,48.6515588 86.5571925,48.6515588 C86.1670703,47.2321178 85.654372,46.6410797 85.1558171,46.7383992 C84.6607981,46.8357187 85.503509,50.3000568 85.503509,50.3000568 C86.2012502,54.1940249 91.5274194,60.119835 92.3618801,60.8770285 C93.1928049,61.6365956 96.1900274,66.1738221 95.6478637,66.6248151 C95.1057,67.0769949 93.813936,67.7926495 93.813936,67.7926495 C93.813936,67.7926495 92.8781142,67.6870222 90.7872481,68.09885 C88.6916674,68.5106777 87.8760646,70.5140359 87.8760646,70.5140359 C86.189464,70.9614684 85.9007029,71.825476 85.9007029,71.825476 C86.5630855,71.4065273 89.2939406,71.3305706 89.2939406,71.3305706 C89.2939406,71.3305706 91.1101891,71.8373442 92.8462916,72.2456115 C94.5835727,72.6538789 97.2413536,72.478229 97.2413536,72.478229 C97.2413536,72.478229 98.3787188,76.5727703 97.9367375,79.023561 C97.4947562,81.4731649 97.2967486,89 97.2967486,89 C97.2967486,89 98.9703844,88.7863718 99.5337632,86.3723726 C99.5337632,86.3723726 100.012282,87.661263 100.839671,87.2090832 C101.669417,86.7580903 102.12672,85.2840554 102.12672,85.2840554 C102.12672,85.2840554 103.188654,86.6311001 103.786213,85.8810276 C104.38495,85.1285815 103.991292,84.2847499 103.991292,84.2847499 C103.991292,84.2847499 104.713784,85.3528911 105.741538,84.7476111 C106.766934,84.1423311 106.167018,83.1097946 106.167018,83.1097946 C106.167018,83.1097946 106.791685,83.9643076 107.376279,83.4468525 C107.960873,82.9293974 108.123522,81.1099969 108.123522,81.1099969 C108.123522,81.1099969 111.404791,76.4920663 109.060523,71.7673216" id="Fill-3"></path>
                    <path d="M223,341.416193 C223,341.416193 222.11986,339.836893 219.955889,339.686997 C219.955889,339.686997 218.46904,336.817396 216.032812,337.042839 C213.597758,337.267082 212.722313,338.637728 212.477047,338.863171 C212.231781,339.09341 210.506707,339.733764 210.506707,339.733764 C210.506707,339.733764 209.806116,331.031425 210.90101,328.29613 C211.998251,325.562034 211.794058,322.879503 211.019535,320.092644 C210.245012,317.305784 208.052877,315.684514 207.828735,316.051458 C207.599898,316.419602 207.795876,317.436493 207.795876,317.436493 C207.795876,317.436493 206.108354,316.406411 206.061414,317.365743 C206.010952,318.326274 206.152948,318.971424 206.152948,318.971424 C206.152948,318.971424 204.79988,317.985711 204.694263,319.190872 C204.58982,320.397231 204.702478,321.18868 204.702478,321.18868 C204.702478,321.18868 203.708506,320.434406 203.640442,321.254634 C203.572378,322.074863 203.719068,322.764383 203.719068,322.764383 C203.719068,322.764383 202.2463,322.555728 203.044294,324.531952 C203.044294,324.531952 201.394325,324.402442 201.307484,327.985547 C201.21947,331.567452 202.74974,333.707961 201.920062,335.688981 C201.088036,337.6724 200.944867,343.639444 200.944867,343.639444 C200.944867,343.639444 193.767619,347.590692 188.178144,351.860918 C185.474354,353.927079 185.121124,354.329999 184.048527,355.200592 C183.330333,355.782187 190.802134,352.942565 192.039024,352.470094 C193.273567,351.997623 197.717687,348.897782 198.430014,348.361755 C199.147034,347.825729 203.117052,346.940745 203.117052,346.940745 C203.117052,346.940745 198.400676,352.984536 197.278791,353.916287 C196.155732,354.844441 193.178512,356.486097 192.645734,357.613312 C192.109435,358.741726 192.72436,359.790995 194.242895,359.990057 C195.76495,360.189118 196.655651,357.341102 197.676614,356.662374 C198.695229,355.984846 203.131134,355.414044 205.251685,354.282032 C207.371062,353.152419 213.726846,349.435008 214.766584,346.657742 C215.811017,343.881676 216.862491,341.488143 217.890494,341.188351 C218.918498,340.892158 221.328908,340.479645 223,341.416193" id="Fill-5"></path>
                    <path d="M205.227173,277.753528 C203.610913,279.834131 196.481124,279.981462 196.481124,279.981462 C196.481124,279.981462 195.450225,277.382206 196.406472,273.739655 C197.361535,270.098301 199.347496,268.020095 201.699604,268.761541 C204.052896,269.505384 206.99155,269.134061 206.99155,269.134061 C206.99155,269.134061 207.211949,265.565775 208.021264,264.526072 C208.828209,263.48637 212.087981,257.857844 213.754008,254.27159 C214.675892,252.284417 216.914246,246.988883 217.577813,245.652123 C218.237825,244.314165 219.341005,246.171974 219.341005,246.171974 C219.341005,246.171974 219.929921,244.017107 220.664584,242.827678 C221.400432,241.638249 221.989348,243.941645 221.989348,243.941645 C221.989348,243.941645 222.502427,241.48972 223.235906,240.82134 C223.971754,240.15296 225.147216,242.604885 225.147216,242.604885 C225.443451,241.861043 225.296518,239.483383 226.620097,239.037796 C227.941307,238.592209 228.38329,242.233563 228.38329,242.233563 C228.531407,240.301489 229.044487,239.409118 229.705684,239.409118 C230.368066,239.409118 230.147667,244.090174 230.147667,244.090174 C230.222318,249.293476 224.854535,258.283068 223.972939,259.472497 C223.092528,260.661926 220.370719,267.276252 221.178848,267.720641 C221.989348,268.166228 223.826007,268.761541 223.826007,268.761541 C223.826007,268.761541 225.000283,268.390219 227.795559,268.390219 C230.588465,268.390219 232.132443,270.769077 232.132443,270.769077 C234.412269,270.916408 235,271.957308 235,271.957308 C234.043753,271.585986 230.514998,272.180102 230.514998,272.180102 C230.514998,272.180102 228.308638,273.295266 226.179299,274.261902 C224.046406,275.228537 220.592303,275.672926 220.592303,275.672926 C220.592303,275.672926 220.15032,281.245155 221.328151,284.292393 C222.502427,287.339631 224.635321,296.9988 224.635321,296.9988 C224.635321,296.9988 222.430146,297.146131 221.105382,294.175553 C221.105382,294.175553 220.811517,295.9579 219.636055,295.587776 C218.459409,295.216453 217.504346,293.431711 217.504346,293.431711 C217.504346,293.431711 216.474633,295.439247 215.51957,294.62114 C214.563323,293.803033 214.856003,292.614802 214.856003,292.614802 C214.856003,292.614802 214.197176,294.175553 212.725479,293.655702 C211.254968,293.134653 211.769232,291.649364 211.769232,291.649364 C211.769232,291.649364 211.181501,292.91186 210.299905,292.392009 C209.417124,291.873356 208.755927,289.568762 208.755927,289.568762 C208.755927,289.568762 203.388144,284.440922 205.227173,277.753528" id="Fill-7"></path>
                    <path d="M285.698241,229.796901 C283.084737,232.509589 284.233583,242.765284 284.233583,242.765284 C284.233583,242.765284 288.075779,243.750621 293.002466,241.683581 C297.929152,239.624974 300.474727,236.383481 298.987425,233.150419 C297.500123,229.916153 297.460795,225.631503 297.460795,225.631503 C297.460795,225.631503 302.428002,224.640144 303.730583,223.278981 C305.043889,221.926251 312.32547,216.185278 317.041218,213.113629 C319.652338,211.413983 326.663393,207.201608 328.412879,205.99463 C330.16594,204.792471 327.352223,203.565016 327.352223,203.565016 C327.352223,203.565016 330.262472,202.314674 331.791485,201.035422 C333.319306,199.752557 329.981219,199.347822 329.981219,199.347822 C329.981219,199.347822 333.319306,198.142049 334.123736,196.965186 C334.918632,195.7823 331.254006,194.558458 331.254006,194.558458 C332.244349,193.998334 335.608654,193.756216 335.98048,191.774701 C336.357072,189.791981 331.159858,189.851005 331.159858,189.851005 C333.843675,189.270403 335.000863,188.365772 334.876921,187.417777 C334.744637,186.467373 328.218624,187.669532 328.218624,187.669532 C320.904865,188.553685 309.29843,197.952932 307.803978,199.447801 C306.295225,200.934238 297.529917,206.088586 296.755281,205.017725 C295.97111,203.938432 294.793663,201.416066 294.793663,201.416066 C294.793663,201.416066 295.089217,199.664623 294.56008,195.653411 C294.029752,191.645812 290.398496,189.889551 290.398496,189.889551 C289.759719,186.648058 288.185419,186 288.185419,186 C288.890934,187.302138 288.721706,192.474555 288.721706,192.474555 C288.721706,192.474555 287.572861,195.848551 286.625421,199.086431 C285.670831,202.32431 285.7042,207.366633 285.7042,207.366633 C285.7042,207.366633 277.964987,209.057847 273.464946,207.947235 C268.960138,206.836623 255,205.615191 255,205.615191 C255,205.615191 255.212131,208.808502 259.637092,210.141959 C259.637092,210.141959 257.190433,210.903246 257.930509,212.517368 C258.675351,214.130285 261.361552,215.166214 261.361552,215.166214 C261.361552,215.166214 258.742089,217.021249 260.066121,218.239067 C261.399688,219.454477 263.013315,218.805215 263.013315,218.805215 C263.013315,218.805215 260.946823,220.051943 261.956234,222.058754 C262.963261,224.070383 264.957056,223.052523 264.957056,223.052523 C264.957056,223.052523 263.290992,224.131816 264.18957,225.299043 C265.082189,226.465065 268.447686,226.979415 268.447686,226.979415 C268.447686,226.979415 276.661215,233.700907 285.698241,229.796901" id="Fill-9"></path>
                    <path d="M219.96507,143.646004 C220.946385,146.156702 228.021549,148.454104 228.021549,148.454104 C228.021549,148.454104 229.837589,146.240114 229.987815,142.41389 C230.144098,138.587667 228.792064,135.967341 226.218836,135.976874 C223.641974,135.987598 220.821601,134.738803 220.821601,134.738803 C220.821601,134.738803 221.685401,131.208096 221.193532,129.954534 C220.700451,128.700972 219.15821,122.247273 218.580325,118.261375 C218.265334,116.052151 217.641412,110.231191 217.385785,108.730968 C217.130158,107.231937 215.463133,108.704753 215.463133,108.704753 C215.463133,108.704753 215.532189,106.433566 215.156624,105.057269 C214.789539,103.67859 213.498079,105.738864 213.498079,105.738864 C213.498079,105.738864 213.730687,103.20195 213.201262,102.330891 C212.670624,101.458641 210.750396,103.485551 210.750396,103.485551 C210.682552,102.675264 211.551198,100.408843 210.363927,99.5759152 C209.180291,98.7441792 207.630782,102.149768 207.630782,102.149768 C208.071768,100.226528 207.829468,99.2065195 207.167988,99.0063309 C206.511355,98.8061424 205.305912,103.420013 205.305912,103.420013 C203.652213,108.452134 206.283593,118.807127 206.798481,120.227513 C207.319426,121.650282 208.025731,128.896394 207.083183,129.084667 C206.140636,129.272939 204.12591,129.29558 204.12591,129.29558 C204.12591,129.29558 203.067059,128.578237 200.275761,127.736969 C197.486887,126.892125 195.222592,128.73672 195.222592,128.73672 C192.901356,128.193351 192,129.025087 192,129.025087 C193.067332,128.952399 196.409862,130.596806 196.409862,130.596806 C196.409862,130.596806 198.27315,132.346073 200.103728,133.928516 C201.940363,135.510959 205.25624,136.98735 205.25624,136.98735 C205.25624,136.98735 204.002337,142.534242 201.904018,145.136694 C199.802064,147.743912 194.742838,156.484289 194.742838,156.484289 C194.742838,156.484289 196.901732,157.292192 199.123624,154.805326 C199.123624,154.805326 198.875266,156.62728 200.160668,156.622514 C201.450917,156.615364 202.944697,155.171147 202.944697,155.171147 C202.944697,155.171147 203.365088,157.43161 204.566896,156.926372 C205.768705,156.421134 205.837761,155.177105 205.837761,155.177105 C205.837761,155.177105 206.018274,156.894198 207.646531,156.829852 C209.272365,156.770272 209.214213,155.171147 209.214213,155.171147 C209.214213,155.171147 209.416534,156.57485 210.452367,156.33653 C211.494257,156.098211 212.854772,154.059385 212.854772,154.059385 C212.854772,154.059385 219.768807,150.700268 219.96507,143.646004" id="Fill-11"></path>
                    <path d="M111.741988,374.725448 C111.741988,374.725448 111.608783,373.997172 110.270833,373.517093 C110.270833,373.517093 109.890077,371.910225 108.922273,371.700481 C107.956827,371.491903 106.607089,371.101547 106.607089,371.101547 C106.607089,371.101547 107.959185,368.637061 109.16275,368.028805 C110.368674,367.420549 112.280705,365.51771 112.707434,364.277893 C113.136521,363.039241 113.114124,360.71808 112.5035,360.909179 C111.892876,361.100279 111.769101,362.067429 111.769101,362.067429 C111.769101,362.067429 111.499153,361.00706 111.005232,361.346145 C110.51131,361.686395 110.309733,362.5545 110.309733,362.5545 C110.309733,362.5545 110.255508,361.566376 109.766302,361.862347 C109.279453,362.158318 108.988287,363.013606 108.988287,363.013606 C108.988287,363.013606 108.718339,362.310965 108.18198,362.602275 C107.650336,362.893586 107.950933,363.018267 107.294336,363.561269 C106.640096,364.104272 105.219629,365.354576 104.301335,366.177236 C103.384221,366.998732 101.02542,368.535685 101.02542,368.535685 C101.02542,368.535685 98.1078639,365.943023 97.7282869,365.360402 C97.3510675,364.780112 92.2020224,361.643281 91.0880463,360.47804 C89.9728914,359.315129 89.1111808,358.628802 88.7657893,359.211422 C88.4227554,359.791713 89.1559756,360.418613 89.1559756,360.418613 C89.1559756,360.418613 88.0997613,360.197217 88.1940661,360.878883 C88.2895498,361.559384 88.9001737,361.723683 88.9001737,361.723683 C88.9001737,361.723683 87.9700921,361.56288 88.0007412,362.058107 C88.026675,362.55217 88.9154983,363.018267 88.9154983,363.018267 C88.9154983,363.018267 87.9606616,362.72113 88.1917085,363.375996 C88.425113,364.027366 89.2856448,364.358294 89.2856448,364.358294 C89.2856448,364.358294 88.48759,364.259249 88.6255108,364.586682 C88.7634317,364.916445 89.7783877,365.444299 89.9127721,365.460613 C90.0459777,365.476926 90.3501109,366.273951 91.2990535,367.326165 C92.2468172,368.383039 95.2020956,369.995733 95.6335403,370.496787 C96.0661638,370.99551 96.5530127,372.483524 96.5530127,372.483524 C96.5530127,372.483524 94.3887162,373.55205 93.0837728,373.524084 C91.7788294,373.494953 90.473886,373.111589 90.081342,373.731497 C89.6852616,374.350241 88.9673659,375.733382 89.8455799,377 C89.8455799,377 93.0837728,375.664633 94.8189821,375.835924 C96.5553703,376.007214 100.747221,376.749473 103.544539,376.027023 C106.344214,375.303408 107.94386,374.431808 108.993002,374.339754 C110.043322,374.247699 110.725853,374.197594 111.741988,374.725448" id="Fill-13"></path>
                    <path d="M309,309.158686 C309,309.158686 308.347857,307.880691 305.688393,307.765173 C305.688393,307.765173 304.094135,305.000036 302.250145,305.169057 C300.407339,305.339295 297.775096,305.391582 297.775096,305.391582 C297.775096,305.391582 298.789409,300.041272 300.593158,298.217303 C302.402825,296.395766 304.733258,291.759237 304.79362,289.214192 C304.855165,286.667931 303.499987,282.371876 302.518814,283.077144 C301.535273,283.787276 301.865487,285.651373 301.865487,285.651373 C301.865487,285.651373 300.781344,283.839563 300.090144,284.756412 C299.402494,285.668396 299.535053,287.397519 299.535053,287.397519 C299.535053,287.397519 298.878176,285.593005 298.17159,286.425951 C297.470921,287.256465 297.436598,289.009908 297.436598,289.009908 C297.436598,289.009908 296.552477,287.862023 295.764224,288.710777 C294.979523,289.558314 295.58669,289.620329 294.723873,291.001682 C293.861056,292.389114 292.03482,295.528773 290.863093,297.582562 C289.692551,299.637567 286.352538,303.846072 286.352538,303.846072 C286.352538,303.846072 279.67133,300.718573 278.664118,299.857659 C277.660458,298.99553 266.687653,296.144058 264.037657,294.6253 C261.385294,293.108974 259.458455,292.329531 259.169666,293.608742 C258.887978,294.88552 260.550883,295.626051 260.550883,295.626051 C260.550883,295.626051 258.543562,295.824256 259.096285,297.034155 C259.653743,298.242839 260.836122,298.1942 260.836122,298.1942 C260.836122,298.1942 259.088,298.433748 259.419398,299.334788 C259.748428,300.235829 261.599519,300.589679 261.599519,300.589679 C261.599519,300.589679 259.727124,300.589679 260.509458,301.669469 C261.295344,302.745611 263.019794,302.861129 263.019794,302.861129 C263.019794,302.861129 261.540341,303.138372 261.972341,303.667323 C262.405525,304.199922 264.517,304.593899 264.764364,304.546476 C265.014096,304.501485 266.007105,305.803799 268.298481,307.210687 C270.592224,308.624871 276.782254,309.916241 277.837992,310.593541 C278.893729,311.272058 280.608711,313.75144 280.608711,313.75144 C280.608711,313.75144 277.347997,316.984729 275.002177,317.682701 C272.658724,318.380673 270.110515,318.423233 269.762547,319.799721 C269.403928,321.173778 268.908015,324.154143 271.197025,326 C271.197025,326 276.217695,321.655306 279.41568,320.971925 C282.611298,320.289761 290.517493,319.251314 295.103797,316.297701 C299.6901,313.341655 302.053674,310.805122 303.872809,310.026895 C305.694311,309.2511 306.883791,308.76714 309,309.158686" id="Fill-15"></path>
                    <path d="M261,150.094881 C261,150.094881 261.456405,148.6017 264.38171,147.918061 C264.38171,147.918061 265.577227,144.645772 267.659201,144.436326 C269.739977,144.225704 272.670073,143.729154 272.670073,143.729154 C272.670073,143.729154 270.427579,138.263571 268.041335,136.710381 C265.653894,135.154837 262.099685,130.729421 261.497134,128.038401 C260.895782,125.343851 261.503124,120.499544 262.742964,121.041984 C263.979211,121.587954 264.004367,123.636518 264.004367,123.636518 C264.004367,123.636518 264.830927,121.484408 265.789258,122.310423 C266.746391,123.138791 266.958422,124.994383 266.958422,124.994383 C266.958422,124.994383 267.310608,122.946996 268.266543,123.678878 C269.220082,124.413113 269.621383,126.268705 269.621383,126.268705 C269.621383,126.268705 270.362892,124.86495 271.413462,125.596833 C272.467625,126.329891 271.805179,126.52404 273.052207,127.811306 C274.295641,129.100924 276.983759,132.047279 278.712348,133.981707 C280.442135,135.914959 285.03254,139.680269 285.03254,139.680269 C285.03254,139.680269 291.798355,134.947745 292.730332,133.822858 C293.668298,132.695619 305.255715,127.353585 307.882739,125.182648 C310.508565,123.012889 312.483924,121.782103 313.070902,123.076428 C313.650692,124.373107 311.959238,125.50976 311.959238,125.50976 C311.959238,125.50976 314.23168,125.297961 313.86991,126.699362 C313.505745,128.097234 312.18205,128.299619 312.18205,128.299619 C312.18205,128.299619 314.168191,128.18313 313.988504,129.206824 C313.814806,130.236401 311.833457,131.000053 311.833457,131.000053 C311.833457,131.000053 313.914233,130.604695 313.26736,131.915494 C312.616893,133.225115 310.728981,133.711076 310.728981,133.711076 C310.728981,133.711076 312.43481,133.689896 312.063457,134.347649 C311.693301,135.001871 309.428047,135.865539 309.14534,135.869069 C308.859038,135.873776 308.026488,137.464619 305.775609,139.44376 C303.527125,141.424078 296.929018,144.103332 295.894021,145.047012 C294.863815,145.989517 293.476632,148.982938 293.476632,148.982938 C293.476632,148.982938 297.778339,151.722201 300.522759,151.974006 C303.27197,152.222281 306.111025,151.722201 306.79144,153.111836 C307.470657,154.499117 308.642216,157.556078 306.490763,160 C306.490763,160 300.007656,156.444135 296.312093,156.394716 C292.617728,156.342943 283.624991,156.910092 277.915736,154.741509 C272.20648,152.574103 269.05477,150.376103 266.869776,149.934856 C264.687178,149.494785 263.262859,149.23239 261,150.094881" id="Fill-17"></path>
                    <path d="M155.132597,344.023048 C155.132597,344.023048 154.764404,342.980827 153.936859,343.203231 C153.936859,343.203231 153.881215,342.001305 153.374507,341.606184 C152.872534,341.208697 157.634175,336.289794 157.997632,335.811863 C158.359905,335.335115 161.58603,331.969487 163.090766,330.956841 C164.596685,329.947744 166.969219,324.377009 167,323 C167,323 161.885556,326.947663 160.601026,329.114914 C159.315312,331.282165 156.305841,333.150118 155.087609,334.233744 C153.869376,335.322102 150.289266,341.519825 149.539858,341.869993 C148.791634,342.223709 146.770718,343.142898 146.011839,343.116872 C145.24704,343.093212 140.999211,340.808844 138.656275,340.521375 C136.315706,340.238639 130.750197,339.519377 129.12352,339.574977 C127.495659,339.629395 125,339.76544 125,339.76544 C125,339.76544 128.599053,342.754875 131.620363,342.93469 C134.644041,343.11214 139.256511,344.922126 140.912786,345.467488 C142.565509,346.01285 145.093133,348.146977 145.093133,348.146977 C145.093133,348.146977 144.73086,350.44909 144.156669,351.132863 C143.58603,351.816635 142.074191,353.132128 141.863457,353.339153 C141.652723,353.549727 142.776243,354.084441 143.990923,353.988619 C145.207972,353.891613 146.339779,353.814718 147.502368,353.505956 C148.663773,353.19601 152.245067,352.31586 153.273875,349.683691 C154.300316,347.05507 154.082478,344.490332 154.082478,344.490332 C154.082478,344.490332 154.866219,344.018316 155.132597,344.023048" id="Fill-19"></path>
                    <path d="M338.859191,259.090378 C338.859191,259.090378 338.509858,258.028669 337.686513,258.235978 C337.686513,258.235978 337.65005,257.019686 337.154867,256.612258 C336.657332,256.200037 341.475076,251.297723 341.843228,250.823189 C342.209029,250.346259 345.470651,246.989774 346.982077,245.990377 C348.497031,244.992179 350.944718,239.392444 351,238 C351,238 345.851742,241.911306 344.541447,244.085053 C343.225272,246.256404 340.207124,248.097018 338.979164,249.174305 C337.751204,250.251592 334.086143,256.469659 333.340428,256.812377 C332.588832,257.156294 330.568108,258.055032 329.814159,258.016686 C329.056682,257.977141 324.875266,255.593689 322.551081,255.262954 C320.230425,254.932218 314.71519,254.116164 313.099081,254.141329 C311.481797,254.16889 309,254.264756 309,254.264756 C309,254.264756 312.520388,257.352818 315.522068,257.58649 C318.522572,257.818964 323.075669,259.729081 324.709421,260.307868 C326.343172,260.887853 328.81556,263.095153 328.81556,263.095153 C328.81556,263.095153 328.418002,265.417491 327.838132,266.102928 C327.259438,266.785969 325.735073,268.092135 325.52218,268.299443 C325.30811,268.506752 326.416097,269.067565 327.624062,268.993269 C328.834379,268.912982 329.964714,268.854264 331.119749,268.563073 C332.278313,268.268287 335.850454,267.436655 336.914921,264.79197 C337.984093,262.147284 337.808838,259.545738 337.808838,259.545738 C337.808838,259.545738 338.593368,259.078395 338.859191,259.090378" id="Fill-21"></path>
                    <path d="M121.49336,134.373378 C121.49336,134.373378 121.245442,133.308816 122.074229,133.060185 C122.074229,133.060185 121.475395,132.025974 121.694568,131.431827 C121.913741,130.833012 115.180449,129.226832 114.613952,129.019055 C114.047454,128.810112 109.468767,127.691856 107.636335,127.636994 C105.801506,127.585633 100.76531,124.17717 100,123.044907 C100,123.044907 106.505736,123.65773 108.77412,124.792328 C111.043702,125.926926 114.629521,125.908249 116.254757,126.17439 C117.884784,126.439363 124.292311,129.738101 125.122295,129.637715 C125.954675,129.538496 128.17635,129.247843 128.815905,128.828789 C129.45546,128.4074 131.862774,124.269385 133.715567,122.800945 C135.565965,121.333672 139.944641,117.813149 141.367471,117.004223 C142.789104,116.197631 145,115 145,115 C145,115 143.532856,119.383143 141.03931,121.121226 C138.549357,122.858142 135.571953,126.789547 134.44854,128.113245 C133.325127,129.436942 132.313097,132.546581 132.313097,132.546581 C132.313097,132.546581 133.86288,134.27766 134.724004,134.549637 C135.582732,134.820446 137.585234,135.125107 137.878663,135.190475 C138.170894,135.253508 137.496607,136.290054 136.404333,136.848015 C135.309664,137.403641 134.298832,137.937089 133.139488,138.288441 C131.976552,138.638626 128.436244,139.783729 126.139116,138.125022 C123.838395,136.469816 122.644319,134.212293 122.644319,134.212293 C122.644319,134.212293 121.718521,134.228635 121.49336,134.373378" id="Fill-23"></path>
                    <path d="M268.305388,91.6238807 C268.305388,91.6238807 268.599593,90.5327983 269.438491,90.697673 C269.438491,90.697673 269.410134,89.4659623 269.883934,89.0258924 C270.358915,88.5809733 265.265271,83.8990178 264.871816,83.4407632 C264.478361,82.9788717 261.025884,79.7710896 259.457973,78.8473066 C257.885335,77.9247359 255.127607,72.4038593 255,71 C255,71 260.370126,74.6623997 261.803341,76.7827363 C263.237738,78.9054976 266.366472,80.5954629 267.655538,81.6162311 C268.946968,82.6345746 272.951227,88.7119032 273.722776,89.0161939 C274.493144,89.3216969 276.565576,90.1145501 277.322947,90.0345374 C278.079136,89.9533124 282.14838,87.3104685 284.459484,86.8473647 C286.768225,86.3842609 292.256505,85.2471106 293.881131,85.1840703 C295.505757,85.1222423 298,85.0798113 298,85.0798113 C298,85.0798113 294.632594,88.3954893 291.632649,88.7991897 C288.639793,89.2041025 284.174731,91.3874795 282.565466,92.0627382 C280.9562,92.7416339 278.593109,95.1092826 278.593109,95.1092826 C278.593109,95.1092826 279.117715,97.4332879 279.736845,98.0927866 C280.353612,98.7498606 281.952244,99.9839959 282.176737,100.182815 C282.402413,100.380423 281.320117,101.008401 280.104306,101 C278.88495,100.986579 277.753029,100.993853 276.57621,100.762301 C275.397027,100.528325 271.770863,99.8906478 270.562141,97.2768994 C269.349875,94.6631511 269.385321,92.0275811 269.385321,92.0275811 C269.385321,92.0275811 268.572418,91.5996344 268.305388,91.6238807" id="Fill-25"></path>
                    <path d="M227.493413,194.373853 C227.493413,194.373853 227.246707,193.309266 228.074251,193.060628 C228.074251,193.060628 227.474251,192.026391 227.694611,191.43223 C227.91497,190.8334 221.180838,189.227181 220.614371,189.019399 C220.049102,188.810451 215.469461,187.692167 213.637126,187.637304 C211.802395,187.585942 206.767665,184.177395 206,183.045104 C206,183.045104 212.506587,183.657942 214.77485,184.792568 C217.044311,185.927194 220.628743,185.90735 222.25509,186.174664 C223.883832,186.439643 230.291018,189.738463 231.122156,189.638074 C231.952096,189.538853 234.17485,189.248192 234.815569,188.829128 C235.453892,188.407729 237.862275,184.269613 239.713772,182.801136 C241.564072,181.33266 245.943713,177.813218 247.366467,177.004272 C248.788024,176.197661 251,175 251,175 C251,175 249.531737,179.383251 247.037126,181.121376 C244.548503,182.858334 241.57006,186.789836 240.446707,188.113566 C239.324551,189.437297 238.313772,192.547012 238.313772,192.547012 C238.313772,192.547012 239.862275,194.276966 240.723353,194.550117 C241.582036,194.820933 243.584431,195.125601 243.879042,195.189803 C244.17006,195.254005 243.495808,196.289409 242.40479,196.848551 C241.307784,197.404191 240.298204,197.937652 239.138922,198.289012 C237.976048,198.638038 234.435928,199.784337 232.138922,198.124421 C229.839521,196.470342 228.644311,194.212764 228.644311,194.212764 C228.644311,194.212764 227.717365,194.229106 227.493413,194.373853" id="Fill-27"></path>
                    <path d="M0,38.4732285 C0,38.4732285 1.55870736,36.9524967 3.10182765,37.2717069 C3.10182765,37.2717069 3.08624058,34.3832728 6.21924238,34.8029087 C9.35464218,35.2237402 9.04769674,36.0821407 11.4505041,37.043358 C13.8497144,38.0045753 16.3220641,38.0547882 16.3220641,38.0547882 C13.967217,42.0251895 20.6240964,32.0746776 20.122912,26.3791064 C19.7188471,21.7965866 21.7020025,19.2357316 23.1384113,17.6898933 C24.5796161,16.1428595 33.8551239,3.17838143 33.9390543,1.00368707 C34.0181887,-1.17220283 37.042081,0.379613152 36.4437771,3.83234394 C36.4437771,3.83234394 38.5528281,2.6547332 38.539639,5.0757096 C38.527649,7.49668601 37.3957876,8.762767 37.3957876,8.762767 C37.3957876,8.762767 41.4448298,7.18225796 40.1774808,9.68692244 C38.9101318,12.193978 37.8478128,13.1253067 37.8478128,13.1253067 C37.8478128,13.1253067 41.5899094,11.8281416 40.7206303,13.609502 C39.8525502,15.3896669 38.102002,16.6425969 38.102002,16.6425969 C38.102002,16.6425969 41.2350038,15.9073374 40.4592471,17.2463465 C39.6798934,18.5865512 38.3477981,22.0010246 38.0312606,24.7053449 C37.7123251,27.4084697 37.8010515,36.0558388 35.1644381,39.7787625 C32.5290236,43.4992951 30.5494653,45.8581032 30.5494653,45.8581032 C30.5494653,45.8581032 31.8192123,48.084206 34.6392736,47.6310948 C37.4617329,47.1791792 42.4232184,43.5937431 42.4232184,43.5937431 C42.4232184,43.5937431 49.3534711,50.8028728 46.158121,56.6036518 C42.9615719,62.4032353 39.9148985,62.2262948 39.7170626,61.0104266 C38.7890322,55.3590906 36.6955683,55.3064867 36.6955683,55.3064867 C33.6357059,54.5760094 31.112998,53.9937795 29.641818,54.7637098 C27.5651402,55.8528502 25.9392885,58.9146382 25.409328,61.4587556 C24.8781685,64.0004819 20.4286585,68.6487566 14.5415407,67.924257 C14.5415407,67.924257 12.9504602,66.5768791 15.0990783,66.425045 C15.0990783,66.425045 10.8845734,67.0503144 9.78268721,65.7818424 C8.68319901,64.5145658 11.5332355,64.5289124 11.5332355,64.5289124 C11.5332355,64.5289124 7.19403398,65.704132 5.74203812,64.3627317 C4.28644525,63.022527 7.74677559,62.4737724 7.74677559,62.4737724 C7.74677559,62.4737724 2.17859329,63.0464379 2.35844414,61.5842877 C2.53829499,60.1197464 8.88942799,58.7855194 11.5164494,53.3302526 C14.1434708,47.8749858 13.8293313,47.0022387 13.8293313,47.0022387 C13.8293313,47.0022387 6.66047646,43.5160327 5.01064467,39.3985795 C5.01064467,39.3985795 3.31764867,38.0093575 0,38.4732285" id="Fill-29"></path>
                </g>
            </g>
        </g>
    </g>
</svg>