<?xml version="1.0" encoding="UTF-8"?>
<svg width="317px" height="300px" viewBox="0 0 317 300" version="1.1" xmlns="http://www.w3.org/2000/svg" xmlns:xlink="http://www.w3.org/1999/xlink">
    <!-- Generator: Sketch 59 (86127) - https://sketch.com -->
    <title>6</title>
    <desc>Created with Sketch.</desc>
    <g id="页面-1" stroke="none" stroke-width="1" fill="none" fill-rule="evenodd">
        <g id="信鸽-手机端" transform="translate(-42.000000, -5383.000000)" fill="#293A49">
            <g id="编组-16" transform="translate(42.000000, 5383.000000)">
                <g id="bird_leaf_3">
                    <path d="M142.326875,145.280625 C114.654375,121.689375 110.145,111.656875 102.82875,82.946875 C102.82875,82.946875 75.130625,49.41 50.344375,17.625625 L48.35,23.98875 C27.226875,89.615 47.070625,162.716875 100.77,208.54625 L113.24,219.83875 C110.855625,222.09 108.445625,224.3175 106.011875,226.51625 C84.18125,242.574375 48.754375,239.035625 26.444375,223.65 L6.56375,246.394375 L52.476875,254.96875 L0.81625,257.215 C4.25125,269.5425 9.316875,279.091875 16.01375,285.86125 L52.476875,269.94375 L22.8675,291.455 C66.47375,319.7025 116.555,262.710625 157.300625,250.85125 C227.48625,234.990625 201.190625,190.055625 221.1975,167.23 C232.821875,153.96625 250.81375,155.325625 265.3925,160.260625 C261.511875,166.59875 261.984375,174.835 266.8425,180.72125 L268.229375,182.4325 C273.805,177.2225 274.943125,168.864375 271.088125,162.38375 C275.794375,164.301875 280.3775,166.588125 284.790625,169.23625 C280.791875,175.231875 281.5275,183.240625 286.61375,188.408125 L287.936875,189.774375 C292.53375,184.65625 293.443125,177.929375 289.088125,172.603125 C290.198125,172.78875 296.068125,177.10125 297.509375,178.285 C294.510625,182.1525 294.6225,187.611875 297.816875,191.356875 L298.646875,192.345625 C302.00625,189.10125 302.498125,183.8925 299.8075,180.076875 C304.050625,181.1025 308.475,179.305625 310.801875,175.61375 C306.426875,173.1375 300.905,174.15875 297.705625,178.03875 L297.584375,178.188125 C294.945625,175.893125 292.210625,173.75 289.394375,171.760625 C295.3775,172.34125 301.176875,169.275625 304.045,163.915625 C297.35625,160.735 289.349375,162.81625 285.055,168.85 L285.051875,168.855625 C280.846875,166.194375 276.483125,163.8575 271.9975,161.8525 C278.755625,163.005 285.625,160.05875 289.425625,154.2425 C282.034375,149.8975 272.59,151.485625 267.0275,158.009375 C266.648125,158.45375 266.295,158.913125 265.96625,159.384375 C260.42875,157.318125 254.7375,155.735 248.96125,154.64375 C243.04375,137.07125 226.705,130.33625 212.649375,135.96625 C197.55,142.013125 197.114375,158.06125 176.019375,161.004375 C202.301875,133.953125 209.480625,93.3 193.24,65.168125 C172.021875,36.9 171.609375,35.30625 168.5325,0.7775 C159.728125,7.524375 152.21875,15.37125 146.064375,23.98875 C120.99875,59.0875 118.4025,106.963125 142.326875,145.280625 Z M309.318125,191.87 C311.42875,193.71875 314.240625,194.253125 316.7525,193.540625 C317.13,190.955625 316.229375,188.238125 314.11875,186.38875 C312.008125,184.54 309.195625,184.005 306.683125,184.718125 C306.30625,187.3025 307.206875,190.020625 309.318125,191.87 Z M232.53375,142.54 C233.910625,142.54 235.026875,143.65625 235.026875,145.033125 C235.026875,146.41 233.910625,147.526875 232.53375,147.526875 C231.15625,147.526875 230.04,146.41 230.04,145.033125 C230.04,143.65625 231.15625,142.54 232.53375,142.54 L232.53375,142.54 Z" id="Fill-3"></path>
                </g>
            </g>
        </g>
    </g>
</svg>