<?xml version="1.0" encoding="UTF-8"?>
<svg width="50px" height="50px" viewBox="0 0 50 50" version="1.1" xmlns="http://www.w3.org/2000/svg" xmlns:xlink="http://www.w3.org/1999/xlink">
    <!-- Generator: Sketch 63.1 (92452) - https://sketch.com -->
    <title>brightness</title>
    <desc>Created with Sketch.</desc>
    <g id="定稿" stroke="none" stroke-width="1" fill="none" fill-rule="evenodd">
        <g id="个人中心" transform="translate(-289.000000, -458.000000)" fill="#666666" fill-rule="nonzero">
            <g id="编组-3" transform="translate(35.000000, 349.000000)">
                <g id="brightness-2" transform="translate(254.000000, 109.000000)">
                    <g id="brightness">
                        <path d="M11.5589863,36.185197 L8.28592196,39.4582613 C7.68513004,40.0590532 7.68513004,41.0415984 8.28592196,41.6423903 C8.88671389,42.2431822 9.86925901,42.2431822 10.4700509,41.6423903 L13.7431153,38.3693259 C14.3439072,37.768534 14.3439072,36.7859889 13.7431153,36.185197 C13.1423234,35.584405 12.1597782,35.584405 11.5589863,36.185197 Z M10.6202489,12.8607021 C11.2272991,13.4677523 12.2161025,13.4677523 12.8231526,12.8607021 C13.4302028,12.253652 13.4302028,11.2648486 12.8231526,10.6577984 L9.51879706,7.35344283 C8.91174688,6.74639265 7.92294351,6.74639265 7.31589333,7.35344283 C6.70884316,7.960493 6.70884316,8.94929638 7.31589333,9.55634655 L10.6202489,12.8607021 Z M6.24573272,23.4246268 L1.57082055,23.4246268 C0.707182161,23.4246268 0.0125164984,24.1192925 0.0125164984,24.9829309 C0.0125164984,25.8465693 0.713440411,26.5412349 1.57082055,26.5412349 L6.24573272,26.5412349 C7.10937111,26.5412349 7.80403677,25.8465693 7.80403677,24.9829309 C7.80403677,24.1255507 7.10311286,23.4246268 6.24573272,23.4246268 L6.24573272,23.4246268 Z M24.9453814,7.84158627 C25.8090198,7.84158627 26.5036854,7.1469206 26.5036854,6.28328221 L26.5036854,1.60837005 C26.5036854,0.744731657 25.8090198,0.0500659937 24.9453814,0.0500659937 C24.081743,0.0500659937 23.3870773,0.744731657 23.3870773,1.60837005 L23.3870773,6.28328221 C23.3870773,7.1469206 24.0880012,7.84158627 24.9453814,7.84158627 L24.9453814,7.84158627 Z M39.9401465,12.1722947 L43.2132108,8.89923039 C43.8140028,8.29843846 43.8140028,7.31589333 43.2132108,6.71510141 C42.6124189,6.11430948 41.6298738,6.11430948 41.0290819,6.71510141 L37.7560175,9.98816575 C37.1552256,10.5889577 37.1552256,11.5715028 37.7560175,12.1722947 C38.3568094,12.7793449 39.3393546,12.7793449 39.9401465,12.1722947 L39.9401465,12.1722947 Z M48.3199422,23.4246268 L43.64503,23.4246268 C42.7813916,23.4246268 42.086726,24.1192925 42.086726,24.9829309 C42.086726,25.8465693 42.7813916,26.5412349 43.64503,26.5412349 L48.3199422,26.5412349 C49.1835806,26.5412349 49.8782463,25.8465693 49.8782463,24.9829309 C49.8782463,24.1255507 49.1835806,23.4246268 48.3199422,23.4246268 Z M39.2705138,37.1051596 C38.6634637,36.4981094 37.6746603,36.4981094 37.0676101,37.1051596 C36.4605599,37.7122098 36.4605599,38.7010132 37.0676101,39.3080633 L40.3719657,42.6124189 C40.9790159,43.2194691 41.9678192,43.2194691 42.5748694,42.6124189 C43.1819196,42.0053687 43.1819196,41.0165654 42.5748694,40.4095152 L39.2705138,37.1051596 Z M24.9453814,42.1242755 C24.081743,42.1242755 23.3870773,42.8189411 23.3870773,43.6825795 L23.3870773,48.3574917 C23.3870773,49.2211301 24.081743,49.9157957 24.9453814,49.9157957 C25.8090198,49.9157957 26.5036854,49.2211301 26.5036854,48.3574917 L26.5036854,43.6825795 C26.5036854,42.8251994 25.8090198,42.1242755 24.9453814,42.1242755 Z" id="形状"></path>
                        <path d="M24.9453814,9.66393613 C16.4800678,9.66393613 9.62012838,16.5238756 9.62012838,24.9891891 C9.62012838,33.4545027 16.4800678,40.3144421 24.9453814,40.3144421 C33.4106949,40.3144421 40.2706344,33.4545027 40.2706344,24.9891891 C40.2706344,16.5238756 33.4106949,9.66393613 24.9453814,9.66393613 Z M24.9453814,12.2399361 C31.9880094,12.2399361 37.6946344,17.9465611 37.6946344,24.9891891 C37.6946344,32.0318171 31.9880094,37.7384421 24.9453814,37.7384421 C17.9027534,37.7384421 12.1961284,32.0318171 12.1961284,24.9891891 C12.1961284,17.9465611 17.9027534,12.2399361 24.9453814,12.2399361 Z" id="路径"></path>
                    </g>
                </g>
            </g>
        </g>
    </g>
</svg>