<?xml version="1.0" encoding="UTF-8"?>
<svg width="56px" height="56px" viewBox="0 0 56 56" version="1.1" xmlns="http://www.w3.org/2000/svg" xmlns:xlink="http://www.w3.org/1999/xlink">
    <!-- Generator: Sketch 59 (86127) - https://sketch.com -->
    <title>桌面端</title>
    <desc>Created with Sketch.</desc>
    <g id="页面-1" stroke="none" stroke-width="1" fill="none" fill-rule="evenodd">
        <g id="小鸟黑板-web备份" transform="translate(-1117.000000, -6038.000000)" fill="#191711" fill-rule="nonzero">
            <g id="编组-12" transform="translate(1117.000000, 6038.000000)">
                <path d="M29.0182359,40.2452629 L29.0182359,46.808421 L39.4402782,46.808421 L39.4402781,46.808421 C40.4025726,46.8084209 41.1826629,47.5464424 41.1826629,48.4568421 C41.182663,49.3672418 40.4025726,50.1052632 39.4402781,50.1052632 L15.1114239,50.1052632 L15.1114239,50.1052632 C14.1491294,50.1052632 13.3690391,49.3672418 13.3690391,48.4568421 C13.3690391,47.5464424 14.1491294,46.808421 15.1114239,46.808421 L25.5334662,46.808421 L25.5334662,40.2452629 L9.88426952,40.2452629 L9.88426921,40.2452629 C6.05291834,40.2452628 2.94699647,37.3068379 2.94699647,33.6821049 C2.94699647,33.6821049 2.94699647,33.6821049 2.94699647,33.6821049 L2.94699647,13.9315781 L2.94699647,13.9315791 C2.94699647,10.3068461 6.05291834,7.36842105 9.88426921,7.36842105 L44.6351657,7.36842105 L44.6351654,7.36842105 C48.4665163,7.36842105 51.5724382,10.3068461 51.5724382,13.9315791 L51.5724382,33.6821059 L51.5724382,33.6821059 C51.5724382,37.3068389 48.4665163,40.2452639 44.6351654,40.2452639 C44.6351654,40.2452639 44.6351654,40.2452639 44.6351654,40.2452639 L29.0182359,40.2452629 Z" id="形状备份"></path>
            </g>
        </g>
    </g>
</svg>