<?xml version="1.0" encoding="UTF-8"?>
<svg width="56px" height="56px" viewBox="0 0 56 56" version="1.1" xmlns="http://www.w3.org/2000/svg" xmlns:xlink="http://www.w3.org/1999/xlink">
    <!-- Generator: Sketch 59 (86127) - https://sketch.com -->
    <title>chrome插件</title>
    <desc>Created with Sketch.</desc>
    <g id="页面-1" stroke="none" stroke-width="1" fill="none" fill-rule="evenodd">
        <g id="小鸟黑板-web备份" transform="translate(-999.000000, -6038.000000)" fill-rule="nonzero">
            <g id="编组-11" transform="translate(999.000000, 6038.000000)">
                <g id="chrome" transform="translate(5.893993, 7.368421)">
                    <path d="M5.04516559,7.277948 C14.7559914,-4.0237303 32.7639944,-1.7933394 39.4943501,11.4131244 L23.3160601,11.4131244 C20.4017719,11.4131244 18.5198314,11.3469615 16.4812496,12.4194977 C14.0857548,13.6818175 12.2786995,16.0201613 11.6467481,18.7659261 L5.04516559,7.27967417 L5.04516559,7.277948 Z" id="路径" fill="#EA4335"></path>
                    <path d="M13.9412441,20.8935916 C13.9412441,24.7240847 17.0557387,27.8407108 20.8840184,27.8407108 C24.7140281,27.8407108 27.8267926,24.7240847 27.8267926,20.8935916 C27.8267926,17.0630984 24.7122981,13.9464724 20.8840184,13.9464724 C17.0540086,13.9464724 13.9412441,17.0630984 13.9412441,20.8935916 Z" id="路径" fill="#4285F4"></path>
                    <path d="M23.5789107,29.9875273 C19.6810054,31.1453791 15.1215423,29.8604245 12.6233594,25.5476391 C10.7153175,22.2568984 5.67711697,13.4781213 3.38780291,9.48744531 C-4.63256923,21.7798553 2.2805823,38.534761 16.8398233,41.3937144 L23.5771562,29.9875681 L23.5789107,29.9875273 Z" id="路径" fill="#34A853"></path>
                    <path d="M27.3323462,13.9464724 L27.3323462,13.9464724 C30.5641117,16.9638254 31.2912148,21.8103388 29.0871864,25.6434151 C27.4315783,28.4988712 22.1444122,37.423932 19.581802,41.745396 C34.5832621,42.6699374 45.5213906,27.9660724 40.5806798,13.9447177 L27.3323462,13.9447177 L27.3323462,13.9464724 Z" id="路径" fill="#FBBC05"></path>
                </g>
            </g>
        </g>
    </g>
</svg>