<?xml version="1.0" encoding="UTF-8"?>
<svg width="56px" height="56px" viewBox="0 0 56 56" version="1.1" xmlns="http://www.w3.org/2000/svg" xmlns:xlink="http://www.w3.org/1999/xlink">
    <!-- Generator: Sketch 59 (86127) - https://sketch.com -->
    <title>ios</title>
    <desc>Created with Sketch.</desc>
    <g id="页面-1" stroke="none" stroke-width="1" fill="none" fill-rule="evenodd">
        <g id="小鸟黑板-web备份" transform="translate(-756.000000, -6038.000000)" fill="#191711" fill-rule="nonzero">
            <g id="编组-13" transform="translate(756.000000, 6038.000000)">
                <path d="M27.444882,15.2727273 L27.444882,15.2727273 C28.0741341,15.2602335 28.6996612,15.1841994 29.3091065,15.0461259 L29.5959099,15.0461259 L29.5959094,15.0461261 C30.2563086,14.8555742 30.8910366,14.6022943 31.4888118,14.2907898 L31.7469353,14.2907898 L31.7469362,14.2907893 C32.3228505,14.0146952 32.8699006,13.6945332 33.3817115,13.3340288 L33.5824739,13.1829615 L33.5824736,13.1829617 C34.0986029,12.798188 34.5781944,12.3771666 35.0164933,11.9240648 L35.1885753,11.7729975 L35.1885758,11.772997 C35.6262904,11.2980925 36.019536,10.7928874 36.3644683,10.2623244 L36.3644683,10.0860791 L36.364468,10.0860797 C36.7067651,9.53813805 36.9946355,8.96531972 37.2248777,8.37398284 L37.2248777,8.24808754 L37.2248776,8.2480879 C37.4556919,7.64234823 37.6189794,7.01836563 37.7124434,6.38492755 L37.7124437,6.38492512 C37.7960341,5.73235649 37.7960341,5.07362125 37.7124437,4.42105263 L37.7124426,4.42105263 C31.4591409,5.02131253 26.7721313,9.72686925 26.9286381,15.2475364 L27.444882,15.2727273 Z M42.6121607,32.4426164 L42.6121609,32.442617 C42.1232836,31.1630764 41.8950901,29.7970156 41.9412553,28.4262645 L41.9412548,28.426277 C41.9750596,27.5132317 42.1339417,26.6093246 42.4133683,25.7403451 L42.4133684,25.7403447 C42.7013789,24.8503454 43.1112041,24.0054226 43.6309351,23.2301267 L43.6309351,23.2301266 C44.4964188,21.9447639 45.6125308,20.8514169 46.9109154,20.0170437 L46.9109155,20.0170438 C45.2384235,17.6038257 42.679101,15.9675662 39.8042939,15.4735449 L39.8042939,15.4735449 C39.2712569,15.3683415 38.7315347,15.3012357 38.1891522,15.2727273 L35.1825071,15.2727273 L34.4619046,15.4735449 L33.9152435,15.6492602 L33.2194918,15.900282 L32.7225276,16.3019173 L31.9025314,16.628246 L31.2316258,16.9043701 L30.7595078,17.0800854 L30.187996,17.2558008 L29.8649676,17.2558008 L29.8649677,17.2558007 C29.6090409,17.2854601 29.3505987,17.2854601 29.0946683,17.2558008 L29.0946684,17.2558007 C28.8468632,17.2820202 28.5970265,17.2820202 28.3492198,17.2558008 L28.0758884,17.2558008 L27.5292273,17.1051878 L27.1316541,16.9545748 L26.5601423,16.8039618 L25.6159062,16.4274289 L25.2431851,16.3019038 L24.5722795,16.050882 L24.1250099,15.900269 L23.5038012,15.6994514 L23.0316831,15.6994514 L22.3856283,15.5739402 L21.8886641,15.5739402 L21.2923062,15.3982249 L21.2923067,15.3982249 C19.7658577,15.4066813 18.255458,15.7135519 16.8444566,16.3019038 L16.8444562,16.3019039 C11.6950498,18.6037487 8.51143416,23.9038617 8.8681507,29.5809589 L8.8681507,32.0911769 C8.8681507,32.2919946 8.8681507,32.9948558 9.04208886,33.4466975 C9.21602702,33.898537 9.04208886,33.9487393 9.19117858,34.1997625 C9.3402683,34.4507843 9.3402683,35.003032 9.4396616,35.4046692 C9.5390549,35.8063044 9.58875132,35.9318156 9.66329664,36.1828388 C9.7378415,36.4338606 9.86208324,36.9359037 9.98632498,37.3124362 C10.1105667,37.6889691 10.1851116,37.8646825 10.2845049,38.1408104 L10.6572296,39.1951032 L11.005106,39.9983727 C11.1541957,40.3247015 11.2784374,40.676133 11.4275271,41.0024609 L11.8002519,41.7555258 L12.2972161,42.7345093 L12.7196373,43.4624742 L13.2414522,44.3661531 L13.6887218,45.0439134 L14.2353829,45.8722876 L14.707501,46.4998433 L15.2790128,47.2278082 L15.775977,47.8051593 L16.3474888,48.4327149 L16.8693037,48.9347567 L17.4408156,49.461903 L17.9626305,49.8635383 L18.5341423,50.2902754 L19.0559573,50.5915018 L19.6026183,50.8927283 L20.0995825,51.0684436 L20.6462436,51.2441589 L21.2922984,51.4449761 L21.8638103,51.4449761 L21.8638099,51.4449761 C22.539137,51.4194016 23.2078848,51.3011753 23.8516713,51.0935464 L23.8516721,51.093546 C25.6728813,50.1707615 27.6581332,49.6245747 29.691044,49.4870068 L29.6910442,49.4870068 C30.1047063,49.4586294 30.5197959,49.4586294 30.9334616,49.4870069 L31.3310348,49.4870069 L32.0019404,49.6376198 L32.4243616,49.763131 L32.9461765,49.9388463 L33.3934462,50.1145616 L34.039501,50.3906857 L34.6110128,50.6417075 L34.9837376,50.7672186 L35.4807018,50.9429339 L37.5928123,50.9429339 L37.592812,50.942934 C39.2523439,50.7986991 40.809001,50.0701678 41.9909652,48.8845531 L41.9909654,48.8845529 C44.281826,46.6751249 46.1442257,44.0530492 47.4824268,41.1530664 L47.4824267,41.1530666 C47.9033684,40.3697643 48.2848615,39.56547 48.6254417,38.7432718 L48.6254417,38.7432721 C45.8802504,37.521556 43.7204855,35.2586025 42.6121607,32.4426108 L42.6121607,32.4426164 Z" id="形状备份-7"></path>
            </g>
        </g>
    </g>
</svg>