<?xml version="1.0" encoding="UTF-8"?>
<svg width="56px" height="56px" viewBox="0 0 56 56" version="1.1" xmlns="http://www.w3.org/2000/svg" xmlns:xlink="http://www.w3.org/1999/xlink">
    <!-- Generator: Sketch 59 (86127) - https://sketch.com -->
    <title>安卓</title>
    <desc>Created with Sketch.</desc>
    <g id="页面-1" stroke="none" stroke-width="1" fill="none" fill-rule="evenodd">
        <g id="小鸟黑板-web备份" transform="translate(-872.000000, -6038.000000)" fill="#84BA40" fill-rule="nonzero">
            <g id="编组-10" transform="translate(872.000000, 6038.000000)">
                <path d="M41.7965042,20.0013918 C41.8659692,19.3066542 41.7965042,19.2371804 41.1018542,19.2371804 L14.8788177,19.2371804 C14.0799702,19.2371804 14.0799702,19.2371804 14.0799702,20.0361287 L14.0799702,42.997208 C14.1494352,44.3519465 15.1566777,45.3245792 16.5112451,45.3245792 L18.6299275,45.3245792 C19.011985,45.3245792 19.1856475,45.4635267 19.1856475,45.8456324 C19.1856475,48.034056 19.1856475,50.1877427 19.150915,52.3761663 C19.150915,53.9045892 19.7413675,54.7730112 21.0612025,55.0509063 C21.9295149,55.2245907 22.7978274,55.1898538 23.6661399,55.0509063 C24.6039173,54.8772219 25.4722298,53.6266941 25.4374973,52.7930089 C25.4027648,50.5003747 25.4374973,48.2077404 25.4374973,45.9151062 C25.4374973,45.4635267 25.6111598,45.3245792 26.0279498,45.3245792 C27.2783197,45.3593161 28.5634222,45.3245792 29.8485246,45.3245792 C30.6126396,45.3245792 30.6473721,45.3593161 30.6473721,46.1235275 L30.6473721,52.6887983 C30.6473721,53.9740629 31.4462196,54.9119587 32.6965895,55.0509063 C33.356507,55.12038 34.051157,55.1898538 34.7110745,55.0856432 C34.9889345,55.0509063 35.232062,54.9814325 35.4751894,54.8772219 C36.5171644,54.3909055 36.8992219,53.4877466 36.8992219,52.4109032 L36.8992219,45.9498431 C36.8992219,45.3593161 36.9339544,45.3245792 37.5591394,45.3245792 L39.5736243,45.3245792 C40.6503318,45.2898423 41.8312367,44.2129989 41.7965042,43.1708925 C41.7617717,42.3024704 41.8312367,41.4687852 41.8312367,40.6003631 L41.8312367,21.2171827 C41.8659692,20.8003401 41.7617717,20.4182344 41.7965042,20.0013918 L41.7965042,20.0013918 Z M14.7051552,17.6392838 L41.1365867,17.6392838 C41.7965042,17.6392838 41.8312367,17.56981 41.6228417,16.9445461 C40.4419368,13.6445423 38.3579868,11.0392761 35.3362594,9.19822134 C34.8500045,8.92032628 34.815272,8.71190499 35.1278645,8.22558863 C35.4751894,7.70453539 35.8225144,7.18348216 36.1351069,6.66242892 C36.4476994,6.17611256 36.7602919,5.65505932 37.0728844,5.16874297 C37.2118144,4.92558479 37.2118144,4.68242661 36.9686869,4.5087422 C36.6908269,4.33505779 36.5171644,4.43926844 36.3087694,4.64768973 L36.1003744,4.96032167 C35.4057244,5.96769127 34.8500045,7.04453463 34.120622,8.01716734 C33.912227,8.2950624 33.7385645,8.36453616 33.425972,8.22558863 C32.9744495,8.01716734 32.522927,7.84348292 32.0366721,7.70453539 C28.7718172,6.83611333 25.5416948,6.87085021 22.3810374,8.19085175 C22.1031774,8.32979928 21.8947824,8.26032551 21.7211199,7.98243045 C21.4085274,7.46137722 21.0612025,6.94032398 20.74861,6.45400762 L19.6024375,4.68242661 C19.428775,4.43926844 19.22038,4.36979467 18.9772525,4.5087422 C18.6993925,4.64768973 18.6993925,4.89084791 18.8383225,5.13400609 C18.94252,5.3076905 19.011985,5.44663803 19.1161825,5.62032244 C19.6719025,6.45400762 20.19289,7.2876928 20.74861,8.15611487 C21.095935,8.6771681 21.0612025,8.8855894 20.5749475,9.16348446 C19.35931,9.85822211 18.2826026,10.6919073 17.3100926,11.6992769 C15.9207926,13.2276997 14.8440852,14.929807 14.1841677,16.9098093 C13.9410402,17.6045469 13.9757727,17.6392838 14.7051552,17.6392838 L14.7051552,17.6392838 Z M33.634367,11.7340138 C34.329017,11.7340138 35.0583995,12.4287514 35.093132,13.1582259 C35.1278645,13.8877005 34.398482,14.6519119 33.6690995,14.6519119 C32.939717,14.6519119 32.2103346,13.9571742 32.1756021,13.1929628 C32.1756021,12.4982252 32.939717,11.7340138 33.634367,11.7340138 L33.634367,11.7340138 Z M21.9642474,11.9424351 C22.6588974,11.9076982 23.2840824,12.6371727 23.2840824,13.4013841 C23.2840824,14.1655955 22.6588974,14.8255963 21.9642474,14.8603332 C21.2348649,14.8603332 20.540215,14.1655955 20.540215,13.4013841 C20.4360175,12.4634883 21.1654,11.9771719 21.9642474,11.9424351 L21.9642474,11.9424351 Z M49.7502464,27.0182421 C49.7502464,25.6287668 49.7849789,24.2392915 49.7502464,22.8845531 C49.7155139,21.9119203 49.298724,21.1824458 48.395679,20.6961295 C47.6662965,20.3140238 46.936914,20.3834975 46.1727991,20.3834975 C44.5403716,20.3834975 43.5331292,21.3908671 43.5331292,23.0235006 L43.5331292,36.7793061 C43.5331292,37.7519388 43.9151866,38.4814133 44.7487666,38.9677297 C45.5476141,39.454046 46.4159266,39.3150985 47.2495065,39.2803616 C47.492634,39.2803616 47.8052265,39.3498354 48.0136215,39.2456247 C49.1250615,38.6898346 49.7502464,37.8908863 49.7502464,36.5708848 L49.7502464,27.0182421 Z M9.70367536,20.3834975 L8.5575029,20.3834975 C6.89034296,20.3834975 5.709438,21.7034991 5.91783299,23.3708694 C5.95256549,23.787712 5.98729799,24.2045546 5.98729799,24.5866603 L5.98729799,36.9182536 C5.98729799,37.8561494 6.43882047,38.5161502 7.27240044,39.0024665 C8.10598041,39.4887829 9.00902538,39.3845723 9.87733785,39.3150985 C11.3361028,39.176151 12.2391478,38.1340445 12.2391478,36.6750954 C12.2391478,35.7719365 12.1696828,34.9035144 12.1696828,34.0003555 C12.2044153,30.283509 12.0654853,26.6013995 12.2391478,22.8845531 C12.2738803,21.3213933 10.7803828,20.3834975 9.70367536,20.3834975 L9.70367536,20.3834975 Z" id="形状"></path>
            </g>
        </g>
    </g>
</svg>