<?xml version="1.0" encoding="UTF-8"?>
<svg width="35px" height="35px" viewBox="0 0 35 35" version="1.1" xmlns="http://www.w3.org/2000/svg" xmlns:xlink="http://www.w3.org/1999/xlink">
    <!-- Generator: Sketch 59 (86127) - https://sketch.com -->
    <title>评论@1</title>
    <desc>Created with Sketch.</desc>
    <g id="页面-3" stroke="none" stroke-width="1" fill="none" fill-rule="evenodd">
        <g id="首页" transform="translate(-600.000000, -879.000000)" fill="#9C9C9C">
            <g id="编组-19" transform="translate(600.000000, 879.000000)">
                <path d="M14.8043797,4 C20.992587,4 26.1561093,8.30267813 27.349104,14.0215864 C30.6753707,15.4506943 33.000034,18.7041602 33.000034,22.4913953 C33.000034,24.6811202 32.2230122,26.6933623 30.9243816,28.2771691 L30.9243816,28.2771691 L31.4734523,29.8903639 C31.7091534,30.5822991 31.3275501,31.3305335 30.6214576,31.5611786 C30.3446478,31.6516535 30.0454304,31.6516535 29.7686206,31.5611786 L29.7686206,31.5611786 L27.5977779,30.8519078 C26.3373919,31.4363628 24.959745,31.7386614 23.5652503,31.7370171 C20.9152554,31.7370171 18.5221899,30.6648492 16.8084289,28.9412024 C16.1552386,29.0417485 15.4863798,29.0954061 14.8043797,29.0954061 C12.9619013,29.0977175 11.1408195,28.7090714 9.46614543,27.9560491 L9.46614543,27.9560491 L5.8345961,29.0239177 C5.12159602,29.2337601 4.37001441,28.8373544 4.15621547,28.1388151 C4.08663394,27.9116371 4.08056873,27.6704256 4.13886221,27.4402759 L4.13886221,27.4402759 L4.16868287,27.3413808 L5.06768297,24.6976302 C3.08368274,22.4278317 1.99531305,19.5362656 2.00001517,16.5476205 C2.00001517,9.61803197 7.73284088,4 14.8043797,4 Z M27.604854,16.4015067 L27.608729,16.5476205 C27.608729,21.9728153 24.0944406,26.5933115 19.1753802,28.3441998 C20.4044293,29.2309534 21.9220816,29.7558072 23.5652503,29.7558072 C24.5848809,29.7558072 25.5728375,29.5548801 26.4853159,29.1705267 L26.4853159,29.1705267 L26.732642,29.0617256 L27.4672073,28.7207936 L29.1289086,29.2636432 L28.6578433,27.8787822 L29.3487727,27.0361104 C30.4064794,25.7484934 30.9814957,24.1442141 30.9783079,22.4913953 C30.9783079,19.9401008 29.6350173,17.6975439 27.604854,16.4015067 L27.604854,16.4015067 Z M14.8043797,5.98120323 C8.84884101,5.98120323 4.02175166,10.7116562 4.02175166,16.5476205 C4.01722089,18.972283 4.86803621,21.3241364 6.4303353,23.2044634 L6.4303353,23.2044634 L6.60555271,23.4098481 L7.34753106,24.2617655 L6.49755813,26.7600628 L9.61659653,25.8434261 L10.3100531,26.1557958 C11.7198794,26.7897808 13.2532002,27.1165142 14.8043797,27.114215 C14.9996461,27.114215 15.1935646,27.1082592 15.3864722,27.0983532 C16.1373799,27.0592245 16.8673963,26.9438194 17.5697822,26.7617138 C22.1849078,25.565067 25.5869897,21.4466408 25.5869897,16.5476205 C25.5869897,16.1898482 25.5682886,15.8363685 25.5329081,15.4875117 C25.4584407,14.7562826 25.3078212,14.0471769 25.0891364,13.3674591 C23.7118264,9.0859138 19.6287553,5.98120323 14.8043797,5.98120323 Z M15.324526,17.8684557 C16.2309022,17.8684557 16.6841753,18.4121794 16.6841753,19.5000348 C16.6841753,20.5876862 16.2309022,21.1316139 15.324526,21.1316139 L15.324526,21.1316139 L9.88592887,21.1316139 C8.97938271,21.1316139 8.52627959,20.5876862 8.52627959,19.5000348 C8.52627959,18.4121794 8.97938271,17.8684557 9.88592887,17.8684557 L9.88592887,17.8684557 Z M19.4034738,11.3421391 C20.30985,11.3421391 20.7631231,11.8860668 20.7631231,12.9737183 C20.7631231,14.0613697 20.30985,14.6052974 19.4034738,14.6052974 L19.4034738,14.6052974 L9.88592887,14.6052974 C8.97938271,14.6052974 8.52627959,14.0613697 8.52627959,12.9737183 C8.52627959,11.8860668 8.97938271,11.3421391 9.88592887,11.3421391 L9.88592887,11.3421391 Z" id="形状结合"></path>
            </g>
        </g>
    </g>
</svg>