<?xml version="1.0" encoding="UTF-8"?>
<svg width="50px" height="50px" viewBox="0 0 50 50" version="1.1" xmlns="http://www.w3.org/2000/svg" xmlns:xlink="http://www.w3.org/1999/xlink">
    <!-- Generator: Sketch 63.1 (92452) - https://sketch.com -->
    <title>Community</title>
    <desc>Created with Sketch.</desc>
    <g id="定稿" stroke="none" stroke-width="1" fill="none" fill-rule="evenodd">
        <g id="个人中心" transform="translate(-36.000000, -631.000000)" fill="#666666" fill-rule="nonzero">
            <g id="编组-3" transform="translate(35.000000, 349.000000)">
                <g id="Community-2" transform="translate(1.000000, 282.000000)">
                    <g id="Community" transform="translate(3.000000, 3.000000)">
                        <path d="M22.0511872,0.6 C27.4017753,0.6 32.5434844,2.5864255 36.4691143,6.17291876 L36.9741737,6.64976459 L37.2612354,6.93682622 C39.1992885,8.87487935 40.7646005,11.2104243 41.8461287,13.7668552 C42.9466165,16.4680525 43.5023744,19.1985153 43.5023744,22.0511872 C43.5023744,27.4017753 41.5159489,32.5434844 37.9294556,36.4691143 L37.4526098,36.9741737 L37.1655482,37.2612354 C35.2274951,39.1992885 32.8919501,40.7646005 30.3404564,41.8440787 C28.0045047,42.8323659 25.4524225,43.3942596 22.8374218,43.4882544 L22.0511872,43.5023744 L5.68867353,43.5023744 C5.14537704,43.5023744 4.63596107,43.0472881 4.53951085,42.5162007 L4.5231758,42.3368767 L4.522,34.46 L4.40501421,34.3384495 C3.50996449,33.0704624 2.74335025,31.6534765 2.17333995,30.2153391 L1.90503405,29.4950998 L1.67138905,28.7748865 C0.964863617,26.554378 0.6,24.3165478 0.6,22.0511872 C0.6,16.6459879 2.65003153,11.481428 6.36776417,7.43654177 L6.84113904,6.93682622 L6.93682622,6.84113904 C10.9525141,2.82545118 16.3242928,0.6 22.0511872,0.6 Z M22.0511872,2.93099545 C17.1900072,2.93099545 12.61241,4.744665 9.03642904,8.0894938 L8.45938382,8.65075823 C4.90096301,12.209179 2.93099545,16.9863504 2.93099545,22.0511872 C2.93099545,23.9230031 3.16192747,25.6491563 3.64732329,27.2741703 L3.8709981,27.9645426 C4.41480042,29.777217 5.32684003,31.554525 6.62056766,33.3547675 L6.75213757,33.5939855 C6.79681658,33.6833435 6.82727186,33.7709323 6.84261105,33.8650288 L6.85417121,34.012089 L6.854,41.17 L22.0511872,41.171379 C26.9456707,41.171379 31.5992487,39.336161 35.080011,36.0100699 L35.5473034,35.5473034 C39.1546682,31.9399385 41.171379,27.1441021 41.171379,22.0511872 C41.171379,16.9342271 39.1655312,12.0805709 35.5473034,8.55507101 C31.965702,4.97346965 27.0836905,2.93099545 22.0511872,2.93099545 Z" id="形状"></path>
                        <path d="M25.1131781,14.4828205 C27.8514954,14.4828205 30.4506568,16.2659662 31.4849334,18.8523465 C32.4740002,21.1272 31.9914196,23.5382291 30.2321704,25.4914316 L29.8260261,25.9137015 L22.4635719,33.0848527 C22.2668646,33.28156 21.9358997,33.4470424 21.6684383,33.4470424 C21.4838032,33.4470424 21.3263977,33.404664 21.1684054,33.3256679 L20.9291876,33.1940981 L20.7857812,33.0928579 L13.2183276,25.8126244 C11.2589127,23.8532094 10.6954543,21.3176466 11.6539165,18.8682885 C12.6948454,16.2659662 15.2940068,14.4828205 18.0323242,14.4828205 C19.1166564,14.4828205 20.2131023,14.7894921 21.2176171,15.3442021 L21.572,15.554 L21.8928544,15.3640361 C22.6353869,14.9536476 23.4069502,14.6799286 24.1823935,14.5570189 L24.6479238,14.5014832 L25.1131781,14.4828205 Z M25.1131781,16.8931543 C24.0997785,16.8931543 23.1750547,17.2294175 22.3678846,17.8705856 C22.1711774,18.0672928 21.8402126,18.2327752 21.5727511,18.2327753 C21.358782,18.2327753 21.1041707,18.1268666 20.9229338,17.9958232 L20.8025453,17.89409 C20.0835787,17.2550086 19.0884794,16.8931543 18.1280114,16.8931543 C16.3824615,16.8931543 14.6629558,18.0644118 13.982883,19.6790111 C13.4291333,21.1029389 13.7003545,22.5652288 14.7536822,23.7687195 L14.9913506,24.0225408 L21.664,30.424 L28.2412203,24.0309829 C29.4141028,22.8581004 29.8004327,21.4125468 29.3660259,19.9888609 L29.260364,19.6842274 C28.5927511,18.0151952 26.9096898,16.8931543 25.1131781,16.8931543 Z" id="形状"></path>
                    </g>
                </g>
            </g>
        </g>
    </g>
</svg>