<?xml version="1.0" encoding="UTF-8"?>
<svg width="145px" height="145px" viewBox="0 0 145 145" version="1.1" xmlns="http://www.w3.org/2000/svg" xmlns:xlink="http://www.w3.org/1999/xlink">
    <!-- Generator: Sketch 59 (86127) - https://sketch.com -->
    <title>cross</title>
    <desc>Created with Sketch.</desc>
    <defs>
        <linearGradient x1="2.00433775%" y1="79.6482702%" x2="100.486707%" y2="19.4236578%" id="linearGradient-1">
            <stop stop-color="#3E5ADE" offset="0%"></stop>
            <stop stop-color="#80A8FF" offset="100%"></stop>
        </linearGradient>
        <linearGradient x1="2.00433775%" y1="80.1397666%" x2="100.486707%" y2="18.9167762%" id="linearGradient-2">
            <stop stop-color="#3E5ADE" offset="0%"></stop>
            <stop stop-color="#80A8FF" offset="100%"></stop>
        </linearGradient>
    </defs>
    <g id="页面-1" stroke="none" stroke-width="1" fill="none" fill-rule="evenodd">
        <g id="豌豆笔记" transform="translate(-302.000000, -7367.000000)">
            <g id="编组-10备份" transform="translate(299.000000, 7360.000000)">
                <g id="编组-7">
                    <path d="M87.4575378,28.4645504 L120.412606,51.9877516 C126.833312,56.5708273 129.521694,64.8006302 127.044709,72.290263 L114.58754,109.956869 C112.149889,117.327569 105.261233,122.304952 97.4978989,122.304952 L56.5021011,122.304952 C48.7387669,122.304952 41.8501114,117.327569 39.4124601,109.956869 L26.9552911,72.290263 C24.478306,64.8006302 27.1666877,56.5708273 33.5873942,51.9877516 L66.5424622,28.4645504 C72.7989748,23.9986757 81.2010252,23.9986757 87.4575378,28.4645504 Z" id="多边形" fill="url(#linearGradient-1)" opacity="0.315666562" transform="translate(77.000000, 77.000000) rotate(-28.000000) translate(-77.000000, -77.000000) "></path>
                    <path d="M87.5144862,32.5671533 L116.709711,53.5786168 C123.078362,58.1620606 125.744184,66.342888 123.298621,73.7985498 L112.216663,107.583548 C109.791976,114.975567 102.892794,119.973392 95.1132669,119.973392 L58.8867331,119.973392 C51.1072061,119.973392 44.208024,114.975567 41.7833373,107.583548 L30.701379,73.7985498 C28.2558163,66.342888 30.9216378,58.1620606 37.2902886,53.5786168 L66.4855138,32.5671533 C72.7664235,28.0468557 81.2335765,28.0468557 87.5144862,32.5671533 Z" id="多边形" fill="url(#linearGradient-2)"></path>
                    <path d="M87.6666671,52 L87.6666669,52 C90.6121836,52 93,54.350507 93,57.25 L93,95.75 L93,95.75 C93,98.649493 90.6121836,101 87.6666669,101 L66.3333336,101 L66.3333333,101 C63.3878167,101 61,98.649493 61,95.75 C61,95.75 61,95.75 61,95.75 L61,57.25 L61,57.2500008 C61,54.3505078 63.3878111,52 66.3333333,52 L87.6666671,52 Z M87.6666671,55.5 L66.3333338,55.5 L66.3333337,55.5 C65.3514948,55.5 64.5555559,56.2835023 64.5555559,57.25 C64.5555559,57.25 64.5555559,57.25 64.5555559,57.25 L64.5555559,95.75 L64.5555559,95.7500003 C64.5555559,96.7164979 65.3514948,97.5 66.3333337,97.5 L87.6666671,97.5 L87.666667,97.5 C88.6485059,97.5 89.4444448,96.7164979 89.4444448,95.7500003 L89.4444448,57.2500003 L89.4444448,57.2500003 C89.4444448,56.2835026 88.6485059,55.5 87.666667,55.5 L87.6666671,55.5 Z M75.2222227,94 L75.2222226,94 C74.2403837,94 73.4444448,93.2164977 73.4444448,92.25 C73.4444448,91.2835023 74.2403837,90.5 75.2222226,90.5 L78.7777782,90.5 L78.7777781,90.5 C79.759617,90.5 80.5555559,91.2835023 80.5555559,92.25 C80.5555559,93.2164977 79.759617,94 78.7777781,94 L75.2222227,94 Z M64.555556,62.5 L64.5555559,62.5 C63.5737171,62.5 62.7777782,61.7164977 62.7777782,60.75 C62.7777782,59.7835023 63.5737171,59 64.5555559,59 L89.4444448,59 L89.4444449,59 C90.4262838,59 91.2222227,59.7835023 91.2222227,60.75 C91.2222227,61.7164977 90.4262838,62.5 89.4444449,62.5 L64.555556,62.5 Z" id="形状" fill="#FFFFFF" fill-rule="nonzero"></path>
                </g>
            </g>
        </g>
    </g>
</svg>