<?xml version="1.0" encoding="UTF-8"?>
<svg width="50px" height="50px" viewBox="0 0 50 50" version="1.1" xmlns="http://www.w3.org/2000/svg" xmlns:xlink="http://www.w3.org/1999/xlink">
    <!-- Generator: Sketch 63.1 (92452) - https://sketch.com -->
    <title>Dark Mode</title>
    <desc>Created with Sketch.</desc>
    <g id="定稿✅" stroke="none" stroke-width="1" fill="none" fill-rule="evenodd">
        <g id="Dark-Mode个人中心" transform="translate(-36.000000, -456.000000)" fill="#D8D8D8" fill-rule="nonzero" stroke="#D8D8D8" stroke-width="0.2">
            <g id="编组-3" transform="translate(35.000000, 349.000000)">
                <g id="Dark-Mode-2" transform="translate(1.000000, 107.000000)">
                    <g id="Dark-Mode" transform="translate(5.000000, 4.000000)">
                        <path d="M13.4177376,1.02077871 L13.366,1.054 L13.4551144,1.01348844 C9.6858852,2.69356353 6.62904422,5.30204718 4.30120904,8.8236451 C1.96988593,12.3606376 0.8,16.2022764 0.8,20.3361956 C0.8,26.0776941 2.84661148,31.0169287 6.91218675,35.0845261 C10.9788639,39.1532258 15.9125692,41.2 21.6540293,41.2 C26.0197533,41.2 29.9711793,39.9820156 33.4756493,37.5530855 C36.9822311,35.1254856 39.5202751,31.8654286 41.0725687,27.7976842 L41.1408794,27.5520951 C41.3026314,26.8217368 41.0777207,26.1551777 40.5190566,25.717624 L40.44,25.662 L40.3664612,25.5974845 C39.8114169,25.1575834 39.1055752,25.0775723 38.4882941,25.4416898 L38.466,25.456 L38.5623276,25.4182581 C36.6875665,26.2000893 34.4423376,26.5956666 31.8230514,26.5956666 C27.1152487,26.5956666 23.1146733,24.9285933 19.7515083,21.5637557 C16.3882287,18.1988034 14.7218517,14.1959198 14.7218517,9.48536457 C14.7218517,7.44617623 15.1397349,5.4322976 15.9816439,3.42066269 L16.0534803,3.16625841 C16.2248185,2.41193128 16.0008664,1.74297525 15.4422982,1.30518188 L15.366,1.254 L15.4688148,1.3448632 C14.8956623,0.771425678 14.1030403,0.625906034 13.4177376,1.02077871 Z M13.288,3.762 L13.1821409,4.07140757 C12.6140899,5.83095668 12.3218517,7.64769345 12.3218517,9.48536457 C12.3218517,14.8338794 14.2420749,19.4465388 18.0540302,23.26039 C21.8661,27.0743558 26.4767845,28.9956666 31.8230514,28.9956666 L32.6103899,28.9844914 C34.6858947,28.924868 36.5687861,28.6264837 38.2567254,28.0850608 L38.372,28.044 L38.2608913,28.2962364 C36.8775032,31.2661263 34.8273342,33.6983043 32.109027,35.5801833 C29.0084217,37.7291966 25.5344854,38.8 21.6540293,38.8 C16.5496614,38.8 12.2264786,37.0065043 8.60966489,33.3878917 C4.99376783,29.7701963 3.2,25.4411674 3.2,20.3361956 C3.2,16.6753877 4.23024419,13.2923005 6.30420607,10.1457648 C8.10384623,7.423233 10.3735284,5.32820611 13.126982,3.84614329 L13.288,3.762 Z" id="路径"></path>
                    </g>
                </g>
            </g>
        </g>
    </g>
</svg>