<?xml version="1.0" encoding="UTF-8"?>
<svg width="50px" height="50px" viewBox="0 0 50 50" version="1.1" xmlns="http://www.w3.org/2000/svg" xmlns:xlink="http://www.w3.org/1999/xlink">
    <!-- Generator: Sketch 59 (86127) - https://sketch.com -->
    <title>Community</title>
    <desc>Created with Sketch.</desc>
    <g id="页面-2" stroke="none" stroke-width="1" fill="none" fill-rule="evenodd">
        <g id="Partner" transform="translate(-45.000000, -809.000000)" fill="#595851" fill-rule="nonzero">
            <g id="Community-2" transform="translate(45.000000, 809.000000)">
                <path d="M17.9750147,34.8167081 L17.9750147,34.8167081 C18.5871307,34.8167081 19.0833496,34.3204891 19.0833496,33.708373 L19.0833496,21.5166887 L19.0833496,21.5166887 C19.0833496,20.9045727 18.5871307,20.4083538 17.9750147,20.4083538 C17.3628986,20.4083538 16.8666797,20.9045727 16.8666797,21.5166887 L16.8666797,33.708373 L16.8666797,33.7083732 C16.8666797,34.3204892 17.3628986,34.8167081 17.9750147,34.8167081 L17.9750147,34.8167081 Z M24.6250243,34.8167081 L24.6250243,34.8167081 C25.2371403,34.8167081 25.7333592,34.3204891 25.7333592,33.708373 L25.7333592,21.5166887 L25.7333592,21.5166887 C25.7333592,20.9045727 25.2371403,20.4083538 24.6250243,20.4083538 C24.0129082,20.4083538 23.5166893,20.9045727 23.5166893,21.5166887 L23.5166893,33.708373 L23.5166893,33.7083732 C23.5166893,34.3204892 24.0129082,34.8167081 24.6250243,34.8167081 L24.6250243,34.8167081 Z M31.2750339,34.8167081 L31.2750339,34.8167081 C31.8871499,34.8167081 32.3833688,34.3204891 32.3833688,33.708373 L32.3833688,21.5166887 L32.3833688,21.5166887 C32.3833688,20.9045727 31.8871499,20.4083538 31.2750339,20.4083538 C30.6629178,20.4083538 30.1666989,20.9045727 30.1666989,21.5166887 L30.1666989,33.708373 L30.1666989,33.7083732 C30.1666989,34.3204892 30.6629178,34.8167081 31.2750339,34.8167081 L31.2750339,34.8167081 Z M36.8167086,9.32500446 L32.225535,9.32500446 L32.2255351,9.3250048 C31.7217346,7.37373612 29.9652696,6.00775834 27.9500292,6 L21.3000196,6 L21.3000194,6 C19.2841209,6.00695601 17.5267277,7.3731023 17.0227471,9.3250048 L12.4333399,9.3250048 L12.4333397,9.3250048 C9.98487547,9.32500491 8,11.3098803 8,13.7583445 L8,14.8666795 L9.10833493,14.8666795 L9.10833493,15.9750144 L11.3250048,15.9750144 L11.3250048,37.0333781 L11.3250048,37.0333788 C11.3250052,39.4818431 13.3098803,41.4667185 15.7583445,41.4667185 L33.4917035,41.4667185 L33.4917033,41.4667185 C35.9401675,41.4667185 37.925043,39.4818465 37.925043,37.0333788 L37.925043,15.9750151 L40.1417129,15.9750151 L40.1417129,14.8666801 L41.2500478,14.8666801 L41.2500478,13.7583452 L41.2500478,13.7583452 C41.2500478,11.3098809 39.2651723,9.32500547 36.8167081,9.32500547 C36.8167078,9.32500547 36.8167076,9.32500547 36.8167074,9.32500547 L36.8167086,9.32500446 Z M21.3000195,8.21666952 L27.9500291,8.21666952 L27.950029,8.21666952 C28.7382179,8.21934256 29.4653064,8.64167441 29.8581315,9.32500458 L19.3954497,9.32500458 L19.3954497,9.32500458 C19.7876444,8.64276209 20.5130912,8.22060077 21.3000194,8.21666952 L21.3000195,8.21666952 Z M35.7083737,37.0333778 L35.7083737,37.0333248 C35.7074289,38.2571552 34.7155862,39.2490457 33.4917558,39.2500466 L15.7583276,39.2500466 C14.5364922,39.2500466 13.3873914,38.2569785 13.3873914,37.0333768 L13.5416577,15.975013 L35.7083737,15.975013 L35.7083737,37.0333768 L35.7083737,37.0333778 Z M10.2166702,13.7583442 L10.2166702,13.7583969 C10.2176151,12.5345666 11.2094577,11.5426761 12.4332881,11.5416751 L36.8166566,11.5416751 L36.8166566,11.5416751 C38.0404869,11.5426492 39.0323532,12.5345146 39.0333265,13.758345 L10.2166702,13.7583442 Z" id="形状"></path>
            </g>
        </g>
    </g>
</svg>