<?xml version="1.0" encoding="UTF-8"?>
<svg width="50px" height="50px" viewBox="0 0 50 50" version="1.1" xmlns="http://www.w3.org/2000/svg" xmlns:xlink="http://www.w3.org/1999/xlink">
    <!-- Generator: Sketch 63.1 (92452) - https://sketch.com -->
    <title>英文</title>
    <desc>Created with Sketch.</desc>
    <g id="定稿✅" stroke="none" stroke-width="1" fill="none" fill-rule="evenodd">
        <g id="Dark-Mode个人中心" transform="translate(-289.000000, -539.000000)" fill="#D8D8D8" fill-rule="nonzero">
            <g id="英文-2" transform="translate(289.000000, 539.000000)">
                <g id="英文">
                    <path d="M40.8125,0.8 L9.1875,0.8 C4.5615708,0.8 0.8,4.5615708 0.8,9.1875 L0.8,40.8125 C0.8,45.4384292 4.5615708,49.2 9.1875,49.2 L40.8125,49.2 C45.4384292,49.2 49.2,45.4384292 49.2,40.8125 L49.2,9.1875 C49.2,4.5615708 45.4384292,0.8 40.8125,0.8 Z M9.1875,3.2 L40.8125,3.2 C44.1129458,3.2 46.8,5.8870542 46.8,9.1875 L46.8,40.8125 C46.8,44.1129458 44.1129458,46.8 40.8125,46.8 L9.1875,46.8 C5.8870542,46.8 3.2,44.1129458 3.2,40.8125 L3.2,9.1875 C3.2,5.8870542 5.8870542,3.2 9.1875,3.2 Z" id="路径"></path>
                    <polygon id="路径" points="10.4375 16.703125 22.296875 16.703125 22.296875 18.3670313 12.359375 18.3670313 12.359375 23.96875 21.734375 23.96875 21.734375 25.6326562 12.359375 25.6326562 12.359375 31.7732812 22.6953125 31.7732812 22.6953125 33.4375 10.4375 33.4375"></polygon>
                    <polygon id="路径" points="26.0625 16.703125 28.078125 16.703125 37.546875 30.3201562 37.6171875 30.3201562 37.6171875 16.703125 39.5390625 16.703125 39.5390625 33.4375 37.5703125 33.4375 28.0546875 19.6796875 27.984375 19.6796875 27.984375 33.4375 26.0625 33.4375"></polygon>
                </g>
            </g>
        </g>
    </g>
</svg>