<?xml version="1.0" encoding="UTF-8"?>
<svg width="144px" height="144px" viewBox="0 0 144 144" version="1.1" xmlns="http://www.w3.org/2000/svg" xmlns:xlink="http://www.w3.org/1999/xlink">
    <!-- Generator: Sketch 59 (86127) - https://sketch.com -->
    <title>fast</title>
    <desc>Created with Sketch.</desc>
    <defs>
        <linearGradient x1="100%" y1="1.73899661%" x2="26.2607508%" y2="98.2610034%" id="linearGradient-1">
            <stop stop-color="#AEE06A" offset="0%"></stop>
            <stop stop-color="#70BC1E" offset="100%"></stop>
        </linearGradient>
        <linearGradient x1="100%" y1="0.938946244%" x2="26.2607508%" y2="99.0610538%" id="linearGradient-2">
            <stop stop-color="#AEE06A" offset="0%"></stop>
            <stop stop-color="#70BC1E" offset="100%"></stop>
        </linearGradient>
    </defs>
    <g id="页面-1" stroke="none" stroke-width="1" fill="none" fill-rule="evenodd">
        <g id="豌豆笔记" transform="translate(-295.000000, -7007.000000)">
            <g id="编组-12备份" transform="translate(289.000000, 6999.000000)">
                <g id="编组-9">
                    <path d="M87.4575378,28.4645504 L120.412606,51.9877516 C126.833312,56.5708273 129.521694,64.8006302 127.044709,72.290263 L114.58754,109.956869 C112.149889,117.327569 105.261233,122.304952 97.4978989,122.304952 L56.5021011,122.304952 C48.7387669,122.304952 41.8501114,117.327569 39.4124601,109.956869 L26.9552911,72.290263 C24.478306,64.8006302 27.1666877,56.5708273 33.5873942,51.9877516 L66.5424622,28.4645504 C72.7989748,23.9986757 81.2010252,23.9986757 87.4575378,28.4645504 Z" id="多边形备份-4" fill="url(#linearGradient-1)" opacity="0.372645787" transform="translate(77.000000, 77.000000) rotate(-28.000000) translate(-77.000000, -77.000000) "></path>
                    <path d="M87.5144862,32.5671533 L116.709711,53.5786168 C123.078362,58.1620606 125.744184,66.342888 123.298621,73.7985498 L112.216663,107.583548 C109.791976,114.975567 102.892794,119.973392 95.1132669,119.973392 L58.8867331,119.973392 C51.1072061,119.973392 44.208024,114.975567 41.7833373,107.583548 L30.701379,73.7985498 C28.2558163,66.342888 30.9216378,58.1620606 37.2902886,53.5786168 L66.4855138,32.5671533 C72.7664235,28.0468557 81.2335765,28.0468557 87.5144862,32.5671533 Z" id="多边形备份-2" fill="url(#linearGradient-2)"></path>
                    <path d="M82.3529412,59 L77.4117647,71.6185567 L75.2941176,76.5257732 L88,76.5257732 L76.3529412,93 L78.1176471,84.2371134 L78.4705882,80.0309278 L64,80.0309278 L69.2941176,59 L82.3529412,59 M88,56 L67,56 L60,83.7333333 L75.05,83.7333333 L70.5,108 L95,73.3333333 L81,73.3333333 L88,56 Z" id="形状" fill="#FFFFFF" fill-rule="nonzero"></path>
                </g>
            </g>
        </g>
    </g>
</svg>