<?xml version="1.0" encoding="UTF-8"?>
<svg width="50px" height="50px" viewBox="0 0 50 50" version="1.1" xmlns="http://www.w3.org/2000/svg" xmlns:xlink="http://www.w3.org/1999/xlink">
    <!-- Generator: Sketch 59 (86127) - https://sketch.com -->
    <title>favourite</title>
    <desc>Created with Sketch.</desc>
    <g id="页面-2" stroke="none" stroke-width="1" fill="none" fill-rule="evenodd">
        <g id="首页-右侧" transform="translate(-375.000000, -309.000000)" fill="#595851" fill-rule="nonzero">
            <g id="编组-4" transform="translate(375.000000, 309.000000)">
                <path d="M33.1950568,9.23283389 L33.5049401,9.23653921 C39.7862833,9.38689489 44.85,14.0940264 44.85,19.8662322 C44.85,24.2182852 41.7624948,29.1817136 36.5465829,34.4031497 L35.8050644,35.1333611 C33.7999522,37.0765412 31.6352902,38.9250716 29.4466734,40.6260736 C28.9743691,40.9931505 28.5183324,41.3397024 28.0821535,41.6643495 L27.2373369,42.2840284 L26.7261299,42.6496603 L26.2185926,43.002993 C25.9977343,43.1533092 25.7349693,43.2328339 25.4676816,43.2328339 C25.2065671,43.2328339 24.9467908,43.1552521 24.7272237,43.0084395 L24.0555001,42.546733 L23.2738364,41.9907455 C22.7031606,41.5789909 22.094112,41.1271339 21.4558046,40.6387752 C19.2387698,38.9425575 17.0453176,37.097264 15.0136879,35.1559959 C9.27591278,29.673422 5.85,24.4431071 5.85,19.8662527 C5.85,13.999456 11.0811599,9.23283389 17.5049301,9.23283389 C20.4021585,9.23283389 23.1960787,10.2415777 25.35,12.0559717 C27.5045225,10.2410519 30.2963709,9.23283389 33.1950568,9.23283389 Z M32.8339186,12.239705 C30.7723085,12.3182 28.8067632,13.0666232 27.2827717,14.3503983 L25.3500103,15.9785117 L23.4172403,14.3504084 C21.8052658,12.992533 19.6960067,12.2328339 17.5049301,12.2328339 C12.6771998,12.2328339 8.85,15.7232235 8.85,19.8662527 C8.85,23.2465773 11.6236008,27.7673282 17.0862239,32.9869882 C18.9603009,34.7777111 21.0495626,36.5506414 23.2787232,38.2561364 C23.8766808,38.7136241 24.46305,39.1494188 25.0126938,39.546083 L25.4617797,39.8658 L25.8785356,39.5625025 C26.4374634,39.1525865 27.0158489,38.715792 27.6056984,38.2573586 C29.8061835,36.5471325 31.8678105,34.7713716 33.700104,32.9958061 L34.4241401,32.2829525 C39.3576489,27.3442184 41.85,23.0775132 41.85,19.8662322 C41.85,15.7997232 38.1578509,12.3487747 33.4690712,12.2363248 L33.1783505,12.2328339 L32.8339186,12.239705 Z" id="路径"></path>
            </g>
        </g>
    </g>
</svg>