<?xml version="1.0" encoding="UTF-8"?>
<svg width="50px" height="50px" viewBox="0 0 50 50" version="1.1" xmlns="http://www.w3.org/2000/svg" xmlns:xlink="http://www.w3.org/1999/xlink">
    <!-- Generator: Sketch 59 (86127) - https://sketch.com -->
    <title>favourite@1</title>
    <desc>Created with Sketch.</desc>
    <g id="页面-2" stroke="none" stroke-width="1" fill="none" fill-rule="evenodd">
        <g id="首页-右侧" transform="translate(-375.000000, -309.000000)" fill="#595851" fill-rule="nonzero">
            <g id="编组-4" transform="translate(375.000000, 309.000000)">
                <path d="M34.6234028,43.7911765 C34.1018734,43.7911765 33.5775783,43.6640576 33.0931881,43.4062834 L25.3690215,39.2986816 L25.3690216,39.2986816 C25.138097,39.1759915 24.8622965,39.1759915 24.6313735,39.2986816 L16.907207,43.4062834 C15.7934256,43.9985645 14.469057,43.9018492 13.4512844,43.1537046 C12.4331168,42.40556 11.9329227,41.1614498 12.1458805,39.9069488 L13.6211766,31.2069699 L13.6211766,31.20697 C13.6653869,30.9468383 13.5801212,30.6813664 13.393205,30.4971917 L7.14354432,24.3357891 C6.2423257,23.4473674 5.92427179,22.1433097 6.31304825,20.9327701 C6.70182472,19.7222306 7.71683157,18.8565889 8.96218057,18.6735492 L17.5982334,17.4042611 C17.8566275,17.3662944 18.0794628,17.2024379 18.1952265,16.9658452 L22.0573098,9.05037907 C22.614003,7.90897894 23.7416127,7.2 25,7.2 C26.2583872,7.2 27.385997,7.90897894 27.9426901,9.05037907 L31.8047734,16.9662448 L31.8047735,16.9662449 C31.9202709,17.2028964 32.1435443,17.3668619 32.4017666,17.4046608 L41.0378194,18.6739489 C42.2831684,18.8569886 43.2981753,19.7226303 43.6869517,20.9331699 C44.0757282,22.1437094 43.7576743,23.4477671 42.8564557,24.3361888 L36.6071901,30.4971918 L36.6071901,30.4971918 C36.420334,30.6812402 36.3350679,30.9465622 36.3792185,31.2065704 L37.8545146,39.9069489 C38.0670773,41.16145 37.5668832,42.4055601 36.5491107,43.1537048 C35.9738479,43.5765344 35.3006009,43.7911765 34.6234028,43.7911765 L34.6234028,43.7911765 Z M25,36.6885681 C25.5246901,36.6885681 26.0489852,36.8156567 26.5270539,37.0698341 L34.2512204,41.1774358 C34.6447381,41.3868524 34.9659528,41.204612 35.0860626,41.1162894 C35.2061724,41.0279668 35.4764194,40.775388 35.4013508,40.3321763 L33.9260547,31.6321974 L33.9260548,31.6321975 C33.7434634,30.5553448 34.0964404,29.4565673 34.869944,28.6939713 L41.1192096,22.5325687 C41.4376586,22.2184439 41.3653556,21.8531639 41.3199194,21.7108885 C41.274088,21.5682135 41.1199998,21.2301097 40.6802556,21.1653664 L32.0442028,19.8960783 L32.0442027,19.8960783 C30.9752334,19.739093 30.0511505,19.0599387 29.5732596,18.0800691 L25.7111763,10.1642033 C25.5144175,9.76095659 25.1485567,9.71739475 25.000395,9.71739475 C24.8522332,9.71739475 24.4863724,9.76095659 24.2896136,10.1642033 L20.4275303,18.0800691 L20.4275304,18.080069 C19.9495131,19.0598307 19.0254934,19.7389358 17.9565873,19.8960782 L9.32053444,21.1653663 C8.88039523,21.2301096 8.7267021,21.568613 8.68087072,21.7108884 C8.63503935,21.8535634 8.56313151,22.2188434 8.88158053,22.5325686 L15.1308461,28.6939712 L15.1308461,28.6939712 C15.9043493,29.4565672 16.2573259,30.5553447 16.0747353,31.6321974 L14.5994393,40.3321762 C14.5243707,40.775388 14.7950128,41.0283664 14.9147275,41.1162893 C15.0344422,41.2042123 15.3556569,41.3864527 15.7495697,41.1774358 L23.4737362,37.069834 L23.4737359,37.0698342 C23.9444201,36.8194883 24.4682134,36.6886425 24.9999996,36.6885682 L25,36.6885681 Z" id="形状"></path>
            </g>
        </g>
    </g>
</svg>