<?xml version="1.0" encoding="UTF-8"?>
<svg width="40px" height="40px" viewBox="0 0 40 40" version="1.1" xmlns="http://www.w3.org/2000/svg" xmlns:xlink="http://www.w3.org/1999/xlink">
    <!-- Generator: Sketch 59 (86127) - https://sketch.com -->
    <title>过滤@1</title>
    <desc>Created with Sketch.</desc>
    <g id="页面-3" stroke="none" stroke-width="1" fill="none" fill-rule="evenodd">
        <g id="首页-卡片hover效果" transform="translate(-619.000000, -68.000000)" fill="#595851" fill-rule="nonzero">
            <g id="编组-2" transform="translate(619.000000, 68.000000)">
                <path d="M20.896375,34.9999916 L20.8963749,34.9999916 C20.4065342,35.0011687 19.9242471,34.8790075 19.4938193,34.6447225 L15.6249794,32.5131526 L15.6249791,32.5131525 C14.6848973,31.9961426 14.1016478,31.0060422 14.1042311,29.9315866 L14.1042311,17.6316492 L14.1042311,17.6315823 C14.1042311,17.4473934 14.0163616,17.2743 13.8677917,17.1658225 L4.93247766,10.0369343 L4.79852599,9.91851377 L4.79852585,9.91851363 C3.69315271,8.75149028 3.74131133,6.9076208 4.90609219,5.80011454 C5.45097127,5.28202926 6.1748302,4.99533975 6.92599504,5.00005731 L31.005815,5.00005731 L31.0058151,5.00005731 C32.6246579,5.00255474 33.9350201,6.3193939 33.9325892,7.94135573 C33.9314875,8.67323778 33.6576787,9.37833799 33.1648038,9.91851363 L33.046611,10.0369341 L24.0324433,17.2763759 L24.0324432,17.2763759 C23.8976316,17.3928066 23.8223736,17.5639128 23.8275758,17.7421629 L23.8275758,32.071041 L23.8275758,32.0710515 C23.8275758,33.6886577 22.518771,34.9999916 20.9042755,34.9999916 C20.9016455,34.9999916 20.8990155,34.9999916 20.8963855,34.9999916 L20.896375,34.9999916 Z M6.45322304,8.28432579 L15.3334512,15.38957 L15.3334512,15.38957 C16.0244449,15.9290774 16.4332278,16.7540225 16.4444616,17.6316629 L16.4444616,29.9316003 L16.4444616,29.931602 C16.4411097,30.1472509 16.552053,30.3485337 16.7360051,30.4605459 L20.604845,32.568431 L20.6048449,32.568431 C20.7901277,32.6756103 21.0184051,32.6756103 21.2036892,32.5684311 L21.2036892,32.5684311 C21.3858161,32.4593901 21.494454,32.2598368 21.4873517,32.0473809 L21.4873517,17.7421808 L21.4873517,17.7421744 C21.4824416,16.8568098 21.8796664,16.0172543 22.5668511,15.4606092 L31.4786004,8.28433123 L31.4786005,8.28433122 C31.6092473,8.10508998 31.630463,7.86822725 31.533757,7.66854565 L31.533757,7.66854565 C31.4263878,7.47872974 31.2235311,7.36345521 31.0058303,7.368385 L6.92601035,7.368385 L6.92601034,7.368385 C6.60402877,7.36303993 6.33855571,7.62009613 6.33297229,7.94269942 C6.33081043,8.07457327 6.37316769,8.20332828 6.45323783,8.30801797 L6.45322304,8.28432579 Z M32.8180722,20.0000494 L26.4198889,20.0000494 L26.4198888,20.0000494 C25.7671268,20.0000494 25.2379609,19.4698639 25.2379609,18.8158443 C25.2379609,18.1618246 25.7671268,17.6316392 26.4198888,17.6316392 L32.8180722,17.6316392 L32.8180721,17.6316392 C33.4708341,17.6316392 34,18.1618246 34,18.8158443 C34,19.4698639 33.4708341,20.0000494 32.8180721,20.0000494 L32.8180722,20.0000494 Z M32.8180722,24.3737155 L26.4198889,24.3737155 L26.4198888,24.3737155 C25.7671268,24.3737155 25.2379609,23.8435301 25.2379609,23.1895104 C25.2379609,22.5354908 25.7671268,22.0053053 26.4198888,22.0053053 L32.8180722,22.0053053 L32.8180721,22.0053053 C33.4708341,22.0053053 34,22.5354908 34,23.1895104 C34,23.8435301 33.4708341,24.3737155 32.8180721,24.3737155 L32.8180722,24.3737155 Z M32.8180722,28.7157998 L26.4198889,28.7157998 L26.4198888,28.7157998 C25.7671268,28.7157998 25.2379609,28.1856143 25.2379609,27.5315947 C25.2379609,26.877575 25.7671268,26.3473896 26.4198888,26.3473896 L32.8180722,26.3473896 L32.8180721,26.3473896 C33.4708341,26.3473896 34,26.877575 34,27.5315947 C34,28.1856143 33.4708341,28.7157998 32.8180721,28.7157998 L32.8180722,28.7157998 Z" id="形状"></path>
            </g>
        </g>
    </g>
</svg>