<?xml version="1.0" encoding="UTF-8"?>
<svg width="26px" height="26px" viewBox="0 0 26 26" version="1.1" xmlns="http://www.w3.org/2000/svg" xmlns:xlink="http://www.w3.org/1999/xlink">
    <!-- Generator: Sketch 63.1 (92452) - https://sketch.com -->
    <title>全屏 </title>
    <desc>Created with Sketch.</desc>
    <g id="定稿" stroke="none" stroke-width="1" fill="none" fill-rule="evenodd">
        <g id="首页-默认-定稿" transform="translate(-620.000000, -287.000000)" fill="#666666" fill-rule="nonzero" stroke="#666666" stroke-width="0.5">
            <g id="编组-11" transform="translate(0.000000, 166.000000)">
                <g id="编组-2">
                    <g id="编组-9">
                        <g id="编组-5" transform="translate(35.000000, 22.000000)">
                            <g id="编组-8" transform="translate(0.000000, 68.000000)">
                                <g id="编组-4">
                                    <g id="全屏--2" transform="translate(585.000000, 31.000000)">
                                        <g id="全屏-" transform="translate(1.000000, 1.000000)">
                                            <path d="M14.5728,0.809599987 C14.5728,1.29535999 14.89664,1.61919997 15.3824,1.61920001 L21.53536,1.61920001 L13.84416,9.31039999 C13.52032,9.63423997 13.52032,10.12 13.84416,10.44384 C14.168,10.76768 14.65376,10.76768 14.9776,10.44384 L22.6688,2.75263999 L22.6688,8.90560001 C22.6688,9.39136001 22.99264,9.7152 23.4784,9.7152 C23.9641601,9.7152 24.288,9.39136001 24.288,8.90560001 L24.288,0.809599987 C24.288,0.323839987 23.96416,0 23.4784,0 L15.3824,0 C14.89664,0 14.5728,0.323839987 14.5728,0.809599987 Z M9.31039999,13.84416 L1.61920001,21.53536 L1.61920001,15.3824 C1.61920001,14.89664 1.29536003,14.5728 0.809599987,14.5728 C0.323839949,14.5728 0,14.89664 0,15.3824 L0,23.4784 C0,23.96416 0.323839987,24.288 0.809599987,24.288 L8.90560001,24.288 C9.39136001,24.288 9.7152,23.96416 9.7152,23.4784 C9.7152,22.99264 9.39136001,22.6688 8.90560001,22.6688 L2.75263999,22.6688 L10.44384,14.9776 C10.76768,14.65376 10.76768,14.168 10.44384,13.84416 C10.20096,13.52032 9.63424001,13.52032 9.31039999,13.84416 L9.31039999,13.84416 Z" id="形状"></path>
                                        </g>
                                    </g>
                                </g>
                            </g>
                        </g>
                    </g>
                </g>
            </g>
        </g>
    </g>
</svg>