<?xml version="1.0" encoding="UTF-8"?>
<svg width="35px" height="35px" viewBox="0 0 35 35" version="1.1" xmlns="http://www.w3.org/2000/svg" xmlns:xlink="http://www.w3.org/1999/xlink">
    <!-- Generator: Sketch 59 (86127) - https://sketch.com -->
    <title>全屏</title>
    <desc>Created with Sketch.</desc>
    <g id="页面-2" stroke="none" stroke-width="1" fill="none" fill-rule="evenodd">
        <g id="首页-默认输入框备份-3" transform="translate(-670.000000, -2086.000000)" fill="#595851" fill-rule="nonzero">
            <g id="编组-8" transform="translate(0.000000, 2043.000000)">
                <g id="编组-10" transform="translate(670.000000, 43.000000)">
                    <path d="M33.6000134,24.8500299 L33.6000133,24.8500299 C32.8268132,24.8500299 32.2000116,25.4768315 32.2000116,26.2500316 C32.2000116,26.2500316 32.2000116,26.2500316 32.2000116,26.2500316 L32.2000116,32.1833591 L26.2500045,32.1833591 L26.2500044,32.1833591 C25.4722037,32.1833591 24.8416697,32.813893 24.8416697,33.5916938 C24.8416697,34.3694945 25.4722037,35.0000285 26.2500044,35.0000285 L32.1833319,35.0000285 L32.183332,35.0000285 C33.7389369,35.0000285 35.0000014,33.7389606 35.0000014,32.1833591 L35.0000014,26.2500316 L35.0000014,26.2500316 C35.0000014,25.4768315 34.3731999,24.8500299 33.5999997,24.8500299 C33.5999997,24.8500299 33.5999997,24.8500299 33.5999997,24.8500299 L33.6000134,24.8500299 Z M32.1833457,7.46069873e-14 L26.2500182,7.46069873e-14 L26.2500181,7.46069873e-14 C25.4722174,7.46069873e-14 24.8416834,0.630533963 24.8416834,1.4083347 C24.8416834,2.18613545 25.4722174,2.81666941 26.2500181,2.81666941 L32.1833456,2.81666941 L32.1833456,8.74999687 L32.1833456,8.74999708 C32.1833457,9.52779782 32.8138796,10.1583318 33.5916803,10.1583318 C34.369481,10.1583318 35.000015,9.52779782 35.000015,8.74999708 L35.000015,2.81666962 L35.000015,2.81666962 C35.000015,1.26106472 33.7389505,7.46069873e-14 32.1833456,7.46069873e-14 C32.1833456,7.46069873e-14 32.1833456,7.46069873e-14 32.1833455,7.46069873e-14 L32.1833457,7.46069873e-14 Z M8.74999711,32.1833591 L2.81666965,32.1833591 L2.81666965,26.2500316 L2.81666965,26.2500316 C2.81666965,25.4722309 2.18613569,24.8416969 1.40833495,24.8416969 C0.630534209,24.8416969 2.45877044e-07,25.4722309 2.45877044e-07,26.2500316 L2.45877044e-07,32.1833591 L2.45877044e-07,32.1833587 C2.45877044e-07,33.7389636 1.26106475,35.0000281 2.81666965,35.0000281 L8.74999711,35.0000281 L8.74999705,35.0000281 C9.52779779,35.0000281 10.1583318,34.3694941 10.1583318,33.5916934 C10.1583318,32.8138926 9.52779779,32.1833587 8.74999705,32.1833587 L8.74999711,32.1833591 Z M1.39998826,10.1500124 L1.3999882,10.1500124 C2.17318835,10.1500124 2.79998989,9.52321069 2.79998989,8.75001054 C2.79998989,8.75001054 2.79998989,8.75001054 2.79998989,8.75001054 L2.79998989,2.81668308 L8.74999705,2.81668308 L8.74999699,2.81668308 C9.52779773,2.81668311 10.1583317,2.18614912 10.1583317,1.40834838 C10.1583317,0.630547635 9.52779773,1.36718915e-05 8.74999699,1.36718915e-05 L2.81666953,1.36718915e-05 L2.81666941,1.36718915e-05 C1.26106451,1.36718915e-05 3.90798505e-14,1.2610816 3.90798505e-14,2.81668308 L3.90798505e-14,8.75001054 L3.90798505e-14,8.75001075 C3.90798505e-14,9.5232109 0.626801536,10.1500124 1.40000169,10.1500124 L1.39998826,10.1500124 Z" id="形状"></path>
                </g>
            </g>
        </g>
    </g>
</svg>