<?xml version="1.0" encoding="UTF-8"?>
<svg width="14px" height="14px" viewBox="0 0 14 14" version="1.1" xmlns="http://www.w3.org/2000/svg" xmlns:xlink="http://www.w3.org/1999/xlink">
    <!-- Generator: Sketch 63.1 (92452) - https://sketch.com -->
    <title>全屏@1x</title>
    <desc>Created with Sketch.</desc>
    <g id="Picks" stroke="none" stroke-width="1" fill="none" fill-rule="evenodd">
        <g transform="translate(-2311.000000, -781.000000)" fill="#FFFFFF" fill-rule="nonzero" id="全屏" stroke="#FFFFFF" stroke-width="0.2">
            <g transform="translate(2312.000000, 782.000000)">
                <path d="M7.2864,0.404799994 C7.2864,0.647679994 7.44831999,0.809599987 7.69119999,0.809600006 L10.76768,0.809600006 L6.92208,4.65519999 C6.76016001,4.81711999 6.76016001,5.05999999 6.92208,5.22192 C7.08399999,5.38383999 7.32687999,5.38383999 7.48880001,5.22192 L11.3344,1.37631999 L11.3344,4.45280001 C11.3344,4.69568001 11.49632,4.8576 11.7392,4.8576 C11.98208,4.8576 12.144,4.69568001 12.144,4.45280001 L12.144,0.404799994 C12.144,0.161919994 11.98208,0 11.7392,0 L7.69119999,0 C7.44831999,0 7.2864,0.161919994 7.2864,0.404799994 Z M4.65519999,6.92208 L0.809600006,10.76768 L0.809600006,7.69119999 C0.809600006,7.44831999 0.647680013,7.2864 0.404799994,7.2864 C0.161919975,7.2864 0,7.44831999 0,7.69119999 L0,11.7392 C0,11.98208 0.161919994,12.144 0.404799994,12.144 L4.45280001,12.144 C4.69568001,12.144 4.8576,11.98208 4.8576,11.7392 C4.8576,11.49632 4.69568001,11.3344 4.45280001,11.3344 L1.37631999,11.3344 L5.22192,7.48880001 C5.38383999,7.32688001 5.38383999,7.08400001 5.22192,6.92208 C5.10048,6.76016001 4.81712001,6.76016001 4.65519999,6.92208 L4.65519999,6.92208 Z" id="形状"></path>
            </g>
        </g>
    </g>
</svg>