<?xml version="1.0" encoding="UTF-8"?>
<svg width="40px" height="40px" viewBox="0 0 40 40" version="1.1" xmlns="http://www.w3.org/2000/svg" xmlns:xlink="http://www.w3.org/1999/xlink">
    <!-- Generator: Sketch 59 (86127) - https://sketch.com -->
    <title>partner反白@1</title>
    <desc>Created with Sketch.</desc>
    <g id="页面-3" stroke="none" stroke-width="1" fill="none" fill-rule="evenodd">
        <g id="编组备份" fill="#FFFFFF" fill-rule="nonzero">
            <path d="M22.3604242,4.48 C27.5002435,4.48 31.6653708,8.6458008 31.6636959,13.7848932 C31.6636959,17.0850718 29.9206079,20.1043096 27.1114072,21.7750735 C31.9011143,23.6208777 35.2175407,28.1124166 35.5305291,33.2736994 L35.5385006,33.5154853 L35.5597339,33.5985931 C35.567955,33.6359741 35.5718168,33.6700371 35.5718168,33.707871 C35.5718168,34.3159614 35.0785803,34.8093336 34.4705631,34.8093336 C33.883739,34.8093336 33.402126,34.3491563 33.3709154,33.7677735 L33.3491487,33.7188159 C33.1463724,27.7936789 28.2879977,23.0898201 22.3604352,23.0898201 C16.4329295,23.0898201 11.5745106,27.7937464 11.3717842,33.7188134 L11.3499582,33.7679052 C11.3186817,34.3492279 10.8370954,34.8093336 10.2503176,34.8093336 C9.64236614,34.8093336 9.14911375,34.3159274 9.14911375,33.707871 C9.14911375,33.6550685 9.1555858,33.6159586 9.1729413,33.5508672 L9.18719628,33.2880381 C9.50302485,28.1142486 12.8171929,23.6212838 17.6078107,21.7750518 L17.3472827,21.6142567 C14.6880687,19.9125613 13.055531,16.9768508 13.055531,13.7848932 C13.055531,8.64546025 17.2209851,4.48 22.3604242,4.48 Z M12.3269415,9.22748975 L12.1019434,9.80947034 C11.8590767,10.4376698 11.6803583,11.0442033 11.5263382,11.7250273 L11.3950312,11.8662976 C9.92798886,12.6202724 9.00784345,14.1034799 9.00784345,15.738238 C9.00784345,18.0736624 10.8543848,19.9892246 13.2798717,20.1095741 L13.4397147,20.2184546 C13.6617534,20.5264581 13.9118847,20.8327971 14.1984507,21.1483817 L14.249793,21.2982187 L14.2363654,21.4722329 L14.1626437,21.6124194 C13.9136363,21.8135887 13.6922935,22.0138645 13.4296979,22.2621237 L13.2689946,22.3147599 C9.17423505,22.3717922 5.88266645,25.7066974 5.88266645,29.8014035 C5.88266645,30.4094194 5.3892955,30.9027632 4.78125371,30.9027632 C4.17327,30.9027632 3.68,30.4094245 3.68,29.8014035 C3.68,25.9671814 5.93972856,22.5218634 9.40485581,20.9656958 L9.19558222,20.800077 C7.6890337,19.5578164 6.80518011,17.7128216 6.80518011,15.7382442 C6.80518011,12.7441792 8.8340279,10.1347703 11.7230225,9.38435708 L12.3269415,9.22748975 Z M22.3604242,6.68266333 C18.4384431,6.68266333 15.2581943,9.86291786 15.2581943,13.7848932 C15.2581943,17.7068686 18.4384431,20.8871231 22.3604242,20.8871231 C26.2824053,20.8871231 29.4626541,17.7068686 29.4626541,13.7848932 C29.4626541,9.86293487 26.2823911,6.68266333 22.3604242,6.68266333 Z" id="形状结合"></path>
        </g>
    </g>
</svg>