<?xml version="1.0" encoding="UTF-8"?>
<svg width="50px" height="50px" viewBox="0 0 50 50" version="1.1" xmlns="http://www.w3.org/2000/svg" xmlns:xlink="http://www.w3.org/1999/xlink">
    <!-- Generator: Sketch 63.1 (92452) - https://sketch.com -->
    <title>Help</title>
    <desc>Created with Sketch.</desc>
    <g id="定稿" stroke="none" stroke-width="1" fill="none" fill-rule="evenodd">
        <g id="个人中心" transform="translate(-35.000000, -545.000000)" fill="#666666" fill-rule="nonzero">
            <g id="编组-3" transform="translate(35.000000, 349.000000)">
                <g id="Help-2" transform="translate(0.000000, 196.000000)">
                    <g id="Help" transform="translate(4.000000, 3.000000)">
                        <path d="M21.4763149,8.69620057 C17.9168265,8.71718671 15.3925563,10.3392988 14.0730218,13.2880017 C13.4350903,14.7135144 13.1388097,16.26291 13.1608868,17.6512658 C13.1825026,18.3689142 13.7484931,18.9169627 14.4433513,18.8955553 C15.1299833,18.8744013 15.6694499,18.3006054 15.648296,17.6139744 C15.631997,16.5876276 15.862967,15.3784686 16.3437406,14.3041577 C17.2647417,12.2460689 18.9118628,11.1990719 21.4908481,11.1838928 C24.2458835,11.1681966 25.9201658,12.0749362 26.7563473,13.850512 C27.0984247,14.5768462 27.2651208,15.3081565 27.3000883,16.1500852 L27.3062475,16.6579483 C27.3240213,17.2678861 27.1217995,17.9450472 26.6815226,18.5666341 C26.230043,19.2039743 25.5588241,19.706188 24.6385577,20.0657133 C21.602234,21.2524327 20.5921962,22.489609 20.5528086,25.0370544 L20.5567639,25.6109254 L20.5577041,27.7338176 C20.557704,28.4205494 21.1145985,28.9774222 21.8015379,28.9774222 C22.4884673,28.9774222 23.0453718,28.4205177 23.0453718,27.7335883 L23.0406622,25.3492448 C23.0107439,23.6384591 23.3122173,23.2550523 25.5439421,22.3827987 C26.9112029,21.8486088 27.9744677,21.0450557 28.7114937,20.0045976 C29.3886931,19.0485882 29.7432849,18.001476 29.7906889,17.0114773 L29.7944032,16.5988619 C29.7988419,16.094306 29.7736429,15.6731722 29.7025132,15.1700578 C29.5826645,14.3224248 29.3533611,13.5261603 29.0069193,12.7905801 C27.801937,10.2318499 25.4084127,8.80815585 21.9740984,8.70233272 L21.4763149,8.69620057 Z" id="路径"></path>
                        <path d="M21.8426626,30.2680015 C20.7448809,30.2680015 19.854953,31.1579294 19.854953,32.2557111 C19.854953,33.3534928 20.7448809,34.2434207 21.8426626,34.2434207 C22.9404443,34.2434207 23.8303722,33.3534928 23.8303722,32.2557111 C23.8303722,31.1579294 22.9404443,30.2680015 21.8426626,30.2680015 Z" id="路径"></path>
                        <path d="M21.8426626,0.513935444 C33.6217188,0.513935444 43.170513,10.0627297 43.170513,21.8417859 C43.170513,33.620842 33.6217188,43.1696363 21.8426626,43.1696363 C10.0636065,43.1696363 0.514812195,33.620842 0.514812195,21.8417859 C0.514812195,10.0627297 10.0636065,0.513935444 21.8426626,0.513935444 Z M21.7548122,2.51393544 C11.128862,2.51393544 2.5148122,11.1279853 2.5148122,21.7539354 C2.5148122,32.3798856 11.128862,40.9939354 21.7548122,40.9939354 C32.3807624,40.9939354 40.9948122,32.3798856 40.9948122,21.7539354 C40.9948122,11.1279853 32.3807624,2.51393544 21.7548122,2.51393544 Z" id="形状" stroke="#666666" stroke-width="0.2"></path>
                    </g>
                </g>
            </g>
        </g>
    </g>
</svg>