<?xml version="1.0" encoding="UTF-8"?>
<svg width="35px" height="35px" viewBox="0 0 35 35" version="1.1" xmlns="http://www.w3.org/2000/svg" xmlns:xlink="http://www.w3.org/1999/xlink">
    <!-- Generator: Sketch 59 (86127) - https://sketch.com -->
    <title>删除-反白@1</title>
    <desc>Created with Sketch.</desc>
    <g id="页面-3" stroke="none" stroke-width="1" fill="none" fill-rule="evenodd">
        <g id="回复备份" transform="translate(-469.000000, -1012.000000)" fill="#FFFFFF" fill-rule="nonzero">
            <g id="编组-10备份" transform="translate(469.000000, 1012.000000)">
                <path d="M20.284488,25.7693819 C19.6776714,25.7693819 19.1886869,25.280394 19.1886869,24.6735807 L19.1886869,12.6138638 C19.1886869,12.0070471 19.6776748,11.5180627 20.284488,11.5180627 C20.8913047,11.5180627 21.3802891,12.0070506 21.3802891,12.6138638 L21.3802891,24.6676898 C21.3802891,25.2745065 20.8913013,25.7693819 20.284488,25.7693819 Z M13.7096676,25.7693819 C13.1028509,25.7693819 12.6138665,25.280394 12.6138665,24.6735807 L12.6138665,12.6138638 C12.6138665,12.0070471 13.1028544,11.5180627 13.7096676,11.5180627 C14.3164843,11.5180627 14.8054688,12.0070506 14.8054688,12.6138638 L14.8054688,24.6676898 C14.8054688,25.2745065 14.3164809,25.7693819 13.7096676,25.7693819 L13.7096676,25.7693819 Z M31.2483902,7.13484449 L25.7693845,7.13484449 L25.7693846,4.94324225 C25.7693846,3.12869004 24.3083153,1.65583547 22.5055449,1.65583547 L11.5180791,1.65583547 C9.70352688,1.65583547 8.2306723,3.12868662 8.2306723,4.94324225 L8.2306723,7.13484449 L2.7516667,7.13484449 C2.14485004,7.13484449 1.65586558,7.62383238 1.65586558,8.23064561 C1.65586558,8.83746228 2.14485347,9.32644673 2.7516667,9.32644673 L31.2484005,9.32644673 C31.8552171,9.32644673 32.3442016,8.83745885 32.3442016,8.23064561 C32.3442016,7.62382895 31.8552137,7.13484449 31.2484005,7.13484449 L31.2483902,7.13484449 Z M10.42223,4.94324225 C10.42223,4.34231994 10.9171362,3.84744113 11.5180585,3.84744113 L22.5055243,3.84744113 C23.1064466,3.84744113 23.5777618,4.33053809 23.5777618,4.94324225 L23.5777618,7.13484449 L10.42223,7.13484449 L10.42223,4.94324225 L10.42223,4.94324225 L10.42223,4.94324225 Z M24.6735697,32.3441954 L9.33233349,32.3441954 C7.51778128,32.3441954 6.0449267,30.8713443 6.0449267,29.0567887 L6.0449267,12.6020991 C6.0449267,11.9952824 6.53391459,11.5062979 7.14072783,11.5062979 C7.74754449,11.5062979 8.23652895,11.9952858 8.23652895,12.6020991 L8.23652895,29.0567887 C8.23652895,29.6636053 8.73140776,30.1525898 9.33233007,30.1525898 L24.6794572,30.1525898 C25.2862739,30.1525898 25.7752583,29.6636019 25.7752583,29.0567887 L25.7752583,12.6433355 C25.7752583,12.0365189 26.2642462,11.5475344 26.8710594,11.5475344 C27.4778761,11.5475344 27.9668606,12.0365223 27.9668606,12.6433355 L27.9668606,29.0567887 C27.9609691,30.8654499 26.4881185,32.3441954 24.6735628,32.3441954 L24.6735697,32.3441954 Z" id="形状"></path>
            </g>
        </g>
    </g>
</svg>