<?xml version="1.0" encoding="UTF-8"?>
<svg width="39px" height="39px" viewBox="0 0 39 39" version="1.1" xmlns="http://www.w3.org/2000/svg" xmlns:xlink="http://www.w3.org/1999/xlink">
    <!-- Generator: Sketch 63.1 (92452) - https://sketch.com -->
    <title>关联</title>
    <desc>Created with Sketch.</desc>
    <g id="定稿" stroke="none" stroke-width="1" fill="none" fill-rule="evenodd">
        <g id="首页-默认-定稿" transform="translate(-182.000000, -639.000000)" fill="#666666" fill-rule="nonzero">
            <g id="编组-11" transform="translate(0.000000, 166.000000)">
                <g id="编组-10" transform="translate(0.000000, 436.000000)">
                    <g id="编组-7" transform="translate(54.000000, 37.000000)">
                        <g id="关联-2" transform="translate(128.000000, 0.000000)">
                            <g id="关联" transform="translate(19.500000, 19.500000) scale(-1, 1) translate(-19.500000, -19.500000) ">
                                <path d="M35.4087276,19.0960436 L32.0330926,15.7457019 L29.8024851,18.0437471 L33.1781201,21.3940316 C34.3727343,22.580014 35.0322089,24.1576567 35.0322089,25.8295613 C35.029092,27.503185 34.3727343,29.0760716 33.1781201,30.2636585 L29.8024851,33.6138856 C27.9358154,35.4683549 24.8993534,35.4699594 23.0294536,33.6138856 L16.2791469,26.9133741 C15.0845328,25.7258444 14.426475,24.154505 14.426475,22.4793915 C14.4248882,20.8073722 15.0845328,19.2312767 16.255742,18.0657511 L18.6024108,15.8322281 L16.417593,13.4886851 L14.0483693,15.7457592 C12.2361034,17.5420668 11.238986,19.9344886 11.2405709,22.4794487 C11.2405709,25.025956 12.2376902,27.4152262 14.0483693,29.2114192 L20.7987893,35.9135352 C22.3481608,37.4519259 24.3828585,38.217941 26.4143825,38.217941 C28.4490802,38.217941 30.4837211,37.4519259 32.033036,35.9135352 L35.408671,32.561761 C37.2193501,30.7654534 38.2148808,28.3762405 38.217941,25.8296759 C38.217941,23.2847158 37.2194068,20.8923512 35.4087276,19.0960436 L35.4087276,19.0960436 Z" id="路径"></path>
                                <path d="M7.2878129,4.9776236 C9.77666271,2.55115083 13.824288,2.55115083 16.3100209,4.9776236 L21.9372765,10.4641006 C23.1320014,11.6310551 23.7884711,13.1765408 23.791588,14.8194322 C23.791588,16.4638438 23.1320014,18.0123699 21.9372765,19.1793245 L18.5608551,22.4712444 L20.7924214,24.7292559 L24.1678793,21.4372797 C25.9785546,19.6722651 26.9773701,17.3215774 26.9773701,14.8194322 C26.9740266,12.3188072 25.9785546,9.97121622 24.1678793,8.20468143 L18.5407371,2.71814818 C14.8276371,-0.904500892 8.77648715,-0.907597566 5.05709671,2.71814818 L2.80784927,4.91276153 C0.997173924,6.67929631 0,9.02694361 0,11.5275122 C-0.00158490636,14.0296574 0.995473819,16.3804014 2.80784927,18.145416 L5.05709671,20.3400856 L7.28775624,18.0820179 L5.03850881,15.8874045 C3.84372719,14.722139 3.18419728,13.1719801 3.18584067,11.5275122 C3.18584067,9.8846771 3.84372713,8.33919146 5.03850881,7.17223688 L7.2878129,4.9776236 Z" id="路径"></path>
                            </g>
                        </g>
                    </g>
                </g>
            </g>
        </g>
    </g>
</svg>