<?xml version="1.0" encoding="UTF-8"?>
<svg width="209px" height="33px" viewBox="0 0 209 33" version="1.1" xmlns="http://www.w3.org/2000/svg" xmlns:xlink="http://www.w3.org/1999/xlink">
    <!-- Generator: Sketch 59 (86127) - https://sketch.com -->
    <title>头部logo@1</title>
    <desc>Created with Sketch.</desc>
    <g id="页面-1" stroke="none" stroke-width="1" fill="none" fill-rule="evenodd">
        <g id="画板" transform="translate(-116.000000, -585.000000)" fill-rule="nonzero">
            <g id="编组-10" transform="translate(116.000000, 585.000000)">
                <g id="编组">
                    <polygon id="路径" fill="#333333" points="68.3320526 5.58953488 65.5303417 25.5070266 59.2811722 25.5070266 62.0794115 5.58953488 55.7955244 5.58953488 56.5975012 0 75.4040294 0 74.6159397 5.58953488"></polygon>
                    <path d="M78.9417536,17.7684718 C78.719561,19.3446512 79.7367869,20.7784884 81.9239962,20.7784884 C83.9653915,20.7784884 84.9409563,20.2056478 86.1248267,19.1675914 L89.1417869,22.6775415 C86.8955576,24.6460299 84.8090294,25.7222757 81.2261722,25.7222757 C76.9663218,25.7222757 72.2725012,24.180814 73.4424845,15.8694186 C74.3277835,9.564701 78.4071025,6.02003322 83.4585144,6.02003322 C89.0480493,6.02003322 91.5546606,10.1028239 90.8429497,15.1542359 L90.4784148,17.7684718 L78.9417536,17.7684718 Z M85.1110726,12.3594684 C84.8680493,11.5366611 84.1771689,10.856196 82.7815211,10.856196 C81.6537587,10.8020011 80.5901224,11.3820446 80.024943,12.3594684 C79.7404473,12.8161609 79.558063,13.3289685 79.4902919,13.8627409 L85.2221689,13.8627409 C85.3069709,13.3600261 85.2688539,12.8442556 85.1110726,12.3594684 L85.1110726,12.3594684 Z" id="形状" fill="#333333"></path>
                    <path d="M102.320591,25.5070266 L102.542784,23.9308472 C101.192269,25.1112458 100.039644,25.6875581 97.9982487,25.6875581 C96.0610061,25.6875581 94.5264879,25.0418106 93.6168865,23.9516777 C92.7072852,22.8615449 92.318448,21.2298173 92.5753583,19.4383887 C92.9850261,16.5359967 95.3319364,13.8488538 99.9146606,13.8488538 L103.813448,13.8488538 L103.882883,13.3489203 C104.129378,11.5922093 103.362119,10.9499336 101.320724,10.9499336 C99.8139796,10.9499336 99.1196274,11.2971096 98.0572686,12.2379568 L94.9326839,8.58566445 C97.1789131,6.61370432 99.0571357,6.00614618 102.313647,6.00614618 C107.830275,6.00614618 110.4827,8.29750831 109.823066,12.9913289 L108.066355,25.4896678 L102.320591,25.5070266 Z M103.26491,17.7684718 L100.293083,17.7684718 C99.1439297,17.7684718 98.3384812,18.4142193 98.2100261,19.3099336 C98.0815709,20.2056478 98.6266374,20.9208306 99.9181324,20.9208306 C101.063813,20.9208306 101.615823,20.813206 102.348365,20.2056478 C102.834411,19.8098671 103.063548,19.202309 103.195475,18.2718771 L103.26491,17.7684718 Z" id="形状" fill="#333333"></path>
                    <path d="M133.378963,25.5070266 L135.000275,13.9703654 C135.312734,11.7519103 133.795574,11.321412 133.007485,11.321412 C132.219395,11.321412 130.577252,11.7519103 130.271737,13.9703654 L128.650425,25.5070266 L122.776205,25.5070266 L124.397518,13.9703654 C124.709976,11.7519103 123.192817,11.321412 122.404727,11.321412 C121.616637,11.321412 119.974495,11.7519103 119.66898,13.9703654 L118.047667,25.5070266 L112.173448,25.5070266 L114.881421,6.24916944 L120.613298,6.24916944 L120.391106,7.82534884 C121.711794,6.69827495 123.383646,6.06611357 125.119644,6.03739203 C127.018697,6.03739203 128.473365,6.64495017 129.525308,8.07878738 C131.417418,6.61023256 133.035259,6.03739203 135.257186,6.03739203 C137.083332,6.03739203 138.753249,6.64495017 139.645491,7.68300664 C141.06197,9.33209302 141.270275,11.1547674 140.985591,13.1996346 L139.24971,25.5243854 L133.378963,25.5070266 Z" id="路径" fill="#333333"></path>
                    <path d="M149.928847,25.5070266 C145.665524,25.5070266 144.374029,22.4622924 144.745508,19.8098671 L145.915491,11.4984718 L144.15878,11.4984718 L144.794112,6.98518272 L146.550823,6.98518272 L147.325026,1.46855482 L153.199245,1.46855482 L152.418099,6.98518272 L155.462833,6.98518272 L154.827501,11.4984718 L151.782767,11.4984718 L150.682219,19.3793688 C150.574594,20.1327409 150.907883,20.5632392 151.699445,20.5632392 L153.560308,20.5632392 L152.865956,25.5070266 L149.928847,25.5070266 Z" id="路径" fill="#333333"></path>
                    <path d="M165.8677,25.5070266 L166.089893,23.9308472 C164.74285,25.1112458 163.586754,25.6875581 161.545358,25.6875581 C159.611588,25.6875581 158.073597,25.0418106 157.167468,23.9516777 C156.261338,22.8615449 155.865558,21.2298173 156.12594,19.4383887 C156.535607,16.5359967 158.882518,13.8488538 163.468714,13.8488538 L167.346671,13.8488538 L167.419578,13.3489203 C167.666073,11.5922093 166.895342,10.9499336 164.853946,10.9499336 C163.350674,10.9499336 162.656322,11.2971096 161.593963,12.2379568 L158.452019,8.58566445 C160.698249,6.61370432 162.576471,6.00614618 165.836455,6.00614618 C171.353083,6.00614618 174.002036,8.29750831 173.342401,12.9913289 L171.585691,25.4896678 L165.8677,25.5070266 Z M166.812019,17.7684718 L163.840192,17.7684718 C162.694511,17.7684718 161.885591,18.4142193 161.757136,19.3099336 C161.628681,20.2056478 162.177219,20.9208306 163.465242,20.9208306 C164.610923,20.9208306 165.162933,20.813206 165.895475,20.2056478 C166.378049,19.8098671 166.607186,19.202309 166.739112,18.2718771 L166.812019,17.7684718 Z" id="形状" fill="#333333"></path>
                    <path d="M181.52187,25.5070266 C177.258548,25.5070266 175.967053,22.4622924 176.342003,19.8098671 L179.119411,0 L184.993631,0 L182.275242,19.3793688 C182.171089,20.1327409 182.504378,20.5632392 183.292468,20.5632392 L185.333863,20.5632392 L184.639511,25.5070266 L181.52187,25.5070266 Z" id="路径" fill="#333333"></path>
                    <polygon id="路径" fill="#333333" points="198.967468 25.5070266 195.947036 18.4489369 194.624295 19.7022425 193.808431 25.5070266 187.934212 25.5070266 191.520541 0 197.39476 0 195.572086 12.9670266 201.717102 6.24916944 208.77172 6.24916944 200.554063 14.2342193 206.230392 25.5070266"></polygon>
                    <path d="M41.2627337,0.499933555 L27.0875344,0.499933555 L25.9487968,8.62385382 L34.0831324,8.62385382 L32.9409231,16.7443023 L24.8204746,16.7443023 L23.6782653,24.8682226 L22.7547769,31.4298505 C22.6749264,32.0061628 23.3276174,32.2943189 23.7963051,31.8881229 L31.8021855,24.8682226 L37.8499928,24.8682226 C39.0387618,24.8334274 40.0353016,23.9592697 40.2246772,22.7851661 L42.2348267,8.48498339 L43.0645776,2.58299003 C43.1592544,2.05663009 43.0109472,1.51567884 42.6610709,1.11119759 C42.3111946,0.706716339 41.7972415,0.482048761 41.2627337,0.499933555 L41.2627337,0.499933555 Z" id="路径" fill="#03C160"></path>
                    <path d="M5.24321544,0.499933555 C4.05444648,0.534728726 3.05790667,1.40888645 2.86853105,2.58299003 L2.03878022,8.48498339 L0.0286307206,22.7851661 C-0.0669649692,23.309897 0.0795565101,23.8497331 0.427333161,24.2541245 C0.775109811,24.658516 1.28693084,24.8841945 1.82005929,24.8682226 L13.8948433,24.8682226 C15.0844007,24.8337024 16.0820923,23.959812 16.2729995,22.7851661 L17.1201091,16.7443023 L8.99966062,16.7443023 L10.1418699,8.62385382 L26.5806573,8.62385382 L26.6014879,8.48498339 L27.7228666,0.499933555 L5.24321544,0.499933555 Z" id="路径" fill="#7BE3AE"></path>
                </g>
            </g>
        </g>
    </g>
</svg>