<?xml version="1.0" encoding="UTF-8"?>
<svg width="233px" height="46px" viewBox="0 0 233 46" version="1.1" xmlns="http://www.w3.org/2000/svg" xmlns:xlink="http://www.w3.org/1999/xlink">
    <!-- Generator: Sketch 59 (86127) - https://sketch.com -->
    <title>顶部logo@1</title>
    <desc>Created with Sketch.</desc>
    <g id="页面-3" stroke="none" stroke-width="1" fill="none" fill-rule="evenodd">
        <g id="首页" transform="translate(-45.000000, -64.000000)">
            <g id="编组-16" transform="translate(45.000000, 64.000000)">
                <g id="编组-2">
                    <g id="编组">
                        <path d="M53.3657642,0 L35.8511875,0 L35.7396116,0 L35.0473853,0 L6.7714227,0 C5.28393321,0 3.90801967,1.3354402 3.69853015,2.98292047 L2.62546559,11.4353841 L0.0267707945,31.9102324 C-0.182149466,33.5577126 0.854482127,34.8937233 2.34197161,34.8937233 L17.9648807,34.8937233 C19.4535087,34.8937233 20.8294223,33.5577126 21.0383425,31.9102324 L21.9725064,24.5553283 C22.0590347,23.8719206 21.5797136,23.2615314 20.9563684,23.2615314 L12.8580042,23.2615314 C12.2090421,23.2615314 11.7109352,22.6271831 11.8008791,21.9163935 L12.9781192,12.6476056 C13.0521236,12.0640279 13.5024122,11.6304805 14.0341058,11.6304805 L42.8508701,11.6304805 C43.499263,11.6304805 43.9979391,12.2653993 43.9079953,12.9761889 L42.7307552,22.2449768 C42.6567508,22.8285544 42.2058929,23.2615314 41.6741993,23.2615314 L32.9860767,23.2615314 C32.4748767,23.2615314 32.041666,23.6785356 31.9705079,24.2387245 L30.6179342,34.8937233 L29.4247547,44.2948572 C29.3205792,45.1174564 30.1665071,45.5298969 30.7659431,44.9480306 L40.9853887,35.0289216 C41.0753325,34.9416417 41.1908933,34.8937233 41.3110083,34.8937233 L48.9363132,34.8937233 C50.4243719,34.8937233 51.8002854,33.5577126 52.0092057,31.9102324 L54.6084698,11.4353841 L55.6809651,2.98292047 C55.8910238,1.3354402 54.853823,0 53.3657642,0" id="Fill-1" fill="#16AB78"></path>
                        <path d="M153.003871,13.8 C154.981334,13.8 156.788621,14.4615808 157.755586,15.5889145 C159.288482,17.3784905 159.514723,19.3619097 159.203394,21.5788669 L157.328828,34.96 L150.969024,34.96 L152.724203,22.4342909 C153.062575,20.0234905 151.422165,19.5564145 150.56865,19.5564145 C149.715795,19.5564145 147.943467,20.0234905 147.605095,22.4342909 L145.849915,34.96 L139.490771,34.96 L141.24595,22.4342909 C141.583662,20.0234905 139.943252,19.5564145 139.089737,19.5564145 C138.236883,19.5564145 136.465213,20.0234905 136.126842,22.4342909 L134.371662,34.96 L128.011858,34.96 L130.945072,14.0328764 L137.149212,14.0328764 L136.90978,15.7443859 C138.368801,14.4615808 140.362094,13.8 142.028888,13.8 C144.084183,13.8 145.659293,14.4615808 146.799071,16.0169572 C148.845131,14.4218859 150.598992,13.8 153.003871,13.8 Z M172.577128,8.28 L171.756743,14.4037332 L174.980237,14.4037332 L174.308192,19.4129538 L171.084698,19.4129538 L169.911522,28.1606611 C169.799945,28.995193 170.153381,29.4726481 170.98731,29.4726481 L172.959588,29.4726481 L172.223692,34.96 L169.114356,34.96 C164.602238,34.96 163.235575,31.5799427 163.629643,28.6374399 L164.866026,19.4129538 L163.007905,19.4129538 L163.67995,14.4037332 L165.53807,14.4037332 L166.3591,8.28 L172.577128,8.28 Z M96.7913423,12.88 C102.896443,12.88 105.635117,17.456187 104.859581,23.1173578 L104.458166,26.047292 L91.8552047,26.047292 C91.613557,27.8137193 92.7239383,29.4196864 95.1117907,29.4196864 C97.3418731,29.4196864 98.4089842,28.777163 99.7030977,27.6129734 L102.999625,31.5473198 C100.544538,33.7555246 98.2658595,34.96 94.3522313,34.96 C89.6950204,34.96 84.5698251,33.2331756 85.8466305,23.9203414 C86.8145528,16.8539493 91.2727205,12.88 96.7913423,12.88 Z M117.724753,13.8 C123.849444,13.8 126.792056,16.266853 126.060124,21.3159366 L124.10853,34.7672669 L117.745723,34.7672669 L117.991956,33.0713464 C116.494944,34.3431229 115.212371,34.96 112.945545,34.96 C110.797777,34.96 109.10865,34.266423 108.083133,33.1100242 C107.024469,31.9149476 106.638209,30.1803495 106.918265,28.2536737 C107.370818,25.1319214 109.978581,22.2409245 115.068961,22.2409245 L119.403733,22.2409245 L119.482203,21.7014028 C119.75617,19.8127492 118.901798,19.1185166 116.634972,19.1185166 C114.964786,19.1185166 114.192942,19.5039829 113.013192,20.5063263 L109.52738,16.5749638 C112.021498,14.4555549 114.105002,13.8 117.724753,13.8 Z M185.875127,13.8 C191.999691,13.8 194.942241,16.266853 194.210324,21.3159366 L192.25877,34.7672669 L185.896097,34.7672669 L186.142324,33.0713464 C184.645344,34.3431229 183.362798,34.96 181.096019,34.96 C178.948296,34.96 177.259204,34.266423 176.233709,33.1100242 C175.174391,31.9149476 174.788815,30.1803495 175.068188,28.2536737 C175.521409,25.1319214 178.129117,22.2409245 183.219391,22.2409245 L187.554072,22.2409245 L187.63254,21.7014028 C187.906502,19.8127492 187.052147,19.1185166 184.785369,19.1185166 C183.115218,19.1185166 182.34339,19.5039829 181.164341,20.5063263 L177.677926,16.5749638 C180.171991,14.4555549 182.255452,13.8 185.875127,13.8 Z M88.4110672,6.44 L87.56195,12.4873281 L80.7841634,12.4873281 L77.7565896,34.04 L70.9794618,34.04 L74.0070356,12.4873281 L67.229249,12.4873281 L68.0783662,6.44 L88.4110672,6.44 Z M206.874407,6.44 L204.102655,27.4111474 C203.995429,28.2247543 204.334461,28.6902377 205.136484,28.6902377 L207.213439,28.6902377 L206.506245,34.04 L203.33596,34.04 C198.999829,34.04 197.68709,30.7446941 198.065788,27.8759714 L200.898281,6.44 L206.874407,6.44 Z M220.430347,6.44 L218.415755,20.472412 L225.201536,13.1842345 L233,13.1842345 L223.921543,21.8286434 L230.20435,34.04 L222.168202,34.04 L218.830524,26.4030396 L217.369406,27.7599302 L216.467822,34.04 L209.976285,34.04 L213.938136,6.44 L220.430347,6.44 Z M118.79424,26.4417201 L115.493103,26.4417201 C114.220001,26.4417201 113.324364,27.1359527 113.184337,28.0989628 C113.050397,29.0239507 113.649066,29.8335609 115.081137,29.8335609 C116.353563,29.8335609 116.967115,29.7181833 117.778193,29.0626284 C118.316658,28.63914 118.571008,27.9842407 118.716447,26.9812417 L118.79424,26.4417201 Z M186.944592,26.4417201 L183.643524,26.4417201 C182.370448,26.4417201 181.474831,27.1359527 181.334806,28.0989628 C181.200869,29.0239507 181.800202,29.8335609 183.23089,29.8335609 C184.504643,29.8335609 185.117505,29.7181833 185.928567,29.0626284 C186.467019,28.63914 186.721364,27.9842407 186.8668,26.9812417 L186.944592,26.4417201 Z M96.049091,18.2994564 C94.5226495,18.2994564 93.5567243,19.0614714 93.0381469,19.985995 C92.6879907,20.5479469 92.5268922,21.1501846 92.454997,21.6718508 L98.7178672,21.6718508 C98.7890967,21.1501846 98.7937566,20.5479469 98.5960448,19.985995 C98.3317634,19.0614714 97.5755325,18.2994564 96.049091,18.2994564 Z" id="形状结合" fill="#333333"></path>
                    </g>
                </g>
            </g>
        </g>
    </g>
</svg>