<svg xmlns="http://www.w3.org/2000/svg" xmlns:xlink="http://www.w3.org/1999/xlink" viewBox="0 0 220 220"><defs><style>.cls-1{fill:#1a1a1a;}.cls-2{fill:url(#未命名的渐变_19);}.cls-3{fill:url(#未命名的渐变_18);}.cls-4{fill:url(#未命名的渐变_60);}.cls-5{fill:#50b801;}</style><linearGradient id="未命名的渐变_19" x1="513.1" y1="343.6" x2="420.02" y2="294.86" gradientTransform="translate(-453.29 -22.46) rotate(-20.5)" gradientUnits="userSpaceOnUse"><stop offset="0" stop-color="#cbc9c8"/><stop offset="0.46" stop-color="#d3d2d1"/><stop offset="1" stop-color="#e3e2e1"/></linearGradient><linearGradient id="未命名的渐变_18" x1="451.04" y1="290.72" x2="463.56" y2="304.97" gradientTransform="translate(-453.29 -22.46) rotate(-20.5)" gradientUnits="userSpaceOnUse"><stop offset="0" stop-color="#cbc9c8"/><stop offset="0.1" stop-color="#cccac9" stop-opacity="0.96"/><stop offset="0.26" stop-color="#cfcdcc" stop-opacity="0.84"/><stop offset="0.46" stop-color="#d3d2d1" stop-opacity="0.65"/><stop offset="0.7" stop-color="#dad8d7" stop-opacity="0.39"/><stop offset="0.96" stop-color="#e2e1e0" stop-opacity="0.06"/><stop offset="1" stop-color="#e3e2e1" stop-opacity="0"/></linearGradient><linearGradient id="未命名的渐变_60" x1="799.69" y1="653.99" x2="819.1" y2="653.99" gradientTransform="matrix(0.78, -0.62, 0.62, 0.78, -875.34, 84.75)" gradientUnits="userSpaceOnUse"><stop offset="0" stop-color="#cbc9c8"/><stop offset="0.33" stop-color="#d2d1d1"/><stop offset="0.85" stop-color="#e5e5e8"/><stop offset="1" stop-color="#ececf0"/></linearGradient></defs><g id="图层_2" data-name="图层 2"><g id="图层_1-2" data-name="图层 1"><circle class="cls-1" cx="110" cy="110" r="110"/><path class="cls-2" d="M30.58,104.64s51.28-29.19,68-35.44c23.43-8.76,45.51-.32,58.79,20.32,7,10.82,10.46,33.93-2.12,50.88-13.65,18.37-51.41,38.14-93.36,9.3C51.52,142.57,40.68,128.69,30.58,104.64Z"/><path class="cls-3" d="M96.55,79.27S57.62,85,35.44,72.77c0,0,7.36,35.4,52.38,53.78"/><polyline class="cls-4" points="156 92.68 173.43 90.64 162.66 108.32"/><circle class="cls-1" cx="129.18" cy="94.49" r="8.34"/><path class="cls-5" d="M179,128.73c-.35-3.57,2.46-6.76,2.46-6.76s3.37,2.59,3.72,6.15-2.45,6.75-2.45,6.75S179.39,132.29,179,128.73Z"/><path class="cls-5" d="M183.12,116.53c-3.17-1.67-4.29-5.77-4.29-5.77s4-1.39,7.18.28,4.29,5.76,4.29,5.76S186.29,118.2,183.12,116.53Z"/><path class="cls-5" d="M173.71,116.81c1.8-3.1,5.94-4,5.94-4s1.23,4.07-.57,7.16-5.93,4-5.93,4S171.92,119.9,173.71,116.81Z"/><path class="cls-5" d="M179.43,104.51c-3.87-1.21-6-5.54-6-5.54s4.18-2.37,8-1.16,5.95,5.54,5.95,5.54S183.29,105.72,179.43,104.51Z"/><path class="cls-5" d="M168.22,104.46c1.89-3.27,6.26-4.27,6.26-4.27s1.3,4.29-.6,7.56-6.26,4.27-6.26,4.27S166.32,107.73,168.22,104.46Z"/><path class="cls-5" d="M178.66,108.45a76.72,76.72,0,0,0-14.5-23.16l-1,.27c18.38,20.55,18,38.56,18,38.77l.95,0C182.11,124.1,182.29,117.87,178.66,108.45Z"/></g></g></svg>