<?xml version="1.0" encoding="UTF-8"?>
<svg width="539px" height="117px" viewBox="0 0 539 117" version="1.1" xmlns="http://www.w3.org/2000/svg" xmlns:xlink="http://www.w3.org/1999/xlink">
    <!-- Generator: Sketch 59 (86127) - https://sketch.com -->
    <title>logo@1</title>
    <desc>Created with Sketch.</desc>
    <g id="页面-3" stroke="none" stroke-width="1" fill="none" fill-rule="evenodd">
        <g id="引导页备份-3" transform="translate(-105.000000, -272.000000)">
            <g id="编组-2" transform="translate(105.000000, 272.000000)">
                <g id="编组">
                    <path d="M136.987598,0 L92.0284407,0 L91.7420301,0 L89.9651154,0 L17.3819479,0 C13.563627,0 10.0317167,3.42569443 9.4939662,7.65183946 L6.73945611,29.3342463 L0.0687194663,81.856683 C-0.467569766,86.082828 2.1934185,89.5099858 6.01173938,89.5099858 L46.1150683,89.5099858 C49.9363117,89.5099858 53.468222,86.082828 54.0045112,81.856683 L56.4024694,62.9897551 C56.6245837,61.2366658 55.3941872,59.670885 53.7940871,59.670885 L33.0059383,59.670885 C31.3400807,59.670885 30.061462,58.0436435 30.292344,56.2203136 L33.3142681,32.4438578 C33.5042343,30.9468542 34.6601056,29.8347108 36.0249398,29.8347108 L109.996322,29.8347108 C111.660718,29.8347108 112.940798,31.4634156 112.709916,33.2867455 L109.687992,57.0632013 C109.498026,58.5602049 108.340693,59.670885 106.975859,59.670885 L84.6738257,59.670885 C83.3615976,59.670885 82.2495646,60.7405913 82.0669048,62.1775977 L78.5949069,89.5099858 L75.532067,113.625938 C75.2646531,115.736084 77.436113,116.794083 78.9748393,115.30147 L105.207712,89.856799 C105.438594,89.6329069 105.735234,89.5099858 106.043563,89.5099858 L125.61739,89.5099858 C129.437172,89.5099858 132.969082,86.082828 133.505371,81.856683 L140.177569,29.3342463 L142.930618,7.65183946 C143.46983,3.42569443 140.80738,0 136.987598,0" id="Fill-1" fill="#16AB78"></path>
                    <path d="M529.149,103.1136 L530.538,110.1156 L533.8365,103.1136 L535.974,103.1136 L529.905,115.0386 C529.6485,115.5606 529.3485,115.9731 529.005,116.2731 C528.693,116.5491 528.3525,116.7366 527.985,116.8416 C527.6175,116.9466 527.244,117.0006 526.866,117.0006 L526.0605,117.0006 L526.311,115.2141 L526.821,115.2141 C527.2395,115.2141 527.5575,115.1376 527.7735,114.9891 C527.9925,114.8376 528.201,114.5601 528.402,114.1536 L529.17,112.6011 L527.031,103.1136 L529.149,103.1136 Z M450,99 L449.728713,100.908271 L442.852576,100.908271 L442.273629,104.998496 L448.138881,104.998496 L447.872141,106.885714 L442.005373,106.885714 L441.41127,111.091729 L448.287407,111.091729 L448.01612,113 L439,113 L440.98388,99 L450,99 Z M458,99 L457.759758,100.698101 L456.869806,100.698101 C456.487535,100.698101 456.194409,100.798165 455.987409,101.00128 C455.780408,101.202902 455.650466,101.485172 455.599093,101.849584 L455.396626,103.275869 L457.392596,103.275869 L457.17653,104.797738 L455.179048,104.797738 L454.014102,113 L452,113 L453.166457,104.797738 L452.018131,104.797738 L452.235709,103.275869 L453.382523,103.275869 L453.59859,101.752507 C453.648451,101.401536 453.754218,101.059526 453.912868,100.726477 C454.071519,100.394922 454.28003,100.102198 454.541425,99.8497973 C454.801309,99.5959036 455.112566,99.3898016 455.478217,99.2329849 C455.842357,99.0776616 456.260891,99 456.735331,99 L458,99 Z M465,99 L464.759758,100.698101 L463.869806,100.698101 C463.487535,100.698101 463.194409,100.798165 462.985898,101.00128 C462.780408,101.202902 462.651977,101.485172 462.599093,101.849584 L462.396626,103.275869 L464.392596,103.275869 L464.175019,104.797738 L462.180559,104.797738 L461.014102,113 L459,113 L460.164946,104.797738 L459.019642,104.797738 L459.235709,103.275869 L460.382523,103.275869 L460.59859,101.752507 C460.648451,101.401536 460.754218,101.059526 460.912868,100.726477 C461.071519,100.394922 461.28003,100.102198 461.539914,99.8497973 C461.801309,99.5959036 462.112566,99.3898016 462.478217,99.2329849 C462.842357,99.0776616 463.260891,99 463.735331,99 L465,99 Z M490.581177,100 L490.178846,103.070038 L492,103.070038 L491.79528,104.62412 L489.974126,104.62412 L489.259028,110.088573 C489.210691,110.460699 489.254763,110.748944 489.396929,110.956359 C489.534831,111.162248 489.786466,111.265955 490.146147,111.265955 L490.926642,111.265955 L490.699175,113 L489.564686,113 C489.119704,113 488.744384,112.920695 488.444413,112.762084 C488.141598,112.601947 487.902758,112.393008 487.726471,112.13374 C487.550185,111.874472 487.432187,111.574026 487.371055,111.235453 C487.308502,110.896879 487.302815,110.54763 487.348308,110.18923 L488.077623,104.62412 L487,104.62412 L487.20472,103.070038 L488.282343,103.070038 L488.684674,100 L490.581177,100 Z M524.752383,99 L523.132747,110.129323 C523.076683,110.511278 523.117174,110.798496 523.251105,110.995489 C523.385036,111.190977 523.663801,111.290226 524.084283,111.290226 L525,111.290226 L524.750825,113 L523.467576,113 C522.980127,113 522.565875,112.924812 522.227931,112.77594 C521.889988,112.62406 521.623683,112.422556 521.429015,112.174436 C521.234347,111.924812 521.108202,111.633083 521.047466,111.299248 C520.988287,110.965414 520.983615,110.615038 521.038122,110.24812 L522.674888,99 L524.752383,99 Z M502.136157,103 L503.517398,110.041786 L506.863843,103 L509,103 L503.912254,113 L502.269289,113 L500,103 L502.136157,103 Z M470.242212,103 C470.935913,103 471.537641,103.114959 472.047395,103.344878 C472.55559,103.577745 472.967134,103.899042 473.280469,104.308769 C473.590687,104.721444 473.802694,105.216654 473.914934,105.792926 C474.024055,106.372144 474.028732,107.005895 473.925846,107.701548 L473.798018,108.568165 L467.091715,108.568165 C466.965446,109.415623 467.090156,110.083272 467.465846,110.572587 C467.841536,111.060427 468.457294,111.303611 469.313119,111.303611 C469.897699,111.303611 470.382511,111.225497 470.767554,111.063375 C471.14948,110.9042 471.551671,110.649226 471.969451,110.302874 L473.118346,111.478998 C472.809688,111.733972 472.510383,111.956522 472.217313,112.142225 C471.922685,112.329403 471.615585,112.487104 471.289779,112.615328 C470.965532,112.743552 470.617902,112.839352 470.248447,112.9042 C469.878993,112.969049 469.470566,113 469.021609,113 C468.369997,113 467.772946,112.913043 467.235132,112.740604 C466.695759,112.566691 466.246802,112.283714 465.888259,111.893147 C465.526599,111.501105 465.270943,110.983788 465.12129,110.341194 C464.966961,109.700074 464.960726,108.914517 465.097907,107.99042 C465.334857,106.395726 465.919437,105.166544 466.84853,104.299926 C467.78074,103.433309 468.910928,103 470.242212,103 Z M409.191433,103 C412.026742,103 413.279444,104.115696 412.947984,106.352985 L411.978501,112.885041 L409.943055,112.885041 L410.075328,111.997789 C409.641161,112.35888 409.210107,112.615328 408.779053,112.770081 C408.349555,112.92336 407.817352,113 407.179329,113 C406.528858,113 405.991986,112.926308 405.573381,112.778924 C405.154776,112.63154 404.810866,112.40899 404.543208,112.112749 C404.081031,111.574797 403.912967,110.87325 404.042128,110.012528 C404.163507,109.191599 404.55877,108.516581 405.226359,107.99042 C405.893948,107.462786 406.824527,107.198968 408.019651,107.198968 L410.746029,107.198968 L410.848735,106.507738 C410.940548,105.890199 410.83473,105.430361 410.534392,105.128224 C410.234055,104.826087 409.675397,104.674282 408.863085,104.674282 C408.293534,104.674282 407.834469,104.7465 407.487447,104.887988 C407.140426,105.029477 406.799628,105.27266 406.465056,105.620486 L405.280824,104.406043 C405.84882,103.866618 406.429264,103.496684 407.020602,103.297716 C407.613496,103.098747 408.337106,103 409.191433,103 Z M405,99 L404.734961,100.908271 L400.918702,100.908271 L399.236152,113 L397.133711,113 L398.81626,100.908271 L395,100.908271 L395.266528,99 L405,99 Z M482.036409,103 C482.704769,103 483.26775,103.104643 483.729684,103.316875 C484.191617,103.529108 484.616018,103.878408 485,104.366249 L483.498717,105.676492 C483.24321,105.343405 482.99059,105.104643 482.737971,104.964628 C482.486794,104.823139 482.172102,104.752395 481.795338,104.752395 C481.040366,104.752395 480.409538,105.041268 479.901412,105.620486 C479.650235,105.888725 479.459688,106.207074 479.326882,106.572587 C479.19552,106.939573 479.090141,107.412675 479.009303,107.99042 C478.929908,108.568165 478.905368,109.042741 478.935682,109.415623 C478.965997,109.788504 479.069932,110.109801 479.247487,110.37804 C479.593937,110.957259 480.146814,111.246131 480.901786,111.246131 C481.27855,111.246131 481.613452,111.175387 481.903604,111.035372 C482.192312,110.893884 482.512778,110.655122 482.859228,110.322034 L484.002513,111.613117 C483.482838,112.100958 482.961719,112.454679 482.442045,112.672808 C481.920926,112.889462 481.327631,113 480.660714,113 C480.119386,113 479.605486,112.910096 479.120456,112.730287 C478.635426,112.550479 478.222573,112.261606 477.881897,111.862196 C477.539778,111.465733 477.291489,110.946942 477.131255,110.311717 C476.973909,109.676492 476.958031,108.901253 477.083619,107.99042 C477.209207,107.078113 477.43873,106.304348 477.772188,105.667649 C478.105646,105.030951 478.496846,104.518055 478.945787,104.126013 C479.397616,103.735446 479.889863,103.449521 480.423974,103.268239 C480.959527,103.08843 481.495081,103 482.036409,103 Z M426.088517,99 L424.839678,107.633083 L429.491489,103.031579 L432,103.031579 L427.874342,106.945865 L431.003405,113 L428.454658,113 L426.244816,108.398496 L424.486846,110.070677 L424.062829,113 L422,113 L424.025689,99 L426.088517,99 Z M515.24384,103 C515.937529,103 516.537687,103.114959 517.047431,103.344878 C517.555617,103.577745 517.967154,103.899042 518.278924,104.308769 C518.590694,104.721444 518.802698,105.216654 518.914935,105.792926 C519.024055,106.372144 519.028731,107.005895 518.925847,107.701548 L518.798021,108.568165 L512.091843,108.568165 C511.965576,109.415623 512.088726,110.083272 512.465968,110.572587 C512.841651,111.060427 513.457397,111.303611 514.313206,111.303611 C514.897776,111.303611 515.382578,111.225497 515.767615,111.063375 C516.151092,110.9042 516.551717,110.649226 516.969489,110.302874 L518.118362,111.478998 C517.80971,111.733972 517.51041,111.956522 517.215787,112.142225 C516.922723,112.329403 516.61563,112.487104 516.28983,112.615328 C515.965589,112.743552 515.617965,112.839352 515.248517,112.9042 C514.879069,112.969049 514.47065,113 514.021701,113 C513.370101,113 512.773061,112.913043 512.235258,112.740604 C511.695895,112.566691 511.246946,112.283714 510.88841,111.893147 C510.526757,111.501105 510.271105,110.983788 510.119896,110.341194 C509.967129,109.700074 509.960894,108.914517 510.098073,107.99042 C510.335018,106.395726 510.919587,105.166544 511.848662,104.299926 C512.780856,103.433309 513.912582,103 515.24384,103 Z M498.371556,103.073163 L496.985108,113 L495,113 L496.386448,103.073163 L498.371556,103.073163 Z M419.752397,99 L418.132857,110.129323 C418.076796,110.511278 418.117284,110.798496 418.251208,110.995489 C418.385131,111.190977 418.663879,111.290226 419.084337,111.290226 L420,111.290226 L419.75084,113 L418.467666,113 C417.980246,113 417.566018,112.924812 417.229652,112.77594 C416.890171,112.62406 416.623881,112.422556 416.429225,112.174436 C416.234569,111.924812 416.108432,111.633083 416.047699,111.299248 C415.988523,110.965414 415.983852,110.615038 416.036798,110.24812 L417.675025,99 L419.752397,99 Z M410.543729,108.568165 L408.122357,108.568165 C407.512346,108.568165 407.031495,108.690494 406.684473,108.933677 C406.335895,109.178335 406.127371,109.524687 406.060456,109.974208 C405.993542,110.425203 406.097804,110.768607 406.363906,111.005895 C406.634676,111.243183 407.096853,111.362564 407.747325,111.362564 C408.141031,111.362564 408.49739,111.334562 408.819513,111.275608 C409.14008,111.218128 409.454423,111.060427 409.762541,110.803979 C410.104895,110.521002 410.324312,110.040531 410.425462,109.358143 L410.543729,108.568165 Z M514.999101,104.635962 C514.509622,104.635962 514.068467,104.749447 513.675636,104.973471 C513.282806,105.200442 512.975712,105.498158 512.757473,105.869565 C512.617176,106.089167 512.518969,106.291083 512.464409,106.476787 C512.40829,106.663965 512.352171,106.9042 512.294494,107.198968 L516.942988,107.198968 C516.972607,106.9042 516.985077,106.663965 516.978842,106.476787 C516.972607,106.291083 516.932076,106.089167 516.854134,105.869565 C516.748132,105.498158 516.534569,105.200442 516.215005,104.973471 C515.892323,104.749447 515.490139,104.635962 514.999101,104.635962 Z M469.997468,104.635962 C469.511097,104.635962 469.069934,104.749447 468.677096,104.973471 C468.28114,105.200442 467.977159,105.498158 467.757357,105.869565 C467.617058,106.089167 467.518848,106.291083 467.464287,106.476787 C467.408168,106.663965 467.352048,106.9042 467.294369,107.198968 L471.94295,107.198968 C471.972569,106.9042 471.98504,106.663965 471.978804,106.476787 C471.972569,106.291083 471.932038,106.089167 471.854094,105.869565 C471.746531,105.498158 471.532965,105.200442 471.213394,104.973471 C470.893824,104.749447 470.488515,104.635962 469.997468,104.635962 Z M499,99 L498.703649,101.114451 L496.600894,101.114451 L496.897245,99 L499,99 Z M237.775396,32 C251.349356,32 257.438471,41.9482327 255.714159,54.2551257 L254.821661,60.6245477 L226.800485,60.6245477 C226.26321,64.4646071 228.73201,67.9558401 234.041114,67.9558401 C238.999435,67.9558401 241.372029,66.55905 244.249336,64.028203 L251.578771,72.58113 C246.120177,77.3815753 241.053809,80 232.352325,80 C221.997573,80 210.602315,76.246034 213.441139,56.0007422 C215.593198,40.6390203 225.505401,32 237.775396,32 Z M283.659764,32 C296.960596,32 303.350989,37.4793048 301.761471,48.694188 L297.523244,78.5719066 L283.705305,78.5719066 L284.240041,74.8049755 C280.98902,77.6298098 278.20369,79 273.280884,79 C268.616632,79 264.948399,77.4594461 262.72131,74.8908854 C260.422238,72.2364149 259.583407,68.383574 260.191596,64.1040957 C261.174394,57.1701468 266.837605,50.7487453 277.89225,50.7487453 L287.305961,50.7487453 L287.476371,49.5503749 C288.071339,45.3553504 286.215921,43.8133404 281.293115,43.8133404 C277.666016,43.8133404 275.989823,44.6695272 273.42779,46.8959043 L265.857745,38.1636719 C271.274154,33.4561001 275.798846,32 283.659764,32 Z M362.072655,32 C366.430212,32 370.412769,33.4694847 372.543582,35.9734867 C375.921488,39.948443 376.420034,44.3539582 375.733988,49.2782016 L371.603175,79 L357.588645,79 L361.456377,51.1782454 C362.202016,45.823443 358.587192,44.7859867 356.706378,44.7859867 C354.827018,44.7859867 350.921496,45.823443 350.175857,51.1782454 L346.308126,79 L332.295049,79 L336.162781,51.1782454 C336.906966,45.823443 333.292142,44.7859867 331.411329,44.7859867 C329.531969,44.7859867 325.627901,45.823443 324.882261,51.1782454 L321.01453,79 L307,79 L313.463661,32.5172586 L327.135167,32.5172586 L326.607551,36.3188157 C329.822667,33.4694847 334.215107,32 337.888071,32 C342.417139,32 345.888068,33.4694847 348.399695,36.9242434 C352.908414,33.3813157 356.773239,32 362.072655,32 Z M405.58051,21 L403.730378,34.3124636 L411,34.3124636 L409.484404,45.2020735 L402.214782,45.2020735 L399.569035,64.2188284 C399.317406,66.0330283 400.114475,67.0709741 401.995152,67.0709741 L406.443032,67.0709741 L404.78344,79 L397.771265,79 C387.59554,79 384.513441,71.6520494 385.402144,65.255304 L388.190433,45.2020735 L384,45.2020735 L385.515596,34.3124636 L389.706028,34.3124636 L391.557615,21 L405.58051,21 Z M435.660147,32 C448.960701,32 455.350961,37.4793048 453.761476,48.694188 L449.523338,78.5719066 L435.705687,78.5719066 L436.240412,74.8049755 C432.98946,77.6298098 430.204188,79 425.281484,79 C420.617329,79 416.949174,77.4594461 414.722131,74.8908854 C412.421638,72.2364149 411.584294,68.383574 412.191001,64.1040957 C413.175248,57.1701468 418.83834,50.7487453 429.892754,50.7487453 L439.306268,50.7487453 L439.476675,49.5503749 C440.07163,45.3553504 438.216251,43.8133404 433.293548,43.8133404 C429.666525,43.8133404 427.990367,44.6695272 425.429856,46.8959043 L417.8585,38.1636719 C423.274796,33.4561001 427.799394,32 435.660147,32 Z M219,17 L217.115907,30.3654714 L202.076784,30.3654714 L195.358949,78 L180.321288,78 L187.039123,30.3654714 L172,30.3654714 L173.884093,17 L219,17 Z M482.226921,17 L475.906612,63.349275 C475.66211,65.1474642 476.435189,66.17625 478.264008,66.17625 L483,66.17625 L481.387417,78 L474.158351,78 C464.270855,78 461.277471,70.7168964 462.141001,64.3766035 L468.599814,17 L482.226921,17 Z M511.702813,17 L507.327777,48.0136643 L522.06428,31.9057356 L539,31.9057356 L519.284553,51.0111321 L532.928759,78 L515.476867,78 L508.22852,61.1212107 L505.055448,64.1201357 L503.097502,78 L489,78 L497.603849,17 L511.702813,17 Z M285.982341,60.0794349 L278.813348,60.0794349 C276.048585,60.0794349 274.103555,61.6214449 273.799461,63.760456 C273.508588,65.8150133 274.808702,67.613297 277.918693,67.613297 C280.681988,67.613297 282.014421,67.3570234 283.775819,65.9009232 C284.945188,64.9602825 285.497553,63.5056385 285.8134,61.2778053 L285.982341,60.0794349 Z M437.982676,60.0794349 L430.813833,60.0794349 C428.049128,60.0794349 426.104138,61.6214449 425.80005,63.760456 C425.509183,65.8150133 426.81074,67.613297 429.917728,67.613297 C432.683902,67.613297 434.014839,67.3570234 435.7762,65.9009232 C436.945544,64.9602825 437.497898,63.5056385 437.813738,61.2778053 L437.982676,60.0794349 Z M236.125089,43.7814268 C232.731229,43.7814268 230.58361,45.4379813 229.430615,47.4478152 C228.652085,48.6694499 228.293902,49.9786622 228.134051,51.1127192 L242.058794,51.1127192 C242.217164,49.9786622 242.227525,48.6694499 241.787936,47.4478152 C241.200338,45.4379813 239.518949,43.7814268 236.125089,43.7814268 Z" id="形状结合" fill="#333333"></path>
                </g>
            </g>
        </g>
    </g>
</svg>