<?xml version="1.0" encoding="UTF-8"?>
<svg width="518px" height="108px" viewBox="0 0 518 108" version="1.1" xmlns="http://www.w3.org/2000/svg" xmlns:xlink="http://www.w3.org/1999/xlink">
    <!-- Generator: Sketch 59 (86127) - https://sketch.com -->
    <title>logo@1</title>
    <desc>Created with Sketch.</desc>
    <g id="页面-1" stroke="none" stroke-width="1" fill="none" fill-rule="evenodd">
        <g id="引导页" transform="translate(-116.000000, -315.000000)" fill-rule="nonzero">
            <g id="编组-4" transform="translate(116.000000, 315.000000)">
                <g id="编组-3">
                    <path d="M172.391,83.578 L172.391,85.211 L178.187,85.211 L178.187,100 L180.05,100 L180.05,85.211 L185.846,85.211 L185.846,83.578 L172.391,83.578 Z M193.899538,87.787 C192.473538,87.787 191.346538,88.063 190.472538,88.615 C189.506538,89.213 188.885538,90.156 188.632538,91.398 L190.449538,91.536 C190.633538,90.777 191.024538,90.202 191.645538,89.834 C192.197538,89.466 192.910538,89.305 193.784538,89.305 C195.854538,89.305 196.889538,90.294 196.889538,92.295 L196.889538,92.916 L194.037538,92.962 C192.243538,92.985 190.863538,93.33 189.897538,93.974 C188.793538,94.664 188.264538,95.676 188.264538,97.033 C188.264538,97.999 188.632538,98.804 189.368538,99.425 C190.081538,100.023 191.024538,100.322 192.220538,100.322 C193.324538,100.322 194.313538,100.069 195.187538,99.586 C195.923538,99.172 196.544538,98.643 197.004538,97.999 L197.004538,100 L198.729538,100 L198.729538,92.364 C198.729538,90.984 198.361538,89.903 197.671538,89.121 C196.843538,88.224 195.601538,87.787 193.899538,87.787 Z M196.889538,94.296 L196.889538,95.308 C196.889538,96.228 196.452538,97.056 195.601538,97.769 C194.727538,98.505 193.738538,98.873 192.611538,98.873 C191.875538,98.873 191.277538,98.689 190.817538,98.344 C190.357538,97.976 190.150538,97.539 190.150538,96.987 C190.150538,95.262 191.484538,94.388 194.152538,94.342 L196.889538,94.296 Z M203.011077,83.256 L203.011077,100 L204.828077,100 L204.828077,83.256 L203.011077,83.256 Z M209.109615,83.256 L209.109615,100 L210.949615,100 L210.949615,95.791 L212.835615,94.089 L217.481615,100 L219.850615,100 L214.100615,92.893 L219.344615,88.109 L216.906615,88.109 L210.949615,93.629 L210.949615,83.256 L209.109615,83.256 Z M229.747692,88.109 L233.795692,100 L235.520692,100 L238.326692,90.432 L241.086692,100 L242.834692,100 L246.882692,88.109 L244.858692,88.109 L241.937692,97.746 L239.177692,88.109 L237.452692,88.109 L234.692692,97.746 L231.771692,88.109 L229.747692,88.109 Z M251.003231,83.624 C250.661106,83.624 250.371809,83.7120469 250.119932,83.918957 L250.014231,84.015 C249.738231,84.245 249.623231,84.567 249.623231,84.981 C249.623231,85.372 249.738231,85.694 250.014231,85.97 C250.290231,86.223 250.612231,86.361 251.003231,86.361 C251.394231,86.361 251.716231,86.223 251.992231,85.97 C252.268231,85.694 252.406231,85.372 252.406231,84.981 C252.406231,84.61875 252.300575,84.3269375 252.089262,84.1055625 L251.992231,84.015 C251.716231,83.739 251.394231,83.624 251.003231,83.624 Z M250.083231,88.109 L250.083231,100 L251.923231,100 L251.923231,88.109 L250.083231,88.109 Z M259.608769,84.268 L257.791769,85.027 L257.791769,88.109 L255.399769,88.109 L255.399769,89.65 L257.791769,89.65 L257.791769,97.217 C257.791769,98.114 257.975769,98.781 258.366769,99.241 C258.780769,99.747 259.493769,100 260.459769,100 L262.253769,100 L262.253769,98.459 L260.735769,98.459 C260.321769,98.459 260.022769,98.344 259.861769,98.16 C259.677769,97.976 259.608769,97.654 259.608769,97.217 L259.608769,89.65 L262.552769,89.65 L262.552769,88.109 L259.608769,88.109 L259.608769,84.268 Z M265.661308,83.256 L265.661308,100 L267.501308,100 L267.501308,93.215 C267.501308,92.111 267.800308,91.168 268.421308,90.432 C269.019308,89.696 269.778308,89.328 270.698308,89.328 C271.687308,89.328 272.446308,89.627 272.998308,90.225 C273.504308,90.823 273.780308,91.674 273.780308,92.778 L273.780308,100 L275.620308,100 L275.620308,92.502 C275.620308,90.984 275.252308,89.811 274.516308,89.006 C273.780308,88.178 272.699308,87.787 271.319308,87.787 C270.514308,87.787 269.801308,87.971 269.157308,88.339 C268.467308,88.73 267.915308,89.305 267.501308,90.064 L267.501308,83.256 L265.661308,83.256 Z M284.823846,87.787 C283.029846,87.787 281.626846,88.385 280.568846,89.627 C279.556846,90.8 279.050846,92.272 279.050846,94.066 C279.050846,95.837 279.556846,97.309 280.568846,98.459 C281.626846,99.701 283.029846,100.322 284.823846,100.322 C286.594846,100.322 288.020846,99.701 289.101846,98.459 C290.090846,97.309 290.596846,95.837 290.596846,94.066 C290.596846,92.272 290.090846,90.8 289.078846,89.627 C288.020846,88.385 286.594846,87.787 284.823846,87.787 Z M284.823846,89.328 C286.065846,89.328 287.054846,89.811 287.790846,90.777 C288.411846,91.651 288.733846,92.732 288.733846,94.066 C288.733846,95.354 288.411846,96.458 287.790846,97.332 C287.054846,98.298 286.065846,98.781 284.823846,98.781 C283.558846,98.781 282.569846,98.298 281.879846,97.332 C281.235846,96.458 280.936846,95.377 280.936846,94.066 C280.936846,92.732 281.235846,91.651 281.879846,90.777 C282.569846,89.811 283.558846,89.328 284.823846,89.328 Z M294.050385,88.109 L294.050385,95.469 C294.050385,98.689 295.476385,100.322 298.374385,100.322 C299.984385,100.322 301.272385,99.586 302.238385,98.16 L302.238385,100 L304.078385,100 L304.078385,88.109 L302.238385,88.109 L302.238385,95.354 C302.100385,96.366 301.709385,97.194 301.065385,97.838 C300.444385,98.436 299.731385,98.758 298.949385,98.758 C297.868385,98.758 297.086385,98.459 296.603385,97.907 C296.120385,97.355 295.890385,96.504 295.890385,95.377 L295.890385,88.109 L294.050385,88.109 Z M311.165923,84.268 L309.348923,85.027 L309.348923,88.109 L306.956923,88.109 L306.956923,89.65 L309.348923,89.65 L309.348923,97.217 C309.348923,98.114 309.532923,98.781 309.923923,99.241 C310.337923,99.747 311.050923,100 312.016923,100 L313.810923,100 L313.810923,98.459 L312.292923,98.459 C311.878923,98.459 311.579923,98.344 311.418923,98.16 C311.234923,97.976 311.165923,97.654 311.165923,97.217 L311.165923,89.65 L314.109923,89.65 L314.109923,88.109 L311.165923,88.109 L311.165923,84.268 Z M334.725,83.256 L334.725,90.294 C333.805,88.615 332.494,87.787 330.792,87.787 C329.09,87.787 327.779,88.408 326.813,89.696 C325.916,90.846 325.479,92.272 325.479,94.02 C325.479,95.814 325.916,97.286 326.813,98.436 C327.779,99.678 329.136,100.322 330.884,100.322 C332.678,100.322 334.012,99.563 334.84,98.045 L334.84,100 L336.565,100 L336.565,83.256 L334.725,83.256 Z M331.183,89.305 C332.241,89.305 333.115,89.719 333.782,90.593 C334.426,91.444 334.771,92.571 334.771,93.951 L334.771,94.181 C334.771,95.515 334.472,96.596 333.897,97.424 C333.23,98.344 332.31,98.804 331.114,98.804 C329.826,98.804 328.86,98.321 328.216,97.401 C327.641,96.573 327.365,95.446 327.365,94.02 C327.365,92.594 327.641,91.49 328.239,90.685 C328.883,89.765 329.872,89.305 331.183,89.305 Z M341.996538,83.624 C341.654413,83.624 341.365117,83.7120469 341.11324,83.918957 L341.007538,84.015 C340.731538,84.245 340.616538,84.567 340.616538,84.981 C340.616538,85.372 340.731538,85.694 341.007538,85.97 C341.283538,86.223 341.605538,86.361 341.996538,86.361 C342.387538,86.361 342.709538,86.223 342.985538,85.97 C343.261538,85.694 343.399538,85.372 343.399538,84.981 C343.399538,84.61875 343.293882,84.3269375 343.08257,84.1055625 L342.985538,84.015 C342.709538,83.739 342.387538,83.624 341.996538,83.624 Z M341.076538,88.109 L341.076538,100 L342.916538,100 L342.916538,88.109 L341.076538,88.109 Z M351.637077,87.787 C350.303077,87.787 349.199077,88.086 348.371077,88.684 C347.474077,89.282 347.037077,90.064 347.037077,91.076 C347.037077,92.0205333 347.417752,92.7446756 348.216503,93.2858264 L348.394077,93.399 C348.906648,93.7407143 349.796021,94.0625969 351.043779,94.383063 L351.863255,94.5907755 C352.859832,94.8498776 353.532934,95.0582857 353.868077,95.216 C354.604077,95.584 354.995077,96.09 354.995077,96.757 C354.995077,98.091 353.914077,98.781 351.798077,98.781 C350.786077,98.781 350.027077,98.597 349.521077,98.229 C349.015077,97.815 348.670077,97.148 348.532077,96.205 L346.738077,96.205 C347.014077,98.942 348.716077,100.322 351.844077,100.322 C355.202077,100.322 356.881077,99.08 356.881077,96.642 C356.881077,95.607 356.398077,94.802 355.455077,94.204 C354.834077,93.813 353.822077,93.445 352.396077,93.1 L351.870291,92.9562003 C350.954562,92.7012426 350.304846,92.4931538 349.935077,92.318 C349.245077,91.973 348.923077,91.536 348.923077,91.03 C348.923077,90.5539 349.128007,90.17095 349.537867,89.88115 L349.682077,89.788 C350.142077,89.466 350.786077,89.328 351.614077,89.328 C352.557077,89.328 353.293077,89.512 353.799077,89.88 C354.259077,90.202 354.558077,90.754 354.719077,91.49 L356.513077,91.49 C356.191077,89.006 354.581077,87.787 351.637077,87.787 Z M363.278615,84.268 L361.461615,85.027 L361.461615,88.109 L359.069615,88.109 L359.069615,89.65 L361.461615,89.65 L361.461615,97.217 C361.461615,98.114 361.645615,98.781 362.036615,99.241 C362.450615,99.747 363.163615,100 364.129615,100 L365.923615,100 L365.923615,98.459 L364.405615,98.459 C363.991615,98.459 363.692615,98.344 363.531615,98.16 C363.347615,97.976 363.278615,97.654 363.278615,97.217 L363.278615,89.65 L366.222615,89.65 L366.222615,88.109 L363.278615,88.109 L363.278615,84.268 Z M374.552154,87.787 C373.724154,87.787 373.011154,88.04 372.390154,88.546 C371.884154,88.937 371.470154,89.489 371.148154,90.179 L371.148154,88.109 L369.331154,88.109 L369.331154,100 L371.148154,100 L371.148154,93.698 C371.148154,92.686 371.399397,91.8092847 371.937315,91.0678542 L372.091154,90.869 C372.712154,90.041 373.494154,89.65 374.414154,89.65 C374.989154,89.65 375.587154,89.719 376.185154,89.903 L376.185154,88.063 C375.748154,87.879 375.196154,87.787 374.552154,87.787 Z M383.962692,87.787 C382.536692,87.787 381.409692,88.063 380.535692,88.615 C379.569692,89.213 378.948692,90.156 378.695692,91.398 L380.512692,91.536 C380.696692,90.777 381.087692,90.202 381.708692,89.834 C382.260692,89.466 382.973692,89.305 383.847692,89.305 C385.917692,89.305 386.952692,90.294 386.952692,92.295 L386.952692,92.916 L384.100692,92.962 C382.306692,92.985 380.926692,93.33 379.960692,93.974 C378.856692,94.664 378.327692,95.676 378.327692,97.033 C378.327692,97.999 378.695692,98.804 379.431692,99.425 C380.144692,100.023 381.087692,100.322 382.283692,100.322 C383.387692,100.322 384.376692,100.069 385.250692,99.586 C385.986692,99.172 386.607692,98.643 387.067692,97.999 L387.067692,100 L388.792692,100 L388.792692,92.364 C388.792692,90.984 388.424692,89.903 387.734692,89.121 C386.906692,88.224 385.664692,87.787 383.962692,87.787 Z M386.952692,94.296 L386.952692,95.308 C386.952692,96.228 386.515692,97.056 385.664692,97.769 C384.790692,98.505 383.801692,98.873 382.674692,98.873 C381.938692,98.873 381.340692,98.689 380.880692,98.344 C380.420692,97.976 380.213692,97.539 380.213692,96.987 C380.213692,95.262 381.547692,94.388 384.215692,94.342 L386.952692,94.296 Z M397.835231,87.787 C396.064231,87.787 394.661231,88.408 393.649231,89.673 C392.706231,90.823 392.246231,92.295 392.246231,94.112 C392.246231,95.929 392.706231,97.401 393.649231,98.528 C394.638231,99.724 396.018231,100.322 397.812231,100.322 C399.284231,100.322 400.457231,99.931 401.354231,99.172 C402.274231,98.39 402.849231,97.217 403.125231,95.699 L401.285231,95.699 C401.009231,97.746 399.836231,98.781 397.812231,98.781 C396.616231,98.781 395.696231,98.344 395.075231,97.516 C394.431231,96.688 394.132231,95.538 394.132231,94.089 C394.132231,92.64 394.454231,91.49 395.098231,90.639 C395.765231,89.765 396.685231,89.328 397.835231,89.328 C398.778231,89.328 399.537231,89.535 400.135231,89.995 C400.710231,90.455 401.078231,91.145 401.239231,92.065 L403.056231,92.065 C402.849231,90.616 402.297231,89.535 401.377231,88.822 C400.480231,88.132 399.307231,87.787 397.835231,87.787 Z M409.522769,84.268 L407.705769,85.027 L407.705769,88.109 L405.313769,88.109 L405.313769,89.65 L407.705769,89.65 L407.705769,97.217 C407.705769,98.114 407.889769,98.781 408.280769,99.241 C408.694769,99.747 409.407769,100 410.373769,100 L412.167769,100 L412.167769,98.459 L410.649769,98.459 C410.235769,98.459 409.936769,98.344 409.775769,98.16 C409.591769,97.976 409.522769,97.654 409.522769,97.217 L409.522769,89.65 L412.466769,89.65 L412.466769,88.109 L409.522769,88.109 L409.522769,84.268 Z M417.093308,83.624 C416.751183,83.624 416.461886,83.7120469 416.210009,83.918957 L416.104308,84.015 C415.828308,84.245 415.713308,84.567 415.713308,84.981 C415.713308,85.372 415.828308,85.694 416.104308,85.97 C416.380308,86.223 416.702308,86.361 417.093308,86.361 C417.484308,86.361 417.806308,86.223 418.082308,85.97 C418.358308,85.694 418.496308,85.372 418.496308,84.981 C418.496308,84.61875 418.390651,84.3269375 418.179339,84.1055625 L418.082308,84.015 C417.806308,83.739 417.484308,83.624 417.093308,83.624 Z M416.173308,88.109 L416.173308,100 L418.013308,100 L418.013308,88.109 L416.173308,88.109 Z M427.837846,87.787 C426.043846,87.787 424.640846,88.385 423.582846,89.627 C422.570846,90.8 422.064846,92.272 422.064846,94.066 C422.064846,95.837 422.570846,97.309 423.582846,98.459 C424.640846,99.701 426.043846,100.322 427.837846,100.322 C429.608846,100.322 431.034846,99.701 432.115846,98.459 C433.104846,97.309 433.610846,95.837 433.610846,94.066 C433.610846,92.272 433.104846,90.8 432.092846,89.627 C431.034846,88.385 429.608846,87.787 427.837846,87.787 Z M427.837846,89.328 C429.079846,89.328 430.068846,89.811 430.804846,90.777 C431.425846,91.651 431.747846,92.732 431.747846,94.066 C431.747846,95.354 431.425846,96.458 430.804846,97.332 C430.068846,98.298 429.079846,98.781 427.837846,98.781 C426.572846,98.781 425.583846,98.298 424.893846,97.332 C424.249846,96.458 423.950846,95.377 423.950846,94.066 C423.950846,92.732 424.249846,91.651 424.893846,90.777 C425.583846,89.811 426.572846,89.328 427.837846,89.328 Z M442.630385,87.787 C441.848385,87.787 441.135385,87.971 440.491385,88.339 C439.847385,88.684 439.318385,89.19 438.904385,89.857 L438.904385,88.109 L437.064385,88.109 L437.064385,100 L438.904385,100 L438.904385,92.824 C438.973385,91.743 439.318385,90.892 439.962385,90.248 C440.560385,89.65 441.273385,89.351 442.101385,89.351 C444.171385,89.351 445.229385,90.501 445.229385,92.824 L445.229385,100 L447.069385,100 L447.069385,92.686 C447.069385,89.42 445.574385,87.787 442.630385,87.787 Z M452.592923,97.263 C452.960923,97.263 453.305923,97.401 453.581923,97.677 C453.857923,97.953 453.995923,98.275 453.995923,98.689 C453.995923,99.08 453.857923,99.402 453.581923,99.678 C453.305923,99.954 452.960923,100.092 452.592923,100.092 C452.178923,100.092 451.856923,99.954 451.603923,99.678 C451.327923,99.402 451.189923,99.08 451.189923,98.689 C451.189923,98.275 451.327923,97.953 451.603923,97.677 C451.856923,97.401 452.178923,97.263 452.592923,97.263 Z" id="Talkwithoutdistraction." fill="#595851"></path>
                    <g id="编组" transform="translate(172.000000, 0.000000)" fill="#333333">
                        <polygon id="路径" points="28.7703612 12.7099496 22.3406516 58 7.99929178 58 14.421034 12.7099496 0 12.7099496 1.8404745 0 45 0 43.1913952 12.7099496"></polygon>
                        <path d="M52.83837,39.8334802 C52.3362563,43.4334802 54.6349953,46.70837 59.5776762,46.70837 C64.1908451,46.70837 66.3954377,45.4 69.0707618,43.0290749 L75.8885233,51.045815 C70.8124684,55.5418502 66.0973077,58 58.0007256,58 C48.3742661,58 37.7671159,54.4792952 40.4110579,35.4960352 C42.4116668,21.0960352 51.6301591,13 63.0453984,13 C75.6766941,13 81.3411634,22.3251101 79.7328307,33.8625551 L78.9090505,39.8334802 L52.83837,39.8334802 Z M66.7798684,27.4792952 C66.2306817,25.6 64.6694221,24.045815 61.5155209,24.045815 C58.9669904,23.9220336 56.5633728,25.2468552 55.2861739,27.4792952 C54.6432671,28.5223826 54.2311131,29.6936372 54.077963,30.9127753 L67.0309252,30.9127753 C67.2225618,29.7645727 67.1364245,28.586551 66.7798684,27.4792952 L66.7798684,27.4792952 Z" id="形状"></path>
                        <path d="M104.986079,57.5872288 L105.483401,53.9834186 C102.460616,56.6823073 99.8807582,58 95.3116129,58 C90.9755872,58 87.5409576,56.5235491 85.5050459,54.031046 C83.4691342,51.538543 82.5988208,47.8077262 83.1738493,43.7117657 C84.0907866,37.0756747 89.3437496,30.931734 99.6010146,30.931734 L108.327461,30.931734 L108.482874,29.7886753 C109.03459,25.7720938 107.317275,24.3035809 102.74813,24.3035809 C99.3756656,24.3035809 97.8215346,25.0973717 95.443714,27.2485447 L88.4501242,18.8978656 C93.4777382,14.3891339 97.6816628,13 104.970537,13 C117.318109,13 123.254889,18.2390192 121.778465,28.9710707 L117.846513,57.5475392 L104.986079,57.5872288 Z M107.099697,39.893632 L100.448016,39.893632 C97.8759291,39.893632 96.0731371,41.3700829 95.7856229,43.4180632 C95.4981086,45.4660434 96.7181015,47.1012524 99.6087853,47.1012524 C102.173102,47.1012524 103.408636,46.8551773 105.048244,45.4660434 C106.136136,44.5611219 106.648999,43.171988 106.944284,41.0446287 L107.099697,39.893632 Z" id="形状"></path>
                        <path d="M175.390826,57.9608053 L179.090649,31.91199 C179.803677,26.902904 176.34153,25.9308748 174.543115,25.9308748 C172.744701,25.9308748 168.997343,26.902904 168.30016,31.91199 L164.600338,57.9608053 L151.195413,57.9608053 L154.895236,31.91199 C155.608264,26.902904 152.146117,25.9308748 150.347702,25.9308748 C148.549287,25.9308748 144.80193,26.902904 144.104747,31.91199 L140.404924,57.9608053 L127,57.9608053 L133.179575,14.4781757 L146.259676,14.4781757 L145.752634,18.0370568 C148.766435,15.4922183 152.581588,14.0648508 156.543122,14 C160.876747,14 164.196288,15.3718154 166.596816,18.6092998 C170.914596,15.293426 174.606496,14 179.676916,14 C183.844168,14 187.654906,15.3718154 189.690997,17.7156601 C192.92339,21.4391591 193.398742,25.5546054 192.749094,30.1717442 L188.787828,58 L175.390826,57.9608053 Z" id="路径"></path>
                        <path d="M212.761057,58 C203.33231,58 200.476044,51.160312 201.297604,45.2019064 L203.885135,26.5311958 L200,26.5311958 L201.405098,16.3925477 L205.290233,16.3925477 L207.002457,4 L219.993857,4 L218.266278,16.3925477 L225,16.3925477 L223.594902,26.5311958 L216.861179,26.5311958 L214.427211,44.2348354 C214.189189,45.9272097 214.92629,46.8942808 216.676904,46.8942808 L220.792383,46.8942808 L219.256757,58 L212.761057,58 Z" id="路径"></path>
                        <path d="M248.018644,57.5872288 L248.516828,53.9834186 C245.496589,56.6823073 242.904476,58 238.327411,58 C233.991654,58 230.543288,56.5235491 228.511632,54.031046 C226.479976,51.538543 225.592586,47.8077262 226.176395,43.7117657 C227.094921,37.0756747 232.356989,30.931734 242.639815,30.931734 L251.334681,30.931734 L251.498148,29.7886753 C252.05082,25.7720938 250.322745,24.3035809 245.74568,24.3035809 C242.375155,24.3035809 240.818331,25.0973717 238.436389,27.2485447 L231.391757,18.8978656 C236.428085,14.3891339 240.639296,13 247.948587,13 C260.317559,13 266.256845,18.2390192 264.777862,28.9710707 L260.839095,57.5475392 L248.018644,57.5872288 Z M250.135926,39.893632 L243.472717,39.893632 C240.903956,39.893632 239.090255,41.3700829 238.802243,43.4180632 C238.51423,45.4660434 239.744122,47.1012524 242.632031,47.1012524 C245.200792,47.1012524 246.438467,46.8551773 248.080917,45.4660434 C249.162911,44.5611219 249.676663,43.171988 249.972459,41.0446287 L250.135926,39.893632 Z" id="形状"></path>
                        <path d="M283.578858,58 C274.160676,58 271.307612,51.0766299 272.135921,45.0453246 L278.271544,0 L291.248386,0 L285.243145,44.0664217 C285.013059,45.7795018 285.749334,46.7584048 287.490317,46.7584048 L292,46.7584048 L290.466094,58 L283.578858,58 Z" id="路径"></path>
                        <polygon id="路径" points="323.886038 58 317.073309 41.9507282 314.089803 44.8005989 312.249583 58 299 58 307.089137 0 320.33872 0 316.227591 29.4855043 330.087971 14.2098816 346 14.2098816 327.464678 32.3669525 340.267911 58"></polygon>
                    </g>
                    <g id="编组-2" transform="translate(0.000000, 1.000000)">
                        <path d="M140.79399,0.00336198077 L92.717589,0.00336198077 L88.8554632,27.5297348 L116.443758,27.5297348 L112.569858,55.0443442 L85.0286618,55.0443442 L81.1547612,82.570717 L78.0226714,104.803557 C77.7518516,106.756282 79.9655091,107.732645 81.5551035,106.356326 L108.707732,82.570717 L129.219388,82.570717 C133.251199,82.4528202 136.631049,79.4909015 137.273333,75.5126727 L144.090927,27.0591985 L146.905098,7.06140629 C147.226202,5.27793482 146.723206,3.44502345 145.53657,2.07451496 C144.349935,0.704006477 142.606819,-0.0572372736 140.79399,0.00336198077 L140.79399,0.00336198077 Z" id="路径" fill="#03C160"></path>
                        <path d="M17.778185,0 C13.7474228,0.118510788 10.3684526,3.09585265 9.72633613,7.0947966 L6.9128977,27.1967203 L0.0970782632,75.902499 C-0.227058305,77.6897088 0.269752478,79.5283662 1.44895972,80.9057052 C2.62816697,82.2830443 4.36359994,83.051695 6.17128005,82.9972956 L47.1132835,82.9972956 C51.1467191,82.8797213 54.5295946,79.9032899 55.1769041,75.902499 L58.0492011,55.3275888 L30.515174,55.3275888 L34.3880662,27.6697067 L90.1271078,27.6697067 L90.197738,27.1967203 L94,0 L17.778185,0 Z" id="路径" fill="#7BE3AE"></path>
                    </g>
                </g>
            </g>
        </g>
    </g>
</svg>