<?xml version="1.0" encoding="UTF-8"?>
<svg width="1024px" height="1024px" viewBox="0 0 1024 1024" version="1.1" xmlns="http://www.w3.org/2000/svg" xmlns:xlink="http://www.w3.org/1999/xlink">
    <!-- Generator: Sketch 63.1 (92452) - https://sketch.com -->
    <title>TeamTalk logo</title>
    <desc>Created with Sketch.</desc>
    <g id="定稿✅" stroke="none" stroke-width="1" fill="none" fill-rule="evenodd">
        <g id="切图" transform="translate(-1881.000000, -185.000000)">
            <rect fill="#F9F9F9" x="0" y="0" width="4142" height="1334"></rect>
            <g id="启动图标1024-png" transform="translate(1881.000000, 185.000000)" fill-rule="nonzero">
                <g id="TeamTalk-logo" transform="translate(0.000000, 137.000000)">
                    <path d="M979.880788,0.00754690532 L643.648404,0.00754690532 L616.575775,192.728638 L809.407827,192.728638 L782.274768,385.510143 L589.442716,385.510143 L562.370087,578.291648 L540.434005,734.099702 C538.560676,747.753296 554.09118,754.580094 565.089435,744.913832 L755.202139,578.291648 L898.542041,578.291648 C926.780661,577.494569 950.47027,556.752577 954.983638,528.872885 L1002.66289,189.526689 L1022.36306,49.4867235 C1024.51028,37.0565654 1020.99511,24.3170357 1012.77704,14.745431 C1004.55896,5.17382631 992.496005,-0.230512414 979.880788,0.00754690532 L979.880788,0.00754690532 Z" id="路径" fill="#87B940"></path>
                    <path d="M124.675774,0.00754690532 C96.4415227,0.785591366 72.7589095,21.5436831 68.2946064,49.4263094 L48.5944344,189.526689 L0.915183653,528.872885 C-1.34328835,541.284322 2.10813232,554.052714 10.3123855,563.637457 C18.5166388,573.2222 30.6015968,578.604417 43.2161665,578.291648 L329.956401,578.291648 C358.190651,577.513603 381.873265,556.755511 386.337568,528.872885 L406.52118,385.510143 L213.870418,385.510143 L240.943047,192.728638 L631.320689,192.728638 L631.743698,189.526689 L658.393318,0.00754690532 L124.675774,0.00754690532 Z" id="路径" fill="#D2EF9A"></path>
                </g>
            </g>
        </g>
    </g>
</svg>