<?xml version="1.0" encoding="UTF-8"?>
<svg width="335px" height="203px" viewBox="0 0 335 203" version="1.1" xmlns="http://www.w3.org/2000/svg" xmlns:xlink="http://www.w3.org/1999/xlink">
    <!-- Generator: Sketch 63.1 (92452) - https://sketch.com -->
    <title>TeamTalk logo</title>
    <desc>Created with Sketch.</desc>
    <g id="定稿" stroke="none" stroke-width="1" fill="none" fill-rule="evenodd">
        <g id="引导页" transform="translate(-208.000000, -246.000000)" fill-rule="nonzero">
            <g id="TeamTalk-logo-2" transform="translate(208.000000, 246.000000)">
                <g id="TeamTalk-logo">
                    <polygon id="路径" fill="#333333" points="27.45 158.571249 21.32 202.191249 7.59 202.191249 13.72 158.591249 -1.0658141e-14 158.591249 1.72 146.361249 42.89 146.361249 41.17 158.591249"></polygon>
                    <path d="M50.67,185.241249 C50.19,188.691249 52.41,191.821249 57.2,191.821249 C60.6306278,192.016045 63.9801741,190.730838 66.4,188.291249 L73,195.981249 C68.08,200.291249 63.52,202.641249 55.68,202.641249 C46.35,202.641249 36.08,199.271249 38.63,181.081249 C40.57,167.281249 49.51,159.521249 60.56,159.521249 C72.79,159.521249 78.28,168.451249 76.73,179.521249 L75.92,185.251249 L50.67,185.241249 Z M64.18,173.401249 C63.65,171.591249 62.13,170.101249 59.07,170.101249 C56.61116,169.996547 54.2983059,171.268617 53.07,173.401249 C52.4492537,174.400785 52.0534309,175.52342 51.91,176.691249 L64.45,176.691249 C64.6235677,175.58874 64.5309937,174.460709 64.18,173.401249 L64.18,173.401249 Z" id="形状" fill="#333333"></path>
                    <path d="M101.85,202.191249 L102.33,198.741249 C99.6812449,201.36579 96.0549146,202.761928 92.33,202.591249 C88.1,202.591249 84.77,201.181249 82.75,198.821249 C80.73,196.461249 79.9,192.821249 80.45,188.941249 C81.34,182.591249 86.45,176.711249 96.52,176.711249 L105.07,176.711249 L105.22,175.611249 C105.76,171.771249 104.08,170.361249 99.61,170.361249 C96.31,170.361249 94.79,171.141249 92.47,173.181249 L85.59,165.181249 C90.51,160.871249 94.59,159.541249 101.76,159.541249 C113.83,159.541249 119.63,164.541249 118.19,174.831249 L114.39,202.191249 L101.85,202.191249 Z M103.92,185.261249 L97.41,185.261249 C94.9,185.261249 93.13,186.671249 92.86,188.631249 C92.59,190.591249 93.77,192.191249 96.59,192.191249 C99.1,192.191249 100.31,191.951249 101.91,190.621249 C102.97,189.761249 103.47,188.421249 103.76,186.381249 L103.92,185.261249 Z" id="形状" fill="#333333"></path>
                    <path d="M169.83,202.191249 L173.38,176.941249 C174.06,172.081249 170.75,171.141249 169.02,171.141249 C167.29,171.141249 163.71,172.081249 163.02,176.941249 L159.48,202.191249 L146.59,202.191249 L150.14,176.941249 C150.82,172.081249 147.51,171.141249 145.78,171.141249 C144.05,171.141249 140.47,172.081249 139.78,176.941249 L136.27,202.191249 L123.41,202.191249 L129.34,160.011249 L141.89,160.011249 L141.4,163.461249 C144.288972,160.990409 147.949046,159.604178 151.75,159.541249 C155.91,159.541249 159.1,160.871249 161.4,164.001249 C164.891112,161.026196 169.354337,159.438797 173.94,159.541249 C177.94,159.541249 181.6,160.871249 183.55,163.141249 C186.65,166.751249 187.11,170.751249 186.48,175.221249 L182.69,202.221249 L169.83,202.191249 Z" id="路径" fill="#333333"></path>
                    <path d="M206.06,202.191249 C196.73,202.191249 193.9,195.531249 194.72,189.731249 L197.27,171.531249 L193.43,171.531249 L194.82,161.651249 L198.66,161.651249 L200.36,149.581249 L213.22,149.581249 L211.52,161.651249 L218.19,161.651249 L216.8,171.531249 L210.13,171.531249 L207.71,188.791249 C207.48,190.431249 208.21,191.371249 209.93,191.371249 L214.01,191.371249 L212.49,202.191249 L206.06,202.191249 Z" id="路径" fill="#333333"></path>
                    <path d="M240.95,202.191249 L241.44,198.741249 C238.791245,201.36579 235.164915,202.761928 231.44,202.591249 C227.2,202.591249 223.87,201.181249 221.85,198.821249 C219.83,196.461249 219,192.821249 219.56,188.941249 C220.45,182.591249 225.56,176.711249 235.62,176.711249 L244.17,176.711249 L244.33,175.611249 C244.87,171.771249 243.18,170.361249 238.71,170.361249 C235.42,170.361249 233.9,171.141249 231.57,173.181249 L224.7,165.181249 C229.62,160.871249 233.7,159.541249 240.86,159.541249 C252.94,159.541249 258.74,164.541249 257.3,174.831249 L253.5,202.191249 L240.95,202.191249 Z M243.02,185.261249 L236.51,185.261249 C234,185.261249 232.24,186.671249 231.96,188.631249 C231.68,190.591249 232.88,192.161249 235.7,192.161249 C238.21,192.161249 239.42,191.921249 241.02,190.591249 C242.08,189.731249 242.58,188.391249 242.87,186.351249 L243.02,185.261249 Z" id="形状" fill="#333333"></path>
                    <path d="M275.22,202.191249 C265.89,202.191249 263.06,195.531249 263.88,189.731249 L269.97,146.361249 L282.83,146.361249 L276.83,188.791249 C276.6,190.431249 277.33,191.371249 279.05,191.371249 L283.59,191.371249 L282.04,202.191249 L275.22,202.191249 Z" id="路径" fill="#333333"></path>
                    <polygon id="路径" fill="#333333" points="313.41 202.191249 306.79 186.751249 303.9 189.491249 302.11 202.191249 289.25 202.191249 297.1 146.361249 309.96 146.361249 305.96 174.751249 319.4 160.011249 334.85 160.011249 316.85 177.491249 329.32 202.191249"></polygon>
                    <path d="M244.92,0.00124919529 L189.28,0.00124919529 L184.8,31.9012492 L216.71,31.9012492 L212.22,63.8112492 L180.31,63.8112492 L175.83,95.7212492 L172.2,121.511249 C171.89,123.771249 174.46,124.901249 176.28,123.301249 L207.74,95.7212492 L231.46,95.7212492 C236.132949,95.5893135 240.053124,92.1560123 240.8,87.5412492 L248.69,31.3712492 L251.95,8.1912492 C252.305323,6.1337575 251.72363,4.02505733 250.363697,2.44072534 C249.003764,0.856393343 247.007576,-0.0381553776 244.92,0.00124919529 L244.92,0.00124919529 Z" id="路径" fill="#87B940"></path>
                    <path d="M103.4,0.00124919529 C98.7277739,0.130034365 94.8087564,3.56600042 94.07,8.1812492 L90.81,31.3712492 L82.92,87.5412492 C82.5462663,89.595642 83.1174101,91.7091197 84.4750564,93.2956264 C85.8327027,94.882133 87.832531,95.77302 89.92,95.7212492 L137.37,95.7212492 C142.042226,95.592464 145.961244,92.156498 146.7,87.5412492 L150.04,63.8112492 L118.16,63.8112492 L122.64,31.9012492 L187.24,31.9012492 L187.31,31.3712492 L191.72,0.00124919529 L103.4,0.00124919529 Z" id="路径" fill="#D2EF9A"></path>
                </g>
            </g>
        </g>
    </g>
</svg>