<?xml version="1.0" encoding="UTF-8"?>
<svg width="50px" height="50px" viewBox="0 0 50 50" version="1.1" xmlns="http://www.w3.org/2000/svg" xmlns:xlink="http://www.w3.org/1999/xlink">
    <!-- Generator: Sketch 59 (86127) - https://sketch.com -->
    <title>Settings</title>
    <desc>Created with Sketch.</desc>
    <g id="页面-2" stroke="none" stroke-width="1" fill="none" fill-rule="evenodd">
        <g id="Partner" transform="translate(-45.000000, -632.000000)" fill="#595851" fill-rule="nonzero">
            <g id="Settings-2" transform="translate(45.000000, 632.000000)">
                <path d="M29.2783504,10.225268 L29.2783503,10.225268 C29.4421868,10.0803349 29.6539797,10.0013611 29.8727111,10.003642 L29.872711,10.003642 C30.3665653,10.0054916 30.7659352,10.406361 30.7659318,10.9002187 L30.7659318,25.0674699 L33.452306,27.7538441 L33.452306,10.9001948 L33.452306,10.9002168 C33.4457528,8.92141664 31.8363056,7.32260884 29.8574917,7.32914352 C28.9946653,7.33202103 28.1618474,7.64614485 27.5120613,8.2138188 L20.2521055,14.5536827 L22.1560721,16.4576492 L29.2783504,10.225268 Z M41.5651674,39.6645567 L9.32866397,7.42805331 L9.26150453,7.36089387 L9.2615045,7.36089385 C8.71812076,6.85459919 7.86718851,6.88466921 7.36089385,7.42805329 C6.85459919,7.97143703 6.88466921,8.82236929 7.42805329,9.32866394 C7.42805329,9.32866394 7.42805329,9.32866394 7.42805329,9.32866394 L13.9055674,15.8028324 L13.9055677,15.8028323 C11.6816463,16.5134549 10.1711914,18.5789624 10.168153,20.9136423 L10.168153,28.3951972 L10.1681529,28.3951954 C10.3354836,31.238546 12.6926344,33.4572202 15.5409148,33.4523041 L19.1238827,33.4523041 L27.5188041,40.7894492 L27.7303559,40.9640635 L27.7303558,40.9640634 C29.3150709,42.1491252 31.560425,41.8251419 32.745473,40.2404269 C33.2090627,39.6204957 33.4594106,38.8670998 33.4590453,38.0930018 L33.4590453,35.3495431 L39.671296,41.5651394 L39.6712959,41.5651394 C40.1961351,42.0899786 41.0470674,42.0899786 41.5719066,41.5651394 C42.0967458,41.0403002 42.0967458,40.1893679 41.5719066,39.6645287 C41.5719066,39.6645287 41.5719066,39.6645287 41.5719066,39.6645287 L41.5651674,39.6645567 Z M30.7659422,38.0930263 L30.7659422,38.244135 L30.7659422,38.2441348 C30.7379311,38.4069997 30.6659392,38.5591114 30.5577483,38.6840283 L30.5577483,38.6840283 C30.2334766,39.0557862 29.6692319,39.0942819 29.297474,38.7700105 C29.2966986,38.7693342 29.2959244,38.7686565 29.2951514,38.7679776 L20.9002301,31.4308325 L20.6819623,31.2562182 L20.6819623,31.2562181 C20.2279454,30.936362 19.6859545,30.7650848 19.130581,30.7659554 L15.2856954,30.7659554 L15.2856953,30.7659553 C13.9025258,30.6339716 12.8482455,29.4690187 12.8544992,28.0795812 L12.8544992,20.6584873 L12.8544992,20.6584879 C12.9865105,19.2753184 14.1514637,18.2210346 15.5409012,18.2272917 L16.330024,18.2272917 L30.7692983,32.6665939 L30.7659422,38.0930263 Z" id="形状"></path>
            </g>
        </g>
    </g>
</svg>