<?xml version="1.0" encoding="UTF-8"?>
<svg width="50px" height="50px" viewBox="0 0 50 50" version="1.1" xmlns="http://www.w3.org/2000/svg" xmlns:xlink="http://www.w3.org/1999/xlink">
    <!-- Generator: Sketch 59 (86127) - https://sketch.com -->
    <title>notice</title>
    <desc>Created with Sketch.</desc>
    <g id="页面-3" stroke="none" stroke-width="1" fill="none" fill-rule="evenodd">
        <g id="首页-右侧" transform="translate(-375.000000, -568.000000)" fill="#595851" fill-rule="nonzero">
            <g id="编组-7备份" transform="translate(375.000000, 568.000000)">
                <path d="M25.5,5 C26.3000016,5 27,5.66037569 27,6.41509392 L27.0002781,7.08423488 C30.5163919,7.49085172 33.8979913,9.34703749 36.1637154,12.1613044 C37.8125466,14.1225923 38.8430704,16.7032396 39.255277,19.5935594 C39.4613813,21.1419459 39.3583289,22.6903324 39.255277,24.1354947 C39.1522251,26.2000116 39.0491727,28.1612995 39.7705389,29.8128956 C40.0796951,30.5354744 40.6980074,31.154829 41.5224254,31.5677353 C42.3468435,31.9806382 43.9956747,32.9096686 43.9956747,35.1806386 C44.0987266,37.2451555 42.3468435,39 40.1827503,39 L31.9790976,39.0006441 C31.7035679,42.4034687 28.7363782,45 25,45 C21.2685828,45 18.3043129,42.3210627 18.0220141,39.001031 L10.9159797,39 C8.85493698,39 7.10305528,37.2451604 7,35.1806483 C7,33.5290377 7.92746849,32.0838754 9.37019887,31.3612966 C10.2976674,30.9483937 10.709874,30.741942 11.1220854,30.1225875 C12.1526043,28.3677478 12.0495539,26.0967826 11.8434482,23.7225739 C11.7403963,21.658057 11.534292,19.4903159 12.2556562,17.3225604 C13.4922809,13.0903024 16.686893,9.58062799 20.6028727,7.92903188 C21.7222312,7.48053373 22.8415897,7.19442284 24.0000786,7.07069922 L24,6.41509392 C24,5.56603757 24.6999984,5 25.5,5 Z M28.7783932,39.0010025 L21.2216068,39.0010025 C21.4886648,40.7267411 23.0684459,42.037037 25,42.037037 C26.9315541,42.037037 28.5113352,40.7267411 28.7783932,39.0010025 Z M25.5493988,10.0967971 L25.4463518,10.0967971 C24.2097271,10.0967971 22.9731024,10.4064793 21.8395282,10.8193807 C18.7479666,12.0580899 16.2747173,14.8451855 15.2442128,18.1484261 C14.728951,19.6968126 14.8320048,21.5548764 15.0381086,23.4129402 C15.2442128,26.0968117 15.3472647,28.9871315 13.9045344,31.5677594 C12.9770659,33.1161459 11.7404412,33.6322764 10.8129727,34.148402 C10.2977108,34.3548536 10.0916099,34.6645324 10.0916099,35.0774338 C10.0916099,35.4903367 10.503818,35.9032416 10.916028,35.9032416 L40.2858636,35.9032416 C40.6980716,35.9032416 41.0072263,35.4903387 41.0072263,35.0774338 C41.0072263,34.7677565 41.0072263,34.6645309 40.1828083,34.2516261 C38.8431332,33.5290474 37.709559,32.4967865 37.0912467,31.1548532 C36.0607277,28.883888 36.1637782,26.4064696 36.2668286,24.0322754 C36.3698805,22.5871131 36.4729329,21.3484039 36.2668286,20.1096947 C35.9576724,17.8387295 35.030204,15.7742126 33.7935793,14.2258261 C31.7325366,11.5419546 28.6409605,10.0967971 25.5493988,10.0967971 Z" id="形状结合"></path>
            </g>
        </g>
    </g>
</svg>