<?xml version="1.0" encoding="UTF-8"?>
<svg width="50px" height="50px" viewBox="0 0 50 50" version="1.1" xmlns="http://www.w3.org/2000/svg" xmlns:xlink="http://www.w3.org/1999/xlink">
    <!-- Generator: Sketch 59 (86127) - https://sketch.com -->
    <title>partner</title>
    <desc>Created with Sketch.</desc>
    <g id="页面-2" stroke="none" stroke-width="1" fill="none" fill-rule="evenodd">
        <g id="首页-左侧" transform="translate(-36.000000, -375.000000)" fill="#595851" fill-rule="nonzero">
            <g id="编组-3" transform="translate(35.000000, 350.000000)">
                <g id="编组" transform="translate(1.000000, 25.000000)">
                    <path d="M27.9505302,5.85 C34.2371171,5.85 39.3316685,10.9451883 39.3296199,17.2311165 C39.3296199,21.4822256 36.9723865,25.3051746 33.294598,27.2671372 C39.4379906,29.4039249 43.7659295,35.0492098 44.1634706,41.6045543 L44.1809954,41.9565892 L44.2055025,42.0519398 C44.211846,42.0807836 44.214771,42.1054366 44.214771,42.1348387 C44.214771,42.7568715 43.7101633,43.261667 43.0882039,43.261667 C42.4762769,43.261667 41.9779442,42.7730245 41.9620289,42.1648426 L41.9362896,42.1399692 C41.6784487,34.6058395 35.5016868,28.6122751 27.950544,28.6122751 C20.3994734,28.6122751 14.222654,34.6059231 13.9648765,42.139968 L13.9390703,42.1649063 C13.9231218,42.7730573 13.4248039,43.261667 12.812897,43.261667 C12.1910325,43.261667 11.6863922,42.7568417 11.6863922,42.1348387 C11.6863922,42.0914755 11.6922726,42.0609651 11.7068329,42.0062934 L11.7145329,41.9789256 L11.7335308,41.6252802 C12.1349894,35.0487316 16.4618894,29.4036767 22.6043399,27.2671337 L22.3241116,27.1125781 C18.8079533,25.1089489 16.5694137,21.3718692 16.5694137,17.2311165 C16.5694137,10.9449049 21.6642941,5.85 27.9505302,5.85 Z M14.9997167,11.8988852 L14.8942488,12.1716886 C14.5891333,12.960901 14.3597307,13.7336568 14.2081381,14.5059974 L14.1295125,14.610519 C12.2282613,15.587652 11.0098043,17.5181802 11.0098043,19.6727975 C11.0098043,22.7305085 13.4281068,25.2309652 16.4813596,25.3571096 L16.5968461,25.4192642 C16.8832715,25.8165824 17.2028587,26.2069486 17.5629822,26.6035396 L17.5461977,26.8210573 C17.2308982,27.075783 16.9460729,27.3328214 16.6882239,27.5980483 L16.5827616,27.6434742 C11.3296838,27.7166396 7.10333307,31.994588 7.10333307,37.2517543 C7.10333307,37.8736979 6.59855336,38.378454 5.97656714,38.378454 C5.35465432,38.378454 4.85,37.8737051 4.85,37.2517543 C4.85,32.375439 7.82573873,28.0626534 12.2622053,26.2627002 L12.0328431,26.1014695 C9.99777805,24.6174691 8.75647514,22.2527144 8.75647514,19.6728053 C8.75647514,16.0269924 11.2322533,12.8774798 14.7166296,11.9724168 L14.9997167,11.8988852 Z M27.9505302,8.10332917 C22.9099744,8.10332917 18.8227429,12.1905844 18.8227429,17.2311165 C18.8227429,22.2716486 22.9099744,26.3589039 27.9505302,26.3589039 C32.991086,26.3589039 37.0783176,22.2716486 37.0783176,17.2311165 C37.0783176,12.1906098 32.9910725,8.10332917 27.9505302,8.10332917 Z" id="形状"></path>
                </g>
            </g>
        </g>
    </g>
</svg>