<?xml version="1.0" encoding="UTF-8"?>
<svg width="50px" height="50px" viewBox="0 0 50 50" version="1.1" xmlns="http://www.w3.org/2000/svg" xmlns:xlink="http://www.w3.org/1999/xlink">
    <!-- Generator: Sketch 59 (86127) - https://sketch.com -->
    <title>private-反白@1</title>
    <desc>Created with Sketch.</desc>
    <g id="页面-2" stroke="none" stroke-width="1" fill="none" fill-rule="evenodd">
        <g id="编组-2备份" fill="#FFFFFF" fill-rule="nonzero">
            <path d="M35.3064678,16.9792466 L33.0385357,16.9792466 L33.0385357,12.0412845 L33.0385357,12.0418862 C33.0385357,7.04818801 28.9854799,3 23.985777,3 C18.9865552,3 14.9336998,7.04746729 14.9330183,12.040685 L14.9330183,16.9786471 L12.6935529,16.9786471 L12.6935526,16.9786471 C9.54909201,16.9786472 7,19.5246736 7,22.6653617 C7,22.6653617 7,22.6653617 7,22.6653617 L7,38.3132863 L7,38.3132854 C7,41.4539695 9.549088,44 12.6935526,44 C12.6935526,44 12.6935527,44 12.6935527,44 L35.3064476,44 L35.3064474,44 C38.450908,44 41,41.4539735 41,38.3132854 C41,38.3132854 41,38.3132854 41,38.3132854 L41,22.6280433 L41,22.6280347 C40.9791306,19.5021655 38.4361394,16.9791582 35.3064473,16.9792383 L35.3064678,16.9792466 Z M17.7798267,12.0412845 L17.7798267,12.0412854 C17.7798267,8.61793729 20.5583325,5.84277654 23.985789,5.84277654 C27.4132536,5.84277654 30.1917514,8.6179453 30.1917514,12.0412854 C30.1917514,12.0412854 30.1917514,12.0412854 30.1917514,12.0412854 L30.1917514,16.9792475 L17.7798267,16.9792475 L17.7798267,12.0412845 Z M38.1153005,38.3138857 L38.1153005,38.3138857 C38.1153005,39.8842277 36.8407545,41.157243 35.2685242,41.157243 L12.693593,41.157243 L12.6935929,41.157243 C11.1213626,41.157243 9.84681655,39.8842277 9.84681655,38.3138857 L9.84681655,22.628043 L9.84681655,22.6280426 C9.84681655,21.0577006 11.1213626,19.7846853 12.6935929,19.7846853 L35.3064878,19.7846853 L35.3064876,19.7846853 C36.878718,19.7846853 38.153264,21.0577006 38.153264,22.6280426 L38.1153005,38.3138857 Z M23.985789,26.0116432 L23.985789,26.0116432 C23.1996718,26.0116432 22.5624028,26.6481509 22.5624028,27.4333199 C22.5624028,27.4333199 22.5624028,27.4333199 22.5624028,27.4333199 L22.5624028,34.1815411 L22.5624028,34.1815414 C22.5624028,34.9667144 23.1996758,35.603218 23.985789,35.603218 C24.7719061,35.603218 25.4091751,34.9667104 25.4091751,34.1815414 L25.4091751,27.4333201 L25.4091751,27.4333201 C25.4091751,26.6481471 24.7719021,26.0116432 23.985789,26.0116432 C23.9857889,26.0116432 23.9857889,26.0116432 23.9857889,26.0116432 L23.985789,26.0116432 Z" id="形状"></path>
        </g>
    </g>
</svg>