<?xml version="1.0" encoding="UTF-8"?>
<svg width="50px" height="50px" viewBox="0 0 50 50" version="1.1" xmlns="http://www.w3.org/2000/svg" xmlns:xlink="http://www.w3.org/1999/xlink">
    <!-- Generator: Sketch 63.1 (92452) - https://sketch.com -->
    <title>Quit</title>
    <desc>Created with Sketch.</desc>
    <g id="定稿✅" stroke="none" stroke-width="1" fill="none" fill-rule="evenodd">
        <g id="Dark-Mode个人中心" transform="translate(-37.000000, -807.000000)" fill="#D8D8D8" fill-rule="nonzero" stroke="#D8D8D8" stroke-width="0.8">
            <g id="编组-3" transform="translate(35.000000, 349.000000)">
                <g id="Quit-2" transform="translate(2.000000, 458.000000)">
                    <g id="Quit" transform="translate(8.000000, 6.000000)">
                        <path d="M0.23925,1.0368 C0.23925,1.5957 0.69285,2.0493 1.25175,2.0493 L4.6173,2.0493 C7.18095,2.0493 9.26265,4.1796 9.26265,6.79995 L9.26265,29.7108 C9.26265,32.33115 7.1769,34.46145 4.6173,34.46145 L1.25175,34.46145 C0.69285,34.46145 0.23925,34.91505 0.23925,35.47395 C0.23925,36.03285 0.69285,36.48645 1.25175,36.48645 L4.6173,36.48645 C8.2947,36.48645 11.28765,33.4449 11.28765,29.7108 L11.28765,6.804 C11.28765,3.06585 8.2947,0.0283230889 4.6173,0.0283230889 L1.25175,0.0283230889 C0.69285,0.0243 0.23925,0.4779 0.23925,1.0368 L0.23925,1.0368 Z" id="路径" transform="translate(5.763450, 18.257387) scale(-1, 1) translate(-5.763450, -18.257387) "></path>
                        <path d="M35.0938,19.01475 C35.28415,18.8244 35.3935,18.5652 35.3935,18.2979 L35.3935,18.29385 C35.3935,18.0225 35.28415,17.76735 35.0938,17.577 L27.3178,9.89415 C26.9209,9.5013 26.27695,9.50535 25.8841,9.90225 C25.49125,10.29915 25.4953,10.9431 25.8922,11.33595 L31.8457,17.2206 L11.04085,17.2206 C10.48195,17.2206 10.02835,17.6742 10.02835,18.2331 C10.02835,18.792 10.48195,19.2456 11.04085,19.2456 L31.99555,19.2456 L25.88815,25.32465 C25.49125,25.7175 25.49125,26.36145 25.8841,26.75835 C26.27695,27.15525 26.9209,27.15525 27.3178,26.7624 L35.0938,19.01475 L35.0938,19.01475 Z" id="路径"></path>
                    </g>
                </g>
            </g>
        </g>
    </g>
</svg>