<?xml version="1.0" encoding="UTF-8"?>
<svg width="80px" height="80px" viewBox="0 0 80 80" version="1.1" xmlns="http://www.w3.org/2000/svg" xmlns:xlink="http://www.w3.org/1999/xlink">
    <!-- Generator: Sketch 63.1 (92452) - https://sketch.com -->
    <title>I received</title>
    <desc>Created with Sketch.</desc>
    <g id="定稿" stroke="none" stroke-width="1" fill="none" fill-rule="evenodd">
        <g id="选择消息" transform="translate(-55.000000, -512.000000)">
            <g id="编组-2" transform="translate(0.000000, 166.000000)">
                <g id="编组-9" transform="translate(55.000000, 346.000000)">
                    <g id="I-received">
                        <circle id="椭圆形备份-6" stroke="#F1F1F1" stroke-width="2" fill="#FFFFFF" cx="40" cy="40" r="39"></circle>
                        <g id="接收" transform="translate(23.000000, 19.000000)" fill="#F94D41" fill-rule="nonzero">
                            <path d="M33.4685761,14.2607255 C32.5407459,14.2607255 31.7885909,15.0128805 31.7885909,15.9407107 L31.7885909,31.1573307 C31.7885909,31.8571628 31.5105836,32.5283316 31.0157276,33.0231877 C30.5208716,33.5180437 29.8497028,33.7960509 29.1498706,33.7960509 L5.99949859,33.7960509 C5.29966647,33.7960509 4.62849765,33.5180437 4.1336416,33.0231877 C3.63878556,32.5283316 3.36077833,31.8571628 3.36077833,31.1573307 L3.36077833,15.9407107 C3.3608642,15.3404526 3.04067961,14.7857545 2.52085512,14.4856006 C2.00103063,14.1854468 1.36055566,14.1854468 0.840731167,14.4856006 C0.320906676,14.7857545 0.000807932735,15.3404526 0.000807932735,15.9407107 L0.000807932735,31.1573307 C0.000807932735,34.4775052 2.67941199,37.1758357 5.99949859,37.2 L29.1234834,37.2 C30.7237667,37.1976689 32.2575804,36.5597224 33.387502,35.4265017 C34.5174237,34.293281 35.1508958,32.757614 35.1485677,31.1573307 L35.1485677,15.9407107 C35.1485677,15.0128805 34.3964063,14.2607255 33.4685761,14.2607255 Z" id="路径"></path>
                            <path d="M17.5978548,24.8092439 L9.1316414,15.1097773 C8.99391924,14.9529355 8.96117493,14.7297553 9.04803446,14.5399252 C9.13489398,14.350095 9.32513678,14.2290648 9.53378653,14.2308955 L14.1055418,14.2308955 C14.3994806,14.2251275 14.6347367,13.9850264 14.6346801,13.6908596 C14.6358845,11.9989979 14.533392,10.3086546 14.3277799,8.6293476 C14.0317702,5.63480739 12.5584633,2.88074549 10.2322492,0.973545876 C10.0125284,0.830762547 9.93031567,0.548593537 10.0389289,0.3100353 C10.1475421,0.0714770627 10.4142752,-0.0516350295 10.6661426,0.0205415137 C19.587415,1.50299274 21.4711475,11.4883607 21.7886305,13.7861601 C21.8208674,14.0476605 22.0438648,14.2434662 22.3071861,14.2414844 L26.4662135,14.2414844 C26.6748632,14.2396538 26.865106,14.360684 26.9519655,14.5505141 C27.0388251,14.7403442 27.0060808,14.9635245 26.8683586,15.1203662 L18.4021452,24.8198328 C18.3000765,24.9361489 18.1522476,25.0019467 17.9975623,24.9999561 C17.8428771,24.9978737 17.6968295,24.9282069 17.5978548,24.8092439 L17.5978548,24.8092439 Z" id="形状"></path>
                        </g>
                    </g>
                </g>
            </g>
        </g>
    </g>
</svg>