<?xml version="1.0" encoding="UTF-8"?>
<svg width="50px" height="50px" viewBox="0 0 50 50" version="1.1" xmlns="http://www.w3.org/2000/svg" xmlns:xlink="http://www.w3.org/1999/xlink">
    <!-- Generator: Sketch 59 (86127) - https://sketch.com -->
    <title>received</title>
    <desc>Created with Sketch.</desc>
    <g id="页面-2" stroke="none" stroke-width="1" fill="none" fill-rule="evenodd">
        <g id="首页-右侧" transform="translate(-375.000000, -482.000000)" fill="#595851" fill-rule="nonzero">
            <g id="编组-5" transform="translate(375.000000, 482.000000)">
                <path d="M15.4321651,28.3824543 L21.2764485,33.5660795 C21.3018584,33.6092764 21.3399733,33.6677192 21.4034981,33.7236211 L21.403498,33.723621 C21.6959595,33.9741069 22.0704927,34.1079973 22.455469,34.0996879 L22.4986659,34.0996879 L22.4986659,34.0996879 C22.8793209,34.1042592 23.2483461,33.9685882 23.5353909,33.718539 L23.535391,33.718539 C23.5888729,33.6681864 23.6342944,33.6099095 23.6700636,33.5457514 L32.9396052,23.0946482 L32.9396053,23.0946481 C33.2205692,22.8512158 33.382679,22.4982811 33.3842791,22.1265299 L33.3842791,22.1265388 C33.3822826,21.7556039 33.220181,21.4036065 32.9396133,21.1609576 L32.9396134,21.1609576 C32.3294813,20.6495789 31.4370529,20.661462 30.8407533,21.1889084 L22.4402312,30.819271 L17.5030823,26.4487634 L17.5030822,26.4487634 C16.9013831,25.9568113 16.0364132,25.9568113 15.4347141,26.4487634 L15.4347142,26.4487633 C15.1518632,26.6920995 14.9886668,27.0463056 14.9874905,27.4194226 L14.9874905,27.4194243 C14.9860937,27.7911068 15.1488216,28.1444569 15.4321732,28.3850015 L15.4321651,28.3824543 Z M37.1830633,8.13074181 L37.1830633,8.13074181 C36.7126461,7.42566396 35.921639,7.0015683 35.0740393,7 L12.4083837,7 L12.4083838,7 C11.5589855,7 10.7656955,7.42416716 10.2942778,8.13074181 L6,14.6077324 L6,39.9973322 C6,41.3948783 7.14344675,42.533243 8.54099278,42.533243 L38.9947912,42.533243 C40.3923372,42.533243 41.533243,41.3897963 41.533243,39.9973322 L41.533243,14.6077324 L37.1856044,8.13074181 L37.1830633,8.13074181 Z M38.9998731,39.9947912 L8.53845169,39.9947912 L8.53845169,17.1512662 L38.9947911,17.1512662 L38.9947911,39.9998732 L38.9998731,39.9998732 L38.9998731,39.9947912 Z M8.53845169,14.6102734 L12.2584651,9.55623876 L35.3662534,9.53591082 L38.9998731,14.6102734 L8.54099268,14.6077324 L8.53845169,14.6102734 Z" id="形状"></path>
            </g>
        </g>
    </g>
</svg>