<?xml version="1.0" encoding="UTF-8"?>
<svg width="50px" height="50px" viewBox="0 0 50 50" version="1.1" xmlns="http://www.w3.org/2000/svg" xmlns:xlink="http://www.w3.org/1999/xlink">
    <!-- Generator: Sketch 59 (86127) - https://sketch.com -->
    <title>received@1</title>
    <desc>Created with Sketch.</desc>
    <g id="页面-2" stroke="none" stroke-width="1" fill="none" fill-rule="evenodd">
        <g id="首页-右侧" transform="translate(-375.000000, -482.000000)" fill="#595851" fill-rule="nonzero">
            <g id="编组-5" transform="translate(375.000000, 482.000000)">
                <path d="M12.500036,17 L12.500036,18.8571601 L10,18.8571601 C8.34402165,18.8571601 7,19.6891779 7,20.7143202 L7,20.7143202 L7,20.908 L7.80387874,20 L25.4269295,34.4442586 L42.1428802,20.0223866 L43,20.943 L43,20.7143605 C43,19.7302239 41.7613496,18.9240708 40.197154,18.8611532 L40,18.8572004 L37.499964,18.8572004 L37.499964,17 L40,17 C43.313493,17 46,18.6631298 46,20.7143202 L46,20.7143202 L46,39.28572 C46,41.3369104 43.313493,43 40,43 L40,43 L10,43 C6.68650696,43 4,41.3369507 4,39.28572 L4,39.28572 L4,20.71428 C4,18.6630493 6.68650696,17 10,17 L10,17 L12.500036,17 Z M7,22.858 L7,38.2858006 C7,39.3109429 8.34402159,40.1429607 10,40.1429607 L10,40.1429607 L40,40.1429607 C41.6559783,40.1429607 43,39.3109429 43,38.2858006 L43,38.2858006 L43,22.879 L25.473873,38 L7,22.858 Z M24.9999671,6 C25.5564664,6 26.0062444,6.37956325 26.0062444,6.8491213 L26.0062444,6.8491213 L26.0062444,24.1515454 L31.2810365,19.6996618 C31.6744893,19.3685036 32.3124881,19.3685036 32.7049098,19.6996618 C33.0983634,20.0308207 33.0983634,20.569166 32.7049098,20.9011532 L32.7049098,20.9011532 L25.7627689,26.7591893 C25.5524228,26.935787 25.2737232,27.0113532 25,26.9986207 C24.7262917,27.0113912 24.4475469,26.935787 24.2372442,26.7591893 L24.2372442,26.7591893 L17.2950902,20.9011532 C16.9016366,20.569166 16.9016366,20.0308199 17.2950902,19.6996618 C17.6875123,19.3685036 18.3255112,19.3685036 18.7179329,19.6996618 L18.7179329,19.6996618 L23.9936898,24.1515454 L23.9936897,6.8491213 C23.9936897,6.37956325 24.4444985,6 24.9999671,6 Z" id="形状结合"></path>
            </g>
        </g>
    </g>
</svg>