<?xml version="1.0" encoding="UTF-8"?>
<svg width="50px" height="50px" viewBox="0 0 50 50" version="1.1" xmlns="http://www.w3.org/2000/svg" xmlns:xlink="http://www.w3.org/1999/xlink">
    <!-- Generator: Sketch 59 (86127) - https://sketch.com -->
    <title>拒绝</title>
    <desc>Created with Sketch.</desc>
    <g id="页面-3" stroke="none" stroke-width="1" fill="none" fill-rule="evenodd">
        <g id="点击群" transform="translate(-656.000000, -219.000000)">
            <rect fill="#F6F6F6" x="0" y="0" width="750" height="1334"></rect>
            <g id="编组-2" transform="translate(656.000000, 219.000000)" fill="#E02020" fill-rule="nonzero">
                <path d="M25.0000265,3 C36.5980289,3 46.000052,12.4020231 46.000052,24.0000255 C46.000052,35.4808764 36.7870094,44.8098871 25.3508015,44.9971806 L25.0000255,45.000051 C13.4020231,45.000051 4,35.5980279 4,24.0000255 C4,12.5191747 13.2130426,3.19016392 24.6492505,3.00287045 L25.0000265,3 Z M7.49913036,24.0000255 C7.49913036,33.5556575 15.1574937,41.3226075 24.6712398,41.4978952 L25.0000272,41.5009218 C29.1452587,41.5009218 32.9538921,40.0597534 35.9522098,37.6511339 L11.3489183,13.0478429 C8.94029876,16.0461606 7.49913036,19.8547939 7.49913036,24.0000255 Z M25.0000266,6.49912925 C20.854795,6.49912925 17.0461617,7.94029766 14.047844,10.3489172 L38.6511355,34.9522081 C41.059755,31.9538904 42.5009234,28.1452571 42.5009234,24.0000255 C42.5009234,14.4443935 34.8425601,6.67744351 25.3288139,6.50215586 L25.0000266,6.49912925 Z" id="形状结合"></path>
            </g>
        </g>
    </g>
</svg>