<?xml version="1.0" encoding="UTF-8"?>
<svg width="50px" height="50px" viewBox="0 0 50 50" version="1.1" xmlns="http://www.w3.org/2000/svg" xmlns:xlink="http://www.w3.org/1999/xlink">
    <!-- Generator: Sketch 59 (86127) - https://sketch.com -->
    <title>send@1</title>
    <desc>Created with Sketch.</desc>
    <g id="页面-2" stroke="none" stroke-width="1" fill="none" fill-rule="evenodd">
        <g id="首页-右侧" transform="translate(-375.000000, -396.000000)" fill="#595851" fill-rule="nonzero">
            <g id="编组-7" transform="translate(375.000000, 396.000000)">
                <path d="M43.929123,9.82555399 C44.0350921,10.1084362 44.0218582,10.4166475 43.8919503,10.6912782 L29.0963541,42.2593425 C28.9212438,42.6305602 28.5532868,42.8990085 28.1144648,42.9756938 L27.8991983,43 C27.5416787,43.0018455 27.1980475,42.875148 26.9442081,42.6478735 L21.685,37.901 L17.4838992,42.5436926 C17.2511388,42.7972618 16.9156524,42.9574022 16.5525484,42.992638 L16.3954371,43 C16.2906926,42.9989491 16.1865833,42.9874806 16.0850555,42.9659073 L15.9349433,42.9260077 C15.3769195,42.7536162 15.0023583,42.2892018 15,41.7667936 L15,31.901167 C15.000499,31.5469561 15.1733181,31.2100388 15.4744263,30.9762555 L26.6379165,22.3438134 C27.1937308,21.8720145 28.077093,21.8877399 28.6109575,22.3789367 C29.1448221,22.8701336 29.127028,23.6507984 28.5712137,24.1225973 C28.5419548,24.1474335 28.5114843,24.1711302 28.4798888,24.1936202 L17.7908821,32.4560789 L17.7908821,38.2521495 L19.8541908,35.9747088 C19.7600324,35.5829884 19.8816156,35.1574937 20.2189404,34.852999 C20.5189709,34.5821671 20.9250438,34.4653997 21.3165126,34.5026968 C21.7841704,34.2694539 22.3847493,34.2869413 22.8425747,34.5908924 C23.3269502,34.9124695 23.5073458,35.458969 23.3374961,35.9425716 L27.4418858,39.6489167 L40.3006281,12.2211469 L8.7994331,21.6915596 L14.9597958,27.6044872 C15.4686517,28.0939967 15.4415503,28.8631836 14.8992684,29.3225183 C14.3569847,29.781853 13.5048712,29.7573892 12.9960154,29.2678814 L5.39646553,21.9829461 C5.10460605,21.7208594 4.96377022,21.3546796 5.00798101,20.9901818 L5.03330052,20.8537808 C5.14226744,20.4503895 5.47203799,20.1252341 5.90758642,19.9917288 L42.2240832,9.06430917 C42.9277942,8.84950805 43.6911662,9.19032922 43.929123,9.82555399 Z" id="形状结合"></path>
            </g>
        </g>
    </g>
</svg>