<?xml version="1.0" encoding="UTF-8"?>
<svg width="50px" height="50px" viewBox="0 0 50 50" version="1.1" xmlns="http://www.w3.org/2000/svg" xmlns:xlink="http://www.w3.org/1999/xlink">
    <!-- Generator: Sketch 59 (86127) - https://sketch.com -->
    <title>send</title>
    <desc>Created with Sketch.</desc>
    <g id="页面-2" stroke="none" stroke-width="1" fill="none" fill-rule="evenodd">
        <g id="首页-右侧" transform="translate(-375.000000, -396.000000)" fill="#595851" fill-rule="nonzero">
            <g id="编组-7" transform="translate(375.000000, 396.000000)">
                <path d="M31.144164,46.0000673 L31.144164,46.0000673 C29.8466166,46.0009893 28.6245349,45.3902641 27.8463308,44.3519859 L25.2777418,40.9277733 L20.8561429,43.9421056 L20.8561429,43.9421056 C20.1723631,44.4092459 19.3633048,44.6586895 18.5351919,44.6576885 L18.5351921,44.6576885 C17.4416039,44.6610604 16.3922469,44.226187 15.6216222,43.4502491 L15.6216223,43.4502493 C14.8461688,42.6793002 14.4113802,41.6301514 14.4141829,40.5366794 L14.4141829,32.9863444 L5.71616692,32.9863444 L5.71616698,32.9863444 C3.4404241,32.9835215 1.59626278,31.1393683 1.59346004,28.8636375 C1.59346004,27.4324715 2.31758334,26.1259754 3.53185341,25.3676947 L35.0978062,5.63534071 C35.7519091,5.22546035 36.5067704,5.00856449 37.2770067,5.00856449 C38.7098823,5.00856449 40.0180841,5.73097812 40.7763648,6.94183686 C41.3279956,7.8247873 41.5261051,8.87339955 41.331411,9.89639479 L35.1934556,42.6373352 L35.1934557,42.6373347 C34.8279475,44.5861382 33.1269572,45.998726 31.1441805,46.0000673 L31.144164,46.0000673 Z M29.8940269,42.8149326 L29.8940269,42.8149326 C30.1877142,43.2069663 30.6492005,43.4373926 31.139039,43.4365859 C31.890489,43.4365859 32.5377572,42.9020297 32.677802,42.164245 L38.8157574,9.42158291 L38.8157574,9.42158268 C38.8446339,9.27253189 38.8515384,9.12005655 38.8362514,8.96900461 L21.5665829,31.7088563 L29.8939969,42.8149043 L29.8940269,42.8149326 Z M16.9742219,40.5366792 L16.9742219,40.5366844 C16.9694049,41.3949947 17.6612782,42.0947182 18.5195846,42.0995837 C18.8380052,42.1013554 19.1492917,42.0052989 19.4113316,41.8243854 L23.7321521,38.8783678 L19.3208032,32.9846109 L16.9742219,32.9846109 L16.9742219,40.5366675 L16.9742219,40.5366792 Z M36.455556,7.80767045 L4.88960326,27.5400245 L4.8896033,27.5400244 C4.1595542,28.00031 3.94086459,28.9652686 4.40115019,29.6953177 C4.68636958,30.1476996 5.18311799,30.4228083 5.71790436,30.424562 L19.3259563,30.424562 L36.5358465,7.75986373 L36.4555781,7.80768324 L36.455556,7.80767045 Z" id="形状"></path>
            </g>
        </g>
    </g>
</svg>