<?xml version="1.0" encoding="UTF-8"?>
<svg width="80px" height="80px" viewBox="0 0 80 80" version="1.1" xmlns="http://www.w3.org/2000/svg" xmlns:xlink="http://www.w3.org/1999/xlink">
    <!-- Generator: Sketch 63.1 (92452) - https://sketch.com -->
    <title>I sent</title>
    <desc>Created with Sketch.</desc>
    <g id="定稿" stroke="none" stroke-width="1" fill="none" fill-rule="evenodd">
        <g id="选择消息" transform="translate(-55.000000, -411.000000)">
            <g id="编组-2" transform="translate(0.000000, 166.000000)">
                <g id="编组-8" transform="translate(55.000000, 245.000000)">
                    <g id="I-sent">
                        <circle id="椭圆形备份-6" stroke="#F1F1F1" stroke-width="2" fill="#FFFFFF" cx="40" cy="40" r="39"></circle>
                        <g id="发送-(2)" transform="translate(19.000000, 20.000000)" fill="#F0A41B" fill-rule="nonzero">
                            <path d="M27.7143506,38.0700136 C28.3684354,38.5013873 29.189201,38.5944541 29.9232651,38.320483 C30.6573291,38.0465118 31.2164157,37.4384494 31.4279266,36.6840136 L40.564981,4.39736956 C41.079862,2.58471324 40.033977,0.696566821 38.2242228,0.171576105 C37.4408814,-0.0535530788 36.6026944,0.0106143505 35.86275,0.352358716 L1.45002717,16.2348641 C0.637149392,16.6101755 0.0914311924,17.396453 0.0241675829,18.2892601 C-0.0430960266,19.1820673 0.378655333,20.0412334 1.126125,20.5341006 L8.30846739,25.2702283 C8.75789652,25.577065 9.33786844,25.6176779 9.82567462,25.3764717 C10.3134808,25.1352654 10.6332905,24.6497362 10.6622971,24.1063267 C10.6913037,23.5629171 10.4249981,23.0461017 9.96564128,22.7543369 L3.60435327,18.5586739 L37.1244619,3.08857878 C37.2081708,3.04960532 37.3031572,3.04224722 37.3918696,3.06786412 C37.6060699,3.13482221 37.7274108,3.36076732 37.6649266,3.57631522 L28.7369022,35.1360625 L22.3624321,30.9309837 C21.5134447,30.3705147 20.3728031,30.5856357 19.7862799,31.4168369 L16.2986821,36.3506957 L16.2986821,26.4509647 L29.5033451,15.5701114 C29.9273661,15.2306327 30.135811,14.6891826 30.0488956,14.1530061 C29.9619802,13.6168295 29.5931635,13.1689548 29.0836135,12.9808101 C28.5740636,12.7926654 28.0026854,12.8933853 27.5881793,13.2444185 L13.9729891,24.4642391 C13.5380807,24.8217309 13.285927,25.3550533 13.2856386,25.9180326 L13.2856386,39.9098533 C13.2861615,40.7302232 13.8177117,41.4558619 14.5997287,41.703766 C15.3817457,41.9516702 16.2342701,41.6647914 16.7073261,40.9945489 L21.6167038,34.0476006 L27.7162337,38.0718967 L27.7143506,38.0700136 Z" id="路径"></path>
                        </g>
                    </g>
                </g>
            </g>
        </g>
    </g>
</svg>