<?xml version="1.0" encoding="UTF-8"?>
<svg width="50px" height="50px" viewBox="0 0 50 50" version="1.1" xmlns="http://www.w3.org/2000/svg" xmlns:xlink="http://www.w3.org/1999/xlink">
    <!-- Generator: Sketch 63.1 (92452) - https://sketch.com -->
    <title>Settings</title>
    <desc>Created with Sketch.</desc>
    <g id="定稿✅" stroke="none" stroke-width="1" fill="none" fill-rule="evenodd">
        <g id="Dark-Mode个人中心" transform="translate(-36.000000, -369.000000)" fill="#D8D8D8" fill-rule="nonzero">
            <g id="编组-3" transform="translate(35.000000, 349.000000)">
                <g id="Settings-2" transform="translate(1.000000, 20.000000)">
                    <g id="Settings" transform="translate(5.000000, 3.000000)">
                        <path d="M39.9119086,25.3667082 L36.2850808,22.4989839 C36.3272532,21.9929149 36.3483395,21.5290184 36.3483395,21.086208 C36.3483395,20.6433976 36.3272532,20.1795011 36.2850808,19.6734321 L39.9329948,16.7846216 C40.7764431,16.1098629 40.9873052,14.9290353 40.4390638,14.0012421 L36.4959429,7.1060521 C35.9687877,6.17825894 34.8090463,5.75653478 33.7969083,6.15717274 L29.5164081,7.88624179 C28.7573046,7.33800038 27.9560287,6.87410381 27.1125804,6.47346586 L26.4589079,1.8555863 C26.2902182,0.780189696 25.3835113,0.021086208 24.3081147,0 L16.4429591,0 C15.3675625,0 14.4608556,0.780189696 14.2921659,1.87667251 L13.6384934,6.47346586 C12.7950451,6.87410381 11.9937692,7.33800038 11.2346657,7.88624179 L6.9330793,6.13608653 C5.96311373,5.75653478 4.78228608,6.17825894 4.25513088,7.08496589 L0.312009984,13.9801559 C-0.236231424,14.9290353 -0.004283136,16.1098629 0.839165184,16.7846216 L4.48707917,19.6734321 C4.44490675,20.1795011 4.42382054,20.6433976 4.42382054,21.086208 C4.42382054,21.5290184 4.44490675,21.9929149 4.48707917,22.4989839 L0.839165184,25.3877944 C0.016803072,26.0625531 -0.215145216,27.2433807 0.333096192,28.1711739 L4.27621709,35.0663639 C4.8244585,36.0152433 5.96311373,36.4158812 6.97525171,36.0152433 L11.2557519,34.265088 C12.0148554,34.8133294 12.8161313,35.277226 13.6595796,35.6778639 L14.3132521,40.3168297 C14.4819418,41.3711401 15.3886487,42.172416 16.4640453,42.172416 L24.3502871,42.172416 C25.4256837,42.172416 26.3323907,41.3711401 26.5010803,40.2957435 L27.1547528,35.6778639 C27.9982011,35.277226 28.799477,34.8133294 29.5585805,34.265088 L33.8601669,36.0152433 C34.1132014,36.1206743 34.3662359,36.1628467 34.6403566,36.1628467 C35.4205463,36.1628467 36.1374774,35.7411226 36.5170291,35.0663639 L40.4390638,28.1711739 C40.9873052,27.2433807 40.7553569,26.0625531 39.9119086,25.3667082 L39.9119086,25.3667082 Z M6.49026893,23.9750185 C6.80656205,23.721984 6.99633792,23.3002598 6.9330793,22.8785357 C6.84873446,22.2881219 6.80656205,21.6766218 6.80656205,21.086208 C6.80656205,20.4957942 6.84873446,19.8842941 6.9330793,19.2938803 C6.99633792,18.8721562 6.82764826,18.450432 6.49026893,18.1973975 L2.44171699,15.1188111 L6.13180339,8.41339699 L10.960545,10.3744143 C11.361183,10.543104 11.8039933,10.4798454 12.1413727,10.2057247 C13.0691658,9.46770739 14.10239,8.87729357 15.1988728,8.41339699 C15.5784246,8.24470733 15.8525453,7.88624179 15.9158039,7.46451763 L16.5273039,2.3827415 L24.1183388,2.27731046 L24.8352699,7.46451763 C24.8985285,7.88624179 25.1726492,8.24470733 25.552201,8.39231078 C26.6486838,8.85620736 27.681908,9.46770739 28.6097011,10.1846385 C28.9470804,10.437673 29.3898908,10.5009316 29.7905288,10.3533281 L34.4505807,8.35013837 L38.3726154,14.9712077 L34.2818911,18.2184837 C33.9445117,18.4715182 33.7758221,18.8932424 33.8390807,19.3149665 C33.9234255,19.9053804 33.965598,20.5168804 33.965598,21.1072942 C33.965598,21.697708 33.9234255,22.3092081 33.8390807,22.8996219 C33.7969083,23.321346 33.965598,23.721984 34.2818911,23.9961047 L38.330443,27.0957773 L34.6403566,33.8011914 L29.811615,31.8401741 C29.410977,31.6714844 28.9681667,31.734743 28.6307873,32.0088637 C27.7029942,32.746881 26.66977,33.3372948 25.5732872,33.8011914 C25.1937354,33.9698811 24.8985285,34.3283466 24.8563561,34.7500708 L24.139425,39.8318469 L16.6538212,39.937278 L15.9158039,34.7500708 C15.8525453,34.3283466 15.5784246,33.9698811 15.1988728,33.8011914 C14.10239,33.3372948 13.0691658,32.746881 12.1413727,32.0088637 C11.9305106,31.8401741 11.6774761,31.7558292 11.4033554,31.7558292 C11.2557519,31.7558292 11.0870623,31.7769155 10.960545,31.8401741 L6.30049306,33.8433638 L2.39954458,27.2012083 L6.49026893,23.9750185 Z" id="形状"></path>
                        <path d="M20.38608,29.499605 C24.9828733,29.499605 28.7362184,25.7251738 28.7362184,21.086208 C28.7362184,16.4472422 24.9828733,12.6517248 20.38608,12.6517248 C15.7892867,12.672811 12.0359416,16.4472422 12.0359416,21.086208 C12.0359416,25.7251738 15.7892867,29.499605 20.38608,29.499605 Z M14.4186831,21.086208 C14.4186831,17.7545871 17.0966316,15.0555525 20.38608,15.0555525 C23.6755284,15.0555525 26.3534769,17.7545871 26.3534769,21.086208 C26.3534769,24.4178289 23.6755284,27.1168635 20.38608,27.1168635 L20.3017352,27.1168635 C17.0544591,27.0746911 14.4186831,24.3756564 14.4186831,21.086208 Z" id="形状"></path>
                    </g>
                </g>
            </g>
        </g>
    </g>
</svg>