<?xml version="1.0" encoding="UTF-8"?>
<svg width="43px" height="38px" viewBox="0 0 43 38" version="1.1" xmlns="http://www.w3.org/2000/svg" xmlns:xlink="http://www.w3.org/1999/xlink">
    <!-- Generator: Sketch 63.1 (92452) - https://sketch.com -->
    <title>形状#</title>
    <desc>Created with Sketch.</desc>
    <g id="定稿" stroke="none" stroke-width="1" fill="none" fill-rule="evenodd">
        <g id="首页-默认-定稿" transform="translate(-115.000000, -639.000000)" fill="#666666" fill-rule="nonzero" stroke="#666666" stroke-width="0.6">
            <g id="编组-11" transform="translate(0.000000, 166.000000)">
                <g id="编组-10" transform="translate(0.000000, 436.000000)">
                    <g id="编组-7" transform="translate(54.000000, 37.000000)">
                        <g id="形状#-2" transform="translate(62.000000, 1.000000)">
                            <path d="M31.8037049,0.050229506 C32.5735448,0.256872496 33.0354683,1.04301216 32.8492784,1.81718466 L32.8404612,1.85180574 L30.7976129,9.53788091 L39.5357073,9.53788091 C40.3444409,9.53788091 41,10.196814 41,11.0095966 C41,11.8107568 40.363006,12.4624012 39.5702903,12.4808199 L39.5357073,12.4812631 L30.0153309,12.4812138 L27.2472676,22.8960993 L36.6071219,22.8960993 C37.4158554,22.8960993 38.0714146,23.5550324 38.0714146,24.367815 C38.0714146,25.1689752 37.4344205,25.8206197 36.6417049,25.8390875 L36.6071219,25.8394815 L26.4649367,25.8394322 L24.0548029,34.9077895 C23.846129,35.6929934 23.0435185,36.1595653 22.2622162,35.9497705 C21.4923763,35.7431275 21.0304528,34.9569878 21.2166428,34.1828153 L21.22546,34.1481943 L23.4337288,25.8394322 L13.0611207,25.8394322 L10.6509379,34.9077895 C10.442264,35.6929934 9.63965352,36.1595653 8.85835125,35.9497705 C8.08856033,35.7431275 7.62658781,34.9569878 7.81282676,34.1828153 L7.82159498,34.1481943 L10.0298638,25.8394322 L1.46429271,25.8394322 C0.65555914,25.8394322 0,25.1805977 0,24.367815 C0,23.5666056 0.636994026,22.9150104 1.42970968,22.8965426 L1.46429271,22.8961486 L10.8121458,22.8960993 L13.5802581,12.4812138 L4.39287814,12.4812138 C3.58414456,12.4812138 2.92858542,11.82233 2.92858542,11.0095966 C2.92858542,10.2083872 3.56557945,9.556792 4.3582951,9.53832414 L4.39287814,9.53793016 L14.36254,9.53788091 L16.6073023,1.09221053 C16.8159761,0.307006567 17.6185866,-0.159565331 18.3998889,0.050229506 C19.1696798,0.256872496 19.6316523,1.04301216 19.4454134,1.81718466 L19.4366452,1.85180574 L17.3937969,9.53788091 L27.766405,9.53788091 L30.0111183,1.09221053 C30.2198411,0.307006567 31.0224026,-0.159565331 31.8037049,0.050229506 L31.8037049,0.050229506 Z M24.4441075,21.9880911 L27.009675,12.4411127 L17.3960382,12.4411127 L14.8305161,21.9880911 L24.4441075,21.9880911 Z" id="形状#"></path>
                        </g>
                    </g>
                </g>
            </g>
        </g>
    </g>
</svg>