<?xml version="1.0" encoding="UTF-8"?>
<svg width="20px" height="15px" viewBox="0 0 20 15" version="1.1" xmlns="http://www.w3.org/2000/svg" xmlns:xlink="http://www.w3.org/1999/xlink">
    <!-- Generator: Sketch 63.1 (92452) - https://sketch.com -->
    <title>Unread</title>
    <desc>Created with Sketch.</desc>
    <g id="定稿" stroke="none" stroke-width="1" fill="none" fill-rule="evenodd">
        <g id="选择消息" transform="translate(-29.000000, -165.000000)" fill="#7ED321" fill-rule="nonzero" stroke="#7ED321" stroke-width="0.2">
            <g id="Unread" transform="translate(30.000000, 166.000000)">
                <path d="M17.0209171,0.171807157 C16.8269057,0.0775913531 16.569469,0.0125436094 16.2239969,0.0125436094 L2.17133693,0.0125436094 C1.82588594,0.0125436094 1.56847039,0.0776124731 1.37443783,0.171807178 C0.576398976,0.495927259 0.0094347,1.2872007 0.0094347,2.21361387 L0.0094347,11.0190556 C0.0094347,11.9392848 0.567977458,12.7271813 1.3575948,13.0552482 C1.54995994,13.1516801 1.81073143,13.220147 2.17133693,13.220147 L16.2239969,13.220147 C16.5846235,13.220147 16.8453739,13.1517012 17.037739,13.0552482 C17.8268076,12.7271813 18.3859414,11.9392848 18.3859414,11.0190556 L18.3859414,2.21359275 C18.3859414,1.28720068 17.8189348,0.495927259 17.0209171,0.171807157 Z M17.3046947,2.21359275 L17.3046947,11.0190345 C17.3046947,11.1614557 17.2760742,11.2971864 17.227297,11.4222376 C17.1577509,11.3397988 17.0786646,11.2556926 16.9811101,11.1687372 L12.486237,7.16363695 L17.1274841,2.14238215 C17.184113,2.08126007 17.2289644,2.0223541 17.2738369,1.96349033 C17.2929384,2.04369194 17.3046947,2.12724938 17.3046947,2.21359275 Z M16.2239969,1.11335309 C16.3232821,1.11335309 16.4174807,1.13131406 16.5088932,1.15710521 C16.4825522,1.21037598 16.4332051,1.28829818 16.3406739,1.38757936 L9.91550084,8.33903394 C9.53079167,8.75513263 8.86456325,8.75513263 8.47983296,8.33903394 L2.0547021,1.38757934 C1.96217097,1.28829818 1.91282384,1.21037596 1.88646175,1.15710519 C1.97787424,1.13129294 2.0720939,1.11335309 2.17135803,1.11335309 L16.2239969,1.11335309 Z M1.16805794,11.4222165 C1.11925958,11.2971653 1.09066019,11.1614557 1.09066019,11.0190134 L1.09066019,2.21359275 C1.09066019,2.12724936 1.10243764,2.04367084 1.1209481,1.96349033 C1.16634831,2.0223752 1.21067207,2.08126009 1.26787083,2.14238215 L5.90909676,7.16363695 L1.41424478,11.1687372 C1.31666919,11.2556926 1.23760403,11.3397777 1.16805794,11.4222165 Z M2.17133693,12.1192741 C2.11861275,12.1192741 2.06759821,12.1114439 2.01711133,12.1035926 C2.04625948,12.0721873 2.08104307,12.0368564 2.12589451,11.9964601 L6.65048563,7.96558985 L7.6930228,9.0933091 C8.09176785,9.52456168 8.62618581,9.76231728 9.1976669,9.76231728 C9.76912689,9.76231728 10.303566,9.52454056 10.702311,9.0933091 L11.7448693,7.96558985 L16.2688905,11.9964601 C16.3142907,12.0368564 16.3490743,12.0721873 16.3782436,12.1035926 C16.3272291,12.1114439 16.2767633,12.1192741 16.2239969,12.1192741 L2.17133693,12.1192741 Z" id="形状"></path>
            </g>
        </g>
    </g>
</svg>