<?xml version="1.0" encoding="UTF-8"?>
<svg width="35px" height="35px" viewBox="0 0 35 35" version="1.1" xmlns="http://www.w3.org/2000/svg" xmlns:xlink="http://www.w3.org/1999/xlink">
    <!-- Generator: Sketch 59 (86127) - https://sketch.com -->
    <title>不震动@1</title>
    <desc>Created with Sketch.</desc>
    <g id="页面-3" stroke="none" stroke-width="1" fill="none" fill-rule="evenodd">
        <g id="首页" transform="translate(-486.000000, -578.000000)" fill="#9C9C9C" fill-rule="nonzero">
            <g id="编组-8备份-3" transform="translate(486.000000, 578.000000)">
                <g id="震动" transform="translate(1.750000, 1.750000)">
                    <path d="M23.0222222,1.13686838e-13 L9.35277778,1.13686838e-13 C8.51342594,1.13686838e-13 7.79398149,0.807692307 7.79398149,1.81730769 L7.79398149,30.5576923 C7.79398149,31.5673077 8.51342594,32.375 9.35277778,32.375 L23.0222222,32.375 C23.8615741,32.375 24.5810185,31.5673077 24.5810185,30.5576923 L24.5810185,1.81730769 C24.5810185,0.807692307 23.8615741,1.13686838e-13 23.0222222,1.13686838e-13 Z M22.104665,28.1346154 C22.104665,28.8076923 21.6845777,29.3461538 21.1594685,29.3461538 L11.0773724,29.3461538 C10.5522633,29.3461538 10.1321759,28.8076923 10.1321759,28.1346154 L10.1321759,4.17307691 C10.1321759,3.49999997 10.5522633,2.96153845 11.0773724,2.96153845 L21.2119794,2.96153845 C21.7370886,2.96153845 22.1571759,3.49999997 22.1571759,4.17307691 L22.1571759,28.1346154 L22.104665,28.1346154 Z M28.1782407,8.07692307 L27.5787037,8.07692307 C27.2189815,8.07692307 26.9791667,8.34615386 26.9791667,8.75000001 L26.9791667,24.9038462 C26.9791667,25.3076923 27.2189815,25.5769231 27.5787037,25.5769231 L28.1782407,25.5769231 C28.537963,25.5769231 28.7777778,25.3076923 28.7777778,24.9038462 L28.7777778,8.75000001 C28.7777778,8.34615386 28.537963,8.07692307 28.1782407,8.07692307 Z M31.775463,10.0961538 L31.1759259,10.0961538 C30.8162037,10.0961538 30.5763889,10.3653846 30.5763889,10.7692308 L30.5763889,22.8846154 C30.5763889,23.2884615 30.8162037,23.5576923 31.1759259,23.5576923 L31.775463,23.5576923 C32.1351852,23.5576923 32.375,23.2884615 32.375,22.8846154 L32.375,10.7692308 C32.375,10.3653846 32.1351852,10.0961538 31.775463,10.0961538 Z M4.79629628,8.07692307 L4.19675927,8.07692307 C3.83703705,8.07692307 3.59722222,8.34615386 3.59722222,8.75000001 L3.59722222,24.9038462 C3.59722222,25.3076923 3.83703705,25.5769231 4.19675927,25.5769231 L4.79629628,25.5769231 C5.15601851,25.5769231 5.39583333,25.3076923 5.39583333,24.9038462 L5.39583333,8.75000001 C5.39583333,8.34615386 5.15601851,8.07692307 4.79629628,8.07692307 Z M1.19907406,10.0961538 L0.599537049,10.0961538 C0.239814827,10.0961538 -1.13686838e-13,10.3653846 -1.13686838e-13,10.7692308 L-1.13686838e-13,22.8846154 C-1.13686838e-13,23.2884615 0.239814827,23.5576923 0.599537049,23.5576923 L1.19907406,23.5576923 C1.55879628,23.5576923 1.79861111,23.2884615 1.79861111,22.8846154 L1.79861111,10.7692308 C1.79861111,10.3653846 1.55879628,10.0961538 1.19907406,10.0961538 L1.19907406,10.0961538 Z" id="形状"></path>
                </g>
            </g>
        </g>
    </g>
</svg>