<?xml version="1.0" encoding="UTF-8"?>
<svg width="50px" height="50px" viewBox="0 0 50 50" version="1.1" xmlns="http://www.w3.org/2000/svg" xmlns:xlink="http://www.w3.org/1999/xlink">
    <!-- Generator: Sketch 63.1 (92452) - https://sketch.com -->
    <title>中</title>
    <desc>Created with Sketch.</desc>
    <g id="定稿" stroke="none" stroke-width="1" fill="none" fill-rule="evenodd">
        <g id="个人中心" transform="translate(-35.000000, -544.000000)" fill="#666666" fill-rule="nonzero">
            <g id="中-2" transform="translate(35.000000, 544.000000)">
                <g id="中">
                    <path d="M40.8125,0.8 L9.1875,0.8 C4.5615708,0.8 0.8,4.5615708 0.8,9.1875 L0.8,40.8125 C0.8,45.4384292 4.5615708,49.2 9.1875,49.2 L40.8125,49.2 C45.4384292,49.2 49.2,45.4384292 49.2,40.8125 L49.2,9.1875 C49.2,4.5615708 45.4384292,0.8 40.8125,0.8 Z M9.1875,3.2 L40.8125,3.2 C44.1129458,3.2 46.8,5.8870542 46.8,9.1875 L46.8,40.8125 C46.8,44.1129458 44.1129458,46.8 40.8125,46.8 L9.1875,46.8 C5.8870542,46.8 3.2,44.1129458 3.2,40.8125 L3.2,9.1875 C3.2,5.8870542 5.8870542,3.2 9.1875,3.2 Z" id="路径"></path>
                    <path d="M26.372,38.08 L26.372,28.7 L33.68,28.7 L33.68,30.296 L36.34,30.296 L36.34,16.772 L26.372,16.772 L26.372,11.928 L23.628,11.928 L23.628,16.772 L13.688,16.772 L13.688,30.296 L16.348,30.296 L16.348,28.7 L23.628,28.7 L23.628,38.08 L26.372,38.08 Z M23.628,26.096 L16.348,26.096 L16.348,19.376 L23.628,19.376 L23.628,26.096 Z M33.68,26.096 L26.372,26.096 L26.372,19.376 L33.68,19.376 L33.68,26.096 Z"></path>
                </g>
            </g>
        </g>
    </g>
</svg>